M48
;Layer_Color=9474304
;FILE_FORMAT=2:5
INCH,TZ
;TYPE=PLATED
T1F00S00C0.01575
T2F00S00C0.02756
T3F00S00C0.03000
T4F00S00C0.03543
T5F00S00C0.03937
T6F00S00C0.03976
T7F00S00C0.09843
T8F00S00C0.11811
%
T01
X33055Y46079
X69882Y56102
X78527Y27181
X146047Y27575
X164803Y53898
X191535Y51575
X210236Y38583
X214370Y67126
X234055Y66732
X239961Y81102
X232677Y92323
X242323Y102362
X247441Y101969
X250984Y107283
X247441Y116732
X246063Y130512
X235094Y132461
X229724Y127559
X228150Y141929
X243504Y140870
X241142Y147402
X239764Y157087
X239567Y162461
X239764Y167724
X240158Y177362
X245866Y176378
X251378Y167913
Y156496
X269134Y156850
X274843Y156890
X274843Y167913
X269134Y167874
X266929Y203346
X273228
X274213Y212008
X239567Y184055
X231102Y157087
X202559Y154134
X200000Y158858
X196850Y168898
X179921Y170079
X180118Y175394
X180512Y180512
X181693Y186811
X176378Y185039
X181102Y164961
Y160433
X181496Y155315
X180118Y149803
Y143504
X188583Y134449
X194528Y132461
X189764Y112205
X181693Y117717
X189961Y97638
X205118
X201181Y78937
X189921Y78701
X194528Y66693
X176614Y59606
X263386Y66929
X263583Y87795
X273031Y99803
X263189Y126575
X306913Y142535
X204921Y187598
X202559Y208858
X171653Y189370
X164764Y196260
X155512Y204724
X141669Y204685
X134646Y210433
X126772Y210827
X104134
X105512Y196653
X100787
X105315Y187795
X101378Y177953
X101772Y165945
Y158858
X97035Y151365
X98268Y143465
X99843Y137756
X99410Y131693
X100000Y123819
X110039Y119488
X115591Y115299
Y107819
X115197Y94827
X115591Y87347
X115787Y74173
X115787Y66693
X115787Y59606
X86063Y58819
X86417Y69685
X77008Y71811
X58110
X57520Y80866
X57913Y89331
X59291Y99158
Y106638
X47496
X59488Y118842
X59291Y126323
X59095Y138134
X58898Y145614
X58701Y151142
X58898Y156638
Y164118
Y176717
X58701Y184197
X50000Y181890
X48031Y192520
X48622Y200984
X50000Y211024
X38780Y207087
X31791Y207579
X28543Y202756
X23228Y202559
X28543Y187599
X23425Y177559
X32677Y162520
X41929Y154724
X47441Y155315
X53347Y154528
X47441Y142717
X41929Y142323
X36220Y131890
X23031Y126181
X20669Y114173
X24213Y109646
X35433Y76181
X39961Y76378
X44291Y71260
X90496Y81835
X100827Y94449
X101575Y108268
X84882Y111969
X84976Y131063
Y150157
Y168661
X78150Y178150
X84976Y188937
X72244Y190551
X58898Y196795
X58701Y204276
X89410Y204307
X114803Y199945
Y192465
X119685Y185630
X114803Y178291
X114606Y170811
X114173Y165945
X115000Y157032
Y149551
X114409Y145039
X115394Y136559
X115591Y129079
X128150Y122047
X133858Y130709
X141669Y141299
X127795Y143465
X133465Y151969
X129134Y164961
X133661Y173425
X141669Y183031
Y161575
X155709Y155512
X155512Y172244
X155709Y112598
X141669Y119843
Y99567
Y78701
X159646Y93307
X171653Y101378
X43543Y170236
X18268Y155551
X2953Y158661
X12795Y172520
X13189Y182520
X13583Y197441
X12598Y132087
X9646Y216339
X6398Y279232
X48425Y287362
X60079Y246220
X70472Y233465
X70473Y228543
X83858Y228543
X83858Y233465
X99394Y239583
X114764Y239764
X122677Y241496
X126575Y237992
X134252Y238386
X143701Y245472
X152953Y242717
X164961Y236024
X169685Y245866
X167520Y249803
X166142Y253740
X163347Y279291
X140157Y224016
X140551Y219488
X148819Y213583
X48031Y224016
X42717Y221063
X92898Y302378
X197638Y253740
X207717Y251142
X207677Y245866
X202598
X209842Y255118
X197874Y225945
X196850Y221457
X176811Y221417
X228543Y218701
X287008Y217323
X293110Y245866
X292362Y266102
X265866Y279291
T02
X40354Y303740
X48228
X56102
X63976
T03
X254016Y228228
T04
X210669Y102461
X220669
Y112461
X210669
Y122461
X220669
Y132461
X210669
Y142461
X220669
Y152461
X210669
Y162461
X220669
Y172461
X210669
Y182461
X220669
Y192461
X210669
Y202461
X220669
Y212461
X210669
X-4724Y202520
Y192520
Y182520
Y172520
Y162520
Y152520
Y142520
Y132520
Y122520
Y112520
Y102520
X-14724
Y112520
Y122520
Y132520
Y142520
Y152520
Y162520
Y172520
Y182520
Y192520
Y202520
Y212520
X-4724
Y222520
X-14724
Y232520
X-4724
Y242520
X-14724
X37126Y296063
X47126
X57126
X67126
X135394Y290354
X145394
X155394
X165394
X171653Y266299
X181653
X191654
X201654
X211653
X221654
X231653
X241653
X251654
X261653
X271654
X281653
X275866Y300157
X265866
X251732
X241732
X231732
X217598Y299764
X207598
X193189
X183189
X210669Y222461
X220669
T05
X241968Y45669
X306929
Y193701
Y203051
X241968
Y193701
X66181Y263937
X56339
X48465
X38622
T06
X264016Y228228
X274016
X284016
X294016
Y238228
X284016
X274016
X264016
X254016
T07
X26535Y274567
X78268
T08
X22677Y13386
X215591
X300630Y15748
X22677Y241752
X215591
X300630Y298752
M30
