G04 Layer_Color=65535*
%FSLAX25Y25*%
%MOIN*%
G70*
G01*
G75*
%ADD32C,0.00984*%
%ADD33C,0.00787*%
%ADD34C,0.01000*%
%ADD35C,0.01181*%
D32*
X97539Y282441D02*
G03*
X97539Y282441I-492J0D01*
G01*
D33*
X32126Y291063D02*
Y301063D01*
Y291063D02*
X72126D01*
Y301063D01*
X124921Y261299D02*
Y271299D01*
X164921D01*
Y261299D02*
Y271299D01*
X32677Y292717D02*
Y310433D01*
X71653D01*
Y292717D02*
Y310433D01*
X123425Y288347D02*
Y299370D01*
X97047Y288347D02*
Y299370D01*
X123425D01*
X97047Y288347D02*
X123425D01*
X106350Y272039D02*
X106744D01*
X106350Y269284D02*
X106744D01*
X12472Y289516D02*
Y289910D01*
X9717Y289516D02*
Y289910D01*
X-19724Y97520D02*
Y247520D01*
X276Y97520D02*
Y247520D01*
X-19724Y97520D02*
X276D01*
X-19724Y247520D02*
X276D01*
X286653Y261299D02*
Y271299D01*
X166654Y261299D02*
X286653D01*
X166654D02*
Y271299D01*
X174153D01*
X286653D01*
D34*
X45276Y309134D02*
X60827D01*
X234232Y305157D02*
Y311968D01*
X229232Y305157D02*
X234232D01*
X229232D02*
Y311968D01*
X239232Y305157D02*
Y311968D01*
Y305157D02*
X244232D01*
Y311968D01*
X249232Y305157D02*
Y311968D01*
X254232Y305157D02*
Y311968D01*
X249232Y305157D02*
X254232D01*
X77992Y285984D02*
Y313740D01*
X54567D02*
X77992D01*
X49547D02*
X54567D01*
X26516D02*
X49547D01*
X26516Y286378D02*
Y313740D01*
X78189Y257835D02*
Y263642D01*
X26516Y257835D02*
X78189D01*
X26516D02*
Y262854D01*
X234646Y215512D02*
X313386D01*
Y250847D01*
X234646Y250945D02*
X313386D01*
X234646Y215512D02*
Y250945D01*
X269193Y212362D02*
X280217D01*
X24803Y308661D02*
Y302663D01*
X21804D01*
X20804Y303663D01*
Y305662D01*
X21804Y306662D01*
X24803D01*
X18805Y303663D02*
X17805Y302663D01*
X15806D01*
X14806Y303663D01*
Y304663D01*
X15806Y305662D01*
X14806Y306662D01*
Y307662D01*
X15806Y308661D01*
X17805D01*
X18805Y307662D01*
Y306662D01*
X17805Y305662D01*
X18805Y304663D01*
Y303663D01*
X17805Y305662D02*
X15806D01*
X56890Y289764D02*
Y283766D01*
X53891D01*
X52891Y284765D01*
Y286765D01*
X53891Y287764D01*
X56890D01*
X50892Y283766D02*
X46893D01*
Y284765D01*
X50892Y288764D01*
Y289764D01*
D35*
X257480Y287165D02*
Y295158D01*
X225984Y287165D02*
Y295158D01*
X257480Y305157D02*
Y311968D01*
X225984Y305157D02*
Y311968D01*
Y287165D02*
X257480D01*
Y295158D02*
Y305157D01*
X225984Y311968D02*
X257480D01*
X225984Y295158D02*
Y305157D01*
X131870Y305764D02*
Y311764D01*
X150370Y287264D02*
Y311764D01*
X128370Y287264D02*
X150370D01*
X128370Y311764D02*
X150370D01*
X128370Y287264D02*
Y311764D01*
X131870Y305764D02*
X136870D01*
Y311764D01*
X141870Y305764D02*
Y311764D01*
Y305764D02*
Y311764D01*
Y305764D02*
X146870D01*
Y311764D01*
X156280Y305764D02*
Y311764D01*
X174779Y287264D02*
Y311764D01*
X152779Y287264D02*
X174779D01*
X152779Y311764D02*
X174779D01*
X152779Y287264D02*
Y311764D01*
X156280Y305764D02*
X161279D01*
Y311764D01*
X166279Y305764D02*
Y311764D01*
Y305764D02*
Y311764D01*
Y305764D02*
X171280D01*
Y311764D01*
X180689Y305764D02*
Y311764D01*
X199189Y287264D02*
Y311764D01*
X177189Y287264D02*
X199189D01*
X177189Y311764D02*
X199189D01*
X177189Y287264D02*
Y311764D01*
X180689Y305764D02*
X185689D01*
Y311764D01*
X190689Y305764D02*
Y311764D01*
Y305764D02*
Y311764D01*
Y305764D02*
X195689D01*
Y311764D01*
X205098Y305764D02*
Y311764D01*
X223598Y287264D02*
Y311764D01*
X201598Y287264D02*
X223598D01*
X201598Y311764D02*
X223598D01*
X201598Y287264D02*
Y311764D01*
X205098Y305764D02*
X210098D01*
Y311764D01*
X215098Y305764D02*
Y311764D01*
Y305764D02*
Y311764D01*
Y305764D02*
X220098D01*
Y311764D01*
X263366Y306157D02*
Y312158D01*
X281866Y287657D02*
Y312158D01*
X259866Y287657D02*
X281866D01*
X259866Y312158D02*
X281866D01*
X259866Y287657D02*
Y312158D01*
X263366Y306157D02*
X268366D01*
Y312158D01*
X273366Y306157D02*
Y312158D01*
Y306157D02*
Y312158D01*
Y306157D02*
X278366D01*
Y312158D01*
X7913Y2886D02*
Y22252D01*
Y2886D02*
X222213D01*
X7913Y255630D02*
X215591D01*
X230354Y6386D02*
Y241752D01*
X222213Y2886D02*
X230354D01*
Y6386D01*
Y241752D02*
Y255630D01*
X215591D02*
X230354D01*
X7913Y22252D02*
Y255630D01*
X205669Y97461D02*
X225669D01*
X205669Y227461D02*
X225669D01*
Y97461D02*
Y227461D01*
X205669Y97461D02*
Y227461D01*
X232520Y37795D02*
X315098D01*
X232520D02*
Y210728D01*
X315098D01*
Y37795D02*
Y210728D01*
X265591Y147343D02*
X288327D01*
X276909Y65354D02*
Y158711D01*
X276959D01*
X288327Y147343D01*
X265591D02*
X276959Y158711D01*
X168808Y56156D02*
Y62061D01*
X168526Y56156D02*
Y62061D01*
X164872Y56156D02*
X168526Y59811D01*
X167121Y58687D02*
X164872Y62061D01*
X167402Y58687D02*
X165153Y62061D01*
X169651Y56156D02*
X167683D01*
X165996D02*
X164309D01*
X169651Y62061D02*
X167683D01*
X165996D02*
X164309D01*
X161891Y58124D02*
X162735Y58406D01*
X163297Y58968D01*
X163578Y59811D01*
Y60374D01*
X163297Y61217D01*
X162735Y61779D01*
X161891Y62061D01*
X161329D01*
X160485Y61779D01*
X159923Y61217D01*
X159642Y60374D01*
Y59811D01*
X159923Y58968D01*
X160485Y58406D01*
X161329Y58124D01*
X161891D01*
X162454Y58406D01*
X163016Y58968D01*
X163297Y59811D01*
Y60374D01*
X163016Y61217D01*
X162454Y61779D01*
X161891Y62061D01*
X161329D02*
X160767Y61779D01*
X160204Y61217D01*
X159923Y60374D01*
Y59811D01*
X160204Y58968D01*
X160767Y58406D01*
X161329Y58124D01*
X157927D02*
Y62061D01*
X157646Y58124D02*
Y62061D01*
Y59811D02*
X157365Y58968D01*
X156802Y58406D01*
X156240Y58124D01*
X155397D01*
X155115Y58406D01*
Y58687D01*
X155397Y58968D01*
X155678Y58687D01*
X155397Y58406D01*
X158771Y58124D02*
X157646D01*
X158771Y62061D02*
X156802D01*
X153372Y58124D02*
Y61217D01*
X153091Y61779D01*
X152248Y62061D01*
X151685D01*
X150842Y61779D01*
X150280Y61217D01*
X153091Y58124D02*
Y61217D01*
X152810Y61779D01*
X152248Y62061D01*
X150280Y58124D02*
Y62061D01*
X149998Y58124D02*
Y62061D01*
X154216Y58124D02*
X153091D01*
X151123D02*
X149998D01*
X150280Y62061D02*
X149155D01*
X145303Y58124D02*
X148396Y62061D01*
X145022Y58124D02*
X148115Y62061D01*
Y58124D02*
X148396Y59249D01*
Y58124D01*
X145022D01*
X148396Y62061D02*
X145022D01*
Y60936D01*
X145303Y62061D01*
X143532Y58687D02*
Y58968D01*
X143813D01*
Y58687D01*
X143532Y58406D01*
X142970Y58124D01*
X141845D01*
X141283Y58406D01*
X141001Y58687D01*
X140720Y59249D01*
Y61217D01*
X140439Y61779D01*
X140158Y62061D01*
X141001Y58687D02*
Y61217D01*
X140720Y61779D01*
X140158Y62061D01*
X139877D01*
X141001Y59249D02*
X141283Y59530D01*
X142970Y59811D01*
X143813Y60093D01*
X144094Y60655D01*
Y61217D01*
X143813Y61779D01*
X142970Y62061D01*
X142126D01*
X141564Y61779D01*
X141001Y61217D01*
X142970Y59811D02*
X143532Y60093D01*
X143813Y60655D01*
Y61217D01*
X143532Y61779D01*
X142970Y62061D01*
X132876Y56156D02*
Y62061D01*
X132595Y56156D02*
Y62061D01*
X130908Y57843D02*
Y60093D01*
X133720Y56156D02*
X129221D01*
Y57843D01*
X129502Y56156D01*
X132595Y58968D02*
X130908D01*
X133720Y62061D02*
X129221D01*
Y60374D01*
X129502Y62061D01*
X127843Y58124D02*
X124751Y62061D01*
X127562Y58124D02*
X124470Y62061D01*
Y58124D02*
X127843Y62061D01*
X128406Y58124D02*
X126719D01*
X125594D02*
X123907D01*
X128406Y62061D02*
X126719D01*
X125594D02*
X123907D01*
X122248Y58124D02*
Y64029D01*
X121967Y58124D02*
Y64029D01*
Y58968D02*
X121405Y58406D01*
X120843Y58124D01*
X120280D01*
X119437Y58406D01*
X118875Y58968D01*
X118594Y59811D01*
Y60374D01*
X118875Y61217D01*
X119437Y61779D01*
X120280Y62061D01*
X120843D01*
X121405Y61779D01*
X121967Y61217D01*
X120280Y58124D02*
X119718Y58406D01*
X119156Y58968D01*
X118875Y59811D01*
Y60374D01*
X119156Y61217D01*
X119718Y61779D01*
X120280Y62061D01*
X123092Y58124D02*
X121967D01*
X123092Y64029D02*
X121124D01*
X117216Y58687D02*
Y58968D01*
X117497D01*
Y58687D01*
X117216Y58406D01*
X116654Y58124D01*
X115529D01*
X114967Y58406D01*
X114685Y58687D01*
X114404Y59249D01*
Y61217D01*
X114123Y61779D01*
X113842Y62061D01*
X114685Y58687D02*
Y61217D01*
X114404Y61779D01*
X113842Y62061D01*
X113561D01*
X114685Y59249D02*
X114967Y59530D01*
X116654Y59811D01*
X117497Y60093D01*
X117778Y60655D01*
Y61217D01*
X117497Y61779D01*
X116654Y62061D01*
X115810D01*
X115248Y61779D01*
X114685Y61217D01*
X116654Y59811D02*
X117216Y60093D01*
X117497Y60655D01*
Y61217D01*
X117216Y61779D01*
X116654Y62061D01*
X111874Y58124D02*
Y62061D01*
X111593Y58124D02*
Y62061D01*
Y58968D02*
X111030Y58406D01*
X110187Y58124D01*
X109625D01*
X108781Y58406D01*
X108500Y58968D01*
Y62061D01*
X109625Y58124D02*
X109062Y58406D01*
X108781Y58968D01*
Y62061D01*
X112717Y58124D02*
X111593D01*
X112717Y62061D02*
X110749D01*
X109625D02*
X107657D01*
X103524Y56156D02*
Y62061D01*
X103242Y56156D02*
Y62061D01*
X103524Y58968D02*
X104086Y58406D01*
X104648Y58124D01*
X105210D01*
X106054Y58406D01*
X106616Y58968D01*
X106897Y59811D01*
Y60374D01*
X106616Y61217D01*
X106054Y61779D01*
X105210Y62061D01*
X104648D01*
X104086Y61779D01*
X103524Y61217D01*
X105210Y58124D02*
X105773Y58406D01*
X106335Y58968D01*
X106616Y59811D01*
Y60374D01*
X106335Y61217D01*
X105773Y61779D01*
X105210Y62061D01*
X104367Y56156D02*
X103242D01*
X103524Y62061D02*
X102399D01*
X101303Y59811D02*
X97929D01*
Y59249D01*
X98210Y58687D01*
X98491Y58406D01*
X99053Y58124D01*
X99897D01*
X100740Y58406D01*
X101303Y58968D01*
X101584Y59811D01*
Y60374D01*
X101303Y61217D01*
X100740Y61779D01*
X99897Y62061D01*
X99334D01*
X98491Y61779D01*
X97929Y61217D01*
X98210Y59811D02*
Y58968D01*
X98491Y58406D01*
X99897Y58124D02*
X100459Y58406D01*
X101021Y58968D01*
X101303Y59811D01*
Y60374D01*
X101021Y61217D01*
X100459Y61779D01*
X99897Y62061D01*
X96185Y58124D02*
Y62061D01*
X95904Y58124D02*
Y62061D01*
Y59811D02*
X95623Y58968D01*
X95061Y58406D01*
X94498Y58124D01*
X93655D01*
X93374Y58406D01*
Y58687D01*
X93655Y58968D01*
X93936Y58687D01*
X93655Y58406D01*
X97029Y58124D02*
X95904D01*
X97029Y62061D02*
X95061D01*
X86317Y56156D02*
Y62061D01*
X86036Y56156D02*
Y62061D01*
X87160Y56156D02*
X83787D01*
X82943Y56437D01*
X82662Y56719D01*
X82381Y57281D01*
Y57843D01*
X82662Y58406D01*
X82943Y58687D01*
X83787Y58968D01*
Y56156D02*
X83224Y56437D01*
X82943Y56719D01*
X82662Y57281D01*
Y57843D01*
X82943Y58406D01*
X83224Y58687D01*
X83787Y58968D01*
X86036D02*
X83787D01*
X82943Y59249D01*
X82662Y59530D01*
X82381Y60093D01*
Y60936D01*
X82662Y61498D01*
X82943Y61779D01*
X83787Y62061D01*
X87160D01*
X83787Y58968D02*
X83224Y59249D01*
X82943Y59530D01*
X82662Y60093D01*
Y60936D01*
X82943Y61498D01*
X83224Y61779D01*
X83787Y62061D01*
X79907Y58124D02*
X80750Y58406D01*
X81312Y58968D01*
X81594Y59811D01*
Y60374D01*
X81312Y61217D01*
X80750Y61779D01*
X79907Y62061D01*
X79344D01*
X78501Y61779D01*
X77938Y61217D01*
X77657Y60374D01*
Y59811D01*
X77938Y58968D01*
X78501Y58406D01*
X79344Y58124D01*
X79907D01*
X80469Y58406D01*
X81031Y58968D01*
X81312Y59811D01*
Y60374D01*
X81031Y61217D01*
X80469Y61779D01*
X79907Y62061D01*
X79344D02*
X78782Y61779D01*
X78220Y61217D01*
X77938Y60374D01*
Y59811D01*
X78220Y58968D01*
X78782Y58406D01*
X79344Y58124D01*
X76223Y58687D02*
Y58968D01*
X76505D01*
Y58687D01*
X76223Y58406D01*
X75661Y58124D01*
X74537D01*
X73974Y58406D01*
X73693Y58687D01*
X73412Y59249D01*
Y61217D01*
X73131Y61779D01*
X72850Y62061D01*
X73693Y58687D02*
Y61217D01*
X73412Y61779D01*
X72850Y62061D01*
X72569D01*
X73693Y59249D02*
X73974Y59530D01*
X75661Y59811D01*
X76505Y60093D01*
X76786Y60655D01*
Y61217D01*
X76505Y61779D01*
X75661Y62061D01*
X74818D01*
X74255Y61779D01*
X73693Y61217D01*
X75661Y59811D02*
X76223Y60093D01*
X76505Y60655D01*
Y61217D01*
X76223Y61779D01*
X75661Y62061D01*
X70882Y58124D02*
Y62061D01*
X70600Y58124D02*
Y62061D01*
Y59811D02*
X70319Y58968D01*
X69757Y58406D01*
X69195Y58124D01*
X68351D01*
X68070Y58406D01*
Y58687D01*
X68351Y58968D01*
X68632Y58687D01*
X68351Y58406D01*
X71725Y58124D02*
X70600D01*
X71725Y62061D02*
X69757D01*
X63797Y56156D02*
Y62061D01*
X63515Y56156D02*
Y62061D01*
X63797Y58968D02*
X64359Y58406D01*
X64921Y58124D01*
X65483D01*
X66327Y58406D01*
X66889Y58968D01*
X67170Y59811D01*
Y60374D01*
X66889Y61217D01*
X66327Y61779D01*
X65483Y62061D01*
X64921D01*
X64359Y61779D01*
X63797Y61217D01*
X65483Y58124D02*
X66046Y58406D01*
X66608Y58968D01*
X66889Y59811D01*
Y60374D01*
X66608Y61217D01*
X66046Y61779D01*
X65483Y62061D01*
X64640Y56156D02*
X63515D01*
X63797Y62061D02*
X62672D01*
X162187Y68241D02*
Y74145D01*
X161905Y68241D02*
Y74145D01*
X163030Y68241D02*
X161062D01*
X163030Y74145D02*
X161062D01*
X159150Y70209D02*
Y74145D01*
X158869Y70209D02*
Y74145D01*
Y71052D02*
X158307Y70490D01*
X157463Y70209D01*
X156901D01*
X156057Y70490D01*
X155776Y71052D01*
Y74145D01*
X156901Y70209D02*
X156339Y70490D01*
X156057Y71052D01*
Y74145D01*
X159994Y70209D02*
X158869D01*
X159994Y74145D02*
X158025D01*
X156901D02*
X154933D01*
X151362Y70771D02*
X151081Y70209D01*
Y71334D01*
X151362Y70771D01*
X151643Y70490D01*
X152206Y70209D01*
X153330D01*
X153892Y70490D01*
X154174Y70771D01*
Y71334D01*
X153892Y71615D01*
X153330Y71896D01*
X151924Y72458D01*
X151362Y72739D01*
X151081Y73021D01*
X154174Y71052D02*
X153892Y71334D01*
X153330Y71615D01*
X151924Y72177D01*
X151362Y72458D01*
X151081Y72739D01*
Y73583D01*
X151362Y73864D01*
X151924Y74145D01*
X153049D01*
X153611Y73864D01*
X153892Y73583D01*
X154174Y73021D01*
Y74145D01*
X153892Y73583D01*
X148438Y74145D02*
X148719Y73864D01*
X149000Y73021D01*
Y68241D01*
X149282D01*
Y73021D01*
X149000Y73864D01*
X148438Y74145D01*
X147876D01*
X147313Y73864D01*
X147032Y73302D01*
X150125Y70209D02*
X147876D01*
X145233Y68241D02*
X145514Y68522D01*
X145233Y68803D01*
X144952Y68522D01*
X145233Y68241D01*
Y70209D02*
Y74145D01*
X144952Y70209D02*
Y74145D01*
X146076Y70209D02*
X144952D01*
X146076Y74145D02*
X144108D01*
X141353D02*
X141634Y73864D01*
X141915Y73021D01*
Y68241D01*
X142196D01*
Y73021D01*
X141915Y73864D01*
X141353Y74145D01*
X140791D01*
X140228Y73864D01*
X139947Y73302D01*
X143040Y70209D02*
X140791D01*
X138148D02*
Y73302D01*
X137867Y73864D01*
X137023Y74145D01*
X136461D01*
X135617Y73864D01*
X135055Y73302D01*
X137867Y70209D02*
Y73302D01*
X137585Y73864D01*
X137023Y74145D01*
X135055Y70209D02*
Y74145D01*
X134774Y70209D02*
Y74145D01*
X138991Y70209D02*
X137867D01*
X135899D02*
X134774D01*
X135055Y74145D02*
X133931D01*
X131484D02*
X131766Y73864D01*
X132047Y73021D01*
Y68241D01*
X132328D01*
Y73021D01*
X132047Y73864D01*
X131484Y74145D01*
X130922D01*
X130360Y73864D01*
X130079Y73302D01*
X133171Y70209D02*
X130922D01*
X128842Y71896D02*
X125468D01*
Y71334D01*
X125749Y70771D01*
X126030Y70490D01*
X126592Y70209D01*
X127436D01*
X128279Y70490D01*
X128842Y71052D01*
X129123Y71896D01*
Y72458D01*
X128842Y73302D01*
X128279Y73864D01*
X127436Y74145D01*
X126874D01*
X126030Y73864D01*
X125468Y73302D01*
X125749Y71896D02*
Y71052D01*
X126030Y70490D01*
X127436Y70209D02*
X127998Y70490D01*
X128560Y71052D01*
X128842Y71896D01*
Y72458D01*
X128560Y73302D01*
X127998Y73864D01*
X127436Y74145D01*
X118411Y68241D02*
Y74145D01*
X118130Y68241D02*
Y74145D01*
X119254Y68241D02*
X117286D01*
X119254Y74145D02*
X117286D01*
X115374Y68241D02*
Y74145D01*
X115093Y68241D02*
Y74145D01*
X116218Y68241D02*
X112844D01*
X112000Y68522D01*
X111719Y68803D01*
X111438Y69366D01*
Y69928D01*
X111719Y70490D01*
X112000Y70771D01*
X112844Y71052D01*
X115093D01*
X112844Y68241D02*
X112282Y68522D01*
X112000Y68803D01*
X111719Y69366D01*
Y69928D01*
X112000Y70490D01*
X112282Y70771D01*
X112844Y71052D01*
X116218Y74145D02*
X114250D01*
X113687Y71052D02*
X113125Y71334D01*
X112844Y71615D01*
X112000Y73583D01*
X111719Y73864D01*
X111438D01*
X111157Y73583D01*
X113125Y71334D02*
X112844Y71896D01*
X112282Y73864D01*
X112000Y74145D01*
X111438D01*
X111157Y73583D01*
Y73302D01*
X109554Y68241D02*
Y74145D01*
X109273Y68241D02*
X105899Y73583D01*
X109273Y68803D02*
X105899Y74145D01*
Y68241D02*
Y74145D01*
X110398Y68241D02*
X109273D01*
X106743D02*
X105056D01*
X110398Y74145D02*
X108711D01*
X101795Y68241D02*
X103763Y74145D01*
X101795Y68241D02*
X99826Y74145D01*
X101795Y69084D02*
X100108Y74145D01*
X103200Y72458D02*
X100670D01*
X104325Y74145D02*
X102638D01*
X100951D02*
X99264D01*
X94850Y69084D02*
X94569Y68241D01*
Y69928D01*
X94850Y69084D01*
X95412Y68522D01*
X96256Y68241D01*
X97099D01*
X97943Y68522D01*
X98505Y69084D01*
Y69647D01*
X98224Y70209D01*
X97943Y70490D01*
X97380Y70771D01*
X95693Y71334D01*
X95131Y71615D01*
X94569Y72177D01*
X98505Y69647D02*
X97943Y70209D01*
X97380Y70490D01*
X95693Y71052D01*
X95131Y71334D01*
X94850Y71615D01*
X94569Y72177D01*
Y73302D01*
X95131Y73864D01*
X95975Y74145D01*
X96818D01*
X97662Y73864D01*
X98224Y73302D01*
X98505Y72458D01*
Y74145D01*
X98224Y73302D01*
X87540Y68241D02*
Y74145D01*
X87259Y68241D02*
Y74145D01*
X88383Y68241D02*
X85010D01*
X84166Y68522D01*
X83885Y68803D01*
X83604Y69366D01*
Y69928D01*
X83885Y70490D01*
X84166Y70771D01*
X85010Y71052D01*
X87259D01*
X85010Y68241D02*
X84447Y68522D01*
X84166Y68803D01*
X83885Y69366D01*
Y69928D01*
X84166Y70490D01*
X84447Y70771D01*
X85010Y71052D01*
X88383Y74145D02*
X86415D01*
X85853Y71052D02*
X85291Y71334D01*
X85010Y71615D01*
X84166Y73583D01*
X83885Y73864D01*
X83604D01*
X83323Y73583D01*
X85291Y71334D02*
X85010Y71896D01*
X84447Y73864D01*
X84166Y74145D01*
X83604D01*
X83323Y73583D01*
Y73302D01*
X82001Y70771D02*
Y71052D01*
X82282D01*
Y70771D01*
X82001Y70490D01*
X81439Y70209D01*
X80314D01*
X79752Y70490D01*
X79471Y70771D01*
X79190Y71334D01*
Y73302D01*
X78908Y73864D01*
X78627Y74145D01*
X79471Y70771D02*
Y73302D01*
X79190Y73864D01*
X78627Y74145D01*
X78346D01*
X79471Y71334D02*
X79752Y71615D01*
X81439Y71896D01*
X82282Y72177D01*
X82564Y72739D01*
Y73302D01*
X82282Y73864D01*
X81439Y74145D01*
X80595D01*
X80033Y73864D01*
X79471Y73302D01*
X81439Y71896D02*
X82001Y72177D01*
X82282Y72739D01*
Y73302D01*
X82001Y73864D01*
X81439Y74145D01*
X74129Y71052D02*
X74410Y71334D01*
X74129Y71615D01*
X73848Y71334D01*
Y71052D01*
X74410Y70490D01*
X74972Y70209D01*
X75816D01*
X76659Y70490D01*
X77222Y71052D01*
X77503Y71896D01*
Y72458D01*
X77222Y73302D01*
X76659Y73864D01*
X75816Y74145D01*
X75253D01*
X74410Y73864D01*
X73848Y73302D01*
X75816Y70209D02*
X76378Y70490D01*
X76940Y71052D01*
X77222Y71896D01*
Y72458D01*
X76940Y73302D01*
X76378Y73864D01*
X75816Y74145D01*
X72667Y71896D02*
X69293D01*
Y71334D01*
X69574Y70771D01*
X69855Y70490D01*
X70418Y70209D01*
X71261D01*
X72105Y70490D01*
X72667Y71052D01*
X72948Y71896D01*
Y72458D01*
X72667Y73302D01*
X72105Y73864D01*
X71261Y74145D01*
X70699D01*
X69855Y73864D01*
X69293Y73302D01*
X69574Y71896D02*
Y71052D01*
X69855Y70490D01*
X71261Y70209D02*
X71823Y70490D01*
X72386Y71052D01*
X72667Y71896D01*
Y72458D01*
X72386Y73302D01*
X71823Y73864D01*
X71261Y74145D01*
X-15747Y268112D02*
X-13779D01*
X-14763D01*
Y273032D01*
X-13779Y274016D01*
X-12795D01*
X-11811Y273032D01*
X-17715Y274016D02*
X-19682D01*
X-18699D01*
Y268112D01*
X-17715Y269096D01*
X20510Y295433D02*
X14606D01*
Y291497D01*
Y289529D02*
Y287562D01*
Y288545D01*
X20510D01*
X19526Y289529D01*
X116929Y271024D02*
X122833D01*
Y268072D01*
X121849Y267088D01*
X119881D01*
X118897Y268072D01*
Y271024D01*
X122833Y261184D02*
Y265120D01*
X119881D01*
X120865Y263152D01*
Y262168D01*
X119881Y261184D01*
X117913D01*
X116929Y262168D01*
Y264136D01*
X117913Y265120D01*
X83504Y298976D02*
X89407D01*
Y296025D01*
X88424Y295041D01*
X86456D01*
X85472Y296025D01*
Y298976D01*
X89407Y289137D02*
X88424Y291105D01*
X86456Y293073D01*
X84488D01*
X83504Y292089D01*
Y290121D01*
X84488Y289137D01*
X85472D01*
X86456Y290121D01*
Y293073D01*
X288819Y271024D02*
X294723D01*
Y268072D01*
X293739Y267088D01*
X291771D01*
X290787Y268072D01*
Y271024D01*
X289803Y265120D02*
X288819Y264136D01*
Y262168D01*
X289803Y261184D01*
X293739D01*
X294723Y262168D01*
Y264136D01*
X293739Y265120D01*
X292755D01*
X291771Y264136D01*
Y261184D01*
X270866Y284803D02*
Y278900D01*
X267914D01*
X266930Y279884D01*
Y281851D01*
X267914Y282835D01*
X270866D01*
X264963Y284803D02*
X262995D01*
X263979D01*
Y278900D01*
X264963Y279884D01*
X260043D02*
X259059Y278900D01*
X257091D01*
X256107Y279884D01*
Y283819D01*
X257091Y284803D01*
X259059D01*
X260043Y283819D01*
Y279884D01*
X249016Y284842D02*
Y278939D01*
X246064D01*
X245080Y279923D01*
Y281891D01*
X246064Y282875D01*
X249016D01*
X243112Y284842D02*
X241144D01*
X242128D01*
Y278939D01*
X243112Y279923D01*
X238193Y284842D02*
X236225D01*
X237209D01*
Y278939D01*
X238193Y279923D01*
X310472Y259803D02*
Y253900D01*
X307521D01*
X306537Y254884D01*
Y256851D01*
X307521Y257835D01*
X310472D01*
X304569Y259803D02*
X302601D01*
X303585D01*
Y253900D01*
X304569Y254884D01*
X295713Y259803D02*
X299649D01*
X295713Y255867D01*
Y254884D01*
X296697Y253900D01*
X298665D01*
X299649Y254884D01*
X96693Y261181D02*
Y267085D01*
X99645D01*
X100629Y266101D01*
Y264133D01*
X99645Y263149D01*
X96693D01*
X98661D02*
X100629Y261181D01*
X102596Y266101D02*
X103580Y267085D01*
X105548D01*
X106532Y266101D01*
Y265117D01*
X105548Y264133D01*
X104564D01*
X105548D01*
X106532Y263149D01*
Y262165D01*
X105548Y261181D01*
X103580D01*
X102596Y262165D01*
X108500Y267085D02*
X112436D01*
Y266101D01*
X108500Y262165D01*
Y261181D01*
X125591Y302522D02*
X121655D01*
X123623D01*
Y308425D01*
X119687D02*
X117719D01*
X118703D01*
Y302522D01*
X119687Y303505D01*
X196457Y284803D02*
Y278900D01*
X193505D01*
X192521Y279884D01*
Y281851D01*
X193505Y282835D01*
X196457D01*
X190553Y284803D02*
X188585D01*
X189569D01*
Y278900D01*
X190553Y279884D01*
X222047Y284803D02*
Y278900D01*
X219095D01*
X218111Y279884D01*
Y281851D01*
X219095Y282835D01*
X222047D01*
X212208Y284803D02*
X216144D01*
X212208Y280867D01*
Y279884D01*
X213192Y278900D01*
X215160D01*
X216144Y279884D01*
X173228Y284803D02*
Y278900D01*
X170276D01*
X169293Y279884D01*
Y281851D01*
X170276Y282835D01*
X173228D01*
X167325Y279884D02*
X166341Y278900D01*
X164373D01*
X163389Y279884D01*
Y280867D01*
X164373Y281851D01*
X165357D01*
X164373D01*
X163389Y282835D01*
Y283819D01*
X164373Y284803D01*
X166341D01*
X167325Y283819D01*
X148425Y284803D02*
Y278900D01*
X145473D01*
X144490Y279884D01*
Y281851D01*
X145473Y282835D01*
X148425D01*
X139570Y284803D02*
Y278900D01*
X142522Y281851D01*
X138586D01*
X275197Y281849D02*
X279133D01*
X277165Y283817D02*
Y279882D01*
X251969Y282282D02*
X255904D01*
X227362D02*
X231298D01*
X229330Y284250D02*
Y280315D01*
X204724Y281849D02*
X208660D01*
X206692Y283817D02*
Y279882D01*
X180315Y281849D02*
X184251D01*
X182283Y283817D02*
Y279882D01*
X155512Y281849D02*
X159448D01*
X157480Y283817D02*
Y279882D01*
X129921Y281849D02*
X133857D01*
X131889Y283817D02*
Y279882D01*
X301967Y164724D02*
X298031D01*
X296063Y162757D01*
X298031Y160789D01*
X301967D01*
X296063Y157837D02*
Y155869D01*
X297047Y154885D01*
X299015D01*
X299999Y155869D01*
Y157837D01*
X299015Y158821D01*
X297047D01*
X296063Y157837D01*
Y152917D02*
Y150949D01*
Y151933D01*
X301967D01*
Y152917D01*
X300983Y147014D02*
X299999D01*
Y147997D01*
Y146030D01*
Y147014D01*
X297047D01*
X296063Y146030D01*
X299999Y142094D02*
Y140126D01*
X299015Y139142D01*
X296063D01*
Y142094D01*
X297047Y143078D01*
X298031Y142094D01*
Y139142D01*
X294095Y135206D02*
Y134222D01*
X295079Y133238D01*
X299999D01*
Y136190D01*
X299015Y137174D01*
X297047D01*
X296063Y136190D01*
Y133238D01*
Y128319D02*
Y130287D01*
X297047Y131271D01*
X299015D01*
X299999Y130287D01*
Y128319D01*
X299015Y127335D01*
X298031D01*
Y131271D01*
X296063Y119464D02*
X301967D01*
Y116512D01*
X300983Y115528D01*
X299015D01*
X298031Y116512D01*
Y119464D01*
Y117496D02*
X296063Y115528D01*
Y110608D02*
Y112576D01*
X297047Y113560D01*
X299015D01*
X299999Y112576D01*
Y110608D01*
X299015Y109624D01*
X298031D01*
Y113560D01*
X294095Y105688D02*
Y104704D01*
X295079Y103720D01*
X299999D01*
Y106672D01*
X299015Y107656D01*
X297047D01*
X296063Y106672D01*
Y103720D01*
X299999Y101753D02*
X297047D01*
X296063Y100769D01*
Y97817D01*
X299999D01*
X296063Y95849D02*
Y93881D01*
Y94865D01*
X301967D01*
Y95849D01*
X299999Y89946D02*
Y87978D01*
X299015Y86994D01*
X296063D01*
Y89946D01*
X297047Y90929D01*
X298031Y89946D01*
Y86994D01*
X300983Y84042D02*
X299999D01*
Y85026D01*
Y83058D01*
Y84042D01*
X297047D01*
X296063Y83058D01*
Y79122D02*
Y77154D01*
X297047Y76170D01*
X299015D01*
X299999Y77154D01*
Y79122D01*
X299015Y80106D01*
X297047D01*
X296063Y79122D01*
X299999Y74203D02*
X296063D01*
X298031D01*
X299015Y73219D01*
X299999Y72235D01*
Y71251D01*
X202164Y195828D02*
X203148Y196812D01*
Y198780D01*
X202164Y199764D01*
X201180D01*
X200196Y198780D01*
Y196812D01*
X199212Y195828D01*
X198228D01*
X197244Y196812D01*
Y198780D01*
X198228Y199764D01*
X202164Y192876D02*
X201180D01*
Y193860D01*
Y191892D01*
Y192876D01*
X198228D01*
X197244Y191892D01*
Y185989D02*
Y187957D01*
X198228Y188941D01*
X200196D01*
X201180Y187957D01*
Y185989D01*
X200196Y185005D01*
X199212D01*
Y188941D01*
X195276Y183037D02*
X201180D01*
Y180085D01*
X200196Y179101D01*
X198228D01*
X197244Y180085D01*
Y183037D01*
X195276Y177133D02*
X201180D01*
Y174181D01*
X200196Y173198D01*
X198228D01*
X197244Y174181D01*
Y177133D01*
Y168278D02*
Y170246D01*
X198228Y171230D01*
X200196D01*
X201180Y170246D01*
Y168278D01*
X200196Y167294D01*
X199212D01*
Y171230D01*
X201180Y165326D02*
X197244D01*
X199212D01*
X200196Y164342D01*
X201180Y163358D01*
Y162374D01*
X203148Y153519D02*
X197244D01*
Y150567D01*
X198228Y149583D01*
X202164D01*
X203148Y150567D01*
Y153519D01*
X201180Y147615D02*
X197244D01*
X199212D01*
X200196Y146631D01*
X201180Y145647D01*
Y144664D01*
X197244Y141712D02*
Y139744D01*
Y140728D01*
X201180D01*
Y141712D01*
Y136792D02*
X197244Y134824D01*
X201180Y132856D01*
X197244Y127937D02*
Y129904D01*
X198228Y130888D01*
X200196D01*
X201180Y129904D01*
Y127937D01*
X200196Y126953D01*
X199212D01*
Y130888D01*
X201180Y124985D02*
X197244D01*
X199212D01*
X200196Y124001D01*
X201180Y123017D01*
Y122033D01*
X-394Y258860D02*
Y264764D01*
X-2362Y262796D01*
X-4329Y264764D01*
Y258860D01*
X-6297D02*
X-8265D01*
X-7281D01*
Y264764D01*
X-6297D01*
X-8265D01*
X-11217Y258860D02*
X-15153D01*
X-13185D01*
Y264764D01*
X-17121Y258860D02*
X-19088D01*
X-18104D01*
Y264764D01*
X-17121D01*
X-19088D01*
X1576Y105118D02*
X5512D01*
X1576Y101182D01*
Y100198D01*
X2560Y99215D01*
X4528D01*
X5512Y100198D01*
X-21063Y105315D02*
X-23031D01*
X-22047D01*
Y99411D01*
X-21063Y100395D01*
X4528Y250198D02*
X3544Y249215D01*
X1576D01*
X592Y250198D01*
Y251182D01*
X1576Y252166D01*
X2560D01*
X1576D01*
X592Y253150D01*
Y254134D01*
X1576Y255118D01*
X3544D01*
X4528Y254134D01*
X-1376Y250198D02*
X-2360Y249215D01*
X-4328D01*
X-5312Y250198D01*
Y254134D01*
X-4328Y255118D01*
X-2360D01*
X-1376Y254134D01*
Y250198D01*
X-13581Y255118D02*
X-9646D01*
X-13581Y251182D01*
Y250198D01*
X-12597Y249215D01*
X-10630D01*
X-9646Y250198D01*
X-15549Y254134D02*
X-16533Y255118D01*
X-18501D01*
X-19485Y254134D01*
Y250198D01*
X-18501Y249215D01*
X-16533D01*
X-15549Y250198D01*
Y251182D01*
X-16533Y252166D01*
X-19485D01*
X217590Y229816D02*
Y233752D01*
X221526Y229816D01*
X222510D01*
X223494Y230800D01*
Y232768D01*
X222510Y233752D01*
X207591Y232752D02*
Y230784D01*
Y231768D01*
X213494D01*
X212510Y232752D01*
X208090Y91816D02*
Y95752D01*
X212026Y91816D01*
X213010D01*
X213994Y92800D01*
Y94768D01*
X213010Y95752D01*
X213994Y85913D02*
Y89848D01*
X211042D01*
X212026Y87880D01*
Y86897D01*
X211042Y85913D01*
X209074D01*
X208090Y86897D01*
Y88864D01*
X209074Y89848D01*
X218091Y91816D02*
Y95752D01*
X222026Y91816D01*
X223010D01*
X223994Y92800D01*
Y94768D01*
X223010Y95752D01*
X223994Y85913D02*
X223010Y87880D01*
X221042Y89848D01*
X219075D01*
X218091Y88864D01*
Y86897D01*
X219075Y85913D01*
X220058D01*
X221042Y86897D01*
Y89848D01*
X60039Y273427D02*
Y278347D01*
X59055Y279331D01*
X57088D01*
X56104Y278347D01*
Y273427D01*
X50200Y274411D02*
X51184Y273427D01*
X53152D01*
X54136Y274411D01*
Y275395D01*
X53152Y276379D01*
X51184D01*
X50200Y277363D01*
Y278347D01*
X51184Y279331D01*
X53152D01*
X54136Y278347D01*
X48232Y273427D02*
Y279331D01*
X45280D01*
X44296Y278347D01*
Y277363D01*
X45280Y276379D01*
X48232D01*
X45280D01*
X44296Y275395D01*
Y274411D01*
X45280Y273427D01*
X48232D01*
X312929Y53766D02*
X310961D01*
X311945D01*
Y59669D01*
X312929D01*
X310961D01*
X308010D02*
Y53766D01*
X304074Y59669D01*
Y53766D01*
X302106Y56717D02*
X298170D01*
X249429Y53766D02*
X247461D01*
X248445D01*
Y59669D01*
X249429D01*
X247461D01*
X244510D02*
Y53766D01*
X240574Y59669D01*
Y53766D01*
X238606Y56717D02*
X234670D01*
X236638Y54750D02*
Y58685D01*
X253477Y179766D02*
X255445D01*
X256429Y180750D01*
Y184685D01*
X255445Y185669D01*
X253477D01*
X252493Y184685D01*
Y180750D01*
X253477Y179766D01*
X250525D02*
Y184685D01*
X249542Y185669D01*
X247574D01*
X246590Y184685D01*
Y179766D01*
X244622D02*
X240686D01*
X242654D01*
Y185669D01*
X238718Y182718D02*
X234783D01*
X236751Y180750D02*
Y184685D01*
X309977Y179766D02*
X311945D01*
X312929Y180750D01*
Y184685D01*
X311945Y185669D01*
X309977D01*
X308993Y184685D01*
Y180750D01*
X309977Y179766D01*
X307026D02*
Y184685D01*
X306042Y185669D01*
X304074D01*
X303090Y184685D01*
Y179766D01*
X301122D02*
X297186D01*
X299154D01*
Y185669D01*
X295218Y182718D02*
X291283D01*
M02*
