G04 Layer_Physical_Order=1*
G04 Layer_Color=255*
%FSLAX25Y25*%
%MOIN*%
G70*
G01*
G75*
%ADD10R,0.04724X0.03543*%
%ADD11R,0.03937X0.09449*%
%ADD12R,0.12992X0.09449*%
%ADD13R,0.03543X0.04724*%
%ADD14R,0.05118X0.02362*%
%ADD15C,0.03937*%
%ADD16C,0.01969*%
%ADD17C,0.01500*%
%ADD18R,0.67520X0.05709*%
%ADD19R,0.05906X0.05906*%
%ADD20C,0.05906*%
%ADD21R,0.11024X0.11024*%
%ADD22C,0.11811*%
%ADD23R,0.05906X0.05906*%
%ADD24R,0.05906X0.09843*%
%ADD25R,0.15748X0.19685*%
%ADD26C,0.05512*%
%ADD27R,0.05512X0.05512*%
%ADD28R,0.06394X0.06394*%
%ADD29C,0.07087*%
%ADD30C,0.03150*%
G36*
X316378Y0D02*
X0D01*
Y94252D01*
X-31890D01*
Y314500D01*
X316378D01*
Y0D01*
D02*
G37*
%LPC*%
G36*
X-4724Y236507D02*
X-5756Y236371D01*
X-6718Y235972D01*
X-7544Y235339D01*
X-8177Y234513D01*
X-8575Y233552D01*
X-8711Y232520D01*
X-8575Y231488D01*
X-8177Y230526D01*
X-7544Y229701D01*
X-6718Y229067D01*
X-5756Y228669D01*
X-4724Y228533D01*
X-3692Y228669D01*
X-2731Y229067D01*
X-1905Y229701D01*
X-1272Y230526D01*
X-873Y231488D01*
X-738Y232520D01*
X-873Y233552D01*
X-1272Y234513D01*
X-1905Y235339D01*
X-2731Y235972D01*
X-3692Y236371D01*
X-4724Y236507D01*
D02*
G37*
G36*
X-14724D02*
X-15756Y236371D01*
X-16718Y235972D01*
X-17544Y235339D01*
X-18177Y234513D01*
X-18575Y233552D01*
X-18711Y232520D01*
X-18575Y231488D01*
X-18177Y230526D01*
X-17544Y229701D01*
X-16718Y229067D01*
X-15756Y228669D01*
X-14724Y228533D01*
X-13692Y228669D01*
X-12731Y229067D01*
X-11905Y229701D01*
X-11272Y230526D01*
X-10873Y231488D01*
X-10738Y232520D01*
X-10873Y233552D01*
X-11272Y234513D01*
X-11905Y235339D01*
X-12731Y235972D01*
X-13692Y236371D01*
X-14724Y236507D01*
D02*
G37*
G36*
X258213Y232425D02*
X249819D01*
Y224031D01*
X258213D01*
Y232425D01*
D02*
G37*
G36*
X22677Y248691D02*
X21323Y248558D01*
X20022Y248163D01*
X18822Y247521D01*
X17771Y246658D01*
X16908Y245607D01*
X16266Y244407D01*
X15872Y243106D01*
X15738Y241752D01*
X15872Y240398D01*
X16266Y239097D01*
X16908Y237897D01*
X17771Y236845D01*
X18822Y235982D01*
X20022Y235341D01*
X21323Y234946D01*
X22677Y234813D01*
X24031Y234946D01*
X25333Y235341D01*
X26532Y235982D01*
X27584Y236845D01*
X28447Y237897D01*
X29088Y239097D01*
X29483Y240398D01*
X29616Y241752D01*
X29483Y243106D01*
X29088Y244407D01*
X28447Y245607D01*
X27584Y246658D01*
X26532Y247521D01*
X25333Y248163D01*
X24031Y248558D01*
X22677Y248691D01*
D02*
G37*
G36*
X254016Y242811D02*
X252830Y242655D01*
X251725Y242197D01*
X250775Y241469D01*
X250047Y240520D01*
X249589Y239414D01*
X249433Y238228D01*
X249589Y237042D01*
X250047Y235937D01*
X250775Y234988D01*
X251725Y234260D01*
X252830Y233802D01*
X254016Y233646D01*
X255202Y233802D01*
X256307Y234260D01*
X257256Y234988D01*
X257984Y235937D01*
X258442Y237042D01*
X258598Y238228D01*
X258442Y239414D01*
X257984Y240520D01*
X257256Y241469D01*
X256307Y242197D01*
X255202Y242655D01*
X254016Y242811D01*
D02*
G37*
G36*
X248480Y52181D02*
X235457D01*
Y39158D01*
X248480D01*
Y52181D01*
D02*
G37*
G36*
X22677Y20325D02*
X21323Y20191D01*
X20022Y19797D01*
X18822Y19155D01*
X17771Y18292D01*
X16908Y17241D01*
X16266Y16041D01*
X15872Y14739D01*
X15738Y13386D01*
X15872Y12032D01*
X16266Y10730D01*
X16908Y9531D01*
X17771Y8479D01*
X18822Y7616D01*
X20022Y6975D01*
X21323Y6580D01*
X22677Y6447D01*
X24031Y6580D01*
X25333Y6975D01*
X26532Y7616D01*
X27584Y8479D01*
X28447Y9531D01*
X29088Y10730D01*
X29483Y12032D01*
X29616Y13386D01*
X29483Y14739D01*
X29088Y16041D01*
X28447Y17241D01*
X27584Y18292D01*
X26532Y19155D01*
X25333Y19797D01*
X24031Y20191D01*
X22677Y20325D01*
D02*
G37*
G36*
X39Y129543D02*
X-9724D01*
X-10499Y129389D01*
X-11155Y128950D01*
X-13730Y126376D01*
X-14724Y126506D01*
X-15756Y126371D01*
X-16718Y125972D01*
X-17544Y125339D01*
X-18177Y124513D01*
X-18575Y123552D01*
X-18711Y122520D01*
X-18575Y121488D01*
X-18177Y120526D01*
X-17544Y119701D01*
X-16718Y119067D01*
X-15756Y118669D01*
X-14724Y118533D01*
X-13692Y118669D01*
X-12731Y119067D01*
X-11905Y119701D01*
X-11272Y120526D01*
X-10873Y121488D01*
X-10738Y122520D01*
X-10869Y123514D01*
X-8886Y125497D01*
X-799D01*
X26971Y97727D01*
X27627Y97288D01*
X28402Y97134D01*
X57698D01*
X57993Y96908D01*
X58619Y96649D01*
X59291Y96561D01*
X59964Y96649D01*
X60590Y96908D01*
X60884Y97134D01*
X95280D01*
X98270Y94145D01*
X98318Y93777D01*
X98578Y93150D01*
X98990Y92612D01*
X99528Y92200D01*
X100155Y91940D01*
X100827Y91852D01*
X101499Y91940D01*
X102125Y92200D01*
X102663Y92612D01*
X103076Y93150D01*
X103335Y93777D01*
X103424Y94449D01*
X103335Y95121D01*
X103076Y95747D01*
X102663Y96285D01*
X102125Y96698D01*
X101499Y96957D01*
X101131Y97006D01*
X97549Y100588D01*
X96892Y101027D01*
X96118Y101181D01*
X60884D01*
X60590Y101407D01*
X59964Y101666D01*
X59291Y101754D01*
X58619Y101666D01*
X57993Y101407D01*
X57698Y101181D01*
X29240D01*
X1470Y128950D01*
X814Y129389D01*
X39Y129543D01*
D02*
G37*
G36*
X-14724Y186506D02*
X-15756Y186371D01*
X-16718Y185972D01*
X-17544Y185339D01*
X-18177Y184513D01*
X-18575Y183552D01*
X-18711Y182520D01*
X-18575Y181488D01*
X-18177Y180526D01*
X-17544Y179701D01*
X-16718Y179067D01*
X-15756Y178669D01*
X-14724Y178533D01*
X-13692Y178669D01*
X-12731Y179067D01*
X-11905Y179701D01*
X-11272Y180526D01*
X-10873Y181488D01*
X-10738Y182520D01*
X-10873Y183552D01*
X-11272Y184513D01*
X-11905Y185339D01*
X-12731Y185972D01*
X-13692Y186371D01*
X-14724Y186506D01*
D02*
G37*
G36*
X284016Y232811D02*
X282830Y232655D01*
X281725Y232197D01*
X280775Y231469D01*
X280047Y230520D01*
X279589Y229414D01*
X279433Y228228D01*
X279589Y227042D01*
X279700Y226774D01*
X272782Y219856D01*
X272343Y219199D01*
X272189Y218425D01*
Y213601D01*
X271964Y213306D01*
X271704Y212680D01*
X271616Y212008D01*
X271704Y211336D01*
X271964Y210709D01*
X272376Y210172D01*
X272914Y209759D01*
X273540Y209499D01*
X274213Y209411D01*
X274885Y209499D01*
X275511Y209759D01*
X276049Y210172D01*
X276462Y210709D01*
X276721Y211336D01*
X276810Y212008D01*
X276721Y212680D01*
X276462Y213306D01*
X276236Y213601D01*
Y217587D01*
X282562Y223913D01*
X282830Y223802D01*
X284016Y223646D01*
X285202Y223802D01*
X286307Y224260D01*
X287256Y224988D01*
X287984Y225937D01*
X288442Y227042D01*
X288598Y228228D01*
X288442Y229414D01*
X287984Y230520D01*
X287256Y231469D01*
X286307Y232197D01*
X285202Y232655D01*
X284016Y232811D01*
D02*
G37*
G36*
X215591Y20325D02*
X214237Y20191D01*
X212935Y19797D01*
X211736Y19155D01*
X210684Y18292D01*
X209821Y17241D01*
X209180Y16041D01*
X208785Y14739D01*
X208652Y13386D01*
X208785Y12032D01*
X209180Y10730D01*
X209821Y9531D01*
X210684Y8479D01*
X211736Y7616D01*
X212935Y6975D01*
X214237Y6580D01*
X215591Y6447D01*
X216944Y6580D01*
X218246Y6975D01*
X219446Y7616D01*
X220497Y8479D01*
X221360Y9531D01*
X222001Y10730D01*
X222396Y12032D01*
X222530Y13386D01*
X222396Y14739D01*
X222001Y16041D01*
X221360Y17241D01*
X220497Y18292D01*
X219446Y19155D01*
X218246Y19797D01*
X216944Y20191D01*
X215591Y20325D01*
D02*
G37*
G36*
X264016Y232811D02*
X262830Y232655D01*
X261724Y232197D01*
X260775Y231469D01*
X260047Y230520D01*
X259589Y229414D01*
X259433Y228228D01*
X259589Y227042D01*
X260047Y225937D01*
X260775Y224988D01*
X261724Y224260D01*
X261993Y224149D01*
Y206260D01*
X262147Y205486D01*
X262585Y204829D01*
X264372Y203042D01*
X264421Y202674D01*
X264680Y202048D01*
X265093Y201510D01*
X265631Y201097D01*
X266257Y200838D01*
X266929Y200749D01*
X267601Y200838D01*
X268228Y201097D01*
X268765Y201510D01*
X269178Y202048D01*
X269438Y202674D01*
X269526Y203346D01*
X269438Y204019D01*
X269178Y204645D01*
X268765Y205183D01*
X268228Y205596D01*
X267601Y205855D01*
X267233Y205903D01*
X266039Y207098D01*
Y224149D01*
X266307Y224260D01*
X267256Y224988D01*
X267984Y225937D01*
X268442Y227042D01*
X268598Y228228D01*
X268442Y229414D01*
X267984Y230520D01*
X267256Y231469D01*
X266307Y232197D01*
X265202Y232655D01*
X264016Y232811D01*
D02*
G37*
G36*
X4150Y285055D02*
X-1787D01*
Y279525D01*
X-1813Y279331D01*
X-1787Y279136D01*
Y273606D01*
X4150D01*
Y276337D01*
X6299D01*
X7074Y276439D01*
X7796Y276738D01*
X8416Y277214D01*
X8892Y277834D01*
X9191Y278556D01*
X9293Y279331D01*
X9191Y280106D01*
X8892Y280828D01*
X8416Y281448D01*
X7796Y281924D01*
X7074Y282223D01*
X6299Y282325D01*
X4150D01*
Y285055D01*
D02*
G37*
G36*
X211551Y303716D02*
X203646D01*
Y295811D01*
X204604D01*
Y293799D01*
X204114Y293309D01*
X168036D01*
X167387Y293807D01*
X166426Y294205D01*
X165394Y294341D01*
X164362Y294205D01*
X163400Y293807D01*
X162575Y293174D01*
X161941Y292348D01*
X161543Y291386D01*
X161407Y290354D01*
X161543Y289322D01*
X161941Y288361D01*
X162575Y287535D01*
X163400Y286902D01*
X164362Y286503D01*
X165394Y286368D01*
X166426Y286503D01*
X167387Y286902D01*
X167933Y287321D01*
X205354D01*
X206129Y287423D01*
X206851Y287722D01*
X207471Y288198D01*
X209716Y290442D01*
X210191Y291062D01*
X210490Y291784D01*
X210593Y292559D01*
Y295811D01*
X211551D01*
Y303716D01*
D02*
G37*
G36*
X280748Y311813D02*
X234488D01*
X233713Y311711D01*
X232991Y311412D01*
X232371Y310936D01*
X229615Y308180D01*
X229139Y307560D01*
X228840Y306838D01*
X228738Y306063D01*
Y304110D01*
X227780D01*
Y296205D01*
X235685D01*
Y304110D01*
X234726D01*
Y304823D01*
X235728Y305825D01*
X279508D01*
X284250Y301083D01*
Y293858D01*
X284352Y293083D01*
X284651Y292361D01*
X285127Y291741D01*
X289368Y287500D01*
Y271090D01*
X288868Y270883D01*
X284147Y275604D01*
X283491Y276042D01*
X282716Y276196D01*
X267458D01*
X267358Y276696D01*
X267363Y276698D01*
X267983Y277174D01*
X268459Y277794D01*
X268758Y278516D01*
X268860Y279291D01*
Y296205D01*
X269819D01*
Y304110D01*
X261913D01*
Y296205D01*
X262872D01*
Y279291D01*
X262974Y278516D01*
X263273Y277794D01*
X263749Y277174D01*
X264369Y276698D01*
X264374Y276696D01*
X264275Y276196D01*
X251074D01*
X243755Y283515D01*
Y296727D01*
X244551Y297338D01*
X245185Y298164D01*
X245583Y299126D01*
X245719Y300157D01*
X245583Y301189D01*
X245185Y302151D01*
X244551Y302977D01*
X243726Y303610D01*
X242764Y304009D01*
X241732Y304144D01*
X240700Y304009D01*
X239739Y303610D01*
X238913Y302977D01*
X238280Y302151D01*
X237881Y301189D01*
X237745Y300157D01*
X237881Y299126D01*
X238280Y298164D01*
X238913Y297338D01*
X239709Y296727D01*
Y282677D01*
X239863Y281903D01*
X240302Y281247D01*
X248806Y272743D01*
X249462Y272304D01*
X250236Y272150D01*
X281878D01*
X283798Y270231D01*
X283515Y269807D01*
X282685Y270150D01*
X281653Y270286D01*
X280622Y270150D01*
X279660Y269752D01*
X278834Y269118D01*
X278201Y268293D01*
X277802Y267331D01*
X277667Y266299D01*
X277802Y265267D01*
X278201Y264306D01*
X278834Y263480D01*
X279660Y262846D01*
X280622Y262448D01*
X281653Y262312D01*
X282685Y262448D01*
X283647Y262846D01*
X284473Y263480D01*
X285106Y264306D01*
X285115Y264326D01*
X285615Y264227D01*
Y263740D01*
X285769Y262966D01*
X286207Y262310D01*
X295865Y252652D01*
X295619Y252191D01*
X295472Y252220D01*
X275984D01*
X275210Y252066D01*
X274554Y251627D01*
X265470Y242544D01*
X265202Y242655D01*
X264016Y242811D01*
X262830Y242655D01*
X261724Y242197D01*
X260775Y241469D01*
X260047Y240520D01*
X259589Y239414D01*
X259433Y238228D01*
X259589Y237042D01*
X260047Y235937D01*
X260775Y234988D01*
X261724Y234260D01*
X262830Y233802D01*
X264016Y233646D01*
X265202Y233802D01*
X266307Y234260D01*
X267256Y234988D01*
X267984Y235937D01*
X268442Y237042D01*
X268598Y238228D01*
X268442Y239414D01*
X268331Y239683D01*
X270237Y241589D01*
X270614Y241259D01*
X270047Y240520D01*
X269589Y239414D01*
X269433Y238228D01*
X269589Y237042D01*
X270047Y235937D01*
X270775Y234988D01*
X271725Y234260D01*
X272830Y233802D01*
X274016Y233646D01*
X275202Y233802D01*
X276307Y234260D01*
X277256Y234988D01*
X277984Y235937D01*
X278442Y237042D01*
X278598Y238228D01*
X278442Y239414D01*
X277984Y240520D01*
X277256Y241469D01*
X276307Y242197D01*
X275202Y242655D01*
X274016Y242811D01*
X272830Y242655D01*
X271725Y242197D01*
X270986Y241630D01*
X270655Y242007D01*
X276822Y248174D01*
X285074D01*
X285092Y248128D01*
X285157Y247674D01*
X284593Y247297D01*
X282585Y245289D01*
X282147Y244633D01*
X281993Y243858D01*
Y242308D01*
X281725Y242197D01*
X280775Y241469D01*
X280047Y240520D01*
X279589Y239414D01*
X279433Y238228D01*
X279589Y237042D01*
X280047Y235937D01*
X280775Y234988D01*
X281725Y234260D01*
X282830Y233802D01*
X284016Y233646D01*
X285202Y233802D01*
X286307Y234260D01*
X287256Y234988D01*
X287984Y235937D01*
X288442Y237042D01*
X288598Y238228D01*
X288442Y239414D01*
X287984Y240520D01*
X287256Y241469D01*
X286307Y242197D01*
X286039Y242308D01*
Y243020D01*
X286862Y243843D01*
X291517D01*
X291812Y243617D01*
X292438Y243358D01*
X293110Y243269D01*
X293782Y243358D01*
X294409Y243617D01*
X294947Y244030D01*
X295359Y244568D01*
X295619Y245194D01*
X295707Y245866D01*
X295627Y246474D01*
X295755Y246594D01*
X296081Y246727D01*
X298371Y244438D01*
Y240838D01*
X297871Y240668D01*
X297256Y241469D01*
X296307Y242197D01*
X295202Y242655D01*
X294016Y242811D01*
X292830Y242655D01*
X291724Y242197D01*
X290775Y241469D01*
X290047Y240520D01*
X289589Y239414D01*
X289433Y238228D01*
X289589Y237042D01*
X290047Y235937D01*
X290775Y234988D01*
X291724Y234260D01*
X292830Y233802D01*
X294016Y233646D01*
X295202Y233802D01*
X296307Y234260D01*
X297256Y234988D01*
X297871Y235789D01*
X298371Y235619D01*
Y230838D01*
X297871Y230668D01*
X297256Y231469D01*
X296307Y232197D01*
X295202Y232655D01*
X294016Y232811D01*
X292830Y232655D01*
X291724Y232197D01*
X290775Y231469D01*
X290047Y230520D01*
X289589Y229414D01*
X289433Y228228D01*
X289589Y227042D01*
X290047Y225937D01*
X290775Y224988D01*
X291724Y224260D01*
X292830Y223802D01*
X294016Y223646D01*
X294785Y223747D01*
X295019Y223274D01*
X291091Y219346D01*
X288601D01*
X288306Y219572D01*
X287680Y219831D01*
X287008Y219920D01*
X286336Y219831D01*
X285709Y219572D01*
X285172Y219159D01*
X284759Y218621D01*
X284499Y217995D01*
X284411Y217323D01*
X284499Y216651D01*
X284759Y216024D01*
X285172Y215487D01*
X285709Y215074D01*
X286336Y214814D01*
X287008Y214726D01*
X287680Y214814D01*
X288306Y215074D01*
X288601Y215300D01*
X291653D01*
X291860Y214800D01*
X267703Y190643D01*
X267265Y189987D01*
X267111Y189213D01*
Y169467D01*
X266885Y169173D01*
X266625Y168546D01*
X266537Y167874D01*
X266625Y167202D01*
X266885Y166576D01*
X267298Y166038D01*
X267835Y165625D01*
X268462Y165366D01*
X269134Y165277D01*
X269806Y165366D01*
X270432Y165625D01*
X270970Y166038D01*
X271383Y166576D01*
X271513Y166889D01*
X272054D01*
X272250Y166416D01*
X272725Y165796D01*
X273345Y165320D01*
X274068Y165021D01*
X274843Y164919D01*
X275618Y165021D01*
X276340Y165320D01*
X276960Y165796D01*
X277435Y166416D01*
X277735Y167138D01*
X277837Y167913D01*
Y186594D01*
X311605Y220363D01*
X312081Y220983D01*
X312380Y221705D01*
X312482Y222480D01*
Y248976D01*
X312380Y249751D01*
X312081Y250473D01*
X311605Y251094D01*
X295356Y267343D01*
Y288740D01*
X295254Y289515D01*
X295079Y289938D01*
X294955Y290237D01*
X294479Y290857D01*
X290238Y295098D01*
Y302323D01*
X290136Y303098D01*
X289837Y303820D01*
X289361Y304440D01*
X282865Y310936D01*
X282245Y311412D01*
X281523Y311711D01*
X280748Y311813D01*
D02*
G37*
G36*
X275866Y304144D02*
X274834Y304009D01*
X273873Y303610D01*
X273047Y302977D01*
X272413Y302151D01*
X272015Y301189D01*
X271879Y300157D01*
X272015Y299126D01*
X272413Y298164D01*
X273047Y297338D01*
X273873Y296705D01*
X274834Y296306D01*
X275866Y296171D01*
X276898Y296306D01*
X277860Y296705D01*
X278685Y297338D01*
X279319Y298164D01*
X279717Y299126D01*
X279853Y300157D01*
X279717Y301189D01*
X279319Y302151D01*
X278685Y302977D01*
X277860Y303610D01*
X276898Y304009D01*
X275866Y304144D01*
D02*
G37*
G36*
X139347Y294307D02*
X131441D01*
Y286402D01*
X139347D01*
Y294307D01*
D02*
G37*
G36*
X-378Y307890D02*
X-15370D01*
Y296441D01*
X-10868D01*
Y279331D01*
X-10842Y279136D01*
Y273606D01*
X-4905D01*
Y279136D01*
X-4880Y279331D01*
Y296441D01*
X-378D01*
Y299171D01*
X15295D01*
X27213Y287253D01*
X27834Y286777D01*
X28556Y286478D01*
X29331Y286376D01*
X34980D01*
X41190Y280166D01*
X41810Y279691D01*
X42532Y279391D01*
X43307Y279289D01*
X60039D01*
X60814Y279391D01*
X61536Y279691D01*
X62156Y280166D01*
X69243Y287253D01*
X69719Y287873D01*
X70018Y288595D01*
X70120Y289370D01*
Y292110D01*
X71079D01*
Y300016D01*
X67732D01*
Y307496D01*
X60220D01*
Y304919D01*
X59720Y304820D01*
X59383Y305634D01*
X58781Y306419D01*
X57996Y307021D01*
X57083Y307399D01*
X56102Y307528D01*
X55122Y307399D01*
X54208Y307021D01*
X53424Y306419D01*
X52822Y305634D01*
X52443Y304721D01*
X52417Y304526D01*
X51913D01*
X51888Y304721D01*
X51509Y305634D01*
X50907Y306419D01*
X50122Y307021D01*
X49209Y307399D01*
X48228Y307528D01*
X47248Y307399D01*
X46334Y307021D01*
X45550Y306419D01*
X44948Y305634D01*
X44569Y304721D01*
X44440Y303740D01*
X44569Y302760D01*
X44948Y301846D01*
X45550Y301061D01*
X46334Y300459D01*
X46352Y300452D01*
X46284Y299939D01*
X46094Y299914D01*
X45132Y299516D01*
X44307Y298882D01*
X43673Y298056D01*
X43275Y297095D01*
X43139Y296063D01*
X43275Y295031D01*
X43673Y294070D01*
X44307Y293244D01*
X45132Y292610D01*
X46094Y292212D01*
X47126Y292076D01*
X48158Y292212D01*
X49119Y292610D01*
X49945Y293244D01*
X50579Y294070D01*
X50977Y295031D01*
X51113Y296063D01*
X50977Y297095D01*
X50579Y298056D01*
X49945Y298882D01*
X49119Y299516D01*
X49029Y299553D01*
X49097Y300066D01*
X49209Y300081D01*
X50122Y300459D01*
X50907Y301061D01*
X51509Y301846D01*
X51888Y302760D01*
X51913Y302954D01*
X52417D01*
X52443Y302760D01*
X52822Y301846D01*
X53424Y301061D01*
X54208Y300459D01*
X55122Y300081D01*
X55174Y300074D01*
X55242Y299561D01*
X55133Y299516D01*
X54307Y298882D01*
X53673Y298056D01*
X53275Y297095D01*
X53139Y296063D01*
X53275Y295031D01*
X53362Y294822D01*
X48490Y289951D01*
X48425Y289959D01*
X47753Y289871D01*
X47127Y289611D01*
X46589Y289199D01*
X46176Y288661D01*
X45917Y288034D01*
X45828Y287362D01*
X45917Y286690D01*
X46176Y286064D01*
X46396Y285778D01*
X46149Y285278D01*
X44547D01*
X38338Y291487D01*
X37718Y291963D01*
X36995Y292262D01*
X36220Y292364D01*
X30571D01*
X18653Y304282D01*
X18033Y304758D01*
X17310Y305058D01*
X16535Y305159D01*
X-378D01*
Y307890D01*
D02*
G37*
G36*
X117732Y311000D02*
X102740D01*
Y299551D01*
X107242D01*
Y282441D01*
Y273402D01*
X106929D01*
Y267858D01*
X109226D01*
X109516Y267738D01*
X110291Y267636D01*
X111066Y267738D01*
X111357Y267858D01*
X113654D01*
Y273402D01*
X113230D01*
Y282441D01*
Y299551D01*
X117732D01*
Y311000D01*
D02*
G37*
G36*
X-16520Y260268D02*
X-22063D01*
Y257971D01*
X-22183Y257681D01*
X-22286Y256906D01*
Y247087D01*
X-22183Y246312D01*
X-21884Y245590D01*
X-21408Y244970D01*
X-18674Y242235D01*
X-18575Y241488D01*
X-18177Y240526D01*
X-17544Y239701D01*
X-16718Y239067D01*
X-15756Y238669D01*
X-14724Y238533D01*
X-13692Y238669D01*
X-12731Y239067D01*
X-12133Y239526D01*
X-7316D01*
X-6718Y239067D01*
X-5756Y238669D01*
X-4724Y238533D01*
X-3692Y238669D01*
X-2731Y239067D01*
X-1905Y239701D01*
X-1272Y240526D01*
X-873Y241488D01*
X-738Y242520D01*
X-873Y243552D01*
X-1272Y244513D01*
X-1905Y245339D01*
X-2731Y245972D01*
X-3692Y246371D01*
X-4724Y246507D01*
X-5756Y246371D01*
X-6718Y245972D01*
X-7316Y245514D01*
X-12133D01*
X-12731Y245972D01*
X-13692Y246371D01*
X-14439Y246469D01*
X-16297Y248327D01*
Y256906D01*
X-16399Y257681D01*
X-16520Y257971D01*
Y260268D01*
D02*
G37*
G36*
X-13961Y285055D02*
X-19898D01*
Y279525D01*
X-19923Y279331D01*
Y267748D01*
X-22063D01*
Y261024D01*
X-16520D01*
Y261392D01*
X-13402D01*
Y257858D01*
X-11876D01*
X-11340Y257446D01*
X-10617Y257147D01*
X-9843Y257045D01*
X-9068Y257147D01*
X-8345Y257446D01*
X-7809Y257858D01*
X-6284D01*
Y262221D01*
X-6848D01*
Y262795D01*
X-6950Y263570D01*
X-7249Y264292D01*
X-7725Y264912D01*
X-9316Y266503D01*
X-9936Y266979D01*
X-10658Y267278D01*
X-11433Y267380D01*
X-13935D01*
Y279331D01*
X-13961Y279525D01*
Y285055D01*
D02*
G37*
G36*
X187142Y303716D02*
X179236D01*
Y295811D01*
X187142D01*
Y303716D01*
D02*
G37*
G36*
X104150Y288165D02*
X98213D01*
Y284464D01*
X95709D01*
X94934Y284310D01*
X94278Y283872D01*
X91719Y281312D01*
X91281Y280656D01*
X91127Y279882D01*
Y253504D01*
X91281Y252730D01*
X91719Y252073D01*
X116680Y227113D01*
X117336Y226674D01*
X118016Y226539D01*
X117967Y226039D01*
X85645D01*
X85476Y226539D01*
X85695Y226707D01*
X86107Y227245D01*
X86367Y227871D01*
X86455Y228543D01*
X86367Y229216D01*
X86107Y229842D01*
X85695Y230380D01*
X85257Y230716D01*
X85210Y230949D01*
Y231059D01*
X85257Y231292D01*
X85695Y231628D01*
X86107Y232166D01*
X86367Y232792D01*
X86455Y233465D01*
X86367Y234137D01*
X86107Y234763D01*
X85695Y235301D01*
X85157Y235714D01*
X84530Y235973D01*
X83858Y236062D01*
X83186Y235973D01*
X82560Y235714D01*
X82265Y235488D01*
X72065D01*
X71771Y235714D01*
X71145Y235973D01*
X70472Y236062D01*
X69800Y235973D01*
X69174Y235714D01*
X68636Y235301D01*
X68223Y234763D01*
X67964Y234137D01*
X67875Y233465D01*
X67964Y232792D01*
X68223Y232166D01*
X68636Y231628D01*
X69074Y231292D01*
X69121Y231059D01*
Y230949D01*
X69074Y230716D01*
X68636Y230380D01*
X68223Y229842D01*
X67964Y229216D01*
X67875Y228543D01*
X67964Y227871D01*
X68223Y227245D01*
X68636Y226707D01*
X68855Y226539D01*
X68685Y226039D01*
X49625D01*
X49330Y226265D01*
X48704Y226524D01*
X48031Y226613D01*
X47359Y226524D01*
X46733Y226265D01*
X46195Y225852D01*
X45783Y225314D01*
X45523Y224688D01*
X45434Y224016D01*
X45523Y223344D01*
X45783Y222717D01*
X46195Y222179D01*
X46414Y222011D01*
X46244Y221511D01*
X45255D01*
X45225Y221735D01*
X44966Y222361D01*
X44553Y222899D01*
X44015Y223312D01*
X43389Y223571D01*
X42717Y223660D01*
X42044Y223571D01*
X41418Y223312D01*
X40880Y222899D01*
X40468Y222361D01*
X40208Y221735D01*
X40119Y221063D01*
X40208Y220391D01*
X40468Y219764D01*
X40880Y219227D01*
X41418Y218814D01*
X42044Y218554D01*
X42412Y218506D01*
X42861Y218058D01*
X43517Y217619D01*
X44291Y217465D01*
X46522D01*
X46674Y216965D01*
X46404Y216785D01*
X43453Y213834D01*
X11433D01*
X11263Y214334D01*
X11482Y214502D01*
X11895Y215040D01*
X12154Y215666D01*
X12243Y216339D01*
X12154Y217011D01*
X11895Y217637D01*
X11669Y217932D01*
Y253150D01*
X11515Y253924D01*
X11076Y254580D01*
X7927Y257730D01*
X7270Y258168D01*
X6496Y258322D01*
X3559D01*
Y258480D01*
X-3559D01*
Y254118D01*
X3559D01*
Y254276D01*
X5658D01*
X7622Y252312D01*
Y217932D01*
X7397Y217637D01*
X7137Y217011D01*
X7049Y216339D01*
X7137Y215666D01*
X7397Y215040D01*
X7809Y214502D01*
X8028Y214334D01*
X7859Y213834D01*
X5366D01*
X249Y218950D01*
X-407Y219389D01*
X-1181Y219543D01*
X-9724D01*
X-10499Y219389D01*
X-11155Y218950D01*
X-13730Y216376D01*
X-14724Y216507D01*
X-15756Y216371D01*
X-16718Y215972D01*
X-17544Y215339D01*
X-18177Y214513D01*
X-18575Y213552D01*
X-18711Y212520D01*
X-18575Y211488D01*
X-18177Y210526D01*
X-17544Y209701D01*
X-16718Y209067D01*
X-15756Y208669D01*
X-14724Y208533D01*
X-13692Y208669D01*
X-12731Y209067D01*
X-11905Y209701D01*
X-11272Y210526D01*
X-10873Y211488D01*
X-10738Y212520D01*
X-10869Y213514D01*
X-8886Y215497D01*
X-8053D01*
X-7806Y214997D01*
X-8177Y214513D01*
X-8575Y213552D01*
X-8711Y212520D01*
X-8575Y211488D01*
X-8177Y210526D01*
X-7544Y209701D01*
X-6718Y209067D01*
X-5756Y208669D01*
X-4724Y208533D01*
X-3730Y208664D01*
X-1214Y206148D01*
X-558Y205710D01*
X216Y205556D01*
X22478D01*
X22556Y205068D01*
X21930Y204808D01*
X21584Y204543D01*
X-1295D01*
X-1905Y205339D01*
X-2731Y205972D01*
X-3692Y206371D01*
X-4724Y206507D01*
X-5756Y206371D01*
X-6718Y205972D01*
X-7544Y205339D01*
X-8177Y204513D01*
X-8575Y203552D01*
X-8711Y202520D01*
X-8575Y201488D01*
X-8177Y200526D01*
X-7746Y199964D01*
X-7992Y199464D01*
X-8808D01*
X-10869Y201525D01*
X-10738Y202520D01*
X-10873Y203552D01*
X-11272Y204513D01*
X-11905Y205339D01*
X-12731Y205972D01*
X-13692Y206371D01*
X-14724Y206507D01*
X-15756Y206371D01*
X-16718Y205972D01*
X-17544Y205339D01*
X-18177Y204513D01*
X-18575Y203552D01*
X-18711Y202520D01*
X-18575Y201488D01*
X-18177Y200526D01*
X-17544Y199700D01*
X-16718Y199067D01*
X-15756Y198669D01*
X-14724Y198533D01*
X-13730Y198664D01*
X-11076Y196010D01*
X-10420Y195572D01*
X-9646Y195418D01*
X-8113D01*
X-7867Y194918D01*
X-8177Y194513D01*
X-8575Y193552D01*
X-8711Y192520D01*
X-8575Y191488D01*
X-8177Y190526D01*
X-7836Y190082D01*
X-8083Y189582D01*
X-8926D01*
X-10869Y191525D01*
X-10738Y192520D01*
X-10873Y193552D01*
X-11272Y194513D01*
X-11905Y195339D01*
X-12731Y195972D01*
X-13692Y196371D01*
X-14724Y196507D01*
X-15756Y196371D01*
X-16718Y195972D01*
X-17544Y195339D01*
X-18177Y194513D01*
X-18575Y193552D01*
X-18711Y192520D01*
X-18575Y191488D01*
X-18177Y190526D01*
X-17544Y189700D01*
X-16718Y189067D01*
X-15756Y188669D01*
X-14724Y188533D01*
X-13730Y188664D01*
X-11194Y186128D01*
X-10538Y185690D01*
X-9764Y185536D01*
X-8022D01*
X-7776Y185036D01*
X-8177Y184513D01*
X-8575Y183552D01*
X-8711Y182520D01*
X-8575Y181488D01*
X-8177Y180526D01*
X-7806Y180043D01*
X-8053Y179543D01*
X-9724D01*
X-10499Y179389D01*
X-11155Y178950D01*
X-13730Y176376D01*
X-14724Y176506D01*
X-15756Y176371D01*
X-16718Y175972D01*
X-17544Y175339D01*
X-18177Y174513D01*
X-18575Y173552D01*
X-18711Y172520D01*
X-18575Y171488D01*
X-18177Y170526D01*
X-17544Y169701D01*
X-16718Y169067D01*
X-15756Y168669D01*
X-14724Y168533D01*
X-13692Y168669D01*
X-12731Y169067D01*
X-11905Y169701D01*
X-11272Y170526D01*
X-10873Y171488D01*
X-10738Y172520D01*
X-10869Y173514D01*
X-8886Y175497D01*
X-8053D01*
X-7806Y174997D01*
X-8177Y174513D01*
X-8575Y173552D01*
X-8711Y172520D01*
X-8575Y171488D01*
X-8177Y170526D01*
X-7776Y170003D01*
X-8022Y169503D01*
X-9764D01*
X-10538Y169349D01*
X-11194Y168911D01*
X-13730Y166376D01*
X-14724Y166507D01*
X-15756Y166371D01*
X-16718Y165972D01*
X-17544Y165339D01*
X-18177Y164513D01*
X-18575Y163552D01*
X-18711Y162520D01*
X-18575Y161488D01*
X-18177Y160526D01*
X-17544Y159701D01*
X-16718Y159067D01*
X-15756Y158669D01*
X-14724Y158533D01*
X-13692Y158669D01*
X-12731Y159067D01*
X-11905Y159701D01*
X-11272Y160526D01*
X-10873Y161488D01*
X-10738Y162520D01*
X-10869Y163514D01*
X-8926Y165457D01*
X-8083D01*
X-7836Y164957D01*
X-8177Y164513D01*
X-8575Y163552D01*
X-8711Y162520D01*
X-8575Y161488D01*
X-8177Y160526D01*
X-7897Y160161D01*
X-8143Y159661D01*
X-9606D01*
X-10380Y159507D01*
X-11037Y159068D01*
X-13730Y156376D01*
X-14724Y156507D01*
X-15756Y156371D01*
X-16718Y155972D01*
X-17544Y155339D01*
X-18177Y154513D01*
X-18575Y153552D01*
X-18711Y152520D01*
X-18575Y151488D01*
X-18177Y150526D01*
X-17544Y149700D01*
X-16718Y149067D01*
X-15756Y148669D01*
X-14724Y148533D01*
X-13692Y148669D01*
X-12731Y149067D01*
X-11905Y149700D01*
X-11272Y150526D01*
X-10873Y151488D01*
X-10738Y152520D01*
X-10869Y153515D01*
X-8768Y155615D01*
X-2964D01*
X3687Y148963D01*
X4344Y148525D01*
X5118Y148371D01*
X31299D01*
X32073Y148525D01*
X32730Y148963D01*
X38879Y155112D01*
X39352Y154879D01*
X39332Y154724D01*
X39421Y154052D01*
X39680Y153426D01*
X39906Y153131D01*
Y143916D01*
X39680Y143621D01*
X39421Y142995D01*
X39332Y142323D01*
X39421Y141651D01*
X39680Y141024D01*
X39962Y140657D01*
X39740Y140157D01*
X10539D01*
X1667Y149029D01*
X1010Y149468D01*
X236Y149622D01*
X-9646D01*
X-10420Y149468D01*
X-11076Y149029D01*
X-13730Y146376D01*
X-14724Y146507D01*
X-15756Y146371D01*
X-16718Y145972D01*
X-17544Y145339D01*
X-18177Y144513D01*
X-18575Y143552D01*
X-18711Y142520D01*
X-18575Y141488D01*
X-18177Y140526D01*
X-17544Y139700D01*
X-16718Y139067D01*
X-15756Y138669D01*
X-14724Y138533D01*
X-13692Y138669D01*
X-12731Y139067D01*
X-11905Y139700D01*
X-11272Y140526D01*
X-10873Y141488D01*
X-10738Y142520D01*
X-10869Y143515D01*
X-8808Y145575D01*
X-602D01*
X8270Y136703D01*
X8927Y136265D01*
X9701Y136111D01*
X36991D01*
X37143Y135611D01*
X36955Y135486D01*
X35916Y134447D01*
X35548Y134398D01*
X34922Y134139D01*
X34384Y133726D01*
X33971Y133188D01*
X33712Y132562D01*
X33623Y131890D01*
X33712Y131218D01*
X33971Y130591D01*
X34384Y130053D01*
X34922Y129641D01*
X35548Y129381D01*
X36220Y129293D01*
X36893Y129381D01*
X37519Y129641D01*
X38057Y130053D01*
X38470Y130591D01*
X38729Y131218D01*
X38777Y131586D01*
X39224Y132032D01*
X51889D01*
X52096Y131532D01*
X48768Y128204D01*
X24624D01*
X24330Y128430D01*
X23704Y128690D01*
X23031Y128778D01*
X22359Y128690D01*
X21733Y128430D01*
X21195Y128017D01*
X20782Y127480D01*
X20523Y126853D01*
X20435Y126181D01*
X20523Y125509D01*
X20782Y124883D01*
X21195Y124345D01*
X21733Y123932D01*
X22359Y123673D01*
X23031Y123584D01*
X23704Y123673D01*
X24330Y123932D01*
X24624Y124158D01*
X49606D01*
X50380Y124312D01*
X51037Y124750D01*
X54775Y128489D01*
X56581D01*
X56828Y127989D01*
X56698Y127820D01*
X56399Y127098D01*
X56297Y126323D01*
X56399Y125548D01*
X56698Y124826D01*
X57174Y124206D01*
X57794Y123730D01*
X58516Y123431D01*
X59291Y123329D01*
X78584D01*
X78633Y122829D01*
X78163Y122735D01*
X77506Y122297D01*
X76075Y120866D01*
X61081D01*
X60787Y121092D01*
X60160Y121351D01*
X59488Y121440D01*
X58816Y121351D01*
X58190Y121092D01*
X57895Y120866D01*
X19200D01*
X1076Y138990D01*
X420Y139428D01*
X-354Y139582D01*
X-9685D01*
X-10459Y139428D01*
X-11116Y138990D01*
X-13730Y136376D01*
X-14724Y136506D01*
X-15756Y136371D01*
X-16718Y135972D01*
X-17544Y135339D01*
X-18177Y134513D01*
X-18575Y133552D01*
X-18711Y132520D01*
X-18575Y131488D01*
X-18177Y130526D01*
X-17544Y129701D01*
X-16718Y129067D01*
X-15756Y128669D01*
X-14724Y128533D01*
X-13692Y128669D01*
X-12731Y129067D01*
X-11905Y129701D01*
X-11272Y130526D01*
X-10873Y131488D01*
X-10738Y132520D01*
X-10869Y133514D01*
X-8847Y135536D01*
X-1192D01*
X16932Y117412D01*
X17588Y116973D01*
X18362Y116819D01*
X19068D01*
X19237Y116319D01*
X18833Y116010D01*
X18420Y115472D01*
X18161Y114845D01*
X18072Y114173D01*
X18161Y113501D01*
X18420Y112875D01*
X18833Y112337D01*
X19371Y111924D01*
X19997Y111665D01*
X20669Y111576D01*
X21341Y111665D01*
X21968Y111924D01*
X22262Y112150D01*
X78150D01*
X78924Y112304D01*
X79580Y112743D01*
X81153Y114315D01*
X82311D01*
X82557Y113815D01*
X82289Y113466D01*
X82252Y113376D01*
X78508Y109632D01*
X59291D01*
X58516Y109530D01*
X57794Y109231D01*
X57174Y108755D01*
X57102Y108661D01*
X49089D01*
X48794Y108887D01*
X48168Y109146D01*
X47496Y109235D01*
X46824Y109146D01*
X46198Y108887D01*
X45660Y108474D01*
X45247Y107936D01*
X44987Y107310D01*
X44899Y106638D01*
X44987Y105966D01*
X45247Y105339D01*
X45660Y104801D01*
X46198Y104389D01*
X46824Y104129D01*
X47496Y104041D01*
X48168Y104129D01*
X48794Y104389D01*
X49089Y104615D01*
X57102D01*
X57174Y104521D01*
X57794Y104045D01*
X58516Y103746D01*
X59291Y103644D01*
X79748D01*
X80523Y103746D01*
X81245Y104045D01*
X81865Y104521D01*
X86999Y109654D01*
X87475Y110275D01*
X87774Y110997D01*
X87844Y111525D01*
X88371Y111704D01*
X113034Y87042D01*
X113082Y86674D01*
X113171Y86461D01*
X112747Y86177D01*
X108163Y90761D01*
X107507Y91200D01*
X106732Y91354D01*
X59506D01*
X59212Y91580D01*
X58586Y91839D01*
X57913Y91928D01*
X57241Y91839D01*
X56615Y91580D01*
X56320Y91354D01*
X31192D01*
X3635Y118911D01*
X2979Y119349D01*
X2205Y119503D01*
X-9764D01*
X-10538Y119349D01*
X-11194Y118911D01*
X-13730Y116376D01*
X-14724Y116507D01*
X-15756Y116371D01*
X-16718Y115972D01*
X-17544Y115339D01*
X-18177Y114513D01*
X-18575Y113552D01*
X-18711Y112520D01*
X-18575Y111488D01*
X-18177Y110526D01*
X-17544Y109701D01*
X-16718Y109067D01*
X-15756Y108669D01*
X-14724Y108533D01*
X-13692Y108669D01*
X-12731Y109067D01*
X-11905Y109701D01*
X-11272Y110526D01*
X-10873Y111488D01*
X-10738Y112520D01*
X-10869Y113514D01*
X-8926Y115457D01*
X1367D01*
X28924Y87900D01*
X29406Y87578D01*
X29282Y87059D01*
X29022Y87028D01*
X6982Y109068D01*
X6325Y109507D01*
X5551Y109661D01*
X-9606D01*
X-10380Y109507D01*
X-11037Y109068D01*
X-13730Y106376D01*
X-14724Y106507D01*
X-15756Y106371D01*
X-16718Y105972D01*
X-17544Y105339D01*
X-18177Y104513D01*
X-18575Y103552D01*
X-18711Y102520D01*
X-18575Y101488D01*
X-18177Y100526D01*
X-17544Y99700D01*
X-16718Y99067D01*
X-15756Y98669D01*
X-14724Y98533D01*
X-13692Y98669D01*
X-12731Y99067D01*
X-11905Y99700D01*
X-11272Y100526D01*
X-10873Y101488D01*
X-10738Y102520D01*
X-10869Y103515D01*
X-9177Y105206D01*
X-8677Y104999D01*
Y98567D01*
X-772D01*
Y100497D01*
X3138D01*
X24357Y79278D01*
X25013Y78839D01*
X25787Y78685D01*
X33646D01*
X33816Y78185D01*
X33597Y78017D01*
X33184Y77480D01*
X32925Y76853D01*
X32836Y76181D01*
X32925Y75509D01*
X33184Y74883D01*
X33410Y74588D01*
Y65748D01*
X33564Y64974D01*
X34003Y64318D01*
X58806Y39514D01*
X59462Y39076D01*
X60236Y38922D01*
X180905D01*
X181680Y39076D01*
X182336Y39514D01*
X191840Y49018D01*
X192208Y49066D01*
X192834Y49326D01*
X193372Y49738D01*
X193784Y50276D01*
X194044Y50903D01*
X194132Y51575D01*
X194044Y52247D01*
X193784Y52873D01*
X193372Y53411D01*
X192834Y53824D01*
X192208Y54083D01*
X191535Y54172D01*
X190863Y54083D01*
X190237Y53824D01*
X189699Y53411D01*
X189286Y52873D01*
X189027Y52247D01*
X188979Y51879D01*
X180068Y42968D01*
X177691D01*
X177539Y43468D01*
X177808Y43648D01*
X189027Y54867D01*
X197244D01*
X198018Y55021D01*
X198675Y55459D01*
X232981Y89766D01*
X233349Y89814D01*
X233976Y90074D01*
X234513Y90487D01*
X234926Y91024D01*
X235186Y91651D01*
X235274Y92323D01*
X235186Y92995D01*
X234926Y93621D01*
X234513Y94159D01*
X234038Y94524D01*
X234053Y94747D01*
X234177Y95024D01*
X242520D01*
X243294Y95178D01*
X243950Y95617D01*
X247745Y99411D01*
X248113Y99460D01*
X248739Y99719D01*
X249277Y100132D01*
X249690Y100670D01*
X249950Y101296D01*
X250038Y101969D01*
X249950Y102641D01*
X249690Y103267D01*
X249277Y103805D01*
X248739Y104218D01*
X248113Y104477D01*
X247441Y104566D01*
X246769Y104477D01*
X246142Y104218D01*
X245605Y103805D01*
X245247Y103338D01*
X244952Y103316D01*
X244693Y103369D01*
X244572Y103661D01*
X244159Y104199D01*
X243621Y104611D01*
X243262Y104760D01*
X243361Y105260D01*
X249391D01*
X249686Y105034D01*
X250312Y104775D01*
X250984Y104686D01*
X251656Y104775D01*
X252283Y105034D01*
X252821Y105447D01*
X253233Y105985D01*
X253493Y106611D01*
X253581Y107283D01*
X253493Y107956D01*
X253233Y108582D01*
X252821Y109120D01*
X252283Y109532D01*
X251656Y109792D01*
X250984Y109880D01*
X250312Y109792D01*
X249686Y109532D01*
X249391Y109307D01*
X223832D01*
X223615Y109807D01*
X224099Y110438D01*
X264035D01*
X264434Y110517D01*
X264680Y110056D01*
X237843Y83219D01*
X237368Y82599D01*
X237069Y81877D01*
X236966Y81102D01*
X237069Y80327D01*
X237368Y79605D01*
X237843Y78985D01*
X238464Y78509D01*
X239186Y78210D01*
X239961Y78108D01*
X240736Y78210D01*
X241458Y78509D01*
X242078Y78985D01*
X276960Y113867D01*
X277435Y114487D01*
X277559Y114786D01*
X277735Y115209D01*
X277837Y115984D01*
Y156890D01*
X277735Y157665D01*
X277435Y158387D01*
X276960Y159007D01*
X276340Y159483D01*
X275618Y159782D01*
X274843Y159884D01*
X274068Y159782D01*
X273345Y159483D01*
X272725Y159007D01*
X272250Y158387D01*
X272038Y157875D01*
X271496Y157875D01*
X271383Y158149D01*
X270970Y158687D01*
X270432Y159099D01*
X269806Y159359D01*
X269134Y159447D01*
X268462Y159359D01*
X267835Y159099D01*
X267298Y158687D01*
X266885Y158149D01*
X266625Y157523D01*
X266537Y156850D01*
X266625Y156178D01*
X266885Y155552D01*
X267111Y155257D01*
Y118397D01*
X263197Y114484D01*
X249487D01*
X249345Y114984D01*
X249690Y115434D01*
X249950Y116060D01*
X250038Y116732D01*
X249950Y117404D01*
X249690Y118031D01*
X249464Y118325D01*
Y122047D01*
X249310Y122821D01*
X248871Y123478D01*
X244492Y127858D01*
X244764Y128263D01*
X245391Y128003D01*
X246063Y127915D01*
X246735Y128003D01*
X247361Y128263D01*
X247899Y128675D01*
X248312Y129213D01*
X248571Y129840D01*
X248660Y130512D01*
X248571Y131184D01*
X248312Y131810D01*
X247899Y132348D01*
X247361Y132761D01*
X246735Y133020D01*
X246140Y133099D01*
X239425Y139814D01*
Y144918D01*
X239925Y145119D01*
X240470Y144893D01*
X241142Y144805D01*
X241814Y144893D01*
X242440Y145152D01*
X242735Y145378D01*
X243110D01*
X243884Y145533D01*
X244541Y145971D01*
X252808Y154239D01*
X252959Y154464D01*
X253214Y154660D01*
X253627Y155198D01*
X253887Y155824D01*
X253975Y156496D01*
X253887Y157168D01*
X253627Y157795D01*
X253214Y158332D01*
X252677Y158745D01*
X252050Y159005D01*
X251378Y159093D01*
X250706Y159005D01*
X250079Y158745D01*
X249542Y158332D01*
X249129Y157795D01*
X248869Y157168D01*
X248781Y156496D01*
X248846Y155999D01*
X242473Y149626D01*
X242440Y149651D01*
X241814Y149910D01*
X241142Y149999D01*
X240942Y149972D01*
X240709Y150446D01*
X241194Y150932D01*
X241633Y151588D01*
X241787Y152362D01*
Y155494D01*
X242013Y155788D01*
X242272Y156414D01*
X242361Y157087D01*
X242272Y157759D01*
X242013Y158385D01*
X241600Y158923D01*
X241062Y159336D01*
X240436Y159595D01*
X239764Y159684D01*
X239092Y159595D01*
X238465Y159336D01*
X237927Y158923D01*
X237562Y158447D01*
X237340Y158463D01*
X237063Y158586D01*
Y166224D01*
X237340Y166347D01*
X237562Y166363D01*
X237927Y165887D01*
X238465Y165474D01*
X239092Y165215D01*
X239764Y165127D01*
X240436Y165215D01*
X241062Y165474D01*
X241357Y165700D01*
X244102D01*
X244876Y165855D01*
X245532Y166293D01*
X248724Y169485D01*
X249129Y169212D01*
X248869Y168586D01*
X248781Y167913D01*
X248869Y167241D01*
X249129Y166615D01*
X249542Y166077D01*
X250079Y165664D01*
X250706Y165405D01*
X251378Y165316D01*
X252050Y165405D01*
X252677Y165664D01*
X253214Y166077D01*
X253627Y166615D01*
X253887Y167241D01*
X253975Y167913D01*
X253891Y168550D01*
X257927Y172585D01*
X258365Y173241D01*
X258519Y174016D01*
Y211024D01*
X258365Y211798D01*
X257927Y212454D01*
X245133Y225247D01*
Y241682D01*
X250247Y246796D01*
X254173D01*
X254947Y246950D01*
X255604Y247388D01*
X270659Y262443D01*
X271654Y262312D01*
X272685Y262448D01*
X273647Y262846D01*
X274473Y263480D01*
X275106Y264306D01*
X275505Y265267D01*
X275640Y266299D01*
X275505Y267331D01*
X275106Y268293D01*
X274473Y269118D01*
X273647Y269752D01*
X272685Y270150D01*
X271654Y270286D01*
X270622Y270150D01*
X269660Y269752D01*
X268834Y269118D01*
X268201Y268293D01*
X267803Y267331D01*
X267667Y266299D01*
X267798Y265304D01*
X253335Y250842D01*
X249765D01*
X249557Y251342D01*
X260659Y262443D01*
X261653Y262312D01*
X262685Y262448D01*
X263647Y262846D01*
X264473Y263480D01*
X265106Y264306D01*
X265505Y265267D01*
X265640Y266299D01*
X265505Y267331D01*
X265106Y268293D01*
X264473Y269118D01*
X263647Y269752D01*
X262685Y270150D01*
X261653Y270286D01*
X260622Y270150D01*
X259660Y269752D01*
X258834Y269118D01*
X258201Y268293D01*
X257803Y267331D01*
X257667Y266299D01*
X257798Y265304D01*
X237956Y245463D01*
X237456Y245670D01*
Y249241D01*
X250659Y262443D01*
X251654Y262312D01*
X252685Y262448D01*
X253647Y262846D01*
X254473Y263480D01*
X255106Y264306D01*
X255505Y265267D01*
X255640Y266299D01*
X255505Y267331D01*
X255106Y268293D01*
X254473Y269118D01*
X253647Y269752D01*
X252685Y270150D01*
X251654Y270286D01*
X250622Y270150D01*
X249660Y269752D01*
X248834Y269118D01*
X248201Y268293D01*
X247802Y267331D01*
X247667Y266299D01*
X247798Y265304D01*
X234177Y251683D01*
X233677Y251891D01*
Y262869D01*
X234473Y263480D01*
X235106Y264306D01*
X235505Y265267D01*
X235640Y266299D01*
X235505Y267331D01*
X235106Y268293D01*
X234473Y269118D01*
X233944Y269524D01*
X234114Y270024D01*
X235068D01*
X237798Y267294D01*
X237667Y266299D01*
X237803Y265267D01*
X238201Y264306D01*
X238834Y263480D01*
X239660Y262846D01*
X240622Y262448D01*
X241653Y262312D01*
X242685Y262448D01*
X243647Y262846D01*
X244473Y263480D01*
X245106Y264306D01*
X245505Y265267D01*
X245640Y266299D01*
X245505Y267331D01*
X245106Y268293D01*
X244473Y269118D01*
X243647Y269752D01*
X242685Y270150D01*
X241653Y270286D01*
X240659Y270155D01*
X237336Y273478D01*
X236680Y273916D01*
X235906Y274070D01*
X228937D01*
X228163Y273916D01*
X227506Y273478D01*
X225341Y271312D01*
X224903Y270656D01*
X224748Y269882D01*
Y269537D01*
X224249Y269290D01*
X223647Y269752D01*
X222685Y270150D01*
X221654Y270286D01*
X220659Y270155D01*
X213242Y277572D01*
X212585Y278011D01*
X211811Y278165D01*
X169449D01*
X168675Y278011D01*
X168018Y277572D01*
X150146Y259700D01*
X148498D01*
X148360Y260036D01*
X148357Y260200D01*
X148928Y260639D01*
X165464Y277174D01*
X165939Y277794D01*
X166239Y278516D01*
X166341Y279291D01*
X166239Y280066D01*
X165939Y280788D01*
X165464Y281409D01*
X164844Y281884D01*
X164121Y282183D01*
X163347Y282285D01*
X162572Y282183D01*
X161849Y281884D01*
X161229Y281409D01*
X145571Y265750D01*
X106595D01*
X105805Y266539D01*
Y267858D01*
X106173D01*
Y273402D01*
X103877D01*
X103586Y273522D01*
X102811Y273624D01*
X102036Y273522D01*
X101745Y273402D01*
X99449D01*
Y267858D01*
X99817D01*
Y265299D01*
X99919Y264524D01*
X100218Y263802D01*
X100694Y263182D01*
X103237Y260639D01*
X103857Y260163D01*
X104156Y260039D01*
X104579Y259864D01*
X105354Y259762D01*
X137507D01*
X137658Y259262D01*
X137428Y259108D01*
X122373Y244053D01*
X122005Y244005D01*
X121379Y243745D01*
X120841Y243332D01*
X120428Y242795D01*
X120169Y242168D01*
X120080Y241496D01*
X120169Y240824D01*
X120428Y240198D01*
X120841Y239660D01*
X121379Y239247D01*
X122005Y238987D01*
X122677Y238899D01*
X123349Y238987D01*
X123723Y239142D01*
X124106Y238760D01*
X124066Y238664D01*
X123978Y237992D01*
X124066Y237320D01*
X124326Y236694D01*
X124414Y236578D01*
X124168Y236078D01*
X121310D01*
X117321Y240068D01*
X117272Y240436D01*
X117013Y241062D01*
X116600Y241600D01*
X116062Y242013D01*
X115436Y242272D01*
X114764Y242361D01*
X114092Y242272D01*
X113465Y242013D01*
X112927Y241600D01*
X112515Y241062D01*
X112255Y240436D01*
X112167Y239764D01*
X112255Y239092D01*
X112515Y238465D01*
X112927Y237927D01*
X113465Y237515D01*
X114092Y237255D01*
X114460Y237207D01*
X119042Y232625D01*
X119698Y232186D01*
X120472Y232032D01*
X151772D01*
X152546Y232186D01*
X153202Y232625D01*
X167824Y247246D01*
X168192Y247295D01*
X168818Y247554D01*
X169356Y247967D01*
X169769Y248505D01*
X170028Y249131D01*
X170117Y249803D01*
X170028Y250475D01*
X169769Y251102D01*
X169356Y251640D01*
X168818Y252052D01*
X168703Y252100D01*
X168507Y252722D01*
X168650Y253068D01*
X168739Y253740D01*
X168650Y254412D01*
X168391Y255039D01*
X167978Y255577D01*
X167440Y255989D01*
X166814Y256249D01*
X166142Y256337D01*
X165470Y256249D01*
X164843Y255989D01*
X164549Y255763D01*
X152592D01*
X152435Y256192D01*
X152431Y256263D01*
X170287Y274119D01*
X177716D01*
X177923Y273619D01*
X175381Y271076D01*
X174942Y270420D01*
X174908Y270252D01*
X167701D01*
Y262347D01*
X171599D01*
Y225641D01*
X170223Y224265D01*
X169784Y223609D01*
X169630Y222835D01*
Y190963D01*
X169404Y190669D01*
X169145Y190042D01*
X169087Y189600D01*
X168567Y189412D01*
X164806Y193173D01*
X164993Y193693D01*
X165436Y193751D01*
X166062Y194011D01*
X166600Y194423D01*
X167013Y194961D01*
X167272Y195588D01*
X167361Y196260D01*
X167272Y196932D01*
X167013Y197558D01*
X166787Y197853D01*
Y234179D01*
X166797Y234187D01*
X167210Y234725D01*
X167469Y235351D01*
X167558Y236024D01*
X167469Y236696D01*
X167210Y237322D01*
X166797Y237860D01*
X166259Y238273D01*
X165633Y238532D01*
X164961Y238621D01*
X164288Y238532D01*
X163662Y238273D01*
X163124Y237860D01*
X162712Y237322D01*
X162452Y236696D01*
X162364Y236024D01*
X162452Y235351D01*
X162712Y234725D01*
X162741Y234687D01*
Y197853D01*
X162515Y197558D01*
X162255Y196932D01*
X162197Y196489D01*
X161677Y196302D01*
X156225Y201754D01*
X156387Y202300D01*
X156810Y202475D01*
X157348Y202888D01*
X157761Y203426D01*
X158020Y204052D01*
X158109Y204724D01*
X158020Y205397D01*
X157761Y206023D01*
X157535Y206317D01*
Y223228D01*
X157381Y224003D01*
X156942Y224659D01*
X151627Y229974D01*
X150971Y230412D01*
X150197Y230566D01*
X118948D01*
X95173Y254342D01*
Y279044D01*
X96547Y280418D01*
X98213D01*
Y276716D01*
X104150D01*
Y288165D01*
D02*
G37*
G36*
X70134Y269858D02*
X62228D01*
Y258016D01*
X70134D01*
Y269858D01*
D02*
G37*
G36*
X60291D02*
X44512D01*
Y258016D01*
X60291D01*
Y269858D01*
D02*
G37*
%LPD*%
G36*
X56341Y156334D02*
X56389Y155966D01*
X56649Y155339D01*
X57061Y154801D01*
X57599Y154389D01*
X58132Y154168D01*
X58150Y153819D01*
X58112Y153661D01*
X58029Y153650D01*
X57402Y153391D01*
X56864Y152978D01*
X56452Y152440D01*
X56192Y151814D01*
X56104Y151142D01*
X56192Y150470D01*
X56452Y149843D01*
X56864Y149305D01*
X57402Y148893D01*
X57576Y148821D01*
Y148280D01*
X57401Y148207D01*
X56780Y147731D01*
X56305Y147111D01*
X56006Y146389D01*
X55904Y145614D01*
X56006Y144839D01*
X56305Y144117D01*
X56780Y143497D01*
X57401Y143021D01*
X58123Y142722D01*
X58898Y142620D01*
X64315D01*
X65090Y142722D01*
X65812Y143021D01*
X66432Y143497D01*
X69906Y146970D01*
X70139Y146935D01*
X70314Y146403D01*
X64068Y140157D01*
X60688D01*
X60393Y140383D01*
X59767Y140642D01*
X59095Y140731D01*
X58422Y140642D01*
X57796Y140383D01*
X57502Y140157D01*
X49156D01*
X48987Y140657D01*
X49277Y140880D01*
X49690Y141418D01*
X49949Y142044D01*
X50038Y142717D01*
X49949Y143389D01*
X49690Y144015D01*
X49464Y144309D01*
Y153722D01*
X49690Y154016D01*
X49949Y154643D01*
X50038Y155315D01*
X49949Y155987D01*
X49690Y156614D01*
X49450Y156926D01*
X49697Y157426D01*
X55249D01*
X56341Y156334D01*
D02*
G37*
G36*
X31379Y160271D02*
X32005Y160011D01*
X32378Y159962D01*
X32557Y159434D01*
X30697Y157574D01*
X19861D01*
X19566Y157800D01*
X18940Y158060D01*
X18268Y158148D01*
X17596Y158060D01*
X16969Y157800D01*
X16431Y157388D01*
X16019Y156850D01*
X15759Y156223D01*
X15671Y155551D01*
X15759Y154879D01*
X16019Y154253D01*
X16431Y153715D01*
X16969Y153302D01*
X17596Y153043D01*
X18268Y152954D01*
X18940Y153043D01*
X19566Y153302D01*
X19861Y153528D01*
X30865D01*
X31073Y153028D01*
X30461Y152417D01*
X5956D01*
X-695Y159068D01*
X-1352Y159507D01*
X-1414Y159519D01*
X-1622Y160070D01*
X-1295Y160497D01*
X31084D01*
X31379Y160271D01*
D02*
G37*
G36*
X172585Y153884D02*
X173241Y153446D01*
X174016Y153292D01*
X179903D01*
X180198Y153066D01*
X180824Y152806D01*
X180747Y152317D01*
X180118Y152400D01*
X179446Y152312D01*
X178820Y152052D01*
X178525Y151826D01*
X137402D01*
X136627Y151672D01*
X135971Y151234D01*
X134300Y149563D01*
X126083D01*
X125309Y149408D01*
X124652Y148970D01*
X122745Y147063D01*
X116808D01*
X116638Y147563D01*
X116836Y147715D01*
X117249Y148253D01*
X117508Y148879D01*
X117597Y149551D01*
X117508Y150223D01*
X117249Y150850D01*
X116836Y151388D01*
X116298Y151800D01*
X115672Y152060D01*
X115304Y152108D01*
X113523Y153889D01*
X113807Y154313D01*
X114225Y154139D01*
X115000Y154037D01*
X137126D01*
X137901Y154139D01*
X138623Y154438D01*
X139243Y154914D01*
X143786Y159458D01*
X143859Y159552D01*
X166918D01*
X172585Y153884D01*
D02*
G37*
G36*
X190441Y270075D02*
X189660Y269752D01*
X188834Y269118D01*
X188201Y268293D01*
X187803Y267331D01*
X187667Y266299D01*
X187798Y265304D01*
X185629Y263136D01*
X185191Y262480D01*
X185037Y261705D01*
Y151480D01*
X183198Y149642D01*
X182868Y149752D01*
X182708Y149859D01*
X182627Y150475D01*
X182367Y151102D01*
X181955Y151639D01*
X181417Y152052D01*
X180790Y152312D01*
X180867Y152801D01*
X181496Y152718D01*
X182168Y152806D01*
X182795Y153066D01*
X183332Y153479D01*
X183745Y154016D01*
X184005Y154643D01*
X184093Y155315D01*
X184005Y155987D01*
X183745Y156614D01*
X183332Y157151D01*
X182795Y157564D01*
X182503Y157685D01*
X182450Y157944D01*
X182472Y158239D01*
X182939Y158597D01*
X183351Y159135D01*
X183611Y159761D01*
X183699Y160433D01*
X183611Y161105D01*
X183351Y161732D01*
X182939Y162269D01*
X182792Y162382D01*
Y163012D01*
X182939Y163124D01*
X183351Y163662D01*
X183611Y164288D01*
X183699Y164961D01*
X183611Y165633D01*
X183351Y166259D01*
X182939Y166797D01*
X182401Y167210D01*
X181774Y167469D01*
X181601Y167492D01*
X181461Y168015D01*
X181758Y168242D01*
X182170Y168780D01*
X182430Y169407D01*
X182518Y170079D01*
X182430Y170751D01*
X182170Y171377D01*
X181758Y171915D01*
X181220Y172328D01*
X180985Y172425D01*
Y172966D01*
X181417Y173145D01*
X181955Y173557D01*
X182367Y174095D01*
X182627Y174722D01*
X182715Y175394D01*
X182627Y176066D01*
X182367Y176692D01*
X181955Y177230D01*
X181488Y177588D01*
X181465Y177883D01*
X181518Y178142D01*
X181810Y178263D01*
X182348Y178675D01*
X182761Y179213D01*
X183020Y179840D01*
X183109Y180512D01*
X183020Y181184D01*
X182761Y181810D01*
X182348Y182348D01*
X181810Y182761D01*
X181184Y183020D01*
X180512Y183109D01*
X179840Y183020D01*
X179213Y182761D01*
X178919Y182535D01*
X178165D01*
X177995Y183035D01*
X178214Y183203D01*
X178627Y183741D01*
X178886Y184367D01*
X178975Y185039D01*
X178886Y185712D01*
X178627Y186338D01*
X178401Y186632D01*
Y213729D01*
X183084Y218412D01*
X183523Y219068D01*
X183677Y219843D01*
Y262869D01*
X184473Y263480D01*
X185106Y264306D01*
X185504Y265267D01*
X185640Y266299D01*
X185504Y267331D01*
X185106Y268293D01*
X184473Y269118D01*
X183647Y269752D01*
X182866Y270075D01*
X182966Y270575D01*
X190341D01*
X190441Y270075D01*
D02*
G37*
G36*
X93687Y65262D02*
X94344Y64824D01*
X95118Y64670D01*
X114194D01*
X114489Y64444D01*
X115115Y64184D01*
X115787Y64096D01*
X116460Y64184D01*
X117086Y64444D01*
X117380Y64670D01*
X192935D01*
X193229Y64444D01*
X193855Y64184D01*
X194213Y64137D01*
X194180Y63637D01*
X186024D01*
X185249Y63483D01*
X184593Y63045D01*
X172587Y51039D01*
X165936D01*
X165837Y51539D01*
X166102Y51649D01*
X166639Y52061D01*
X167052Y52599D01*
X167312Y53225D01*
X167400Y53898D01*
X167312Y54570D01*
X167052Y55196D01*
X166639Y55734D01*
X166102Y56147D01*
X165475Y56406D01*
X164803Y56495D01*
X164131Y56406D01*
X163505Y56147D01*
X163210Y55921D01*
X87101D01*
X87002Y56421D01*
X87362Y56570D01*
X87899Y56983D01*
X88312Y57520D01*
X88572Y58147D01*
X88660Y58819D01*
X88572Y59491D01*
X88312Y60117D01*
X87899Y60655D01*
X87362Y61068D01*
X86735Y61327D01*
X86367Y61376D01*
X84346Y63397D01*
Y73386D01*
X84219Y74024D01*
X84662Y74288D01*
X93687Y65262D01*
D02*
G37*
G36*
X54121Y66050D02*
X54777Y65611D01*
X55551Y65457D01*
X74985D01*
Y59803D01*
X75139Y59029D01*
X75577Y58373D01*
X81483Y52467D01*
X82139Y52029D01*
X82913Y51875D01*
X163210D01*
X163505Y51649D01*
X163769Y51539D01*
X163670Y51039D01*
X67373D01*
X46848Y71564D01*
X46800Y71932D01*
X46540Y72558D01*
X46128Y73096D01*
X45590Y73509D01*
X44963Y73768D01*
X44291Y73857D01*
X43619Y73768D01*
X42993Y73509D01*
X42484Y73118D01*
X42354Y73140D01*
X41984Y73303D01*
Y74785D01*
X42210Y75079D01*
X42469Y75706D01*
X42558Y76378D01*
X42478Y76986D01*
X42605Y77106D01*
X42931Y77239D01*
X54121Y66050D01*
D02*
G37*
G36*
X241024Y100113D02*
X241597Y99876D01*
X241717Y99557D01*
X241760Y99367D01*
X241523Y99070D01*
X231496D01*
X230722Y98916D01*
X230065Y98478D01*
X197516Y65929D01*
X197056Y66176D01*
X197125Y66693D01*
X197036Y67365D01*
X196777Y67991D01*
X196364Y68529D01*
X195826Y68942D01*
X195200Y69201D01*
X194528Y69290D01*
X193855Y69201D01*
X193229Y68942D01*
X192935Y68716D01*
X117380D01*
X117086Y68942D01*
X116460Y69201D01*
X115787Y69290D01*
X115115Y69201D01*
X114489Y68942D01*
X114194Y68716D01*
X95956D01*
X83714Y80958D01*
X83058Y81397D01*
X82284Y81551D01*
X60023D01*
X59769Y82165D01*
X59356Y82702D01*
X58818Y83115D01*
X58192Y83375D01*
X57520Y83463D01*
X56848Y83375D01*
X56221Y83115D01*
X55683Y82702D01*
X55271Y82165D01*
X55011Y81538D01*
X54923Y80866D01*
X55011Y80194D01*
X55271Y79568D01*
X55683Y79030D01*
X56221Y78617D01*
X56848Y78358D01*
X57215Y78309D01*
X57428Y78097D01*
X58084Y77658D01*
X58858Y77504D01*
X72494D01*
X72685Y77043D01*
X69477Y73834D01*
X59703D01*
X59409Y74060D01*
X58782Y74320D01*
X58414Y74368D01*
X46411Y86371D01*
X45755Y86810D01*
X45816Y87308D01*
X56320D01*
X56615Y87082D01*
X57241Y86822D01*
X57913Y86734D01*
X58586Y86822D01*
X59212Y87082D01*
X59506Y87308D01*
X105894D01*
X108961Y84241D01*
X108715Y83780D01*
X108323Y83858D01*
X92089D01*
X91795Y84084D01*
X91168Y84343D01*
X90496Y84432D01*
X89824Y84343D01*
X89198Y84084D01*
X88660Y83671D01*
X88247Y83133D01*
X87988Y82507D01*
X87899Y81835D01*
X87988Y81163D01*
X88247Y80536D01*
X88660Y79998D01*
X89198Y79586D01*
X89824Y79326D01*
X90496Y79238D01*
X91168Y79326D01*
X91795Y79586D01*
X92089Y79812D01*
X107485D01*
X109790Y77506D01*
X110446Y77068D01*
X111221Y76914D01*
X113661D01*
X113831Y76414D01*
X113670Y76290D01*
X113194Y75670D01*
X112895Y74948D01*
X112793Y74173D01*
X112895Y73398D01*
X113194Y72676D01*
X113670Y72056D01*
X114290Y71580D01*
X115013Y71281D01*
X115787Y71179D01*
X137142D01*
X137917Y71281D01*
X138639Y71580D01*
X139259Y72056D01*
X143786Y76584D01*
X143859Y76678D01*
X188328D01*
X188623Y76452D01*
X189249Y76192D01*
X189921Y76104D01*
X190593Y76192D01*
X191220Y76452D01*
X191758Y76864D01*
X192170Y77402D01*
X192430Y78029D01*
X192518Y78701D01*
X192430Y79373D01*
X192170Y79999D01*
X191758Y80537D01*
X191220Y80950D01*
X190593Y81209D01*
X189921Y81298D01*
X189249Y81209D01*
X188623Y80950D01*
X188328Y80724D01*
X143859D01*
X143786Y80818D01*
X143166Y81294D01*
X142444Y81593D01*
X141669Y81695D01*
X141093Y81619D01*
X140859Y82093D01*
X145917Y87150D01*
X216142D01*
X216916Y87304D01*
X217572Y87743D01*
X230169Y100339D01*
X240730D01*
X241024Y100113D01*
D02*
G37*
G36*
X217491Y104812D02*
X217217Y104454D01*
X216818Y103492D01*
X216682Y102461D01*
X216813Y101466D01*
X210678Y95330D01*
X207162D01*
X206999Y95701D01*
X206977Y95830D01*
X207367Y96339D01*
X207627Y96966D01*
X207715Y97638D01*
X207627Y98310D01*
X207367Y98936D01*
X206955Y99474D01*
X206417Y99887D01*
X205790Y100146D01*
X205118Y100235D01*
X204446Y100146D01*
X203820Y99887D01*
X203525Y99661D01*
X191554D01*
X191259Y99887D01*
X190633Y100146D01*
X189961Y100235D01*
X189288Y100146D01*
X188662Y99887D01*
X188124Y99474D01*
X187712Y98936D01*
X187452Y98310D01*
X187364Y97638D01*
X187452Y96966D01*
X187712Y96339D01*
X188102Y95830D01*
X188080Y95701D01*
X187917Y95330D01*
X161239D01*
X160944Y95556D01*
X160318Y95816D01*
X159646Y95904D01*
X158974Y95816D01*
X158347Y95556D01*
X157809Y95144D01*
X157397Y94606D01*
X157137Y93979D01*
X157049Y93307D01*
X157137Y92635D01*
X157397Y92009D01*
X157636Y91696D01*
X157390Y91196D01*
X145079D01*
X144687Y91118D01*
X144440Y91579D01*
X152216Y99355D01*
X170061D01*
X170355Y99129D01*
X170981Y98869D01*
X171653Y98781D01*
X172326Y98869D01*
X172952Y99129D01*
X173490Y99542D01*
X173903Y100079D01*
X174162Y100706D01*
X174251Y101378D01*
X174162Y102050D01*
X173903Y102676D01*
X173490Y103214D01*
X172952Y103627D01*
X172326Y103886D01*
X171653Y103975D01*
X170981Y103886D01*
X170355Y103627D01*
X170061Y103401D01*
X151378D01*
X150604Y103247D01*
X149947Y102808D01*
X132430Y85291D01*
X117889D01*
X117642Y85791D01*
X117840Y86048D01*
X118099Y86674D01*
X118188Y87347D01*
X118099Y88019D01*
X117840Y88645D01*
X117427Y89183D01*
X116889Y89596D01*
X116263Y89855D01*
X115895Y89903D01*
X114360Y91439D01*
X114593Y91912D01*
X115197Y91833D01*
X136929D01*
X137704Y91935D01*
X138426Y92234D01*
X139046Y92710D01*
X143786Y97450D01*
X144262Y98070D01*
X144561Y98792D01*
X144663Y99567D01*
X144648Y99685D01*
X150224Y105260D01*
X217270D01*
X217491Y104812D01*
D02*
G37*
G36*
X113176Y99318D02*
X113832Y98879D01*
X114606Y98725D01*
X135866D01*
X135891Y98730D01*
X136137Y98269D01*
X135689Y97821D01*
X115197D01*
X114422Y97719D01*
X113700Y97420D01*
X113080Y96944D01*
X112604Y96324D01*
X112305Y95602D01*
X112203Y94827D01*
X112282Y94223D01*
X111809Y93989D01*
X88029Y117769D01*
X87373Y118208D01*
X86692Y118343D01*
X86742Y118843D01*
X93650D01*
X113176Y99318D01*
D02*
G37*
G36*
X157269Y194988D02*
X157062Y194488D01*
X116396D01*
X116102Y194714D01*
X115475Y194973D01*
X114803Y195062D01*
X114131Y194973D01*
X113505Y194714D01*
X113210Y194488D01*
X107701D01*
X107479Y194988D01*
X107761Y195355D01*
X108020Y195981D01*
X108109Y196653D01*
X108020Y197326D01*
X107761Y197952D01*
X107535Y198247D01*
Y202165D01*
X107381Y202940D01*
X106942Y203596D01*
X97669Y212869D01*
X97860Y213331D01*
X102347D01*
X102516Y212831D01*
X102297Y212663D01*
X101885Y212125D01*
X101625Y211499D01*
X101537Y210827D01*
X101625Y210155D01*
X101885Y209528D01*
X102297Y208990D01*
X102835Y208578D01*
X103462Y208318D01*
X104134Y208230D01*
X104806Y208318D01*
X105432Y208578D01*
X105727Y208804D01*
X125179D01*
X125473Y208578D01*
X126100Y208318D01*
X126772Y208230D01*
X127444Y208318D01*
X128070Y208578D01*
X128608Y208990D01*
X129021Y209528D01*
X129280Y210155D01*
X129369Y210827D01*
X129280Y211499D01*
X129021Y212125D01*
X128608Y212663D01*
X128389Y212831D01*
X128559Y213331D01*
X138926D01*
X157269Y194988D01*
D02*
G37*
G36*
X153489Y222390D02*
Y206317D01*
X153263Y206023D01*
X153087Y205599D01*
X152541Y205438D01*
X141448Y216531D01*
X141565Y217121D01*
X141850Y217239D01*
X142388Y217652D01*
X142800Y218190D01*
X143060Y218816D01*
X143148Y219488D01*
X143060Y220160D01*
X142800Y220787D01*
X142388Y221325D01*
X142044Y221588D01*
X141994Y222151D01*
X142017Y222209D01*
X142407Y222717D01*
X142666Y223344D01*
X142754Y224016D01*
X142666Y224688D01*
X142407Y225314D01*
X141994Y225852D01*
X141775Y226020D01*
X141945Y226520D01*
X149359D01*
X153489Y222390D01*
D02*
G37*
G36*
X47453Y211405D02*
X47403Y211024D01*
X47491Y210351D01*
X47751Y209725D01*
X48164Y209187D01*
X48702Y208774D01*
X49328Y208515D01*
X50000Y208427D01*
X50672Y208515D01*
X51298Y208774D01*
X51593Y209000D01*
X90304D01*
X98961Y200343D01*
Y198498D01*
X98951Y198490D01*
X98538Y197952D01*
X98279Y197326D01*
X98190Y196653D01*
X98279Y195981D01*
X98538Y195355D01*
X98820Y194988D01*
X98598Y194488D01*
X90066D01*
X88832Y195722D01*
X88176Y196160D01*
X87402Y196315D01*
X82480D01*
X81706Y196160D01*
X81050Y195722D01*
X77902Y192574D01*
X73837D01*
X73543Y192800D01*
X72916Y193060D01*
X72244Y193148D01*
X71572Y193060D01*
X70946Y192800D01*
X70408Y192388D01*
X69995Y191850D01*
X69736Y191223D01*
X69647Y190551D01*
X69736Y189879D01*
X69995Y189253D01*
X70408Y188715D01*
X70946Y188302D01*
X71572Y188043D01*
X72244Y187954D01*
X72916Y188043D01*
X73543Y188302D01*
X73837Y188528D01*
X78740D01*
X79514Y188682D01*
X80171Y189121D01*
X83318Y192268D01*
X83955D01*
X84054Y191768D01*
X83479Y191530D01*
X82859Y191054D01*
X78996Y187191D01*
X58869D01*
X58635Y187664D01*
X64619Y193648D01*
X65058Y194305D01*
X65212Y195079D01*
Y201281D01*
X89378D01*
X90153Y201383D01*
X90875Y201683D01*
X91495Y202158D01*
X91971Y202779D01*
X92270Y203501D01*
X92372Y204276D01*
X92270Y205051D01*
X91971Y205773D01*
X91495Y206393D01*
X90875Y206869D01*
X90153Y207168D01*
X89378Y207270D01*
X58701D01*
X57926Y207168D01*
X57204Y206869D01*
X56584Y206393D01*
X56108Y205773D01*
X55809Y205051D01*
X55707Y204276D01*
X55809Y203501D01*
X56108Y202779D01*
X56584Y202158D01*
X57204Y201683D01*
X57926Y201383D01*
X58701Y201281D01*
X61166D01*
Y198890D01*
X60931Y198749D01*
X60666Y198684D01*
X60196Y199044D01*
X59570Y199304D01*
X58898Y199392D01*
X58226Y199304D01*
X57599Y199044D01*
X57061Y198632D01*
X56649Y198094D01*
X56389Y197468D01*
X56341Y197099D01*
X51038Y191796D01*
X50564Y192030D01*
X50629Y192520D01*
X50540Y193192D01*
X50281Y193818D01*
X49868Y194356D01*
X49330Y194769D01*
X48704Y195028D01*
X48031Y195117D01*
X47359Y195028D01*
X46733Y194769D01*
X46439Y194543D01*
X14621D01*
X14521Y195043D01*
X14881Y195192D01*
X15419Y195605D01*
X15832Y196142D01*
X16091Y196769D01*
X16180Y197441D01*
X16091Y198113D01*
X15832Y198740D01*
X15419Y199277D01*
X14881Y199690D01*
X14255Y199950D01*
X13897Y199997D01*
X13930Y200497D01*
X21687D01*
X21930Y200310D01*
X22556Y200050D01*
X23228Y199962D01*
X23900Y200050D01*
X24527Y200310D01*
X25065Y200723D01*
X25477Y201260D01*
X25656Y201692D01*
X26197D01*
X26294Y201457D01*
X26707Y200920D01*
X27245Y200507D01*
X27871Y200247D01*
X28543Y200159D01*
X29215Y200247D01*
X29842Y200507D01*
X30136Y200733D01*
X34449D01*
X35223Y200887D01*
X35879Y201325D01*
X39084Y204530D01*
X39452Y204578D01*
X40078Y204837D01*
X40616Y205250D01*
X41029Y205788D01*
X41288Y206414D01*
X41377Y207087D01*
X41288Y207759D01*
X41029Y208385D01*
X40616Y208923D01*
X40140Y209288D01*
X40156Y209511D01*
X40279Y209788D01*
X44291D01*
X45066Y209942D01*
X45722Y210381D01*
X46980Y211638D01*
X47453Y211405D01*
D02*
G37*
G36*
X164843Y251491D02*
X164959Y251443D01*
X165154Y250821D01*
X165011Y250475D01*
X164963Y250107D01*
X150934Y236078D01*
X149572D01*
X149553Y236124D01*
X149488Y236578D01*
X150053Y236955D01*
X153257Y240160D01*
X153625Y240208D01*
X154251Y240468D01*
X154789Y240880D01*
X155202Y241418D01*
X155461Y242044D01*
X155550Y242717D01*
X155461Y243389D01*
X155202Y244015D01*
X154789Y244553D01*
X154251Y244966D01*
X153625Y245225D01*
X152953Y245314D01*
X152281Y245225D01*
X151654Y244966D01*
X151116Y244553D01*
X150704Y244015D01*
X150444Y243389D01*
X150396Y243021D01*
X147784Y240409D01*
X135845D01*
X135550Y240635D01*
X134924Y240894D01*
X134252Y240983D01*
X133580Y240894D01*
X132954Y240635D01*
X132416Y240222D01*
X132003Y239684D01*
X131743Y239058D01*
X131655Y238386D01*
X131743Y237714D01*
X132003Y237087D01*
X132394Y236578D01*
X132371Y236449D01*
X132208Y236078D01*
X128982D01*
X128735Y236578D01*
X128824Y236694D01*
X129083Y237320D01*
X129132Y237688D01*
X143161Y251717D01*
X164549D01*
X164843Y251491D01*
D02*
G37*
G36*
X229630Y262809D02*
Y222284D01*
X229784Y221509D01*
X230223Y220853D01*
X231848Y219228D01*
Y212469D01*
X231348Y212261D01*
X224659Y218950D01*
X224003Y219389D01*
X223935Y219402D01*
X223728Y219953D01*
X224122Y220467D01*
X224520Y221429D01*
X224656Y222461D01*
X224520Y223493D01*
X224122Y224454D01*
X223488Y225280D01*
X222663Y225913D01*
X221701Y226312D01*
X220669Y226448D01*
X219637Y226312D01*
X218676Y225913D01*
X217850Y225280D01*
X217217Y224454D01*
X216818Y223493D01*
X216682Y222461D01*
X216818Y221429D01*
X217217Y220467D01*
X217542Y220043D01*
X217296Y219543D01*
X215728D01*
X215122Y219422D01*
X214622Y219723D01*
Y226413D01*
X213663D01*
Y230079D01*
X213561Y230854D01*
X213386Y231277D01*
X213262Y231576D01*
X212787Y232196D01*
X205593Y239390D01*
Y243590D01*
X206093Y243837D01*
X206379Y243617D01*
X207005Y243358D01*
X207677Y243269D01*
X208349Y243358D01*
X208409Y243382D01*
X208774Y242992D01*
X208652Y241752D01*
X208785Y240398D01*
X209180Y239097D01*
X209821Y237897D01*
X210684Y236845D01*
X211736Y235982D01*
X212935Y235341D01*
X214237Y234946D01*
X215591Y234813D01*
X216944Y234946D01*
X218246Y235341D01*
X219446Y235982D01*
X220497Y236845D01*
X221360Y237897D01*
X222001Y239097D01*
X222396Y240398D01*
X222530Y241752D01*
X222396Y243106D01*
X222001Y244407D01*
X221360Y245607D01*
X220497Y246658D01*
X219446Y247521D01*
X218246Y248163D01*
X216944Y248558D01*
X215591Y248691D01*
X214237Y248558D01*
X213806Y248427D01*
X213541Y248869D01*
X223082Y258410D01*
X224410D01*
X225184Y258564D01*
X225840Y259002D01*
X228202Y261365D01*
X228641Y262021D01*
X228795Y262795D01*
Y262880D01*
X229222Y263091D01*
X229630Y262809D01*
D02*
G37*
G36*
X200481Y236033D02*
X207675Y228839D01*
Y226413D01*
X206716D01*
Y218508D01*
X213202D01*
X213393Y218046D01*
X211664Y216317D01*
X210669Y216447D01*
X209637Y216312D01*
X208676Y215913D01*
X207850Y215280D01*
X207217Y214454D01*
X206818Y213492D01*
X206682Y212461D01*
X206818Y211429D01*
X207217Y210467D01*
X207850Y209642D01*
X208676Y209008D01*
X209637Y208610D01*
X210669Y208474D01*
X211701Y208610D01*
X212663Y209008D01*
X213488Y209642D01*
X214122Y210467D01*
X214520Y211429D01*
X214656Y212461D01*
X214525Y213455D01*
X216566Y215497D01*
X217386D01*
X217633Y214997D01*
X217217Y214454D01*
X216818Y213492D01*
X216682Y212461D01*
X216818Y211429D01*
X217217Y210467D01*
X217789Y209721D01*
X217655Y209221D01*
X215406D01*
X214632Y209067D01*
X213976Y208628D01*
X211664Y206316D01*
X210669Y206448D01*
X209637Y206312D01*
X208676Y205913D01*
X207850Y205280D01*
X207217Y204454D01*
X206818Y203492D01*
X206682Y202461D01*
X206818Y201429D01*
X207217Y200467D01*
X207603Y199964D01*
X207356Y199464D01*
X205118D01*
X204344Y199310D01*
X203688Y198872D01*
X199373Y194557D01*
X199302Y194561D01*
X198873Y194717D01*
Y219864D01*
X199100Y220158D01*
X199359Y220784D01*
X199447Y221457D01*
X199359Y222129D01*
X199100Y222755D01*
X198884Y223035D01*
X199021Y223632D01*
X199023Y223634D01*
X199172Y223696D01*
X199710Y224109D01*
X200123Y224646D01*
X200382Y225273D01*
X200471Y225945D01*
X200382Y226617D01*
X200123Y227243D01*
X199897Y227538D01*
Y235972D01*
X200397Y236142D01*
X200481Y236033D01*
D02*
G37*
G36*
X224748Y203874D02*
Y194248D01*
X224249Y194149D01*
X224122Y194454D01*
X223488Y195280D01*
X222663Y195913D01*
X221701Y196312D01*
X220669Y196448D01*
X219674Y196317D01*
X217120Y198872D01*
X216463Y199310D01*
X215689Y199464D01*
X213983D01*
X213736Y199964D01*
X214122Y200467D01*
X214520Y201429D01*
X214656Y202461D01*
X214525Y203455D01*
X216244Y205174D01*
X223448D01*
X224748Y203874D01*
D02*
G37*
G36*
X246661Y186727D02*
X239853Y179919D01*
X239485Y179871D01*
X238859Y179611D01*
X238321Y179199D01*
X237908Y178661D01*
X237649Y178034D01*
X237561Y177362D01*
X237649Y176690D01*
X237908Y176064D01*
X238321Y175526D01*
X238859Y175113D01*
X239485Y174854D01*
X240158Y174765D01*
X240830Y174854D01*
X241456Y175113D01*
X241994Y175526D01*
X242407Y176064D01*
X242666Y176690D01*
X242715Y177058D01*
X250861Y185205D01*
X251323Y185014D01*
Y177806D01*
X243264Y169747D01*
X241357D01*
X241062Y169973D01*
X240436Y170232D01*
X239764Y170321D01*
X239092Y170232D01*
X238465Y169973D01*
X237927Y169560D01*
X237562Y169084D01*
X237340Y169100D01*
X237063Y169223D01*
Y182677D01*
X236909Y183451D01*
X236470Y184108D01*
X235894Y184684D01*
Y187189D01*
X246470D01*
X246661Y186727D01*
D02*
G37*
G36*
X224748Y170673D02*
Y154248D01*
X224249Y154149D01*
X224122Y154454D01*
X223488Y155280D01*
X222663Y155913D01*
X221701Y156312D01*
X220669Y156448D01*
X219637Y156312D01*
X218676Y155913D01*
X217850Y155280D01*
X217217Y154454D01*
X216818Y153492D01*
X216682Y152461D01*
X216818Y151429D01*
X217217Y150467D01*
X217850Y149642D01*
X218676Y149008D01*
X219637Y148610D01*
X220669Y148474D01*
X221701Y148610D01*
X222663Y149008D01*
X223488Y149642D01*
X224122Y150467D01*
X224520Y151429D01*
X224653Y152439D01*
X224698Y152470D01*
X225155Y152588D01*
X225341Y152310D01*
X226127Y151524D01*
Y143522D01*
X225901Y143228D01*
X225641Y142601D01*
X225553Y141929D01*
X225641Y141257D01*
X225901Y140631D01*
X226313Y140093D01*
X226532Y139925D01*
X226362Y139425D01*
X223952D01*
X223706Y139925D01*
X224122Y140467D01*
X224520Y141429D01*
X224656Y142461D01*
X224520Y143492D01*
X224122Y144454D01*
X223488Y145280D01*
X222663Y145913D01*
X221701Y146312D01*
X220669Y146448D01*
X219637Y146312D01*
X218676Y145913D01*
X217850Y145280D01*
X217217Y144454D01*
X216818Y143492D01*
X216682Y142461D01*
X216818Y141429D01*
X217217Y140467D01*
X217633Y139925D01*
X217386Y139425D01*
X213952D01*
X213706Y139925D01*
X214122Y140467D01*
X214520Y141429D01*
X214656Y142461D01*
X214520Y143492D01*
X214122Y144454D01*
X213488Y145280D01*
X212663Y145913D01*
X211701Y146312D01*
X210669Y146448D01*
X209637Y146312D01*
X208676Y145913D01*
X207850Y145280D01*
X207217Y144454D01*
X206818Y143492D01*
X206682Y142461D01*
X206818Y141429D01*
X207217Y140467D01*
X207684Y139858D01*
X207499Y139311D01*
X207297Y139271D01*
X206640Y138832D01*
X202292Y134484D01*
X196121D01*
X195826Y134710D01*
X195200Y134969D01*
X194528Y135058D01*
X193855Y134969D01*
X193229Y134710D01*
X192691Y134297D01*
X192279Y133759D01*
X192019Y133133D01*
X191930Y132461D01*
X192019Y131789D01*
X192279Y131162D01*
X192691Y130624D01*
X193229Y130211D01*
X193855Y129952D01*
X194528Y129864D01*
X195200Y129952D01*
X195826Y130211D01*
X196121Y130438D01*
X203130D01*
X203904Y130591D01*
X204560Y131030D01*
X206237Y132707D01*
X206535Y132560D01*
X206684Y132447D01*
X206818Y131429D01*
X207217Y130467D01*
X207850Y129641D01*
X208676Y129008D01*
X209637Y128610D01*
X210669Y128474D01*
X211701Y128610D01*
X212663Y129008D01*
X213488Y129641D01*
X214122Y130467D01*
X214520Y131429D01*
X214656Y132461D01*
X214520Y133493D01*
X214122Y134454D01*
X213796Y134878D01*
X214043Y135378D01*
X229921D01*
X230696Y135532D01*
X231352Y135971D01*
X234916Y139536D01*
X235379Y139344D01*
Y138976D01*
X235532Y138202D01*
X235971Y137546D01*
X243536Y129981D01*
X243554Y129840D01*
X243814Y129213D01*
X243409Y128941D01*
X243360Y128990D01*
X242703Y129428D01*
X241929Y129582D01*
X231317D01*
X231023Y129808D01*
X230397Y130068D01*
X229724Y130156D01*
X229052Y130068D01*
X228426Y129808D01*
X227888Y129395D01*
X227475Y128858D01*
X227216Y128231D01*
X227127Y127559D01*
X227216Y126887D01*
X227475Y126260D01*
X227888Y125723D01*
X228426Y125310D01*
X229052Y125050D01*
X229724Y124962D01*
X230397Y125050D01*
X231023Y125310D01*
X231317Y125536D01*
X241091D01*
X245418Y121209D01*
Y118325D01*
X245192Y118031D01*
X244932Y117404D01*
X244844Y116732D01*
X244932Y116060D01*
X245192Y115434D01*
X245537Y114984D01*
X245395Y114484D01*
X224099D01*
X223488Y115280D01*
X222663Y115913D01*
X221701Y116312D01*
X220669Y116447D01*
X219637Y116312D01*
X218676Y115913D01*
X217850Y115280D01*
X217217Y114454D01*
X216818Y113493D01*
X216682Y112461D01*
X216818Y111429D01*
X217217Y110467D01*
X217723Y109807D01*
X217506Y109307D01*
X213832D01*
X213615Y109807D01*
X214122Y110467D01*
X214520Y111429D01*
X214656Y112461D01*
X214520Y113493D01*
X214122Y114454D01*
X213488Y115280D01*
X212663Y115913D01*
X211701Y116312D01*
X210669Y116447D01*
X209637Y116312D01*
X208676Y115913D01*
X207850Y115280D01*
X207217Y114454D01*
X206818Y113493D01*
X206682Y112461D01*
X206818Y111429D01*
X207217Y110467D01*
X207723Y109807D01*
X207506Y109307D01*
X149386D01*
X148612Y109153D01*
X147955Y108714D01*
X141787Y102546D01*
X141669Y102561D01*
X141183Y102497D01*
X140950Y102971D01*
X153673Y115693D01*
X180100D01*
X180394Y115468D01*
X181021Y115208D01*
X181693Y115120D01*
X182365Y115208D01*
X182991Y115468D01*
X183529Y115880D01*
X183942Y116418D01*
X184201Y117044D01*
X184290Y117717D01*
X184201Y118389D01*
X183942Y119015D01*
X183863Y119118D01*
X184110Y119618D01*
X207881D01*
X208676Y119008D01*
X209637Y118610D01*
X210669Y118474D01*
X211701Y118610D01*
X212663Y119008D01*
X213488Y119641D01*
X214122Y120467D01*
X214520Y121429D01*
X214656Y122461D01*
X214520Y123493D01*
X214122Y124454D01*
X213488Y125280D01*
X212663Y125913D01*
X211701Y126312D01*
X210669Y126447D01*
X209637Y126312D01*
X208676Y125913D01*
X207850Y125280D01*
X207217Y124454D01*
X206889Y123664D01*
X143468D01*
X142693Y123510D01*
X142037Y123072D01*
X141787Y122821D01*
X141669Y122837D01*
X140894Y122735D01*
X140172Y122435D01*
X139552Y121960D01*
X131217Y113624D01*
X121500D01*
X117708Y117416D01*
X117088Y117892D01*
X116366Y118191D01*
X115591Y118293D01*
X114816Y118191D01*
X114093Y117892D01*
X113473Y117416D01*
X112998Y116796D01*
X112698Y116074D01*
X112596Y115299D01*
X112698Y114524D01*
X112872Y114106D01*
X112448Y113823D01*
X107574Y118696D01*
Y133527D01*
X108074Y133734D01*
X113034Y128775D01*
X113082Y128407D01*
X113341Y127780D01*
X113754Y127242D01*
X114292Y126830D01*
X114918Y126570D01*
X115591Y126482D01*
X116263Y126570D01*
X116889Y126830D01*
X117427Y127242D01*
X117840Y127780D01*
X118099Y128407D01*
X118188Y129079D01*
X118099Y129751D01*
X117840Y130377D01*
X117427Y130915D01*
X116889Y131328D01*
X116263Y131587D01*
X115895Y131636D01*
X114253Y133277D01*
X114536Y133701D01*
X114619Y133667D01*
X115394Y133565D01*
X136929D01*
X137704Y133667D01*
X138426Y133966D01*
X139046Y134442D01*
X143786Y139182D01*
X144262Y139802D01*
X144561Y140524D01*
X144663Y141299D01*
X144561Y142074D01*
X144262Y142796D01*
X143786Y143416D01*
X143166Y143892D01*
X143067Y143934D01*
X143166Y144434D01*
X170225D01*
X176916Y137743D01*
X177572Y137304D01*
X178347Y137150D01*
X181693D01*
X181839Y137179D01*
X182086Y136718D01*
X180068Y134700D01*
X141929D01*
X141155Y134546D01*
X140499Y134108D01*
X130461Y124070D01*
X129743D01*
X129448Y124296D01*
X128822Y124556D01*
X128150Y124644D01*
X127477Y124556D01*
X126851Y124296D01*
X126313Y123884D01*
X125900Y123346D01*
X125641Y122719D01*
X125553Y122047D01*
X125641Y121375D01*
X125900Y120749D01*
X126313Y120211D01*
X126851Y119798D01*
X127477Y119539D01*
X128150Y119450D01*
X128822Y119539D01*
X129448Y119798D01*
X129743Y120024D01*
X131299D01*
X132073Y120178D01*
X132730Y120617D01*
X142767Y130654D01*
X180905D01*
X181680Y130808D01*
X182336Y131247D01*
X185496Y134407D01*
X186016Y134219D01*
X186074Y133777D01*
X186334Y133150D01*
X186746Y132612D01*
X187284Y132200D01*
X187910Y131940D01*
X188583Y131852D01*
X189255Y131940D01*
X189881Y132200D01*
X190419Y132612D01*
X190832Y133150D01*
X191091Y133777D01*
X191140Y134145D01*
X203988Y146993D01*
X207224D01*
X207999Y147147D01*
X208655Y147585D01*
X209675Y148605D01*
X210669Y148474D01*
X211701Y148610D01*
X212663Y149008D01*
X213488Y149642D01*
X214122Y150467D01*
X214520Y151429D01*
X214656Y152461D01*
X214520Y153492D01*
X214122Y154454D01*
X213722Y154975D01*
X213930Y155526D01*
X214357Y155611D01*
X215013Y156050D01*
X217179Y158215D01*
X217617Y158871D01*
X217771Y159646D01*
Y166701D01*
X219674Y168605D01*
X220669Y168474D01*
X221701Y168610D01*
X222663Y169008D01*
X223488Y169641D01*
X224122Y170467D01*
X224249Y170773D01*
X224748Y170673D01*
D02*
G37*
G36*
X112210Y176794D02*
X112686Y176174D01*
X113306Y175698D01*
X114028Y175399D01*
X114803Y175297D01*
X136929D01*
X137704Y175399D01*
X137916Y175487D01*
X138110Y175026D01*
X130334Y167250D01*
X129806Y167469D01*
X129134Y167558D01*
X128462Y167469D01*
X127835Y167210D01*
X127297Y166797D01*
X126885Y166259D01*
X126625Y165633D01*
X126590Y165364D01*
X126062Y165185D01*
X123872Y167375D01*
X123215Y167814D01*
X122441Y167968D01*
X116147D01*
X116049Y168080D01*
X116026Y168158D01*
X116107Y168718D01*
X116443Y168975D01*
X116855Y169512D01*
X117115Y170139D01*
X117203Y170811D01*
X117115Y171483D01*
X116855Y172109D01*
X116443Y172647D01*
X115905Y173060D01*
X115278Y173320D01*
X114606Y173408D01*
X113934Y173320D01*
X113308Y173060D01*
X112770Y172647D01*
X112357Y172109D01*
X112169Y171655D01*
X111669Y171754D01*
Y176795D01*
X112169Y176894D01*
X112210Y176794D01*
D02*
G37*
G36*
X167489Y179847D02*
X167297Y179385D01*
X143307D01*
X142879Y179300D01*
X142633Y179761D01*
X143786Y180914D01*
X144262Y181535D01*
X144561Y182257D01*
X144663Y183031D01*
X144561Y183806D01*
X144262Y184529D01*
X143786Y185149D01*
X143166Y185625D01*
X142444Y185924D01*
X141669Y186026D01*
X140894Y185924D01*
X140172Y185625D01*
X139552Y185149D01*
X135689Y181286D01*
X114803D01*
X114028Y181184D01*
X113306Y180884D01*
X112686Y180409D01*
X112210Y179788D01*
X112169Y179689D01*
X111669Y179788D01*
Y183465D01*
X111515Y184239D01*
X111076Y184895D01*
X107872Y188099D01*
X107824Y188468D01*
X107564Y189094D01*
X107151Y189632D01*
X106748Y189942D01*
X106916Y190442D01*
X113210D01*
X113505Y190216D01*
X114131Y189956D01*
X114803Y189868D01*
X115475Y189956D01*
X116102Y190216D01*
X116396Y190442D01*
X156894D01*
X167489Y179847D01*
D02*
G37*
G36*
X216813Y193455D02*
X216682Y192461D01*
X216818Y191429D01*
X217217Y190467D01*
X217850Y189641D01*
X218676Y189008D01*
X219637Y188610D01*
X220669Y188474D01*
X221701Y188610D01*
X222663Y189008D01*
X223488Y189641D01*
X224122Y190467D01*
X224249Y190773D01*
X224748Y190673D01*
Y184248D01*
X224249Y184149D01*
X224122Y184454D01*
X223488Y185280D01*
X222663Y185913D01*
X221701Y186312D01*
X220669Y186448D01*
X219637Y186312D01*
X218676Y185913D01*
X217850Y185280D01*
X217217Y184454D01*
X216818Y183493D01*
X216682Y182461D01*
X216818Y181429D01*
X217217Y180467D01*
X217850Y179641D01*
X218676Y179008D01*
X219637Y178610D01*
X220669Y178474D01*
X221701Y178610D01*
X222663Y179008D01*
X223488Y179641D01*
X224122Y180467D01*
X224249Y180773D01*
X224748Y180673D01*
Y174248D01*
X224249Y174149D01*
X224122Y174454D01*
X223488Y175280D01*
X222663Y175913D01*
X221701Y176312D01*
X220669Y176447D01*
X219637Y176312D01*
X218676Y175913D01*
X217850Y175280D01*
X217217Y174454D01*
X216818Y173493D01*
X216682Y172461D01*
X216813Y171466D01*
X214317Y168970D01*
X213879Y168314D01*
X213725Y167539D01*
Y165728D01*
X213225Y165482D01*
X212663Y165913D01*
X211701Y166312D01*
X210669Y166447D01*
X209637Y166312D01*
X208676Y165913D01*
X207850Y165280D01*
X207239Y164484D01*
X203602D01*
X202828Y164330D01*
X202172Y163891D01*
X199696Y161415D01*
X199328Y161367D01*
X198702Y161107D01*
X198566Y161004D01*
X198529Y160996D01*
X198028Y161221D01*
X198022Y161303D01*
X202218Y165499D01*
X202657Y166155D01*
X202811Y166929D01*
Y176896D01*
X203310Y177048D01*
X203491Y176778D01*
X206813Y173455D01*
X206682Y172461D01*
X206818Y171429D01*
X207217Y170467D01*
X207850Y169641D01*
X208676Y169008D01*
X209637Y168610D01*
X210669Y168474D01*
X211701Y168610D01*
X212663Y169008D01*
X213488Y169641D01*
X214122Y170467D01*
X214520Y171429D01*
X214656Y172461D01*
X214520Y173493D01*
X214122Y174454D01*
X213488Y175280D01*
X212663Y175913D01*
X211701Y176312D01*
X210669Y176447D01*
X209675Y176316D01*
X206944Y179047D01*
Y186005D01*
X207170Y186300D01*
X207430Y186926D01*
X207518Y187598D01*
X207430Y188271D01*
X207170Y188897D01*
X206758Y189435D01*
X206220Y189848D01*
X205593Y190107D01*
X204921Y190196D01*
X204249Y190107D01*
X203623Y189848D01*
X203310Y189608D01*
X202811Y189855D01*
Y192272D01*
X205956Y195418D01*
X207326D01*
X207572Y194918D01*
X207217Y194454D01*
X206818Y193492D01*
X206682Y192461D01*
X206818Y191429D01*
X207217Y190467D01*
X207850Y189641D01*
X208676Y189008D01*
X209637Y188610D01*
X210669Y188474D01*
X211701Y188610D01*
X212663Y189008D01*
X213488Y189641D01*
X214122Y190467D01*
X214520Y191429D01*
X214656Y192461D01*
X214520Y193492D01*
X214122Y194454D01*
X213766Y194918D01*
X214013Y195418D01*
X214851D01*
X216813Y193455D01*
D02*
G37*
G36*
X87798Y191034D02*
X88454Y190595D01*
X89228Y190442D01*
X103714D01*
X103882Y189942D01*
X103479Y189632D01*
X103066Y189094D01*
X102806Y188468D01*
X102718Y187795D01*
X102806Y187123D01*
X103066Y186497D01*
X103479Y185959D01*
X104016Y185546D01*
X104643Y185287D01*
X105011Y185238D01*
X107623Y182627D01*
Y170946D01*
X107123Y170739D01*
X103005Y174856D01*
X102349Y175294D01*
X101575Y175448D01*
X81299D01*
X80525Y175294D01*
X79869Y174856D01*
X77272Y172259D01*
X45136D01*
X44842Y172485D01*
X44215Y172745D01*
X43543Y172833D01*
X42871Y172745D01*
X42245Y172485D01*
X41707Y172073D01*
X41294Y171535D01*
X41035Y170908D01*
X40946Y170236D01*
X41035Y169564D01*
X41294Y168938D01*
X41707Y168400D01*
X42245Y167987D01*
X42871Y167728D01*
X43543Y167639D01*
X44215Y167728D01*
X44842Y167987D01*
X45136Y168213D01*
X78110D01*
X78885Y168367D01*
X79541Y168806D01*
X82137Y171402D01*
X82850D01*
X83020Y170902D01*
X82859Y170779D01*
X79193Y167112D01*
X58898D01*
X58123Y167010D01*
X57401Y166711D01*
X56780Y166235D01*
X56305Y165615D01*
X56006Y164893D01*
X55904Y164118D01*
X56006Y163343D01*
X56305Y162621D01*
X56780Y162001D01*
X57125Y161736D01*
X56861Y161318D01*
X56087Y161472D01*
X40576D01*
X40206Y161831D01*
X40160Y161943D01*
X40212Y162205D01*
Y172981D01*
X41925Y174693D01*
X57305D01*
X57599Y174468D01*
X58226Y174208D01*
X58898Y174119D01*
X59570Y174208D01*
X60196Y174468D01*
X60734Y174880D01*
X61147Y175418D01*
X61406Y176044D01*
X61495Y176717D01*
X61406Y177389D01*
X61147Y178015D01*
X60734Y178553D01*
X60196Y178966D01*
X59570Y179225D01*
X58898Y179314D01*
X58226Y179225D01*
X57599Y178966D01*
X57305Y178740D01*
X41087D01*
X40312Y178586D01*
X39656Y178147D01*
X36758Y175250D01*
X36320Y174593D01*
X36166Y173819D01*
Y163043D01*
X35763Y162640D01*
X35235Y162819D01*
X35186Y163192D01*
X34926Y163818D01*
X34514Y164356D01*
X33976Y164769D01*
X33349Y165028D01*
X32677Y165117D01*
X32005Y165028D01*
X31379Y164769D01*
X31084Y164543D01*
X-1295D01*
X-1612Y164957D01*
X-1366Y165457D01*
X29583D01*
X30357Y165611D01*
X31013Y166050D01*
X34501Y169538D01*
X34940Y170194D01*
X35094Y170968D01*
Y182627D01*
X37452Y184985D01*
X49110D01*
X49190Y185001D01*
X49509Y184554D01*
X49425Y184411D01*
X49328Y184398D01*
X48702Y184139D01*
X48164Y183726D01*
X47751Y183188D01*
X47491Y182562D01*
X47403Y181890D01*
X47491Y181218D01*
X47751Y180591D01*
X48164Y180053D01*
X48702Y179641D01*
X49328Y179381D01*
X50000Y179293D01*
X50672Y179381D01*
X51298Y179641D01*
X51836Y180053D01*
X52249Y180591D01*
X52508Y181218D01*
X52557Y181586D01*
X55251Y184279D01*
X55726Y184048D01*
X55809Y183422D01*
X56108Y182700D01*
X56584Y182080D01*
X57204Y181604D01*
X57926Y181305D01*
X58701Y181203D01*
X80236D01*
X81011Y181305D01*
X81733Y181604D01*
X82353Y182080D01*
X87094Y186820D01*
X87569Y187440D01*
X87868Y188162D01*
X87971Y188937D01*
X87868Y189712D01*
X87569Y190434D01*
X87169Y190955D01*
X87546Y191286D01*
X87798Y191034D01*
D02*
G37*
%LPC*%
G36*
X141669Y207679D02*
X140894Y207577D01*
X140172Y207278D01*
X139552Y206802D01*
X135689Y202939D01*
X114803D01*
X114028Y202837D01*
X113306Y202538D01*
X112686Y202062D01*
X112210Y201442D01*
X111911Y200720D01*
X111809Y199945D01*
X111911Y199170D01*
X112210Y198448D01*
X112686Y197828D01*
X113306Y197352D01*
X114028Y197053D01*
X114803Y196951D01*
X136929D01*
X137704Y197053D01*
X138426Y197352D01*
X139046Y197828D01*
X143786Y202568D01*
X144262Y203188D01*
X144561Y203910D01*
X144663Y204685D01*
X144561Y205460D01*
X144262Y206182D01*
X143786Y206802D01*
X143166Y207278D01*
X142444Y207577D01*
X141669Y207679D01*
D02*
G37*
G36*
X220669Y126447D02*
X219637Y126312D01*
X218676Y125913D01*
X217850Y125280D01*
X217217Y124454D01*
X216818Y123493D01*
X216682Y122461D01*
X216818Y121429D01*
X217217Y120467D01*
X217850Y119641D01*
X218676Y119008D01*
X219637Y118610D01*
X220669Y118474D01*
X221701Y118610D01*
X222663Y119008D01*
X223488Y119641D01*
X224122Y120467D01*
X224520Y121429D01*
X224656Y122461D01*
X224520Y123493D01*
X224122Y124454D01*
X223488Y125280D01*
X222663Y125913D01*
X221701Y126312D01*
X220669Y126447D01*
D02*
G37*
G36*
X176614Y62203D02*
X175942Y62115D01*
X175316Y61855D01*
X175021Y61629D01*
X117380D01*
X117086Y61855D01*
X116460Y62115D01*
X115787Y62203D01*
X115115Y62115D01*
X114489Y61855D01*
X113951Y61443D01*
X113538Y60905D01*
X113279Y60278D01*
X113190Y59606D01*
X113279Y58934D01*
X113538Y58308D01*
X113951Y57770D01*
X114489Y57357D01*
X115115Y57098D01*
X115787Y57009D01*
X116460Y57098D01*
X117086Y57357D01*
X117380Y57583D01*
X175021D01*
X175316Y57357D01*
X175942Y57098D01*
X176614Y57009D01*
X177286Y57098D01*
X177913Y57357D01*
X178451Y57770D01*
X178863Y58308D01*
X179123Y58934D01*
X179211Y59606D01*
X179123Y60278D01*
X178863Y60905D01*
X178451Y61443D01*
X177913Y61855D01*
X177286Y62115D01*
X176614Y62203D01*
D02*
G37*
%LPD*%
D10*
X102811Y270630D02*
D03*
X110291D02*
D03*
D11*
X101181Y282441D02*
D03*
X110236D02*
D03*
X119291D02*
D03*
X-16929Y279331D02*
D03*
X-7874D02*
D03*
X1181D02*
D03*
D12*
X110236Y305276D02*
D03*
X-7874Y302165D02*
D03*
D13*
X-19291Y264386D02*
D03*
Y256906D02*
D03*
D14*
X-9843Y260039D02*
D03*
X0Y263779D02*
D03*
Y256299D02*
D03*
D15*
X193189Y299764D02*
Y303465D01*
X189961Y306693D02*
X193189Y303465D01*
X163779Y306693D02*
X189961D01*
X155394Y298307D02*
X163779Y306693D01*
X155394Y290354D02*
Y298307D01*
X119291Y282441D02*
X152126D01*
X145394Y282559D02*
Y290354D01*
X155394Y285709D02*
Y290354D01*
X152126Y282441D02*
X155394Y285709D01*
X165433Y290315D02*
X205354D01*
X165394Y290354D02*
X165433Y290315D01*
X205354D02*
X207598Y292559D01*
X225984Y231299D02*
Y239764D01*
Y231299D02*
X227165Y230118D01*
X146811Y262756D02*
X163347Y279291D01*
X105354Y262756D02*
X146811D01*
X58701Y204276D02*
X63189D01*
X89378D01*
X120260Y110630D02*
X132457D01*
X115591Y115299D02*
X120260Y110630D01*
X220669Y132461D02*
X235094D01*
X202599Y238150D02*
Y245866D01*
X292362Y266102D02*
X309488Y248976D01*
X264016Y162461D02*
X287343D01*
X210669Y222461D02*
Y230079D01*
X202599Y238150D02*
X210669Y230079D01*
X137142Y74173D02*
X141669Y78701D01*
X115787Y74173D02*
X137142D01*
X136929Y94827D02*
X141669Y99567D01*
X115197Y94827D02*
X136929D01*
X132457Y110630D02*
X141669Y119843D01*
X136929Y136559D02*
X141669Y141299D01*
X115394Y136559D02*
X136929D01*
X137126Y157032D02*
X141669Y161575D01*
X115000Y157032D02*
X137126D01*
X136929Y178291D02*
X141669Y183031D01*
X114803Y178291D02*
X136929D01*
Y199945D02*
X141669Y204685D01*
X114803Y199945D02*
X136929D01*
X80236Y126323D02*
X84976Y131063D01*
X59291Y126323D02*
X80236D01*
X80433Y164118D02*
X84976Y168661D01*
X58898Y164118D02*
X80433D01*
X80236Y184197D02*
X84976Y188937D01*
X58701Y184197D02*
X80236D01*
X84882Y111772D02*
Y111969D01*
X79748Y106638D02*
X84882Y111772D01*
X59291Y106638D02*
X79748D01*
X-4724Y172520D02*
X12795D01*
X292362Y266102D02*
Y288740D01*
X287244Y293858D02*
X292362Y288740D01*
X287244Y293858D02*
Y302323D01*
X280748Y308819D02*
X287244Y302323D01*
X234488Y308819D02*
X280748D01*
X231732Y306063D02*
X234488Y308819D01*
X231732Y300157D02*
Y306063D01*
X306929Y182047D02*
Y193701D01*
X287343Y162461D02*
X306929Y182047D01*
X265866Y279291D02*
Y300157D01*
X102811Y265299D02*
X105354Y262756D01*
X102811Y265299D02*
Y270630D01*
X207598Y292559D02*
Y299764D01*
X110236Y270685D02*
X110291Y270630D01*
X110236Y270685D02*
Y282441D01*
Y305276D01*
X47284Y246220D02*
X60079D01*
X38622Y254882D02*
X47284Y246220D01*
X38622Y254882D02*
Y263937D01*
X-14724Y222520D02*
X-4724D01*
X274843Y115984D02*
Y156890D01*
X239961Y81102D02*
X274843Y115984D01*
X239567Y162461D02*
X264016D01*
X263583Y67126D02*
Y87795D01*
X263386Y66929D02*
X263583Y67126D01*
X263386Y66929D02*
X285669D01*
X306929Y45669D01*
X274843Y187835D02*
X309488Y222480D01*
Y248976D01*
X274843Y167913D02*
Y187835D01*
X264016Y162461D02*
Y192165D01*
X272244Y200394D01*
Y226457D02*
X274016Y228228D01*
X269094Y209055D02*
X272244Y205906D01*
Y200394D02*
Y205906D01*
X269094Y209055D02*
Y221850D01*
X272244Y225000D01*
Y226457D01*
X227165Y220079D02*
X228543Y218701D01*
X227165Y220079D02*
Y230118D01*
X-19291Y247087D02*
Y256906D01*
Y247087D02*
X-14724Y242520D01*
X-16929Y264386D02*
Y279331D01*
Y264386D02*
X-16929Y264386D01*
X-11433D01*
X-9843Y262795D01*
Y260039D02*
Y262795D01*
X-7874Y279331D02*
Y302165D01*
X16535D01*
X29331Y289370D01*
X36220D01*
X43307Y282283D01*
X60039D01*
X67126Y289370D01*
Y296063D01*
X-14724Y242520D02*
X-4724D01*
X1181Y279331D02*
X6299D01*
X58898Y145614D02*
X64315D01*
X68858Y150157D01*
X84976D01*
D16*
X150984Y257677D02*
X169449Y276142D01*
X138858Y257677D02*
X150984D01*
X122677Y241496D02*
X138858Y257677D01*
X169449Y276142D02*
X211811D01*
X191732Y149213D02*
Y256378D01*
X181693Y139173D02*
X191732Y149213D01*
X178347Y139173D02*
X181693D01*
X171063Y146457D02*
X178347Y139173D01*
X139370Y146457D02*
X171063D01*
X137402Y149803D02*
X180118D01*
X135138Y147539D02*
X137402Y149803D01*
X126083Y147539D02*
X135138D01*
X136378Y143465D02*
X139370Y146457D01*
X127795Y143465D02*
X136378D01*
X123583Y145039D02*
X126083Y147539D01*
X114409Y145039D02*
X123583D01*
X141929Y132677D02*
X180905D01*
X131299Y122047D02*
X141929Y132677D01*
X128150Y122047D02*
X131299D01*
X171653Y266299D02*
X173622Y264331D01*
Y224803D02*
Y264331D01*
X171653Y222835D02*
X173622Y224803D01*
X171653Y189370D02*
Y222835D01*
X269134Y117559D02*
Y156850D01*
X264035Y112461D02*
X269134Y117559D01*
X220669Y112461D02*
X264035D01*
X215748Y167539D02*
X220669Y172461D01*
X215748Y159646D02*
Y167539D01*
X213583Y157480D02*
X215748Y159646D01*
X205906Y157480D02*
X213583D01*
X202559Y154134D02*
X205906Y157480D01*
X174016Y155315D02*
X181496D01*
X167756Y161575D02*
X174016Y155315D01*
X167717Y167717D02*
X175000Y160433D01*
X139567Y167717D02*
X167717D01*
X133071Y161221D02*
X139567Y167717D01*
X141669Y161575D02*
X167756D01*
X203602Y162461D02*
X210669D01*
X200000Y158858D02*
X203602Y162461D01*
X175394Y164961D02*
X181102D01*
X168110Y172244D02*
X175394Y164961D01*
X155512Y172244D02*
X168110D01*
X175394Y170079D02*
X179921D01*
X168110Y177362D02*
X175394Y170079D01*
X143307Y177362D02*
X168110D01*
X175000Y160433D02*
X181102D01*
X180118Y143701D02*
X187060Y150643D01*
X180118Y143504D02*
Y143701D01*
X195669Y147441D02*
Y161811D01*
X180905Y132677D02*
X195669Y147441D01*
X196850Y168898D02*
Y221457D01*
X157732Y192465D02*
X174803Y175394D01*
X180118D01*
X174606Y180512D02*
X180512D01*
X81299Y173425D02*
X101575D01*
X78110Y170236D02*
X81299Y173425D01*
X43543Y170236D02*
X78110D01*
X99055Y168661D02*
X101772Y165945D01*
X84976Y168661D02*
X99055D01*
X101575Y173425D02*
X106102Y168898D01*
Y153543D02*
Y168898D01*
X143468Y121641D02*
X210669D01*
X141669Y119843D02*
X143468Y121641D01*
X164764Y196260D02*
Y235827D01*
X164961Y236024D01*
X148622Y238386D02*
X152953Y242717D01*
X134252Y238386D02*
X148622D01*
X151772Y234055D02*
X167520Y249803D01*
X120472Y234055D02*
X151772D01*
X114764Y239764D02*
X120472Y234055D01*
X139764Y215354D02*
X174606Y180512D01*
X92323Y215354D02*
X139764D01*
X104134Y210827D02*
X126772D01*
X105512Y196653D02*
Y202165D01*
X92323Y215354D02*
X105512Y202165D01*
X100984Y197638D02*
Y201181D01*
X91142Y211024D02*
X100984Y201181D01*
X50000Y211024D02*
X91142D01*
X100394Y197047D02*
X100984Y197638D01*
X114173Y165945D02*
X122441D01*
X127165Y161221D01*
X101772Y158858D02*
Y159252D01*
X101575Y159449D02*
X101772Y159252D01*
X100945Y158819D02*
X101575Y159449D01*
X109095Y135575D02*
Y150551D01*
X106102Y153543D02*
X109095Y150551D01*
X105551Y117858D02*
Y148976D01*
X99410Y155118D02*
X105551Y148976D01*
X86184Y151365D02*
X97035D01*
X99803Y147638D02*
X102205Y145236D01*
Y140118D02*
Y145236D01*
X207224Y149016D02*
X210669Y152461D01*
X203150Y149016D02*
X207224D01*
X188583Y134449D02*
X203150Y149016D01*
X187060Y150643D02*
Y261705D01*
X114803Y192465D02*
X157732D01*
X150197Y228543D02*
X155512Y223228D01*
Y204724D02*
Y223228D01*
X181653Y219843D02*
Y266299D01*
X176378Y214567D02*
X181653Y219843D01*
X176378Y185039D02*
Y214567D01*
X127165Y161221D02*
X133071D01*
X130905Y164961D02*
X143307Y177362D01*
X129134Y164961D02*
X130905D01*
X105315Y187795D02*
X109646Y183465D01*
Y154906D02*
Y183465D01*
Y154906D02*
X115000Y149551D01*
X191732Y256378D02*
X201654Y266299D01*
X187060Y261705D02*
X191654Y266299D01*
X41929Y142323D02*
Y154724D01*
X35433Y65748D02*
Y76181D01*
X56087Y159449D02*
X58898Y156638D01*
X40354Y159449D02*
X56087D01*
X31299Y150394D02*
X40354Y159449D01*
X38189Y162205D02*
Y173819D01*
X31535Y155551D02*
X38189Y162205D01*
X18268Y155551D02*
X31535D01*
X63189Y195079D02*
Y204276D01*
X50000Y181890D02*
X63189Y195079D01*
X35433Y65748D02*
X60236Y40945D01*
X180905D01*
X191535Y51575D01*
X188189Y56890D02*
X197244D01*
X176378Y45079D02*
X188189Y56890D01*
X62992Y45079D02*
X176378D01*
X186024Y61614D02*
X196063D01*
X173425Y49016D02*
X186024Y61614D01*
X66535Y49016D02*
X173425D01*
X135866Y100748D02*
X152835Y117717D01*
X181693D01*
X47441Y142717D02*
Y155315D01*
X39961Y68110D02*
Y76378D01*
Y68110D02*
X62992Y45079D01*
X230315Y157874D02*
X231102Y157087D01*
X224286Y207198D02*
X226772Y204712D01*
Y153740D02*
Y204712D01*
Y153740D02*
X228150Y152362D01*
X235039Y153740D02*
Y182677D01*
X234055Y152756D02*
X235039Y153740D01*
X233871Y183846D02*
X235039Y182677D01*
X234055Y141535D02*
Y152756D01*
X229921Y137402D02*
X234055Y141535D01*
X237402Y150000D02*
X239764Y152362D01*
X237402Y138976D02*
Y150000D01*
Y138976D02*
X245866Y130512D01*
X239764Y152362D02*
Y157087D01*
X242520Y97047D02*
X247441Y101969D01*
X231496Y97047D02*
X242520D01*
X44291Y71260D02*
X66535Y49016D01*
X55551Y67480D02*
X77008D01*
X42323Y80709D02*
X55551Y67480D01*
X25787Y80709D02*
X42323D01*
X3976Y102520D02*
X25787Y80709D01*
X58110Y71811D02*
Y71811D01*
X44980Y84941D02*
X58110Y71811D01*
X28248Y84941D02*
X44980D01*
X5551Y107638D02*
X28248Y84941D01*
X47496Y106638D02*
X59291D01*
X229331Y102362D02*
X242323D01*
X216142Y89173D02*
X229331Y102362D01*
X247441Y116732D02*
Y122047D01*
X241929Y127559D02*
X247441Y122047D01*
X229724Y127559D02*
X241929D01*
X149386Y107283D02*
X250984D01*
X245866Y130512D02*
X246063D01*
X145079Y89173D02*
X216142D01*
X228150Y141929D02*
Y152362D01*
X208071Y137402D02*
X229921D01*
X215406Y207198D02*
X224286D01*
X210669Y202461D02*
X215406Y207198D01*
X210669Y212461D02*
X215728Y217520D01*
X134843Y78937D02*
X145079Y89173D01*
X211516Y93307D02*
X220669Y102461D01*
X159646Y93307D02*
X211516D01*
X151378Y101378D02*
X171653D01*
X133268Y83268D02*
X151378Y101378D01*
X111221Y78937D02*
X134843D01*
X108323Y81835D02*
X111221Y78937D01*
X90496Y81835D02*
X108323D01*
X112795Y83268D02*
X133268D01*
X106732Y89331D02*
X112795Y83268D01*
X57913Y89331D02*
X106732D01*
X95118Y66693D02*
X115787D01*
X82284Y79528D02*
X95118Y66693D01*
X58858Y79528D02*
X82284D01*
X57520Y80866D02*
X58858Y79528D01*
X194528Y132461D02*
X203130D01*
X208071Y137402D01*
X239764Y167724D02*
X244102D01*
X118110Y228543D02*
X150197D01*
X70472Y233465D02*
X83858D01*
X34449Y202756D02*
X38780Y207087D01*
X28543Y202756D02*
X34449D01*
X-9764Y187559D02*
X28543D01*
X93150Y253504D02*
X118110Y228543D01*
X93150Y253504D02*
Y279882D01*
X224410Y260433D02*
X226772Y262795D01*
X222244Y260433D02*
X224410D01*
X207677Y245866D02*
X222244Y260433D01*
X206575Y250000D02*
X207717Y251142D01*
X199803Y250000D02*
X206575D01*
X197874Y248071D02*
X199803Y250000D01*
X197874Y225945D02*
Y248071D01*
X226772Y262795D02*
Y269882D01*
X228937Y272047D01*
X235906D01*
X241653Y266299D01*
X105551Y117858D02*
X115591Y107819D01*
X210669Y121641D02*
Y122461D01*
X189961Y97638D02*
X205118D01*
X141669Y78701D02*
X189921D01*
X241142Y147402D02*
X243110D01*
X211811Y276142D02*
X221654Y266299D01*
X287638Y263740D02*
Y269252D01*
X-9724Y177520D02*
X23425D01*
X9701Y138134D02*
X59095D01*
X236Y147598D02*
X9701Y138134D01*
X18362Y118842D02*
X59488D01*
X-354Y137559D02*
X18362Y118842D01*
X28402Y99158D02*
X59291D01*
X39Y127520D02*
X28402Y99158D01*
X-9724Y127520D02*
X39D01*
X-14724Y122520D02*
X-9724Y127520D01*
X-9685Y137559D02*
X-354D01*
X-14724Y132520D02*
X-9685Y137559D01*
X-9646Y147598D02*
X236D01*
X-14724Y142520D02*
X-9646Y147598D01*
X-14724Y152520D02*
X-9606Y157638D01*
X-14724Y162520D02*
X-9764Y167480D01*
X-14724Y172520D02*
X-9724Y177520D01*
X30354Y89331D02*
X57913D01*
X2205Y117480D02*
X30354Y89331D01*
X-9764Y117480D02*
X2205D01*
X-14724Y112520D02*
X-9764Y117480D01*
X-14724Y102520D02*
X-9606Y107638D01*
X5551D01*
X-4724Y102520D02*
X3976D01*
X93150Y279882D02*
X95709Y282441D01*
X101181D01*
X282716Y274173D02*
X287638Y269252D01*
X250236Y274173D02*
X282716D01*
X241732Y282677D02*
X250236Y274173D01*
X241732Y282677D02*
Y300157D01*
X77008Y67480D02*
X77008Y67480D01*
X77008Y67480D02*
Y71811D01*
X77008Y71811D01*
X205354Y272598D02*
X211653Y266299D01*
X179764Y272598D02*
X205354D01*
X176811Y269646D02*
X179764Y272598D01*
X176811Y221417D02*
Y269646D01*
X115787Y66693D02*
X194528D01*
X77008Y59803D02*
Y67480D01*
X82913Y53898D02*
X164803D01*
X77008Y59803D02*
X82913Y53898D01*
X59291Y99158D02*
X96118D01*
X100827Y94449D01*
X115787Y59606D02*
X176614D01*
X109095Y135575D02*
X115591Y129079D01*
X82323Y62559D02*
X86063Y58819D01*
X79567Y76142D02*
X82323Y73386D01*
Y62559D02*
Y73386D01*
X58110Y71811D02*
X70315D01*
X74646Y76142D01*
X79567D01*
X99843Y137756D02*
X102205Y140118D01*
X-14724Y192520D02*
X-9764Y187559D01*
X142323Y253740D02*
X166142D01*
X126575Y237992D02*
X142323Y253740D01*
X141669Y99567D02*
X149386Y107283D01*
X-4724Y182520D02*
X13189D01*
X-14724Y202520D02*
X-9646Y197441D01*
X114606Y100748D02*
X135866D01*
X86598Y116339D02*
X115591Y87347D01*
X80315Y116339D02*
X86598D01*
X78150Y114173D02*
X80315Y116339D01*
X20669Y114173D02*
X78150D01*
X197638Y253740D02*
X204331D01*
X205709Y255118D01*
X209842D01*
X-4724Y192520D02*
X48031D01*
X72244Y190551D02*
X78740D01*
X82480Y194291D01*
X87402D01*
X89228Y192465D01*
X114803D01*
X-9646Y197441D02*
X13583D01*
X42717Y221063D02*
X44291Y219488D01*
X140551D01*
X-4724Y202520D02*
X23228D01*
X-14724Y212520D02*
X-9724Y217520D01*
X-9764Y167480D02*
X29583D01*
X59488Y118842D02*
X76913D01*
X78937Y120866D01*
X94488D01*
X114606Y100748D01*
X-4724Y162520D02*
X32677D01*
X33071Y170968D02*
Y183465D01*
X36614Y187008D01*
X29583Y167480D02*
X33071Y170968D01*
X36614Y187008D02*
X49110D01*
X58898Y196795D01*
X38189Y173819D02*
X41087Y176717D01*
X58898D01*
X48031Y224016D02*
X140157D01*
X70473Y228543D02*
X83858D01*
X205118Y197441D02*
X215689D01*
X220669Y192461D01*
X195669Y161811D02*
X200787Y166929D01*
Y193110D01*
X205118Y197441D01*
X204921Y178209D02*
Y187598D01*
Y178209D02*
X210669Y172461D01*
X287638Y263740D02*
X304134Y247244D01*
X243110Y147402D02*
X251378Y155669D01*
Y156496D01*
Y167913D02*
Y168898D01*
X256496Y174016D01*
X244102Y167724D02*
X253346Y176969D01*
Y209842D01*
X240158Y177362D02*
X250197Y187402D01*
Y208858D01*
X196063Y61614D02*
X231496Y97047D01*
X197244Y56890D02*
X232677Y92323D01*
X215728Y217520D02*
X223228D01*
X230315Y210433D01*
Y157874D02*
Y210433D01*
X284016Y238228D02*
Y243858D01*
X286024Y245866D01*
X293110D01*
X264016Y238228D02*
X275984Y250197D01*
X295472D01*
X300394Y245276D01*
Y225787D02*
Y245276D01*
X291929Y217323D02*
X300394Y225787D01*
X304134Y224213D02*
Y247244D01*
X269134Y167874D02*
Y189213D01*
X304134Y224213D01*
X287008Y217323D02*
X291929D01*
X264016Y206260D02*
Y228228D01*
Y206260D02*
X266929Y203346D01*
X274213Y218425D02*
X284016Y228228D01*
X274213Y212008D02*
Y218425D01*
X254173Y248819D02*
X271654Y266299D01*
X243110Y242520D02*
X249410Y248819D01*
X254173D01*
X243110Y224409D02*
Y242520D01*
Y224409D02*
X256496Y211024D01*
Y174016D02*
Y211024D01*
X233871Y183846D02*
Y220066D01*
X239173Y224016D02*
X253346Y209842D01*
X239173Y224016D02*
Y243819D01*
X261653Y266299D01*
X235433Y223622D02*
X250197Y208858D01*
X235433Y223622D02*
Y250079D01*
X251654Y266299D01*
X231653Y222284D02*
X233871Y220066D01*
X231653Y222284D02*
Y266299D01*
X-9606Y157638D02*
X-2126D01*
X5118Y150394D01*
X31299D01*
X-4724Y212520D02*
X216Y207579D01*
X31791D01*
X47835Y215354D02*
X92323D01*
X44291Y211811D02*
X47835Y215354D01*
X-9724Y217520D02*
X-1181D01*
X4528Y211811D01*
X44291D01*
X0Y256299D02*
X6496D01*
X9646Y253150D01*
Y216339D02*
Y253150D01*
X36220Y131890D02*
X38386Y134055D01*
X23031Y126181D02*
X49606D01*
X53937Y130512D01*
X97496Y126323D02*
X100000Y123819D01*
X80236Y126323D02*
X97496D01*
X58898Y156638D02*
X61079Y158819D01*
X100945D01*
X58701Y151142D02*
X62362D01*
X66339Y155118D01*
X99410D01*
X53937Y130512D02*
X70079D01*
X77362Y137795D01*
X93307D01*
X99410Y131693D01*
X59095Y138134D02*
X64906D01*
X72244Y145472D01*
X38386Y134055D02*
X67520D01*
X75197Y141732D01*
X96535D01*
X98268Y143465D01*
X72244Y145472D02*
X93110D01*
X95276Y147638D01*
X99803D01*
D17*
X48425Y287362D02*
X57126Y296063D01*
D18*
X52461Y274705D02*
D03*
D19*
X135394Y290354D02*
D03*
X171653Y266299D02*
D03*
X265866Y300157D02*
D03*
X207598Y299764D02*
D03*
X183189D02*
D03*
X231732Y300157D02*
D03*
X67126Y296063D02*
D03*
D20*
X145394Y290354D02*
D03*
X155394D02*
D03*
X165394D02*
D03*
X281653Y266299D02*
D03*
X271654D02*
D03*
X261653D02*
D03*
X251654D02*
D03*
X241653D02*
D03*
X231653D02*
D03*
X221654D02*
D03*
X211653D02*
D03*
X201654D02*
D03*
X191654D02*
D03*
X181653D02*
D03*
X220669Y102461D02*
D03*
X210669D02*
D03*
X220669Y112461D02*
D03*
X210669D02*
D03*
X220669Y122461D02*
D03*
X210669D02*
D03*
X220669Y132461D02*
D03*
X210669D02*
D03*
X220669Y142461D02*
D03*
X210669D02*
D03*
X220669Y152461D02*
D03*
X210669D02*
D03*
X220669Y162461D02*
D03*
X210669D02*
D03*
X220669Y172461D02*
D03*
X210669D02*
D03*
X220669Y182461D02*
D03*
X210669D02*
D03*
X220669Y192461D02*
D03*
X210669D02*
D03*
X220669Y202461D02*
D03*
X210669D02*
D03*
X220669Y212461D02*
D03*
X210669D02*
D03*
X220669Y222461D02*
D03*
X-14724Y102520D02*
D03*
X-4724Y112520D02*
D03*
X-14724D02*
D03*
X-4724Y122520D02*
D03*
X-14724D02*
D03*
X-4724Y132520D02*
D03*
X-14724D02*
D03*
X-4724Y142520D02*
D03*
X-14724D02*
D03*
X-4724Y152520D02*
D03*
X-14724D02*
D03*
X-4724Y162520D02*
D03*
X-14724D02*
D03*
X-4724Y172520D02*
D03*
X-14724D02*
D03*
X-4724Y182520D02*
D03*
X-14724D02*
D03*
X-4724Y192520D02*
D03*
X-14724D02*
D03*
X-4724Y202520D02*
D03*
X-14724D02*
D03*
X-4724Y212520D02*
D03*
X-14724D02*
D03*
X-4724Y222520D02*
D03*
X-14724D02*
D03*
X-4724Y232520D02*
D03*
X-14724D02*
D03*
X-4724Y242520D02*
D03*
X-14724D02*
D03*
X275866Y300157D02*
D03*
X217598Y299764D02*
D03*
X193189D02*
D03*
X251732Y300157D02*
D03*
X241732D02*
D03*
X37126Y296063D02*
D03*
X47126D02*
D03*
X57126D02*
D03*
D21*
X241968Y203051D02*
D03*
X306929D02*
D03*
Y193701D02*
D03*
X241968D02*
D03*
Y45669D02*
D03*
X306929D02*
D03*
D22*
X22677Y241752D02*
D03*
Y13386D02*
D03*
X215591D02*
D03*
Y241752D02*
D03*
X300630Y15748D02*
D03*
Y298752D02*
D03*
D23*
X210669Y222461D02*
D03*
X-4724Y102520D02*
D03*
D24*
X66181Y263937D02*
D03*
X56339D02*
D03*
X48465D02*
D03*
X38622D02*
D03*
D25*
X78268Y274567D02*
D03*
X26535D02*
D03*
D26*
X40354Y303740D02*
D03*
X48228D02*
D03*
X56102D02*
D03*
D27*
X63976D02*
D03*
D28*
X254016Y228228D02*
D03*
D29*
X264016D02*
D03*
X274016D02*
D03*
X284016D02*
D03*
X294016D02*
D03*
Y238228D02*
D03*
X284016D02*
D03*
X274016D02*
D03*
X264016D02*
D03*
X254016D02*
D03*
D30*
X273228Y203346D02*
D03*
X163347Y279291D02*
D03*
X234055Y66732D02*
D03*
X214370Y67126D02*
D03*
X133661Y173425D02*
D03*
X239567Y184055D02*
D03*
X245866Y176378D02*
D03*
X189764Y112205D02*
D03*
X155709Y112598D02*
D03*
X181693Y186811D02*
D03*
X134646Y210433D02*
D03*
X148819Y213583D02*
D03*
X202559Y208858D02*
D03*
X143701Y245472D02*
D03*
X53347Y154528D02*
D03*
X155709Y155512D02*
D03*
X133465Y151969D02*
D03*
X110039Y119488D02*
D03*
X133858Y130709D02*
D03*
X119685Y185630D02*
D03*
X101575Y108268D02*
D03*
X169685Y245866D02*
D03*
X101378Y177953D02*
D03*
X86417Y69685D02*
D03*
X78150Y178150D02*
D03*
X48622Y200984D02*
D03*
X69882Y56102D02*
D03*
X201181Y78937D02*
D03*
X273031Y99803D02*
D03*
X263189Y126575D02*
D03*
X202559Y154134D02*
D03*
X181496Y155315D02*
D03*
X200000Y158858D02*
D03*
X181102Y160433D02*
D03*
Y164961D02*
D03*
X180118Y149803D02*
D03*
Y143504D02*
D03*
X179921Y170079D02*
D03*
X196850Y168898D02*
D03*
X180118Y175394D02*
D03*
X180512Y180512D02*
D03*
X164961Y236024D02*
D03*
X152953Y242717D02*
D03*
X134252Y238386D02*
D03*
X126772Y210827D02*
D03*
X104134D02*
D03*
X100787Y196653D02*
D03*
X101772Y165945D02*
D03*
X114173D02*
D03*
X101772Y158858D02*
D03*
X97035Y151365D02*
D03*
X196850Y221457D02*
D03*
X188583Y134449D02*
D03*
X155512Y204724D02*
D03*
X176378Y185039D02*
D03*
X171653Y189370D02*
D03*
X164764Y196260D02*
D03*
X129134Y164961D02*
D03*
X155512Y172244D02*
D03*
X41929Y142323D02*
D03*
X36220Y131890D02*
D03*
X35433Y76181D02*
D03*
X41929Y154724D02*
D03*
X50000Y181890D02*
D03*
X191535Y51575D02*
D03*
X181693Y117717D02*
D03*
X47441Y155315D02*
D03*
Y142717D02*
D03*
X39961Y76378D02*
D03*
X232677Y92323D02*
D03*
X231102Y157087D02*
D03*
X239764D02*
D03*
X128150Y122047D02*
D03*
X44291Y71260D02*
D03*
X47496Y106638D02*
D03*
X247441Y101969D02*
D03*
X242323Y102362D02*
D03*
X247441Y116732D02*
D03*
X250984Y107283D02*
D03*
X246063Y130512D02*
D03*
X229724Y127559D02*
D03*
X235094Y132461D02*
D03*
X228150Y141929D02*
D03*
X159646Y93307D02*
D03*
X171653Y101378D02*
D03*
X90496Y81835D02*
D03*
X240158Y177362D02*
D03*
X239567Y162461D02*
D03*
X241142Y147402D02*
D03*
X239764Y167724D02*
D03*
X114764Y239764D02*
D03*
X83858Y233465D02*
D03*
X70472D02*
D03*
X38780Y207087D02*
D03*
X28543Y202756D02*
D03*
X167520Y249803D02*
D03*
X202598Y245866D02*
D03*
X207677D02*
D03*
X189961Y97638D02*
D03*
X189921Y78701D02*
D03*
X205118Y97638D02*
D03*
X243504Y140870D02*
D03*
X99394Y239583D02*
D03*
X24213Y109646D02*
D03*
X12598Y132087D02*
D03*
X210236Y38583D02*
D03*
X146047Y27575D02*
D03*
X78527Y27181D02*
D03*
X33055Y46079D02*
D03*
X306913Y142535D02*
D03*
X92898Y302378D02*
D03*
X122677Y241496D02*
D03*
X207717Y251142D02*
D03*
X86063Y58819D02*
D03*
X57520Y80866D02*
D03*
X58701Y151142D02*
D03*
X58898Y176717D02*
D03*
Y196795D02*
D03*
X59095Y138134D02*
D03*
X58898Y156638D02*
D03*
X59291Y99158D02*
D03*
X59488Y118842D02*
D03*
X114803Y192465D02*
D03*
X115000Y149551D02*
D03*
X115591Y129079D02*
D03*
Y107819D02*
D03*
X115787Y66693D02*
D03*
X115787Y74173D02*
D03*
X115197Y94827D02*
D03*
X115591Y115299D02*
D03*
X115394Y136559D02*
D03*
X115000Y157032D02*
D03*
X114803Y178291D02*
D03*
Y199945D02*
D03*
X141669Y204685D02*
D03*
Y183031D02*
D03*
Y161575D02*
D03*
Y141299D02*
D03*
Y119843D02*
D03*
Y99567D02*
D03*
Y78701D02*
D03*
X89410Y204307D02*
D03*
X84976Y188937D02*
D03*
Y168661D02*
D03*
Y150157D02*
D03*
Y131063D02*
D03*
X58701Y204276D02*
D03*
Y184197D02*
D03*
X58898Y164118D02*
D03*
Y145614D02*
D03*
X59291Y126323D02*
D03*
X84882Y111969D02*
D03*
X59291Y106638D02*
D03*
X57913Y89331D02*
D03*
X58110Y71811D02*
D03*
X77008D02*
D03*
X269134Y156850D02*
D03*
X292362Y266102D02*
D03*
X265866Y279291D02*
D03*
X60079Y246220D02*
D03*
X197874Y225945D02*
D03*
X176811Y221417D02*
D03*
X194528Y132461D02*
D03*
Y66693D02*
D03*
X164803Y53898D02*
D03*
X100827Y94449D02*
D03*
X115787Y59606D02*
D03*
X176614D02*
D03*
X98268Y143465D02*
D03*
X114409Y145039D02*
D03*
X99843Y137756D02*
D03*
X127795Y143465D02*
D03*
X114606Y170811D02*
D03*
X115591Y87347D02*
D03*
X197638Y253740D02*
D03*
X166142Y253740D02*
D03*
X126575Y237992D02*
D03*
X20669Y114173D02*
D03*
X209842Y255118D02*
D03*
X48031Y192520D02*
D03*
X72244Y190551D02*
D03*
X48031Y224016D02*
D03*
X42717Y221063D02*
D03*
X105512Y196653D02*
D03*
X105315Y187795D02*
D03*
X23425Y177559D02*
D03*
X18268Y155551D02*
D03*
X28543Y187599D02*
D03*
X32677Y162520D02*
D03*
X43543Y170236D02*
D03*
X50000Y211024D02*
D03*
X140551Y219488D02*
D03*
X140157Y224016D02*
D03*
X83858Y228543D02*
D03*
X70473Y228543D02*
D03*
X204921Y187598D02*
D03*
X274843Y167913D02*
D03*
X274843Y156890D02*
D03*
X239961Y81102D02*
D03*
X251378Y167913D02*
D03*
Y156496D02*
D03*
X263583Y87795D02*
D03*
X263386Y66929D02*
D03*
X48425Y287362D02*
D03*
X293110Y245866D02*
D03*
X269134Y167874D02*
D03*
X287008Y217323D02*
D03*
X266929Y203346D02*
D03*
X274213Y212008D02*
D03*
X228543Y218701D02*
D03*
X6398Y279232D02*
D03*
X12795Y172520D02*
D03*
X2953Y158661D02*
D03*
X13189Y182520D02*
D03*
X23228Y202559D02*
D03*
X31791Y207579D02*
D03*
X13583Y197441D02*
D03*
X9646Y216339D02*
D03*
X23031Y126181D02*
D03*
X100000Y123819D02*
D03*
X99410Y131693D02*
D03*
M02*
