G04 Layer_Color=32896*
%FSLAX25Y25*%
%MOIN*%
G70*
G01*
G75*
%ADD34C,0.00787*%
%ADD35C,0.01181*%
%ADD55C,0.00500*%
D34*
X271862Y82842D02*
X272256D01*
X271862Y80087D02*
X272256D01*
X271839Y86449D02*
X272232D01*
X271839Y89205D02*
X272232D01*
X271839Y65583D02*
X272232D01*
X271839Y68339D02*
X272232D01*
X231153Y103866D02*
X231547D01*
X231153Y101110D02*
X231547D01*
X67528Y249752D02*
Y250146D01*
X64772Y249752D02*
Y250146D01*
X62764Y85405D02*
Y85799D01*
X65520Y85405D02*
Y85799D01*
X65583Y102705D02*
Y103098D01*
X62827Y102705D02*
Y103098D01*
X65583Y122390D02*
Y122784D01*
X62827Y122390D02*
Y122784D01*
X65583Y141681D02*
Y142075D01*
X62827Y141681D02*
Y142075D01*
X65583Y160185D02*
Y160579D01*
X62827Y160185D02*
Y160579D01*
X65583Y200342D02*
Y200736D01*
X62827Y200342D02*
Y200736D01*
X65583Y180264D02*
Y180657D01*
X62827Y180264D02*
Y180657D01*
X65583Y67878D02*
Y68272D01*
X62827Y67878D02*
Y68272D01*
X69457Y85405D02*
Y85799D01*
X72213Y85405D02*
Y85799D01*
X72276Y102705D02*
Y103098D01*
X69520Y102705D02*
Y103098D01*
X72276Y122390D02*
Y122784D01*
X69520Y122390D02*
Y122784D01*
X72276Y141681D02*
Y142075D01*
X69520Y141681D02*
Y142075D01*
X72276Y160185D02*
Y160579D01*
X69520Y160185D02*
Y160579D01*
X72276Y200342D02*
Y200736D01*
X69520Y200342D02*
Y200736D01*
X72276Y180264D02*
Y180657D01*
X69520Y180264D02*
Y180657D01*
X72276Y67878D02*
Y68272D01*
X69520Y67878D02*
Y68272D01*
X86449Y85382D02*
Y85776D01*
X83693Y85382D02*
Y85776D01*
X83630Y102728D02*
Y103122D01*
X86386Y102728D02*
Y103122D01*
X83630Y122413D02*
Y122807D01*
X86386Y122413D02*
Y122807D01*
X83630Y141705D02*
Y142098D01*
X86386Y141705D02*
Y142098D01*
X83630Y160209D02*
Y160602D01*
X86386Y160209D02*
Y160602D01*
X83630Y200366D02*
Y200760D01*
X86386Y200366D02*
Y200760D01*
X83630Y180287D02*
Y180681D01*
X86386Y180287D02*
Y180681D01*
X121882Y70240D02*
Y70634D01*
X119126Y70240D02*
Y70634D01*
X121882Y90894D02*
Y91287D01*
X119126Y90894D02*
Y91287D01*
X121882Y111366D02*
Y111760D01*
X119126Y111366D02*
Y111760D01*
X121882Y132626D02*
Y133020D01*
X119126Y132626D02*
Y133020D01*
X121488Y153098D02*
Y153492D01*
X118732Y153098D02*
Y153492D01*
X121095Y196012D02*
Y196405D01*
X118339Y196012D02*
Y196405D01*
X121095Y174358D02*
Y174752D01*
X118339Y174358D02*
Y174752D01*
X128969Y196012D02*
Y196405D01*
X126213Y196012D02*
Y196405D01*
X128969Y174358D02*
Y174752D01*
X126213Y174358D02*
Y174752D01*
X128969Y153098D02*
Y153492D01*
X126213Y153098D02*
Y153492D01*
X129362Y70240D02*
Y70634D01*
X126606Y70240D02*
Y70634D01*
X129362Y111366D02*
Y111760D01*
X126606Y111366D02*
Y111760D01*
X129362Y132626D02*
Y133020D01*
X126606Y132626D02*
Y133020D01*
X129362Y90894D02*
Y91287D01*
X126606Y90894D02*
Y91287D01*
X140323Y70264D02*
Y70657D01*
X143079Y70264D02*
Y70657D01*
X140323Y111390D02*
Y111784D01*
X143079Y111390D02*
Y111784D01*
X140323Y153122D02*
Y153516D01*
X143079Y153122D02*
Y153516D01*
X140323Y196035D02*
Y196429D01*
X143079Y196035D02*
Y196429D01*
X140323Y132650D02*
Y133043D01*
X143079Y132650D02*
Y133043D01*
X140323Y90917D02*
Y91311D01*
X143079Y90917D02*
Y91311D01*
X140323Y174382D02*
Y174776D01*
X143079Y174382D02*
Y174776D01*
X271862Y75756D02*
X272256D01*
X271862Y73000D02*
X272256D01*
D35*
X53937Y22613D02*
Y28517D01*
Y26549D01*
X57873Y22613D01*
X54921Y25565D01*
X57873Y28517D01*
X60825D02*
X62792D01*
X63776Y27533D01*
Y25565D01*
X62792Y24581D01*
X60825D01*
X59841Y25565D01*
Y27533D01*
X60825Y28517D01*
X65744Y24581D02*
Y28517D01*
Y26549D01*
X66728Y25565D01*
X67712Y24581D01*
X68696D01*
X71648D02*
Y27533D01*
X72632Y28517D01*
X75583D01*
Y24581D01*
X77551D02*
X81487D01*
X77551Y28517D01*
X81487D01*
X84439Y24581D02*
X86407D01*
X87391Y25565D01*
Y28517D01*
X84439D01*
X83455Y27533D01*
X84439Y26549D01*
X87391D01*
X99198Y22613D02*
X95262D01*
Y28517D01*
X99198D01*
X95262Y25565D02*
X97230D01*
X101166Y24581D02*
X105102Y28517D01*
X103134Y26549D01*
X105102Y24581D01*
X101166Y28517D01*
X107069Y30485D02*
Y24581D01*
X110021D01*
X111005Y25565D01*
Y27533D01*
X110021Y28517D01*
X107069D01*
X113957Y24581D02*
X115925D01*
X116909Y25565D01*
Y28517D01*
X113957D01*
X112973Y27533D01*
X113957Y26549D01*
X116909D01*
X118877Y28517D02*
Y24581D01*
X121828D01*
X122812Y25565D01*
Y28517D01*
X128716Y22613D02*
Y28517D01*
X125764D01*
X124780Y27533D01*
Y25565D01*
X125764Y24581D01*
X128716D01*
X133636Y28517D02*
X131668D01*
X130684Y27533D01*
Y25565D01*
X131668Y24581D01*
X133636D01*
X134619Y25565D01*
Y26549D01*
X130684D01*
X136587Y24581D02*
Y28517D01*
Y26549D01*
X137571Y25565D01*
X138555Y24581D01*
X139539D01*
X148395Y22613D02*
Y28517D01*
X151346D01*
X152330Y27533D01*
Y26549D01*
X151346Y25565D01*
X148395D01*
X151346D01*
X152330Y24581D01*
Y23597D01*
X151346Y22613D01*
X148395D01*
X155282Y28517D02*
X157250D01*
X158234Y27533D01*
Y25565D01*
X157250Y24581D01*
X155282D01*
X154298Y25565D01*
Y27533D01*
X155282Y28517D01*
X161186Y24581D02*
X163154D01*
X164137Y25565D01*
Y28517D01*
X161186D01*
X160202Y27533D01*
X161186Y26549D01*
X164137D01*
X166105Y24581D02*
Y28517D01*
Y26549D01*
X167089Y25565D01*
X168073Y24581D01*
X169057D01*
X175945Y22613D02*
Y28517D01*
X172993D01*
X172009Y27533D01*
Y25565D01*
X172993Y24581D01*
X175945D01*
X59841Y34697D02*
X61809D01*
X60825D01*
Y40601D01*
X59841D01*
X61809D01*
X64760D02*
Y36665D01*
X67712D01*
X68696Y37649D01*
Y40601D01*
X70664D02*
X73616D01*
X74600Y39617D01*
X73616Y38633D01*
X71648D01*
X70664Y37649D01*
X71648Y36665D01*
X74600D01*
X77551Y35681D02*
Y36665D01*
X76568D01*
X78535D01*
X77551D01*
Y39617D01*
X78535Y40601D01*
X81487D02*
X83455D01*
X82471D01*
Y36665D01*
X81487D01*
X87391Y35681D02*
Y36665D01*
X86407D01*
X88375D01*
X87391D01*
Y39617D01*
X88375Y40601D01*
X91326Y36665D02*
Y39617D01*
X92310Y40601D01*
X95262D01*
Y36665D01*
X98214Y35681D02*
Y36665D01*
X97230D01*
X99198D01*
X98214D01*
Y39617D01*
X99198Y40601D01*
X105102D02*
X103134D01*
X102150Y39617D01*
Y37649D01*
X103134Y36665D01*
X105102D01*
X106086Y37649D01*
Y38633D01*
X102150D01*
X113957Y34697D02*
X115925D01*
X114941D01*
Y40601D01*
X113957D01*
X115925D01*
X118877D02*
Y34697D01*
X121828D01*
X122812Y35681D01*
Y37649D01*
X121828Y38633D01*
X118877D01*
X120844D02*
X122812Y40601D01*
X124780D02*
Y34697D01*
X128716Y40601D01*
Y34697D01*
X130684Y40601D02*
Y36665D01*
X132652Y34697D01*
X134620Y36665D01*
Y40601D01*
Y37649D01*
X130684D01*
X140523Y35681D02*
X139539Y34697D01*
X137571D01*
X136587Y35681D01*
Y36665D01*
X137571Y37649D01*
X139539D01*
X140523Y38633D01*
Y39617D01*
X139539Y40601D01*
X137571D01*
X136587Y39617D01*
X148395Y40601D02*
Y34697D01*
X151346D01*
X152330Y35681D01*
Y37649D01*
X151346Y38633D01*
X148395D01*
X150363D02*
X152330Y40601D01*
X155282Y36665D02*
X157250D01*
X158234Y37649D01*
Y40601D01*
X155282D01*
X154298Y39617D01*
X155282Y38633D01*
X158234D01*
X164138Y36665D02*
X161186D01*
X160202Y37649D01*
Y39617D01*
X161186Y40601D01*
X164138D01*
X169057D02*
X167089D01*
X166105Y39617D01*
Y37649D01*
X167089Y36665D01*
X169057D01*
X170041Y37649D01*
Y38633D01*
X166105D01*
X60866Y75551D02*
X54962D01*
Y72599D01*
X55946Y71615D01*
X57914D01*
X58898Y72599D01*
Y75551D01*
Y73583D02*
X60866Y71615D01*
Y66696D02*
X54962D01*
X57914Y69648D01*
Y65712D01*
X54962Y59808D02*
X55946Y61776D01*
X57914Y63744D01*
X59882D01*
X60866Y62760D01*
Y60792D01*
X59882Y59808D01*
X58898D01*
X57914Y60792D01*
Y63744D01*
X137008Y182441D02*
X131104D01*
Y179489D01*
X132088Y178505D01*
X134056D01*
X135040Y179489D01*
Y182441D01*
Y180473D02*
X137008Y178505D01*
Y173585D02*
X131104D01*
X134056Y176537D01*
Y172602D01*
X132088Y170634D02*
X131104Y169650D01*
Y167682D01*
X132088Y166698D01*
X133072D01*
X134056Y167682D01*
X135040Y166698D01*
X136024D01*
X137008Y167682D01*
Y169650D01*
X136024Y170634D01*
X135040D01*
X134056Y169650D01*
X133072Y170634D01*
X132088D01*
X134056Y169650D02*
Y167682D01*
X137795Y97795D02*
X131892D01*
Y94844D01*
X132876Y93860D01*
X134844D01*
X135827Y94844D01*
Y97795D01*
Y95827D02*
X137795Y93860D01*
Y88940D02*
X131892D01*
X134844Y91892D01*
Y87956D01*
X131892Y85988D02*
Y82052D01*
X132876D01*
X136811Y85988D01*
X137795D01*
X116142Y182441D02*
X110238D01*
Y179489D01*
X111222Y178505D01*
X113190D01*
X114174Y179489D01*
Y182441D01*
Y180473D02*
X116142Y178505D01*
Y173585D02*
X110238D01*
X113190Y176537D01*
Y172602D01*
X110238Y166698D02*
Y170634D01*
X113190D01*
X112206Y168666D01*
Y167682D01*
X113190Y166698D01*
X115158D01*
X116142Y167682D01*
Y169650D01*
X115158Y170634D01*
X116929Y98583D02*
X111026D01*
Y95631D01*
X112010Y94647D01*
X113977D01*
X114961Y95631D01*
Y98583D01*
Y96615D02*
X116929Y94647D01*
Y89727D02*
X111026D01*
X113977Y92679D01*
Y88743D01*
X116929Y83824D02*
X111026D01*
X113977Y86775D01*
Y82840D01*
X80748Y74961D02*
X74844D01*
Y72009D01*
X75828Y71025D01*
X77796D01*
X78780Y72009D01*
Y74961D01*
Y72993D02*
X80748Y71025D01*
Y66105D02*
X74844D01*
X77796Y69057D01*
Y65121D01*
X75828Y63153D02*
X74844Y62169D01*
Y60202D01*
X75828Y59218D01*
X76812D01*
X77796Y60202D01*
Y61186D01*
Y60202D01*
X78780Y59218D01*
X79764D01*
X80748Y60202D01*
Y62169D01*
X79764Y63153D01*
X151181Y182441D02*
X145278D01*
Y179489D01*
X146261Y178505D01*
X148229D01*
X149213Y179489D01*
Y182441D01*
Y180473D02*
X151181Y178505D01*
Y173585D02*
X145278D01*
X148229Y176537D01*
Y172602D01*
X146261Y170634D02*
X145278Y169650D01*
Y167682D01*
X146261Y166698D01*
X150197D01*
X151181Y167682D01*
Y169650D01*
X150197Y170634D01*
X146261D01*
X151575Y98189D02*
X145671D01*
Y95237D01*
X146655Y94253D01*
X148623D01*
X149607Y95237D01*
Y98189D01*
Y96221D02*
X151575Y94253D01*
X146655Y92285D02*
X145671Y91301D01*
Y89334D01*
X146655Y88350D01*
X147639D01*
X148623Y89334D01*
Y90317D01*
Y89334D01*
X149607Y88350D01*
X150591D01*
X151575Y89334D01*
Y91301D01*
X150591Y92285D01*
Y86382D02*
X151575Y85398D01*
Y83430D01*
X150591Y82446D01*
X146655D01*
X145671Y83430D01*
Y85398D01*
X146655Y86382D01*
X147639D01*
X148623Y85398D01*
Y82446D01*
X239213Y105669D02*
Y99766D01*
X242164D01*
X243148Y100750D01*
Y102717D01*
X242164Y103701D01*
X239213D01*
X241180D02*
X243148Y105669D01*
X245116Y100750D02*
X246100Y99766D01*
X248068D01*
X249052Y100750D01*
Y101734D01*
X248068Y102717D01*
X247084D01*
X248068D01*
X249052Y103701D01*
Y104685D01*
X248068Y105669D01*
X246100D01*
X245116Y104685D01*
X251020Y100750D02*
X252004Y99766D01*
X253972D01*
X254956Y100750D01*
Y101734D01*
X253972Y102717D01*
X254956Y103701D01*
Y104685D01*
X253972Y105669D01*
X252004D01*
X251020Y104685D01*
Y103701D01*
X252004Y102717D01*
X251020Y101734D01*
Y100750D01*
X252004Y102717D02*
X253972D01*
X137795Y140315D02*
X131892D01*
Y137363D01*
X132876Y136379D01*
X134844D01*
X135827Y137363D01*
Y140315D01*
Y138347D02*
X137795Y136379D01*
X132876Y134411D02*
X131892Y133427D01*
Y131460D01*
X132876Y130476D01*
X133860D01*
X134844Y131460D01*
Y132443D01*
Y131460D01*
X135827Y130476D01*
X136811D01*
X137795Y131460D01*
Y133427D01*
X136811Y134411D01*
X131892Y124572D02*
X132876Y126540D01*
X134844Y128508D01*
X136811D01*
X137795Y127524D01*
Y125556D01*
X136811Y124572D01*
X135827D01*
X134844Y125556D01*
Y128508D01*
X60866Y187953D02*
X54962D01*
Y185001D01*
X55946Y184017D01*
X57914D01*
X58898Y185001D01*
Y187953D01*
Y185985D02*
X60866Y184017D01*
X55946Y182049D02*
X54962Y181065D01*
Y179097D01*
X55946Y178113D01*
X56930D01*
X57914Y179097D01*
Y180081D01*
Y179097D01*
X58898Y178113D01*
X59882D01*
X60866Y179097D01*
Y181065D01*
X59882Y182049D01*
X54962Y172210D02*
Y176146D01*
X57914D01*
X56930Y174178D01*
Y173194D01*
X57914Y172210D01*
X59882D01*
X60866Y173194D01*
Y175162D01*
X59882Y176146D01*
X116929Y140315D02*
X111026D01*
Y137363D01*
X112010Y136379D01*
X113977D01*
X114961Y137363D01*
Y140315D01*
Y138347D02*
X116929Y136379D01*
X112010Y134411D02*
X111026Y133427D01*
Y131460D01*
X112010Y130476D01*
X112993D01*
X113977Y131460D01*
Y132443D01*
Y131460D01*
X114961Y130476D01*
X115945D01*
X116929Y131460D01*
Y133427D01*
X115945Y134411D01*
X116929Y125556D02*
X111026D01*
X113977Y128508D01*
Y124572D01*
X80158Y187756D02*
X74254D01*
Y184804D01*
X75238Y183820D01*
X77206D01*
X78190Y184804D01*
Y187756D01*
Y185788D02*
X80158Y183820D01*
X75238Y181852D02*
X74254Y180868D01*
Y178901D01*
X75238Y177917D01*
X76222D01*
X77206Y178901D01*
Y179884D01*
Y178901D01*
X78190Y177917D01*
X79174D01*
X80158Y178901D01*
Y180868D01*
X79174Y181852D01*
X75238Y175949D02*
X74254Y174965D01*
Y172997D01*
X75238Y172013D01*
X76222D01*
X77206Y172997D01*
Y173981D01*
Y172997D01*
X78190Y172013D01*
X79174D01*
X80158Y172997D01*
Y174965D01*
X79174Y175949D01*
X151575Y139921D02*
X145671D01*
Y136969D01*
X146655Y135986D01*
X148623D01*
X149607Y136969D01*
Y139921D01*
Y137953D02*
X151575Y135986D01*
X146655Y134018D02*
X145671Y133034D01*
Y131066D01*
X146655Y130082D01*
X147639D01*
X148623Y131066D01*
Y132050D01*
Y131066D01*
X149607Y130082D01*
X150591D01*
X151575Y131066D01*
Y133034D01*
X150591Y134018D01*
X151575Y124178D02*
Y128114D01*
X147639Y124178D01*
X146655D01*
X145671Y125162D01*
Y127130D01*
X146655Y128114D01*
X94488Y187165D02*
X88585D01*
Y184214D01*
X89569Y183230D01*
X91536D01*
X92520Y184214D01*
Y187165D01*
Y185197D02*
X94488Y183230D01*
X89569Y181262D02*
X88585Y180278D01*
Y178310D01*
X89569Y177326D01*
X90553D01*
X91536Y178310D01*
Y179294D01*
Y178310D01*
X92520Y177326D01*
X93504D01*
X94488Y178310D01*
Y180278D01*
X93504Y181262D01*
X94488Y175358D02*
Y173390D01*
Y174374D01*
X88585D01*
X89569Y175358D01*
X137008Y204488D02*
X131104D01*
Y201536D01*
X132088Y200553D01*
X134056D01*
X135040Y201536D01*
Y204488D01*
Y202520D02*
X137008Y200553D01*
Y194649D02*
Y198585D01*
X133072Y194649D01*
X132088D01*
X131104Y195633D01*
Y197601D01*
X132088Y198585D01*
X136024Y192681D02*
X137008Y191697D01*
Y189729D01*
X136024Y188745D01*
X132088D01*
X131104Y189729D01*
Y191697D01*
X132088Y192681D01*
X133072D01*
X134056Y191697D01*
Y188745D01*
X137441Y161181D02*
X131537D01*
Y158229D01*
X132521Y157245D01*
X134489D01*
X135473Y158229D01*
Y161181D01*
Y159213D02*
X137441Y157245D01*
Y151342D02*
Y155278D01*
X133505Y151342D01*
X132521D01*
X131537Y152326D01*
Y154294D01*
X132521Y155278D01*
Y149374D02*
X131537Y148390D01*
Y146422D01*
X132521Y145438D01*
X133505D01*
X134489Y146422D01*
X135473Y145438D01*
X136457D01*
X137441Y146422D01*
Y148390D01*
X136457Y149374D01*
X135473D01*
X134489Y148390D01*
X133505Y149374D01*
X132521D01*
X134489Y148390D02*
Y146422D01*
X137795Y119055D02*
X131892D01*
Y116103D01*
X132876Y115119D01*
X134844D01*
X135827Y116103D01*
Y119055D01*
Y117087D02*
X137795Y115119D01*
Y109216D02*
Y113152D01*
X133860Y109216D01*
X132876D01*
X131892Y110200D01*
Y112168D01*
X132876Y113152D01*
X131892Y107248D02*
Y103312D01*
X132876D01*
X136811Y107248D01*
X137795D01*
Y77323D02*
X131892D01*
Y74371D01*
X132876Y73387D01*
X134844D01*
X135827Y74371D01*
Y77323D01*
Y75355D02*
X137795Y73387D01*
X132876Y71419D02*
X131892Y70435D01*
Y68467D01*
X132876Y67484D01*
X133860D01*
X134844Y68467D01*
Y69451D01*
Y68467D01*
X135827Y67484D01*
X136811D01*
X137795Y68467D01*
Y70435D01*
X136811Y71419D01*
X132876Y65516D02*
X131892Y64532D01*
Y62564D01*
X132876Y61580D01*
X136811D01*
X137795Y62564D01*
Y64532D01*
X136811Y65516D01*
X132876D01*
X80354Y208228D02*
X74451D01*
Y205276D01*
X75435Y204293D01*
X77403D01*
X78386Y205276D01*
Y208228D01*
Y206260D02*
X80354Y204293D01*
Y202325D02*
Y200357D01*
Y201341D01*
X74451D01*
X75435Y202325D01*
Y197405D02*
X74451Y196421D01*
Y194453D01*
X75435Y193469D01*
X76419D01*
X77403Y194453D01*
X78386Y193469D01*
X79370D01*
X80354Y194453D01*
Y196421D01*
X79370Y197405D01*
X78386D01*
X77403Y196421D01*
X76419Y197405D01*
X75435D01*
X77403Y196421D02*
Y194453D01*
X116142Y204488D02*
X110238D01*
Y201536D01*
X111222Y200553D01*
X113190D01*
X114174Y201536D01*
Y204488D01*
Y202520D02*
X116142Y200553D01*
Y194649D02*
Y198585D01*
X112206Y194649D01*
X111222D01*
X110238Y195633D01*
Y197601D01*
X111222Y198585D01*
X116142Y189729D02*
X110238D01*
X113190Y192681D01*
Y188745D01*
X116535Y160787D02*
X110632D01*
Y157836D01*
X111616Y156852D01*
X113584D01*
X114568Y157836D01*
Y160787D01*
Y158819D02*
X116535Y156852D01*
Y150948D02*
Y154884D01*
X112600Y150948D01*
X111616D01*
X110632Y151932D01*
Y153900D01*
X111616Y154884D01*
Y148980D02*
X110632Y147996D01*
Y146028D01*
X111616Y145045D01*
X112600D01*
X113584Y146028D01*
Y147012D01*
Y146028D01*
X114568Y145045D01*
X115551D01*
X116535Y146028D01*
Y147996D01*
X115551Y148980D01*
X116929Y119449D02*
X111026D01*
Y116497D01*
X112010Y115513D01*
X113977D01*
X114961Y116497D01*
Y119449D01*
Y117481D02*
X116929Y115513D01*
Y109609D02*
Y113545D01*
X112993Y109609D01*
X112010D01*
X111026Y110593D01*
Y112561D01*
X112010Y113545D01*
X116929Y103706D02*
Y107642D01*
X112993Y103706D01*
X112010D01*
X111026Y104690D01*
Y106658D01*
X112010Y107642D01*
X116929Y78110D02*
X111026D01*
Y75158D01*
X112010Y74174D01*
X113977D01*
X114961Y75158D01*
Y78110D01*
Y76142D02*
X116929Y74174D01*
Y68271D02*
Y72207D01*
X112993Y68271D01*
X112010D01*
X111026Y69255D01*
Y71223D01*
X112010Y72207D01*
X111026Y62367D02*
X112010Y64335D01*
X113977Y66303D01*
X115945D01*
X116929Y65319D01*
Y63351D01*
X115945Y62367D01*
X114961D01*
X113977Y63351D01*
Y66303D01*
X60866Y207441D02*
X54962D01*
Y204489D01*
X55946Y203505D01*
X57914D01*
X58898Y204489D01*
Y207441D01*
Y205473D02*
X60866Y203505D01*
Y201537D02*
Y199569D01*
Y200553D01*
X54962D01*
X55946Y201537D01*
X54962Y192682D02*
Y196618D01*
X57914D01*
X56930Y194650D01*
Y193666D01*
X57914Y192682D01*
X59882D01*
X60866Y193666D01*
Y195634D01*
X59882Y196618D01*
X151181Y204095D02*
X145278D01*
Y201143D01*
X146261Y200159D01*
X148229D01*
X149213Y201143D01*
Y204095D01*
Y202127D02*
X151181Y200159D01*
Y194255D02*
Y198191D01*
X147245Y194255D01*
X146261D01*
X145278Y195239D01*
Y197207D01*
X146261Y198191D01*
X151181Y192287D02*
Y190319D01*
Y191303D01*
X145278D01*
X146261Y192287D01*
X151181Y160787D02*
X145278D01*
Y157836D01*
X146261Y156852D01*
X148229D01*
X149213Y157836D01*
Y160787D01*
Y158819D02*
X151181Y156852D01*
Y150948D02*
Y154884D01*
X147245Y150948D01*
X146261D01*
X145278Y151932D01*
Y153900D01*
X146261Y154884D01*
Y148980D02*
X145278Y147996D01*
Y146028D01*
X146261Y145045D01*
X150197D01*
X151181Y146028D01*
Y147996D01*
X150197Y148980D01*
X146261D01*
X151575Y118268D02*
X145671D01*
Y115316D01*
X146655Y114332D01*
X148623D01*
X149607Y115316D01*
Y118268D01*
Y116300D02*
X151575Y114332D01*
Y112364D02*
Y110396D01*
Y111380D01*
X145671D01*
X146655Y112364D01*
X150591Y107445D02*
X151575Y106460D01*
Y104493D01*
X150591Y103509D01*
X146655D01*
X145671Y104493D01*
Y106460D01*
X146655Y107445D01*
X147639D01*
X148623Y106460D01*
Y103509D01*
X151575Y77323D02*
X145671D01*
Y74371D01*
X146655Y73387D01*
X148623D01*
X149607Y74371D01*
Y77323D01*
Y75355D02*
X151575Y73387D01*
Y67484D02*
Y71419D01*
X147639Y67484D01*
X146655D01*
X145671Y68467D01*
Y70435D01*
X146655Y71419D01*
X145671Y61580D02*
Y65516D01*
X148623D01*
X147639Y63548D01*
Y62564D01*
X148623Y61580D01*
X150591D01*
X151575Y62564D01*
Y64532D01*
X150591Y65516D01*
X94882Y207638D02*
X88978D01*
Y204686D01*
X89962Y203702D01*
X91930D01*
X92914Y204686D01*
Y207638D01*
Y205670D02*
X94882Y203702D01*
Y201734D02*
Y199766D01*
Y200750D01*
X88978D01*
X89962Y201734D01*
X94882Y192879D02*
Y196815D01*
X90946Y192879D01*
X89962D01*
X88978Y193863D01*
Y195831D01*
X89962Y196815D01*
X80158Y167480D02*
X74254D01*
Y164529D01*
X75238Y163545D01*
X77206D01*
X78190Y164529D01*
Y167480D01*
Y165512D02*
X80158Y163545D01*
Y161577D02*
Y159609D01*
Y160593D01*
X74254D01*
X75238Y161577D01*
X74254Y156657D02*
Y152721D01*
X75238D01*
X79174Y156657D01*
X80158D01*
X80354Y148386D02*
X74451D01*
Y145434D01*
X75435Y144450D01*
X77403D01*
X78386Y145434D01*
Y148386D01*
Y146418D02*
X80354Y144450D01*
Y142482D02*
Y140514D01*
Y141498D01*
X74451D01*
X75435Y142482D01*
X74451Y133627D02*
X75435Y135595D01*
X77403Y137563D01*
X79370D01*
X80354Y136579D01*
Y134611D01*
X79370Y133627D01*
X78386D01*
X77403Y134611D01*
Y137563D01*
X80551Y129488D02*
X74648D01*
Y126536D01*
X75631Y125552D01*
X77599D01*
X78583Y126536D01*
Y129488D01*
Y127520D02*
X80551Y125552D01*
X79567Y123585D02*
X80551Y122601D01*
Y120633D01*
X79567Y119649D01*
X75631D01*
X74648Y120633D01*
Y122601D01*
X75631Y123585D01*
X76615D01*
X77599Y122601D01*
Y119649D01*
X80748Y110197D02*
X74844D01*
Y107245D01*
X75828Y106261D01*
X77796D01*
X78780Y107245D01*
Y110197D01*
Y108229D02*
X80748Y106261D01*
X75828Y104293D02*
X74844Y103309D01*
Y101341D01*
X75828Y100357D01*
X76812D01*
X77796Y101341D01*
X78780Y100357D01*
X79764D01*
X80748Y101341D01*
Y103309D01*
X79764Y104293D01*
X78780D01*
X77796Y103309D01*
X76812Y104293D01*
X75828D01*
X77796Y103309D02*
Y101341D01*
X80551Y91693D02*
X74648D01*
Y88741D01*
X75631Y87757D01*
X77599D01*
X78583Y88741D01*
Y91693D01*
Y89725D02*
X80551Y87757D01*
X74648Y85789D02*
Y81854D01*
X75631D01*
X79567Y85789D01*
X80551D01*
X60866Y167087D02*
X54962D01*
Y164135D01*
X55946Y163151D01*
X57914D01*
X58898Y164135D01*
Y167087D01*
Y165119D02*
X60866Y163151D01*
Y161183D02*
Y159215D01*
Y160199D01*
X54962D01*
X55946Y161183D01*
X60866Y153312D02*
X54962D01*
X57914Y156263D01*
Y152328D01*
X60866Y146811D02*
X54962D01*
Y143859D01*
X55946Y142875D01*
X57914D01*
X58898Y143859D01*
Y146811D01*
Y144843D02*
X60866Y142875D01*
Y140907D02*
Y138940D01*
Y139924D01*
X54962D01*
X55946Y140907D01*
Y135988D02*
X54962Y135004D01*
Y133036D01*
X55946Y132052D01*
X56930D01*
X57914Y133036D01*
Y134020D01*
Y133036D01*
X58898Y132052D01*
X59882D01*
X60866Y133036D01*
Y135004D01*
X59882Y135988D01*
X60866Y127323D02*
X54962D01*
Y124371D01*
X55946Y123387D01*
X57914D01*
X58898Y124371D01*
Y127323D01*
Y125355D02*
X60866Y123387D01*
X54962Y117483D02*
X55946Y119451D01*
X57914Y121419D01*
X59882D01*
X60866Y120435D01*
Y118467D01*
X59882Y117483D01*
X58898D01*
X57914Y118467D01*
Y121419D01*
X60866Y107638D02*
X54962D01*
Y104686D01*
X55946Y103702D01*
X57914D01*
X58898Y104686D01*
Y107638D01*
Y105670D02*
X60866Y103702D01*
X54962Y97799D02*
Y101734D01*
X57914D01*
X56930Y99766D01*
Y98782D01*
X57914Y97799D01*
X59882D01*
X60866Y98782D01*
Y100750D01*
X59882Y101734D01*
X60866Y90315D02*
X54962D01*
Y87363D01*
X55946Y86379D01*
X57914D01*
X58898Y87363D01*
Y90315D01*
Y88347D02*
X60866Y86379D01*
Y81460D02*
X54962D01*
X57914Y84411D01*
Y80476D01*
X94488Y165512D02*
X88585D01*
Y162560D01*
X89569Y161576D01*
X91536D01*
X92520Y162560D01*
Y165512D01*
Y163544D02*
X94488Y161576D01*
Y159608D02*
Y157640D01*
Y158624D01*
X88585D01*
X89569Y159608D01*
X94488Y154689D02*
Y152721D01*
Y153705D01*
X88585D01*
X89569Y154689D01*
X94488Y146614D02*
X88585D01*
Y143662D01*
X89569Y142678D01*
X91536D01*
X92520Y143662D01*
Y146614D01*
Y144646D02*
X94488Y142678D01*
Y140711D02*
Y138743D01*
Y139727D01*
X88585D01*
X89569Y140711D01*
Y135791D02*
X88585Y134807D01*
Y132839D01*
X89569Y131855D01*
X93504D01*
X94488Y132839D01*
Y134807D01*
X93504Y135791D01*
X89569D01*
X94488Y127323D02*
X88585D01*
Y124371D01*
X89569Y123387D01*
X91536D01*
X92520Y124371D01*
Y127323D01*
Y125355D02*
X94488Y123387D01*
X89569Y121419D02*
X88585Y120435D01*
Y118467D01*
X89569Y117483D01*
X90553D01*
X91536Y118467D01*
Y119451D01*
Y118467D01*
X92520Y117483D01*
X93504D01*
X94488Y118467D01*
Y120435D01*
X93504Y121419D01*
X94488Y108031D02*
X88585D01*
Y105080D01*
X89569Y104096D01*
X91536D01*
X92520Y105080D01*
Y108031D01*
Y106064D02*
X94488Y104096D01*
Y98192D02*
Y102128D01*
X90553Y98192D01*
X89569D01*
X88585Y99176D01*
Y101144D01*
X89569Y102128D01*
X94488Y89134D02*
X88585D01*
Y86182D01*
X89569Y85198D01*
X91536D01*
X92520Y86182D01*
Y89134D01*
Y87166D02*
X94488Y85198D01*
Y83230D02*
Y81262D01*
Y82246D01*
X88585D01*
X89569Y83230D01*
X74250Y249959D02*
X75234Y248975D01*
Y247007D01*
X74250Y246024D01*
X70315D01*
X69331Y247007D01*
Y248975D01*
X70315Y249959D01*
X69331Y251927D02*
Y253895D01*
Y252911D01*
X75234D01*
X74250Y251927D01*
X221849Y70868D02*
X219881D01*
X220865D01*
Y75788D01*
X219881Y76772D01*
X218897D01*
X217913Y75788D01*
X227753Y76772D02*
X223817D01*
X227753Y72836D01*
Y71852D01*
X226769Y70868D01*
X224801D01*
X223817Y71852D01*
X204526Y70671D02*
X202558D01*
X203542D01*
Y75591D01*
X202558Y76575D01*
X201574D01*
X200591Y75591D01*
X206494Y71655D02*
X207478Y70671D01*
X209446D01*
X210430Y71655D01*
Y72639D01*
X209446Y73623D01*
X208462D01*
X209446D01*
X210430Y74607D01*
Y75591D01*
X209446Y76575D01*
X207478D01*
X206494Y75591D01*
X280315Y85433D02*
Y79530D01*
X283267D01*
X284251Y80513D01*
Y82481D01*
X283267Y83465D01*
X280315D01*
X282283D02*
X284251Y85433D01*
X289170D02*
Y79530D01*
X286219Y82481D01*
X290154D01*
X292122Y85433D02*
X294090D01*
X293106D01*
Y79530D01*
X292122Y80513D01*
X280315Y77165D02*
Y71262D01*
X283267D01*
X284251Y72246D01*
Y74213D01*
X283267Y75197D01*
X280315D01*
X282283D02*
X284251Y77165D01*
X289170D02*
Y71262D01*
X286219Y74213D01*
X290154D01*
X296058Y77165D02*
X292122D01*
X296058Y73230D01*
Y72246D01*
X295074Y71262D01*
X293106D01*
X292122Y72246D01*
X280315Y94095D02*
Y88191D01*
X283267D01*
X284251Y89175D01*
Y91143D01*
X283267Y92127D01*
X280315D01*
X282283D02*
X284251Y94095D01*
X289170D02*
Y88191D01*
X286219Y91143D01*
X290154D01*
X292122Y93111D02*
X293106Y94095D01*
X295074D01*
X296058Y93111D01*
Y89175D01*
X295074Y88191D01*
X293106D01*
X292122Y89175D01*
Y90159D01*
X293106Y91143D01*
X296058D01*
X280315Y68307D02*
Y62404D01*
X283267D01*
X284251Y63387D01*
Y65355D01*
X283267Y66339D01*
X280315D01*
X282283D02*
X284251Y68307D01*
X290154Y62404D02*
X286219D01*
Y65355D01*
X288186Y64371D01*
X289170D01*
X290154Y65355D01*
Y67323D01*
X289170Y68307D01*
X287203D01*
X286219Y67323D01*
X292122Y63387D02*
X293106Y62404D01*
X295074D01*
X296058Y63387D01*
Y67323D01*
X295074Y68307D01*
X293106D01*
X292122Y67323D01*
Y63387D01*
X73621Y285829D02*
X69685D01*
Y288780D01*
X71653Y287796D01*
X72637D01*
X73621Y288780D01*
Y290748D01*
X72637Y291732D01*
X70669D01*
X69685Y290748D01*
X75589Y285829D02*
Y289764D01*
X77557Y291732D01*
X79524Y289764D01*
Y285829D01*
X41929D02*
Y291732D01*
X44881D01*
X45865Y290748D01*
Y286813D01*
X44881Y285829D01*
X41929D01*
X47833Y288780D02*
X51768D01*
X56102Y285829D02*
Y291732D01*
X59054D01*
X60038Y290748D01*
Y286813D01*
X59054Y285829D01*
X56102D01*
X62006Y288780D02*
X65942D01*
X63974Y286813D02*
Y290748D01*
X26180Y286813D02*
X25196Y285829D01*
X23228D01*
X22244Y286813D01*
Y290748D01*
X23228Y291732D01*
X25196D01*
X26180Y290748D01*
Y288780D01*
X24212D01*
X28148Y291732D02*
Y285829D01*
X32083Y291732D01*
Y285829D01*
X34051D02*
Y291732D01*
X37003D01*
X37987Y290748D01*
Y286813D01*
X37003Y285829D01*
X34051D01*
X270077Y218466D02*
X269093Y217482D01*
X267126D01*
X266142Y218466D01*
Y219450D01*
X267126Y220434D01*
X269093D01*
X270077Y221418D01*
Y222402D01*
X269093Y223386D01*
X267126D01*
X266142Y222402D01*
X275981Y217482D02*
X272045D01*
Y220434D01*
X274013D01*
X272045D01*
Y223386D01*
X277949D02*
Y217482D01*
X280901D01*
X281885Y218466D01*
Y220434D01*
X280901Y221418D01*
X277949D01*
X229726Y294646D02*
X228742Y293662D01*
Y291694D01*
X229726Y290710D01*
X230710D01*
X231694Y291694D01*
Y292678D01*
Y291694D01*
X232678Y290710D01*
X233662D01*
X234646Y291694D01*
Y293662D01*
X233662Y294646D01*
X228742Y288742D02*
X232678D01*
X234646Y286774D01*
X232678Y284806D01*
X228742D01*
X229726Y282839D02*
X228742Y281855D01*
Y279887D01*
X229726Y278903D01*
X230710D01*
X231694Y279887D01*
Y280871D01*
Y279887D01*
X232678Y278903D01*
X233662D01*
X234646Y279887D01*
Y281855D01*
X233662Y282839D01*
X249805Y290710D02*
X248821Y291694D01*
Y293662D01*
X249805Y294646D01*
X253741D01*
X254724Y293662D01*
Y291694D01*
X253741Y290710D01*
X251773D01*
Y292678D01*
X254724Y288742D02*
X248821D01*
X254724Y284806D01*
X248821D01*
Y282839D02*
X254724D01*
Y279887D01*
X253741Y278903D01*
X249805D01*
X248821Y279887D01*
Y282839D01*
X244882Y294646D02*
X238978D01*
Y291694D01*
X239962Y290710D01*
X241930D01*
X242914Y291694D01*
Y294646D01*
Y292678D02*
X244882Y290710D01*
X238978Y288742D02*
X244882Y284806D01*
X238978D02*
X244882Y288742D01*
X274016Y292718D02*
X277952D01*
X275984Y290750D02*
Y294685D01*
X263976Y292718D02*
X267912D01*
X170866Y260394D02*
X172834D01*
X171850D01*
Y254490D01*
X170866Y255474D01*
X277165Y261968D02*
X279133D01*
X278149D01*
Y256065D01*
X277165Y257049D01*
X286021Y261968D02*
X282085D01*
X286021Y258033D01*
Y257049D01*
X285037Y256065D01*
X283069D01*
X282085Y257049D01*
X201575Y255671D02*
Y261575D01*
X203543Y259607D01*
X205510Y261575D01*
Y255671D01*
X207478D02*
X209446D01*
X208462D01*
Y261575D01*
X207478D01*
X209446D01*
X212398Y255671D02*
X216334D01*
X214366D01*
Y261575D01*
X218302Y255671D02*
X220269D01*
X219286D01*
Y261575D01*
X218302D01*
X220269D01*
X233061Y256655D02*
X232077Y255671D01*
X230109D01*
X229125Y256655D01*
Y260591D01*
X230109Y261575D01*
X232077D01*
X233061Y260591D01*
Y258623D01*
X231093D01*
X235029Y261575D02*
Y255671D01*
X237980D01*
X238964Y256655D01*
Y258623D01*
X237980Y259607D01*
X235029D01*
X240932Y255671D02*
X242900D01*
X241916D01*
Y261575D01*
X240932D01*
X242900D01*
X248804Y255671D02*
X246836D01*
X245852Y256655D01*
Y260591D01*
X246836Y261575D01*
X248804D01*
X249787Y260591D01*
Y256655D01*
X248804Y255671D01*
D55*
X217425Y69295D02*
X229425D01*
X217425Y56295D02*
Y69295D01*
Y56295D02*
X229425D01*
Y69295D01*
X199709Y56295D02*
X211709D01*
Y69295D01*
X199709D02*
X211709D01*
X199709Y56295D02*
Y69295D01*
M02*
