G04 Layer_Color=8388736*
%FSLAX25Y25*%
%MOIN*%
G70*
G01*
G75*
%ADD36R,0.13792X0.10249*%
%ADD37R,0.04737X0.10249*%
%ADD38R,0.05524X0.04343*%
%ADD39R,0.04343X0.05524*%
%ADD40R,0.06706X0.06706*%
%ADD41C,0.06706*%
%ADD42R,0.06312X0.06312*%
%ADD43C,0.06312*%
%ADD44C,0.12611*%
%ADD45R,0.16548X0.20485*%
%ADD46R,0.06706X0.10642*%
%ADD47R,0.07194X0.07194*%
%ADD48C,0.07887*%
%ADD49R,0.06706X0.06706*%
%ADD50R,0.11824X0.11824*%
D36*
X110236Y305276D02*
D03*
D37*
X119291Y282441D02*
D03*
X110236D02*
D03*
X101181D02*
D03*
D38*
X110291Y270630D02*
D03*
X102811D02*
D03*
D39*
X11063Y285968D02*
D03*
Y293449D02*
D03*
D40*
X67126Y296063D02*
D03*
X129921Y266299D02*
D03*
X231732Y300157D02*
D03*
X134370Y299764D02*
D03*
X158780D02*
D03*
X183189D02*
D03*
X207598D02*
D03*
X265866Y300157D02*
D03*
X171653Y266299D02*
D03*
D41*
X57126Y296063D02*
D03*
X47126D02*
D03*
X37126D02*
D03*
X159921Y266299D02*
D03*
X149921D02*
D03*
X139921D02*
D03*
X241732Y300157D02*
D03*
X251732D02*
D03*
X144370Y299764D02*
D03*
X168780D02*
D03*
X193189D02*
D03*
X217598D02*
D03*
X275866Y300157D02*
D03*
X-14724Y242520D02*
D03*
X-4724D02*
D03*
X-14724Y232520D02*
D03*
X-4724D02*
D03*
X-14724Y222520D02*
D03*
X-4724D02*
D03*
X-14724Y212520D02*
D03*
X-4724D02*
D03*
X-14724Y202520D02*
D03*
X-4724D02*
D03*
X-14724Y192520D02*
D03*
X-4724D02*
D03*
X-14724Y182520D02*
D03*
X-4724D02*
D03*
X-14724Y172520D02*
D03*
X-4724D02*
D03*
X-14724Y162520D02*
D03*
X-4724D02*
D03*
X-14724Y152520D02*
D03*
X-4724D02*
D03*
X-14724Y142520D02*
D03*
X-4724D02*
D03*
X-14724Y132520D02*
D03*
X-4724D02*
D03*
X-14724Y122520D02*
D03*
X-4724D02*
D03*
X-14724Y112520D02*
D03*
X-4724D02*
D03*
X-14724Y102520D02*
D03*
X220669Y222461D02*
D03*
X210669Y212461D02*
D03*
X220669D02*
D03*
X210669Y202461D02*
D03*
X220669D02*
D03*
X210669Y192461D02*
D03*
X220669D02*
D03*
X210669Y182461D02*
D03*
X220669D02*
D03*
X210669Y172461D02*
D03*
X220669D02*
D03*
X210669Y162461D02*
D03*
X220669D02*
D03*
X210669Y152461D02*
D03*
X220669D02*
D03*
X210669Y142461D02*
D03*
X220669D02*
D03*
X210669Y132461D02*
D03*
X220669D02*
D03*
X210669Y122461D02*
D03*
X220669D02*
D03*
X210669Y112461D02*
D03*
X220669D02*
D03*
X210669Y102461D02*
D03*
X220669D02*
D03*
X181653Y266299D02*
D03*
X191654D02*
D03*
X201654D02*
D03*
X211653D02*
D03*
X221654D02*
D03*
X231653D02*
D03*
X241653D02*
D03*
X251654D02*
D03*
X261653D02*
D03*
X271654D02*
D03*
X281653D02*
D03*
D42*
X63976Y303740D02*
D03*
D43*
X56102D02*
D03*
X48228D02*
D03*
X40354D02*
D03*
D44*
X300630Y298752D02*
D03*
Y15748D02*
D03*
X215591Y241752D02*
D03*
Y13386D02*
D03*
X22677D02*
D03*
Y241752D02*
D03*
D45*
X26535Y274567D02*
D03*
X78268D02*
D03*
D46*
X38622Y263937D02*
D03*
X48465D02*
D03*
X56339D02*
D03*
X66181D02*
D03*
D47*
X254016Y228228D02*
D03*
D48*
X264016D02*
D03*
X274016D02*
D03*
X284016D02*
D03*
X294016D02*
D03*
Y238228D02*
D03*
X284016D02*
D03*
X274016D02*
D03*
X264016D02*
D03*
X254016D02*
D03*
D49*
X-4724Y102520D02*
D03*
X210669Y222461D02*
D03*
D50*
X306929Y45669D02*
D03*
X241968D02*
D03*
Y193701D02*
D03*
X306929D02*
D03*
Y203051D02*
D03*
X241968D02*
D03*
M02*
