G04 Layer_Physical_Order=2*
G04 Layer_Color=16711680*
%FSLAX25Y25*%
%MOIN*%
G70*
G01*
G75*
%ADD12R,0.04724X0.03543*%
%ADD13C,0.03937*%
%ADD14C,0.01969*%
%ADD15C,0.01500*%
%ADD18C,0.07087*%
%ADD19R,0.06394X0.06394*%
%ADD20R,0.05906X0.05906*%
%ADD21C,0.05906*%
%ADD22R,0.05512X0.05512*%
%ADD23C,0.05512*%
%ADD24C,0.11811*%
%ADD25R,0.15748X0.19685*%
%ADD26R,0.05906X0.09843*%
%ADD27R,0.05906X0.05906*%
%ADD28R,0.11024X0.11024*%
%ADD29C,0.03150*%
%ADD30R,0.03543X0.04724*%
G04:AMPARAMS|DCode=31|XSize=50mil|YSize=100mil|CornerRadius=6.25mil|HoleSize=0mil|Usage=FLASHONLY|Rotation=270.000|XOffset=0mil|YOffset=0mil|HoleType=Round|Shape=RoundedRectangle|*
%AMROUNDEDRECTD31*
21,1,0.05000,0.08750,0,0,270.0*
21,1,0.03750,0.10000,0,0,270.0*
1,1,0.01250,-0.04375,-0.01875*
1,1,0.01250,-0.04375,0.01875*
1,1,0.01250,0.04375,0.01875*
1,1,0.01250,0.04375,-0.01875*
%
%ADD31ROUNDEDRECTD31*%
G36*
X316378Y0D02*
X0D01*
Y94252D01*
X-31890D01*
Y314500D01*
X316378D01*
Y0D01*
D02*
G37*
%LPC*%
G36*
X99803Y133660D02*
X99131Y133572D01*
X98505Y133312D01*
X97967Y132899D01*
X97554Y132361D01*
X97295Y131735D01*
X97206Y131063D01*
X97295Y130391D01*
X97554Y129764D01*
X97967Y129227D01*
X98505Y128814D01*
X99131Y128554D01*
X99803Y128466D01*
X100475Y128554D01*
X101102Y128814D01*
X101396Y129040D01*
X103532D01*
X111955Y120617D01*
X112612Y120178D01*
X113386Y120024D01*
X126557D01*
X126851Y119798D01*
X127477Y119539D01*
X128150Y119450D01*
X128822Y119539D01*
X129448Y119798D01*
X129986Y120211D01*
X130399Y120749D01*
X130658Y121375D01*
X130747Y122047D01*
X130658Y122719D01*
X130399Y123346D01*
X129986Y123884D01*
X129448Y124296D01*
X128822Y124556D01*
X128150Y124644D01*
X127477Y124556D01*
X126851Y124296D01*
X126557Y124070D01*
X114224D01*
X105801Y132494D01*
X105144Y132932D01*
X104370Y133086D01*
X101396D01*
X101102Y133312D01*
X100475Y133572D01*
X99803Y133660D01*
D02*
G37*
G36*
X84976Y134057D02*
X84201Y133955D01*
X83479Y133656D01*
X82859Y133180D01*
X82383Y132560D01*
X82084Y131838D01*
X81982Y131063D01*
Y126354D01*
X82084Y125579D01*
X82205Y125289D01*
Y122992D01*
X87748D01*
Y125289D01*
X87868Y125579D01*
X87971Y126354D01*
Y131063D01*
X87868Y131838D01*
X87569Y132560D01*
X87094Y133180D01*
X86473Y133656D01*
X85751Y133955D01*
X84976Y134057D01*
D02*
G37*
G36*
X228150Y144526D02*
X227477Y144438D01*
X226851Y144178D01*
X226313Y143765D01*
X225901Y143228D01*
X225641Y142601D01*
X225553Y141929D01*
X225641Y141257D01*
X225901Y140631D01*
X226127Y140336D01*
Y129134D01*
X226280Y128360D01*
X226719Y127703D01*
X227167Y127255D01*
X227216Y126887D01*
X227475Y126260D01*
X227888Y125723D01*
X228426Y125310D01*
X229052Y125050D01*
X229724Y124962D01*
X230397Y125050D01*
X231023Y125310D01*
X231561Y125723D01*
X231974Y126260D01*
X232233Y126887D01*
X232321Y127559D01*
X232233Y128231D01*
X231974Y128858D01*
X231561Y129395D01*
X231023Y129808D01*
X230397Y130068D01*
X230173Y130097D01*
Y140336D01*
X230399Y140631D01*
X230658Y141257D01*
X230747Y141929D01*
X230658Y142601D01*
X230399Y143228D01*
X229986Y143765D01*
X229448Y144178D01*
X228822Y144438D01*
X228150Y144526D01*
D02*
G37*
G36*
X141669Y122837D02*
X140894Y122735D01*
X140172Y122435D01*
X139552Y121960D01*
X139076Y121340D01*
X138777Y120617D01*
X138675Y119843D01*
Y115331D01*
X138777Y114556D01*
X138898Y114265D01*
Y111969D01*
X144441D01*
Y114265D01*
X144561Y114556D01*
X144663Y115331D01*
Y119843D01*
X144561Y120617D01*
X144262Y121340D01*
X143786Y121960D01*
X143166Y122435D01*
X142444Y122735D01*
X141669Y122837D01*
D02*
G37*
G36*
X67008Y122205D02*
X61465D01*
Y121837D01*
X59488D01*
X58713Y121735D01*
X57991Y121435D01*
X57371Y120960D01*
X56895Y120340D01*
X56596Y119617D01*
X56494Y118842D01*
X56596Y118068D01*
X56895Y117345D01*
X57371Y116725D01*
X57991Y116250D01*
X58713Y115950D01*
X59488Y115848D01*
X61465D01*
Y115480D01*
X67008D01*
Y117777D01*
X67128Y118068D01*
X67230Y118842D01*
X67128Y119617D01*
X67008Y119908D01*
Y122205D01*
D02*
G37*
G36*
X130787Y118661D02*
X125244D01*
Y118293D01*
X123307D01*
Y118661D01*
X117764D01*
Y118293D01*
X115591D01*
X114816Y118191D01*
X114093Y117892D01*
X113473Y117416D01*
X112998Y116796D01*
X112698Y116074D01*
X112596Y115299D01*
X112698Y114524D01*
X112998Y113802D01*
X113473Y113182D01*
X114093Y112706D01*
X114816Y112407D01*
X115591Y112305D01*
X117764D01*
Y111937D01*
X123307D01*
Y112305D01*
X125244D01*
Y111937D01*
X130787D01*
Y114234D01*
X130908Y114524D01*
X131010Y115299D01*
X130908Y116074D01*
X130787Y116365D01*
Y118661D01*
D02*
G37*
G36*
X123307Y132441D02*
X117764D01*
Y132073D01*
X115591D01*
X114816Y131971D01*
X114093Y131672D01*
X113473Y131196D01*
X112998Y130576D01*
X112698Y129854D01*
X112596Y129079D01*
X112698Y128304D01*
X112998Y127582D01*
X113473Y126962D01*
X114093Y126486D01*
X114816Y126187D01*
X115591Y126085D01*
X117764D01*
Y125717D01*
X123307D01*
Y128013D01*
X123427Y128304D01*
X123530Y129079D01*
X123427Y129854D01*
X123307Y130145D01*
Y132441D01*
D02*
G37*
G36*
X141669Y164569D02*
X140894Y164467D01*
X140172Y164168D01*
X139552Y163692D01*
X139076Y163072D01*
X138777Y162350D01*
X138675Y161575D01*
Y157063D01*
X138777Y156288D01*
X138898Y155997D01*
Y153701D01*
X144441D01*
Y155997D01*
X144561Y156288D01*
X144663Y157063D01*
Y161575D01*
X144561Y162350D01*
X144262Y163072D01*
X143786Y163692D01*
X143166Y164168D01*
X142444Y164467D01*
X141669Y164569D01*
D02*
G37*
G36*
X239764Y159684D02*
X239092Y159595D01*
X238465Y159336D01*
X238171Y159110D01*
X232695D01*
X232401Y159336D01*
X231774Y159595D01*
X231102Y159684D01*
X230430Y159595D01*
X229804Y159336D01*
X229266Y158923D01*
X228853Y158385D01*
X228594Y157759D01*
X228505Y157087D01*
X228594Y156414D01*
X228853Y155788D01*
X229266Y155250D01*
X229804Y154838D01*
X230430Y154578D01*
X231102Y154490D01*
X231774Y154578D01*
X232401Y154838D01*
X232695Y155063D01*
X238171D01*
X238465Y154838D01*
X239092Y154578D01*
X239764Y154490D01*
X240436Y154578D01*
X241062Y154838D01*
X241600Y155250D01*
X242013Y155788D01*
X242272Y156414D01*
X242361Y157087D01*
X242272Y157759D01*
X242013Y158385D01*
X241600Y158923D01*
X241062Y159336D01*
X240436Y159595D01*
X239764Y159684D01*
D02*
G37*
G36*
X84976Y171656D02*
X84201Y171554D01*
X83479Y171254D01*
X82859Y170779D01*
X82383Y170159D01*
X82084Y169436D01*
X81982Y168661D01*
Y164150D01*
X82084Y163375D01*
X82205Y163084D01*
Y160787D01*
X87748D01*
Y163084D01*
X87868Y163375D01*
X87971Y164150D01*
Y168661D01*
X87868Y169436D01*
X87569Y170159D01*
X87094Y170779D01*
X86473Y171254D01*
X85751Y171554D01*
X84976Y171656D01*
D02*
G37*
G36*
X73701Y129685D02*
X68157D01*
Y129317D01*
X67008D01*
Y129685D01*
X61465D01*
Y129317D01*
X59291D01*
X58516Y129215D01*
X57794Y128916D01*
X57174Y128440D01*
X56698Y127820D01*
X56399Y127098D01*
X56297Y126323D01*
X56399Y125548D01*
X56698Y124826D01*
X57174Y124206D01*
X57794Y123730D01*
X58516Y123431D01*
X59291Y123329D01*
X61465D01*
Y122961D01*
X67008D01*
Y123329D01*
X68157D01*
Y122961D01*
X73701D01*
Y125257D01*
X73821Y125548D01*
X73923Y126323D01*
X73821Y127098D01*
X73701Y127389D01*
Y129685D01*
D02*
G37*
G36*
X141669Y144293D02*
X140894Y144191D01*
X140172Y143892D01*
X139552Y143416D01*
X139076Y142796D01*
X138777Y142074D01*
X138675Y141299D01*
Y136591D01*
X138777Y135816D01*
X138898Y135525D01*
Y133228D01*
X144441D01*
Y135525D01*
X144561Y135816D01*
X144663Y136591D01*
Y141299D01*
X144561Y142074D01*
X144262Y142796D01*
X143786Y143416D01*
X143166Y143892D01*
X142444Y144191D01*
X141669Y144293D01*
D02*
G37*
G36*
X67008Y141496D02*
X61465D01*
Y141128D01*
X59095D01*
X58320Y141026D01*
X57598Y140727D01*
X56977Y140251D01*
X56502Y139631D01*
X56202Y138909D01*
X56100Y138134D01*
X56202Y137359D01*
X56502Y136637D01*
X56977Y136017D01*
X57598Y135541D01*
X58320Y135242D01*
X59095Y135140D01*
X61465D01*
Y134772D01*
X67008D01*
Y137068D01*
X67128Y137359D01*
X67230Y138134D01*
X67128Y138909D01*
X67008Y139200D01*
Y141496D01*
D02*
G37*
G36*
X73701Y110000D02*
X68157D01*
Y109632D01*
X67008D01*
Y110000D01*
X61465D01*
Y109632D01*
X59291D01*
X58516Y109530D01*
X57794Y109231D01*
X57174Y108755D01*
X56698Y108135D01*
X56399Y107413D01*
X56297Y106638D01*
X56399Y105863D01*
X56698Y105141D01*
X57174Y104521D01*
X57794Y104045D01*
X58516Y103746D01*
X59291Y103644D01*
X61465D01*
Y103276D01*
X67008D01*
Y103644D01*
X68157D01*
Y103276D01*
X73701D01*
Y105572D01*
X73821Y105863D01*
X73923Y106638D01*
X73821Y107413D01*
X73701Y107703D01*
Y110000D01*
D02*
G37*
G36*
X47496Y109235D02*
X46824Y109146D01*
X46198Y108887D01*
X45660Y108474D01*
X45247Y107936D01*
X44987Y107310D01*
X44899Y106638D01*
X44987Y105966D01*
X45247Y105339D01*
X45473Y105045D01*
Y75302D01*
X43987Y73817D01*
X43619Y73768D01*
X42993Y73509D01*
X42455Y73096D01*
X42042Y72558D01*
X41783Y71932D01*
X41694Y71260D01*
X41783Y70588D01*
X42042Y69961D01*
X42455Y69424D01*
X42993Y69011D01*
X43619Y68751D01*
X44291Y68663D01*
X44963Y68751D01*
X45590Y69011D01*
X46128Y69424D01*
X46540Y69961D01*
X46800Y70588D01*
X46848Y70956D01*
X48927Y73034D01*
X49365Y73690D01*
X49519Y74464D01*
Y105045D01*
X49745Y105339D01*
X50005Y105966D01*
X50093Y106638D01*
X50005Y107310D01*
X49745Y107936D01*
X49332Y108474D01*
X48794Y108887D01*
X48168Y109146D01*
X47496Y109235D01*
D02*
G37*
G36*
X123307Y77535D02*
X117764D01*
Y77167D01*
X115787D01*
X115013Y77065D01*
X114290Y76766D01*
X113670Y76290D01*
X113194Y75670D01*
X112895Y74948D01*
X112793Y74173D01*
X112895Y73398D01*
X113194Y72676D01*
X113670Y72056D01*
X114290Y71580D01*
X115013Y71281D01*
X115787Y71179D01*
X117764D01*
Y70811D01*
X123307D01*
Y71179D01*
X125244D01*
Y70811D01*
X130787D01*
Y73107D01*
X130908Y73398D01*
X131010Y74173D01*
X130908Y74948D01*
X130787Y75239D01*
Y77535D01*
X125244D01*
Y77167D01*
X123307D01*
Y77535D01*
D02*
G37*
G36*
X141669Y81695D02*
X140894Y81593D01*
X140172Y81294D01*
X139552Y80818D01*
X139076Y80198D01*
X138777Y79476D01*
X138675Y78701D01*
Y74205D01*
X138777Y73430D01*
X138898Y73139D01*
Y70842D01*
X144441D01*
Y73139D01*
X144561Y73430D01*
X144663Y74205D01*
Y78701D01*
X144561Y79476D01*
X144262Y80198D01*
X143786Y80818D01*
X143166Y81294D01*
X142444Y81593D01*
X141669Y81695D01*
D02*
G37*
G36*
X123307Y70055D02*
X117764D01*
Y69687D01*
X115787D01*
X115013Y69585D01*
X114290Y69286D01*
X113670Y68810D01*
X113194Y68190D01*
X112895Y67468D01*
X112793Y66693D01*
X112895Y65918D01*
X113194Y65196D01*
X113670Y64576D01*
X114290Y64100D01*
X115013Y63801D01*
X115787Y63699D01*
X117764D01*
Y63331D01*
X123307D01*
Y65627D01*
X123427Y65918D01*
X123530Y66693D01*
X123427Y67468D01*
X123307Y67759D01*
Y70055D01*
D02*
G37*
G36*
X67008Y75173D02*
X61465D01*
Y74805D01*
X58110D01*
X57335Y74703D01*
X56613Y74404D01*
X55993Y73928D01*
X55517Y73308D01*
X55218Y72586D01*
X55116Y71811D01*
X55218Y71036D01*
X55517Y70314D01*
X55993Y69694D01*
X56613Y69218D01*
X57335Y68919D01*
X58110Y68817D01*
X61465D01*
Y68449D01*
X67008D01*
Y70745D01*
X67128Y71036D01*
X67230Y71811D01*
X67128Y72586D01*
X67008Y72877D01*
Y75173D01*
D02*
G37*
G36*
X73701D02*
X68157D01*
Y72877D01*
X68037Y72586D01*
X67935Y71811D01*
X68037Y71036D01*
X68157Y70745D01*
Y68449D01*
X73701D01*
Y68817D01*
X77008D01*
X77783Y68919D01*
X78505Y69218D01*
X79125Y69694D01*
X79601Y70314D01*
X79900Y71036D01*
X80002Y71811D01*
X79900Y72586D01*
X79601Y73308D01*
X79125Y73928D01*
X78505Y74404D01*
X77783Y74703D01*
X77008Y74805D01*
X73701D01*
Y75173D01*
D02*
G37*
G36*
X123307Y90709D02*
X117764D01*
Y90341D01*
X115591D01*
X114816Y90239D01*
X114093Y89939D01*
X113473Y89464D01*
X112998Y88844D01*
X112698Y88121D01*
X112596Y87347D01*
X112698Y86572D01*
X112998Y85849D01*
X113473Y85229D01*
X114093Y84754D01*
X114816Y84454D01*
X115591Y84352D01*
X117764D01*
Y83984D01*
X123307D01*
Y86281D01*
X123427Y86572D01*
X123530Y87347D01*
X123427Y88121D01*
X123307Y88412D01*
Y90709D01*
D02*
G37*
G36*
X-14724Y106507D02*
X-15756Y106371D01*
X-16718Y105972D01*
X-17544Y105339D01*
X-18177Y104513D01*
X-18575Y103552D01*
X-18711Y102520D01*
X-18575Y101488D01*
X-18177Y100526D01*
X-17544Y99700D01*
X-16718Y99067D01*
X-15756Y98669D01*
X-14724Y98533D01*
X-13692Y98669D01*
X-12731Y99067D01*
X-11905Y99700D01*
X-11272Y100526D01*
X-10873Y101488D01*
X-10738Y102520D01*
X-10873Y103552D01*
X-11272Y104513D01*
X-11905Y105339D01*
X-12731Y105972D01*
X-13692Y106371D01*
X-14724Y106507D01*
D02*
G37*
G36*
X84882Y114963D02*
X84107Y114861D01*
X83385Y114561D01*
X82765Y114086D01*
X82289Y113466D01*
X81990Y112743D01*
X81888Y111969D01*
Y106764D01*
X81990Y105989D01*
X82205Y105470D01*
Y103307D01*
X87748D01*
Y105604D01*
X87868Y105894D01*
X87971Y106669D01*
X87876Y107387D01*
Y111969D01*
X87774Y112743D01*
X87475Y113466D01*
X86999Y114086D01*
X86379Y114561D01*
X85657Y114861D01*
X84882Y114963D01*
D02*
G37*
G36*
X123307Y111181D02*
X117764D01*
Y110813D01*
X115591D01*
X114816Y110711D01*
X114093Y110412D01*
X113473Y109936D01*
X112998Y109316D01*
X112698Y108594D01*
X112596Y107819D01*
X112698Y107044D01*
X112998Y106322D01*
X113473Y105702D01*
X114093Y105226D01*
X114816Y104927D01*
X115591Y104825D01*
X117764D01*
Y104457D01*
X123307D01*
Y106753D01*
X123427Y107044D01*
X123530Y107819D01*
X123427Y108594D01*
X123307Y108885D01*
Y111181D01*
D02*
G37*
G36*
X141669Y102561D02*
X140894Y102459D01*
X140172Y102160D01*
X139552Y101684D01*
X139076Y101064D01*
X138777Y100342D01*
X138675Y99567D01*
Y94858D01*
X138777Y94083D01*
X138898Y93793D01*
Y91496D01*
X144441D01*
Y93793D01*
X144561Y94083D01*
X144663Y94858D01*
Y99567D01*
X144561Y100342D01*
X144262Y101064D01*
X143786Y101684D01*
X143166Y102160D01*
X142444Y102459D01*
X141669Y102561D01*
D02*
G37*
G36*
X67008Y102520D02*
X61465D01*
Y102152D01*
X59291D01*
X58516Y102050D01*
X57794Y101751D01*
X57174Y101275D01*
X56698Y100654D01*
X56399Y99932D01*
X56297Y99158D01*
X56399Y98383D01*
X56698Y97660D01*
X57174Y97040D01*
X57794Y96565D01*
X58516Y96265D01*
X59291Y96163D01*
X61465D01*
Y95795D01*
X67008D01*
Y98092D01*
X67128Y98383D01*
X67230Y99158D01*
X67128Y99932D01*
X67008Y100223D01*
Y102520D01*
D02*
G37*
G36*
X130787Y98189D02*
X125244D01*
Y97821D01*
X123307D01*
Y98189D01*
X117764D01*
Y97821D01*
X115197D01*
X114422Y97719D01*
X113700Y97420D01*
X113080Y96944D01*
X112604Y96324D01*
X112305Y95602D01*
X112203Y94827D01*
X112305Y94052D01*
X112604Y93330D01*
X113080Y92710D01*
X113700Y92234D01*
X114422Y91935D01*
X115197Y91833D01*
X117764D01*
Y91465D01*
X123307D01*
Y91833D01*
X125244D01*
Y91465D01*
X130787D01*
Y93761D01*
X130908Y94052D01*
X131010Y94827D01*
X130908Y95602D01*
X130787Y95893D01*
Y98189D01*
D02*
G37*
G36*
X254016Y242811D02*
X252830Y242655D01*
X251725Y242197D01*
X250775Y241469D01*
X250047Y240520D01*
X249589Y239414D01*
X249433Y238228D01*
X249589Y237042D01*
X250047Y235937D01*
X250775Y234988D01*
X251725Y234260D01*
X252830Y233802D01*
X254016Y233646D01*
X255202Y233802D01*
X256307Y234260D01*
X257256Y234988D01*
X257984Y235937D01*
X258442Y237042D01*
X258598Y238228D01*
X258442Y239414D01*
X257984Y240520D01*
X257256Y241469D01*
X256307Y242197D01*
X255202Y242655D01*
X254016Y242811D01*
D02*
G37*
G36*
X264016Y232811D02*
X262830Y232655D01*
X261724Y232197D01*
X260775Y231469D01*
X260047Y230520D01*
X259589Y229414D01*
X259433Y228228D01*
X259589Y227042D01*
X260047Y225937D01*
X260775Y224988D01*
X261724Y224260D01*
X262830Y223802D01*
X264016Y223646D01*
X265202Y223802D01*
X266307Y224260D01*
X267256Y224988D01*
X267984Y225937D01*
X268442Y227042D01*
X268598Y228228D01*
X268442Y229414D01*
X267984Y230520D01*
X267256Y231469D01*
X266307Y232197D01*
X265202Y232655D01*
X264016Y232811D01*
D02*
G37*
G36*
X-14724Y246507D02*
X-15756Y246371D01*
X-16718Y245972D01*
X-17544Y245339D01*
X-18177Y244513D01*
X-18575Y243552D01*
X-18711Y242520D01*
X-18575Y241488D01*
X-18177Y240526D01*
X-17544Y239701D01*
X-16718Y239067D01*
X-15756Y238669D01*
X-14724Y238533D01*
X-13692Y238669D01*
X-12731Y239067D01*
X-11905Y239701D01*
X-11272Y240526D01*
X-10873Y241488D01*
X-10738Y242520D01*
X-10873Y243552D01*
X-11272Y244513D01*
X-11905Y245339D01*
X-12731Y245972D01*
X-13692Y246371D01*
X-14724Y246507D01*
D02*
G37*
G36*
X264016Y242811D02*
X262830Y242655D01*
X261724Y242197D01*
X260775Y241469D01*
X260047Y240520D01*
X259589Y239414D01*
X259433Y238228D01*
X259589Y237042D01*
X260047Y235937D01*
X260775Y234988D01*
X261724Y234260D01*
X262830Y233802D01*
X264016Y233646D01*
X265202Y233802D01*
X266307Y234260D01*
X267256Y234988D01*
X267984Y235937D01*
X268442Y237042D01*
X268598Y238228D01*
X268442Y239414D01*
X267984Y240520D01*
X267256Y241469D01*
X266307Y242197D01*
X265202Y242655D01*
X264016Y242811D01*
D02*
G37*
G36*
X-14724Y216507D02*
X-15756Y216371D01*
X-16718Y215972D01*
X-17544Y215339D01*
X-18177Y214513D01*
X-18575Y213552D01*
X-18711Y212520D01*
X-18575Y211488D01*
X-18177Y210526D01*
X-17544Y209701D01*
X-16718Y209067D01*
X-15756Y208669D01*
X-14724Y208533D01*
X-13692Y208669D01*
X-12731Y209067D01*
X-11905Y209701D01*
X-11272Y210526D01*
X-10873Y211488D01*
X-10738Y212520D01*
X-10873Y213552D01*
X-11272Y214513D01*
X-11905Y215339D01*
X-12731Y215972D01*
X-13692Y216371D01*
X-14724Y216507D01*
D02*
G37*
G36*
X210669Y216447D02*
X209637Y216312D01*
X208676Y215913D01*
X207850Y215280D01*
X207217Y214454D01*
X206818Y213492D01*
X206682Y212461D01*
X206818Y211429D01*
X207217Y210467D01*
X207850Y209642D01*
X208676Y209008D01*
X209637Y208610D01*
X210669Y208474D01*
X211701Y208610D01*
X212663Y209008D01*
X213488Y209642D01*
X214122Y210467D01*
X214520Y211429D01*
X214656Y212461D01*
X214520Y213492D01*
X214122Y214454D01*
X213488Y215280D01*
X212663Y215913D01*
X211701Y216312D01*
X210669Y216447D01*
D02*
G37*
G36*
X214622Y226413D02*
X206716D01*
Y218508D01*
X214622D01*
Y226413D01*
D02*
G37*
G36*
X-4724Y216507D02*
X-5756Y216371D01*
X-6718Y215972D01*
X-7544Y215339D01*
X-8177Y214513D01*
X-8575Y213552D01*
X-8711Y212520D01*
X-8575Y211488D01*
X-8177Y210526D01*
X-7544Y209701D01*
X-6718Y209067D01*
X-5756Y208669D01*
X-4724Y208533D01*
X-3692Y208669D01*
X-2731Y209067D01*
X-1905Y209701D01*
X-1272Y210526D01*
X-873Y211488D01*
X-738Y212520D01*
X-873Y213552D01*
X-1272Y214513D01*
X-1905Y215339D01*
X-2731Y215972D01*
X-3692Y216371D01*
X-4724Y216507D01*
D02*
G37*
G36*
Y246507D02*
X-5756Y246371D01*
X-6718Y245972D01*
X-7544Y245339D01*
X-8177Y244513D01*
X-8575Y243552D01*
X-8711Y242520D01*
X-8575Y241488D01*
X-8177Y240526D01*
X-7544Y239701D01*
X-6718Y239067D01*
X-5756Y238669D01*
X-4724Y238533D01*
X-3692Y238669D01*
X-2731Y239067D01*
X-1905Y239701D01*
X-1272Y240526D01*
X-873Y241488D01*
X-738Y242520D01*
X-873Y243552D01*
X-1272Y244513D01*
X-1905Y245339D01*
X-2731Y245972D01*
X-3692Y246371D01*
X-4724Y246507D01*
D02*
G37*
G36*
X235685Y304110D02*
X227780D01*
Y296205D01*
X235685D01*
Y304110D01*
D02*
G37*
G36*
X241732Y304144D02*
X240700Y304009D01*
X239739Y303610D01*
X238913Y302977D01*
X238280Y302151D01*
X237881Y301189D01*
X237745Y300157D01*
X237881Y299126D01*
X238280Y298164D01*
X238913Y297338D01*
X239739Y296705D01*
X240700Y296306D01*
X241732Y296171D01*
X242764Y296306D01*
X243726Y296705D01*
X244551Y297338D01*
X245185Y298164D01*
X245583Y299126D01*
X245719Y300157D01*
X245583Y301189D01*
X245185Y302151D01*
X244551Y302977D01*
X243726Y303610D01*
X242764Y304009D01*
X241732Y304144D01*
D02*
G37*
G36*
X56102Y307528D02*
X55122Y307399D01*
X54208Y307021D01*
X53424Y306419D01*
X52822Y305634D01*
X52443Y304721D01*
X52417Y304526D01*
X51913D01*
X51888Y304721D01*
X51509Y305634D01*
X50907Y306419D01*
X50122Y307021D01*
X49209Y307399D01*
X48228Y307528D01*
X47248Y307399D01*
X46334Y307021D01*
X45550Y306419D01*
X44948Y305634D01*
X44569Y304721D01*
X44440Y303740D01*
X44569Y302760D01*
X44948Y301846D01*
X45550Y301061D01*
X46334Y300459D01*
X46352Y300452D01*
X46382Y299952D01*
X46094Y299914D01*
X45132Y299516D01*
X44307Y298882D01*
X43673Y298056D01*
X43275Y297095D01*
X43139Y296063D01*
X43275Y295031D01*
X43673Y294070D01*
X44307Y293244D01*
X45132Y292610D01*
X46094Y292212D01*
X47126Y292076D01*
X48158Y292212D01*
X48367Y292299D01*
X54554Y286111D01*
Y269858D01*
X50249D01*
Y285516D01*
X50262Y285526D01*
X50674Y286064D01*
X50934Y286690D01*
X51022Y287362D01*
X50934Y288034D01*
X50674Y288661D01*
X50262Y289199D01*
X49724Y289611D01*
X49097Y289871D01*
X48425Y289959D01*
X47753Y289871D01*
X47127Y289611D01*
X46589Y289199D01*
X46176Y288661D01*
X45917Y288034D01*
X45828Y287362D01*
X45917Y286690D01*
X46176Y286064D01*
X46589Y285526D01*
X46680Y285456D01*
Y269858D01*
X44512D01*
Y258016D01*
X46680D01*
Y253259D01*
X27725Y234304D01*
X-1185D01*
X-1272Y234513D01*
X-1905Y235339D01*
X-2731Y235972D01*
X-3692Y236371D01*
X-4724Y236507D01*
X-5756Y236371D01*
X-6718Y235972D01*
X-7544Y235339D01*
X-8177Y234513D01*
X-8575Y233552D01*
X-8711Y232520D01*
X-8575Y231488D01*
X-8177Y230526D01*
X-7623Y229804D01*
X-7780Y229304D01*
X-8985D01*
X-10960Y231279D01*
X-10873Y231488D01*
X-10738Y232520D01*
X-10873Y233552D01*
X-11272Y234513D01*
X-11905Y235339D01*
X-12731Y235972D01*
X-13692Y236371D01*
X-14724Y236507D01*
X-15756Y236371D01*
X-16718Y235972D01*
X-17544Y235339D01*
X-18177Y234513D01*
X-18575Y233552D01*
X-18711Y232520D01*
X-18575Y231488D01*
X-18177Y230526D01*
X-17544Y229701D01*
X-16718Y229067D01*
X-15756Y228669D01*
X-14724Y228533D01*
X-13692Y228669D01*
X-13483Y228755D01*
X-10986Y226258D01*
X-10986Y226258D01*
X-10407Y225871D01*
X-9724Y225735D01*
X-9724Y225735D01*
X27000D01*
X27683Y225871D01*
X28262Y226258D01*
X57600Y255596D01*
X57600Y255596D01*
X57987Y256175D01*
X58123Y256858D01*
X58123Y256858D01*
Y258016D01*
X60291D01*
Y269858D01*
X58123D01*
Y286850D01*
X57987Y287533D01*
X57600Y288112D01*
X57600Y288112D01*
X50890Y294822D01*
X50977Y295031D01*
X51113Y296063D01*
X50977Y297095D01*
X50579Y298056D01*
X50013Y298794D01*
Y300414D01*
X50122Y300459D01*
X50907Y301061D01*
X51509Y301846D01*
X51888Y302760D01*
X51913Y302954D01*
X52417D01*
X52443Y302760D01*
X52822Y301846D01*
X53424Y301061D01*
X54208Y300459D01*
X54318Y300414D01*
Y298891D01*
X54307Y298882D01*
X53673Y298056D01*
X53275Y297095D01*
X53139Y296063D01*
X53275Y295031D01*
X53673Y294070D01*
X54307Y293244D01*
X55133Y292610D01*
X56094Y292212D01*
X57126Y292076D01*
X58158Y292212D01*
X59119Y292610D01*
X59945Y293244D01*
X60579Y294070D01*
X60977Y295031D01*
X61113Y296063D01*
X60977Y297095D01*
X60579Y298056D01*
X59945Y298882D01*
X59119Y299516D01*
X58158Y299914D01*
X57887Y299950D01*
Y300414D01*
X57996Y300459D01*
X58781Y301061D01*
X59383Y301846D01*
X59720Y302660D01*
X60220Y302561D01*
Y299984D01*
X63173D01*
Y292110D01*
X63187D01*
Y269858D01*
X62228D01*
Y258016D01*
X63187D01*
Y253685D01*
X63289Y252910D01*
X63410Y252619D01*
Y250323D01*
X68953D01*
Y252619D01*
X69073Y252910D01*
X69175Y253685D01*
Y258016D01*
X70134D01*
Y269858D01*
X69175D01*
Y292110D01*
X71079D01*
Y300016D01*
X70120D01*
Y300591D01*
X70018Y301365D01*
X69719Y302088D01*
X69243Y302708D01*
X67732Y304219D01*
Y307496D01*
X60220D01*
Y304919D01*
X59720Y304820D01*
X59383Y305634D01*
X58781Y306419D01*
X57996Y307021D01*
X57083Y307399D01*
X56102Y307528D01*
D02*
G37*
G36*
X269819Y304110D02*
X261913D01*
Y296205D01*
X269819D01*
Y304110D01*
D02*
G37*
G36*
X191654Y270286D02*
X190622Y270150D01*
X189660Y269752D01*
X188834Y269118D01*
X188201Y268293D01*
X187803Y267331D01*
X187667Y266299D01*
X187803Y265267D01*
X188201Y264306D01*
X188834Y263480D01*
X189660Y262846D01*
X190622Y262448D01*
X191654Y262312D01*
X192685Y262448D01*
X193647Y262846D01*
X194473Y263480D01*
X195106Y264306D01*
X195504Y265267D01*
X195640Y266299D01*
X195504Y267331D01*
X195106Y268293D01*
X194473Y269118D01*
X193647Y269752D01*
X192685Y270150D01*
X191654Y270286D01*
D02*
G37*
G36*
X181653D02*
X180622Y270150D01*
X179660Y269752D01*
X178834Y269118D01*
X178201Y268293D01*
X177803Y267331D01*
X177667Y266299D01*
X177803Y265267D01*
X178201Y264306D01*
X178834Y263480D01*
X179660Y262846D01*
X180622Y262448D01*
X181653Y262312D01*
X182685Y262448D01*
X183647Y262846D01*
X184473Y263480D01*
X185106Y264306D01*
X185504Y265267D01*
X185640Y266299D01*
X185504Y267331D01*
X185106Y268293D01*
X184473Y269118D01*
X183647Y269752D01*
X182685Y270150D01*
X181653Y270286D01*
D02*
G37*
G36*
X275866Y304144D02*
X274834Y304009D01*
X273873Y303610D01*
X273047Y302977D01*
X272413Y302151D01*
X272015Y301189D01*
X271879Y300157D01*
X272015Y299126D01*
X272413Y298164D01*
X272872Y297566D01*
Y295335D01*
X272027Y294490D01*
X211516D01*
X210695Y295311D01*
X210840Y295811D01*
X211551D01*
Y303716D01*
X203646D01*
Y295811D01*
X204604D01*
Y294173D01*
X204706Y293398D01*
X205005Y292676D01*
X205481Y292056D01*
X208158Y289379D01*
X208779Y288903D01*
X208815Y288888D01*
X208716Y288388D01*
X188287D01*
X186183Y290492D01*
Y295811D01*
X187142D01*
Y303716D01*
X179236D01*
Y302758D01*
X138543D01*
X137768Y302656D01*
X137046Y302357D01*
X136426Y301881D01*
X133276Y298731D01*
X132801Y298111D01*
X132502Y297389D01*
X132400Y296614D01*
Y294307D01*
X131441D01*
Y286402D01*
X139347D01*
Y294307D01*
X138388D01*
Y295374D01*
X139784Y296770D01*
X179236D01*
Y295811D01*
X180195D01*
Y289252D01*
X180297Y288477D01*
X180596Y287755D01*
X181072Y287135D01*
X184930Y283277D01*
X185550Y282801D01*
X185587Y282786D01*
X185487Y282285D01*
X163347D01*
X162572Y282184D01*
X161849Y281884D01*
X161558Y282285D01*
X165679Y286405D01*
X166426Y286503D01*
X167387Y286902D01*
X168213Y287535D01*
X168846Y288361D01*
X169245Y289322D01*
X169381Y290354D01*
X169245Y291386D01*
X168846Y292348D01*
X168213Y293174D01*
X167387Y293807D01*
X166426Y294205D01*
X165394Y294341D01*
X164362Y294205D01*
X163400Y293807D01*
X162575Y293174D01*
X161941Y292348D01*
X161543Y291386D01*
X161444Y290639D01*
X155363Y284558D01*
X154887Y283938D01*
X154588Y283216D01*
X154486Y282441D01*
Y250590D01*
X154588Y249816D01*
X154763Y249393D01*
X154887Y249094D01*
X155363Y248473D01*
X164741Y239096D01*
X164561Y238568D01*
X164288Y238532D01*
X163662Y238273D01*
X163124Y237860D01*
X162712Y237322D01*
X162452Y236696D01*
X162364Y236024D01*
X162452Y235351D01*
X162712Y234725D01*
X163124Y234187D01*
X163662Y233774D01*
X164288Y233515D01*
X164656Y233467D01*
X173609Y224514D01*
X174265Y224076D01*
X175027Y223924D01*
X175049Y223890D01*
X175194Y223422D01*
X174975Y223254D01*
X174562Y222716D01*
X174302Y222090D01*
X174214Y221417D01*
X174302Y220745D01*
X174562Y220119D01*
X174975Y219581D01*
X175513Y219168D01*
X176139Y218909D01*
X176811Y218820D01*
X177483Y218909D01*
X178110Y219168D01*
X178404Y219394D01*
X195309D01*
X195552Y219208D01*
X196178Y218948D01*
X196850Y218860D01*
X197523Y218948D01*
X198149Y219208D01*
X198687Y219620D01*
X199100Y220158D01*
X199359Y220784D01*
X199447Y221457D01*
X199359Y222129D01*
X199100Y222755D01*
X198884Y223035D01*
X199021Y223632D01*
X199023Y223634D01*
X199172Y223696D01*
X199710Y224109D01*
X200123Y224646D01*
X200382Y225273D01*
X200471Y225945D01*
X200382Y226617D01*
X200123Y227243D01*
X199722Y227766D01*
X199733Y227839D01*
X199900Y228266D01*
X217675D01*
Y225052D01*
X217217Y224454D01*
X216818Y223493D01*
X216682Y222461D01*
X216818Y221429D01*
X217217Y220467D01*
X217675Y219869D01*
Y215052D01*
X217217Y214454D01*
X216818Y213492D01*
X216682Y212461D01*
X216818Y211429D01*
X217217Y210467D01*
X217850Y209642D01*
X218676Y209008D01*
X219637Y208610D01*
X220669Y208474D01*
X221701Y208610D01*
X222663Y209008D01*
X223488Y209642D01*
X224122Y210467D01*
X224520Y211429D01*
X224656Y212461D01*
X224520Y213492D01*
X224122Y214454D01*
X223663Y215052D01*
Y219869D01*
X224122Y220467D01*
X224520Y221429D01*
X224656Y222461D01*
X224520Y223493D01*
X224122Y224454D01*
X223663Y225052D01*
Y228266D01*
X230295D01*
X238974Y219587D01*
Y209563D01*
X235457D01*
Y196539D01*
Y187189D01*
X248480D01*
Y196539D01*
Y209563D01*
X244963D01*
Y220827D01*
X244861Y221602D01*
X244562Y222324D01*
X244086Y222944D01*
X233653Y233377D01*
X233032Y233853D01*
X232310Y234152D01*
X231535Y234254D01*
X178051D01*
X160474Y251831D01*
Y277337D01*
X160974Y277506D01*
X161229Y277174D01*
X161849Y276698D01*
X162572Y276399D01*
X163347Y276297D01*
X265866D01*
X266641Y276399D01*
X267363Y276698D01*
X267983Y277174D01*
X268459Y277794D01*
X268758Y278516D01*
X268860Y279291D01*
X268758Y280066D01*
X268459Y280788D01*
X267983Y281409D01*
X267363Y281884D01*
X267326Y281900D01*
X267426Y282400D01*
X284232D01*
X301337Y265295D01*
Y244894D01*
X300875Y244703D01*
X298281Y247297D01*
X297625Y247735D01*
X296850Y247889D01*
X294703D01*
X294409Y248115D01*
X293782Y248375D01*
X293110Y248463D01*
X292438Y248375D01*
X291812Y248115D01*
X291274Y247703D01*
X290861Y247165D01*
X290602Y246538D01*
X290513Y245866D01*
X290599Y245213D01*
X290567Y245174D01*
X290166Y244939D01*
X279344Y255761D01*
X278688Y256200D01*
X277913Y256354D01*
X213658D01*
X213494Y256558D01*
X213733Y257058D01*
X286312D01*
X287087Y257160D01*
X287809Y257459D01*
X288429Y257935D01*
X294479Y263985D01*
X294955Y264605D01*
X295254Y265327D01*
X295356Y266102D01*
X295254Y266877D01*
X294955Y267599D01*
X294479Y268219D01*
X293859Y268695D01*
X293137Y268994D01*
X292362Y269096D01*
X291587Y268994D01*
X290865Y268695D01*
X290245Y268219D01*
X285120Y263094D01*
X284746Y263141D01*
X284586Y263628D01*
X285106Y264306D01*
X285505Y265267D01*
X285640Y266299D01*
X285505Y267331D01*
X285106Y268293D01*
X284473Y269118D01*
X283647Y269752D01*
X282685Y270150D01*
X281653Y270286D01*
X280622Y270150D01*
X279660Y269752D01*
X278834Y269118D01*
X278201Y268293D01*
X277802Y267331D01*
X277667Y266299D01*
X277802Y265267D01*
X278201Y264306D01*
X278784Y263546D01*
X278662Y263046D01*
X274645D01*
X274523Y263546D01*
X275106Y264306D01*
X275505Y265267D01*
X275640Y266299D01*
X275505Y267331D01*
X275106Y268293D01*
X274473Y269118D01*
X273647Y269752D01*
X272685Y270150D01*
X271654Y270286D01*
X270622Y270150D01*
X269660Y269752D01*
X268834Y269118D01*
X268201Y268293D01*
X267803Y267331D01*
X267667Y266299D01*
X267803Y265267D01*
X268201Y264306D01*
X268784Y263546D01*
X268662Y263046D01*
X264645D01*
X264523Y263546D01*
X265106Y264306D01*
X265505Y265267D01*
X265640Y266299D01*
X265505Y267331D01*
X265106Y268293D01*
X264473Y269118D01*
X263647Y269752D01*
X262685Y270150D01*
X261653Y270286D01*
X260622Y270150D01*
X259660Y269752D01*
X258834Y269118D01*
X258201Y268293D01*
X257803Y267331D01*
X257667Y266299D01*
X257803Y265267D01*
X258201Y264306D01*
X258784Y263546D01*
X258662Y263046D01*
X254645D01*
X254523Y263546D01*
X255106Y264306D01*
X255505Y265267D01*
X255640Y266299D01*
X255505Y267331D01*
X255106Y268293D01*
X254473Y269118D01*
X253647Y269752D01*
X252685Y270150D01*
X251654Y270286D01*
X250622Y270150D01*
X249660Y269752D01*
X248834Y269118D01*
X248201Y268293D01*
X247802Y267331D01*
X247667Y266299D01*
X247802Y265267D01*
X248201Y264306D01*
X248784Y263546D01*
X248662Y263046D01*
X244645D01*
X244523Y263546D01*
X245106Y264306D01*
X245505Y265267D01*
X245640Y266299D01*
X245505Y267331D01*
X245106Y268293D01*
X244473Y269118D01*
X243647Y269752D01*
X242685Y270150D01*
X241653Y270286D01*
X240622Y270150D01*
X239660Y269752D01*
X238834Y269118D01*
X238201Y268293D01*
X237803Y267331D01*
X237667Y266299D01*
X237803Y265267D01*
X238201Y264306D01*
X238784Y263546D01*
X238662Y263046D01*
X234645D01*
X234523Y263546D01*
X235106Y264306D01*
X235505Y265267D01*
X235640Y266299D01*
X235505Y267331D01*
X235106Y268293D01*
X234473Y269118D01*
X233647Y269752D01*
X232685Y270150D01*
X231653Y270286D01*
X230622Y270150D01*
X229660Y269752D01*
X228834Y269118D01*
X228201Y268293D01*
X227802Y267331D01*
X227667Y266299D01*
X227802Y265267D01*
X228201Y264306D01*
X228784Y263546D01*
X228662Y263046D01*
X224645D01*
X224523Y263546D01*
X225106Y264306D01*
X225505Y265267D01*
X225640Y266299D01*
X225505Y267331D01*
X225106Y268293D01*
X224473Y269118D01*
X223647Y269752D01*
X222685Y270150D01*
X221654Y270286D01*
X220622Y270150D01*
X219660Y269752D01*
X218834Y269118D01*
X218201Y268293D01*
X217803Y267331D01*
X217667Y266299D01*
X217803Y265267D01*
X218201Y264306D01*
X218784Y263546D01*
X218662Y263046D01*
X214645D01*
X214523Y263546D01*
X215106Y264306D01*
X215505Y265267D01*
X215640Y266299D01*
X215505Y267331D01*
X215106Y268293D01*
X214473Y269118D01*
X213647Y269752D01*
X212685Y270150D01*
X211653Y270286D01*
X210622Y270150D01*
X209660Y269752D01*
X208834Y269118D01*
X208201Y268293D01*
X207803Y267331D01*
X207667Y266299D01*
X207803Y265267D01*
X208201Y264306D01*
X208784Y263546D01*
X208662Y263046D01*
X205406D01*
X204631Y262944D01*
X204553Y262912D01*
X204301Y263349D01*
X204473Y263480D01*
X205106Y264306D01*
X205505Y265267D01*
X205640Y266299D01*
X205505Y267331D01*
X205106Y268293D01*
X204473Y269118D01*
X203647Y269752D01*
X202685Y270150D01*
X201654Y270286D01*
X200622Y270150D01*
X199660Y269752D01*
X198834Y269118D01*
X198201Y268293D01*
X197802Y267331D01*
X197667Y266299D01*
X197802Y265267D01*
X198201Y264306D01*
X198834Y263480D01*
X199660Y262846D01*
X200622Y262448D01*
X201654Y262312D01*
X202685Y262448D01*
X203003Y262580D01*
X203289Y262169D01*
X200481Y259361D01*
X200005Y258741D01*
X199706Y258019D01*
X199604Y257244D01*
Y256107D01*
X199104Y255860D01*
X198936Y255989D01*
X198310Y256249D01*
X197638Y256337D01*
X196966Y256249D01*
X196339Y255989D01*
X196045Y255763D01*
X167735D01*
X167440Y255989D01*
X166814Y256249D01*
X166142Y256337D01*
X165470Y256249D01*
X164843Y255989D01*
X164305Y255577D01*
X163893Y255039D01*
X163633Y254412D01*
X163545Y253740D01*
X163633Y253068D01*
X163893Y252442D01*
X164305Y251904D01*
X164843Y251491D01*
X164959Y251443D01*
X165154Y250821D01*
X165011Y250475D01*
X164923Y249803D01*
X165011Y249131D01*
X165271Y248505D01*
X165683Y247967D01*
X166221Y247554D01*
X166848Y247295D01*
X167520Y247206D01*
X168192Y247295D01*
X168818Y247554D01*
X169113Y247780D01*
X190894D01*
X198176Y240499D01*
X198832Y240060D01*
X199606Y239906D01*
X203969D01*
X204743Y240060D01*
X205399Y240499D01*
X208244Y243344D01*
X208349Y243358D01*
X208976Y243617D01*
X209513Y244030D01*
X209926Y244568D01*
X210186Y245194D01*
X210274Y245866D01*
X210186Y246538D01*
X209926Y247165D01*
X209513Y247703D01*
X208976Y248115D01*
X208710Y248225D01*
Y248766D01*
X209015Y248893D01*
X209310Y249119D01*
X270461D01*
X271993Y247587D01*
Y242308D01*
X271725Y242197D01*
X270775Y241469D01*
X270047Y240520D01*
X269589Y239414D01*
X269433Y238228D01*
X269589Y237042D01*
X270047Y235937D01*
X270775Y234988D01*
X271725Y234260D01*
X272830Y233802D01*
X274016Y233646D01*
X275202Y233802D01*
X276307Y234260D01*
X277256Y234988D01*
X277984Y235937D01*
X278442Y237042D01*
X278598Y238228D01*
X278442Y239414D01*
X277984Y240520D01*
X277256Y241469D01*
X276307Y242197D01*
X276039Y242308D01*
Y248425D01*
X275885Y249199D01*
X275446Y249856D01*
X273456Y251846D01*
X273648Y252308D01*
X277075D01*
X287376Y242007D01*
X287046Y241630D01*
X286307Y242197D01*
X285202Y242655D01*
X284016Y242811D01*
X282830Y242655D01*
X281725Y242197D01*
X280775Y241469D01*
X280047Y240520D01*
X279589Y239414D01*
X279433Y238228D01*
X279589Y237042D01*
X280047Y235937D01*
X280775Y234988D01*
X281725Y234260D01*
X282830Y233802D01*
X284016Y233646D01*
X285202Y233802D01*
X286307Y234260D01*
X287256Y234988D01*
X287984Y235937D01*
X288442Y237042D01*
X288598Y238228D01*
X288442Y239414D01*
X287984Y240520D01*
X287417Y241259D01*
X287794Y241589D01*
X289701Y239683D01*
X289589Y239414D01*
X289433Y238228D01*
X289589Y237042D01*
X290047Y235937D01*
X290775Y234988D01*
X291724Y234260D01*
X292830Y233802D01*
X294016Y233646D01*
X295202Y233802D01*
X296307Y234260D01*
X297256Y234988D01*
X297503Y235310D01*
X297977Y235150D01*
Y231307D01*
X297503Y231146D01*
X297256Y231469D01*
X296307Y232197D01*
X295202Y232655D01*
X294016Y232811D01*
X292830Y232655D01*
X291724Y232197D01*
X290775Y231469D01*
X290047Y230520D01*
X289589Y229414D01*
X289433Y228228D01*
X289589Y227042D01*
X289701Y226774D01*
X287794Y224868D01*
X287417Y225198D01*
X287984Y225937D01*
X288442Y227042D01*
X288598Y228228D01*
X288442Y229414D01*
X287984Y230520D01*
X287256Y231469D01*
X286307Y232197D01*
X285202Y232655D01*
X284016Y232811D01*
X282830Y232655D01*
X281725Y232197D01*
X280775Y231469D01*
X280047Y230520D01*
X279589Y229414D01*
X279433Y228228D01*
X279589Y227042D01*
X280047Y225937D01*
X280775Y224988D01*
X281725Y224260D01*
X282830Y223802D01*
X283462Y223719D01*
X283583Y223199D01*
X283412Y223084D01*
X281050Y220722D01*
X280611Y220065D01*
X280457Y219291D01*
Y215631D01*
X279957Y215424D01*
X277415Y217966D01*
X276759Y218405D01*
X275984Y218559D01*
X258515D01*
X256039Y221035D01*
Y224031D01*
X258213D01*
Y232425D01*
X249819D01*
Y224031D01*
X251993D01*
Y220197D01*
X252147Y219423D01*
X252585Y218766D01*
X256247Y215105D01*
X256903Y214666D01*
X257677Y214512D01*
X268755D01*
X268804Y214012D01*
X268123Y213877D01*
X267467Y213438D01*
X259593Y205564D01*
X259155Y204908D01*
X259000Y204134D01*
Y169701D01*
X258501Y169531D01*
X258332Y169750D01*
X257795Y170162D01*
X257168Y170422D01*
X256496Y170510D01*
X255824Y170422D01*
X255198Y170162D01*
X254660Y169750D01*
X254247Y169212D01*
X254208Y169117D01*
X253666D01*
X253627Y169212D01*
X253214Y169750D01*
X252677Y170162D01*
X252050Y170422D01*
X251378Y170510D01*
X250706Y170422D01*
X250079Y170162D01*
X249542Y169750D01*
X249129Y169212D01*
X248869Y168586D01*
X248781Y167913D01*
X248869Y167241D01*
X249129Y166615D01*
X249355Y166320D01*
Y158089D01*
X249129Y157795D01*
X248869Y157168D01*
X248781Y156496D01*
X248869Y155824D01*
X249129Y155198D01*
X249542Y154660D01*
X250079Y154247D01*
X250706Y153988D01*
X251378Y153899D01*
X252050Y153988D01*
X252677Y154247D01*
X253214Y154660D01*
X253627Y155198D01*
X253887Y155824D01*
X253975Y156496D01*
X253887Y157168D01*
X253627Y157795D01*
X253401Y158089D01*
Y166320D01*
X253627Y166615D01*
X253666Y166710D01*
X254206D01*
X254210Y166705D01*
X254247Y166615D01*
X254469Y166325D01*
X254473Y166320D01*
Y148082D01*
X238963Y132572D01*
X238525Y131916D01*
X238371Y131142D01*
Y123995D01*
X238145Y123700D01*
X237885Y123074D01*
X237797Y122402D01*
X237885Y121729D01*
X238145Y121103D01*
X238557Y120565D01*
X239095Y120152D01*
X239721Y119893D01*
X240340Y119812D01*
X240466Y119652D01*
X240620Y119330D01*
X240454Y119081D01*
X240300Y118307D01*
Y103955D01*
X240074Y103661D01*
X239814Y103034D01*
X239726Y102362D01*
X239814Y101690D01*
X240074Y101064D01*
X240487Y100526D01*
X241024Y100113D01*
X241651Y99854D01*
X242323Y99765D01*
X242995Y99854D01*
X243621Y100113D01*
X244159Y100526D01*
X244517Y100992D01*
X244812Y101015D01*
X245071Y100962D01*
X245192Y100670D01*
X245605Y100132D01*
X246142Y99719D01*
X246769Y99460D01*
X247441Y99371D01*
X248113Y99460D01*
X248739Y99719D01*
X249012Y99314D01*
X246404Y96706D01*
X245966Y96050D01*
X245812Y95276D01*
Y82728D01*
X243349Y80265D01*
X242875Y80499D01*
X242955Y81102D01*
X242853Y81877D01*
X242554Y82599D01*
X242078Y83219D01*
X241458Y83695D01*
X240736Y83995D01*
X239961Y84096D01*
X212264D01*
X202640Y93721D01*
Y95817D01*
X203140Y95986D01*
X203282Y95801D01*
X203820Y95389D01*
X204446Y95129D01*
X205118Y95041D01*
X205790Y95129D01*
X206417Y95389D01*
X206955Y95801D01*
X207367Y96339D01*
X207627Y96966D01*
X207715Y97638D01*
X207627Y98310D01*
X207367Y98936D01*
X207141Y99231D01*
Y109744D01*
X207641Y109914D01*
X207850Y109642D01*
X208676Y109008D01*
X209637Y108610D01*
X210669Y108474D01*
X211701Y108610D01*
X212663Y109008D01*
X213409Y109581D01*
X213909Y109446D01*
Y96469D01*
X214063Y95695D01*
X214502Y95039D01*
X218648Y90892D01*
X219304Y90454D01*
X220079Y90300D01*
X231084D01*
X231379Y90074D01*
X232005Y89814D01*
X232677Y89726D01*
X233349Y89814D01*
X233976Y90074D01*
X234513Y90487D01*
X234926Y91024D01*
X235186Y91651D01*
X235274Y92323D01*
X235186Y92995D01*
X234926Y93621D01*
X234513Y94159D01*
X233976Y94572D01*
X233349Y94831D01*
X232677Y94920D01*
X232005Y94831D01*
X231379Y94572D01*
X231084Y94346D01*
X220917D01*
X217955Y97307D01*
Y98996D01*
X218404Y99217D01*
X218676Y99008D01*
X219637Y98610D01*
X220669Y98474D01*
X221701Y98610D01*
X222663Y99008D01*
X223260Y99467D01*
X227555D01*
X228330Y99568D01*
X228763Y99748D01*
X230976D01*
Y105291D01*
X228680D01*
X228389Y105412D01*
X227614Y105514D01*
X227166Y105455D01*
X223260D01*
X222663Y105913D01*
X221701Y106312D01*
X220669Y106448D01*
X219637Y106312D01*
X218676Y105913D01*
X218404Y105705D01*
X217955Y105926D01*
Y108995D01*
X218404Y109217D01*
X218676Y109008D01*
X219637Y108610D01*
X220669Y108474D01*
X221701Y108610D01*
X222663Y109008D01*
X223488Y109642D01*
X224122Y110467D01*
X224520Y111429D01*
X224656Y112461D01*
X224520Y113493D01*
X224122Y114454D01*
X223488Y115280D01*
X222663Y115913D01*
X221701Y116312D01*
X220669Y116447D01*
X219637Y116312D01*
X218676Y115913D01*
X218404Y115705D01*
X217955Y115926D01*
Y118995D01*
X218404Y119217D01*
X218676Y119008D01*
X219637Y118610D01*
X220669Y118474D01*
X221701Y118610D01*
X222663Y119008D01*
X223488Y119641D01*
X224122Y120467D01*
X224520Y121429D01*
X224656Y122461D01*
X224520Y123493D01*
X224122Y124454D01*
X223488Y125280D01*
X222663Y125913D01*
X221701Y126312D01*
X220669Y126447D01*
X219637Y126312D01*
X218676Y125913D01*
X218404Y125705D01*
X217955Y125926D01*
Y136886D01*
X219674Y138605D01*
X220669Y138474D01*
X221701Y138610D01*
X222663Y139008D01*
X223488Y139641D01*
X224122Y140467D01*
X224520Y141429D01*
X224656Y142461D01*
X224520Y143492D01*
X224122Y144454D01*
X223549Y145201D01*
X223684Y145701D01*
X239201D01*
X239305Y145565D01*
X239843Y145152D01*
X240470Y144893D01*
X241142Y144805D01*
X241814Y144893D01*
X242440Y145152D01*
X242978Y145565D01*
X243391Y146103D01*
X243650Y146729D01*
X243739Y147402D01*
X243650Y148074D01*
X243391Y148700D01*
X242978Y149238D01*
X242440Y149651D01*
X241814Y149910D01*
X241142Y149999D01*
X240470Y149910D01*
X240075Y149747D01*
X224134D01*
X223913Y150195D01*
X224122Y150467D01*
X224520Y151429D01*
X224656Y152461D01*
X224520Y153492D01*
X224122Y154454D01*
X223488Y155280D01*
X222663Y155913D01*
X221701Y156312D01*
X220669Y156448D01*
X219674Y156316D01*
X217080Y158911D01*
X216424Y159349D01*
X215650Y159503D01*
X214013D01*
X213766Y160003D01*
X214122Y160467D01*
X214520Y161429D01*
X214656Y162461D01*
X214520Y163493D01*
X214122Y164454D01*
X213549Y165200D01*
X213684Y165700D01*
X238171D01*
X238465Y165474D01*
X239092Y165215D01*
X239764Y165127D01*
X240436Y165215D01*
X241062Y165474D01*
X241600Y165887D01*
X242013Y166425D01*
X242272Y167051D01*
X242361Y167724D01*
X242272Y168396D01*
X242013Y169022D01*
X241600Y169560D01*
X241062Y169973D01*
X240436Y170232D01*
X239764Y170321D01*
X239092Y170232D01*
X238465Y169973D01*
X238171Y169747D01*
X224134D01*
X223913Y170195D01*
X224122Y170467D01*
X224520Y171429D01*
X224656Y172461D01*
X224520Y173493D01*
X224122Y174454D01*
X223706Y174997D01*
X223952Y175497D01*
X238359D01*
X238859Y175113D01*
X239485Y174854D01*
X240158Y174765D01*
X240830Y174854D01*
X241456Y175113D01*
X241994Y175526D01*
X242407Y176064D01*
X242666Y176690D01*
X242755Y177362D01*
X242666Y178034D01*
X242407Y178661D01*
X241994Y179199D01*
X241456Y179611D01*
X240830Y179871D01*
X240158Y179959D01*
X239485Y179871D01*
X238859Y179611D01*
X238770Y179543D01*
X224043D01*
X223796Y180043D01*
X224122Y180467D01*
X224520Y181429D01*
X224656Y182461D01*
X224520Y183493D01*
X224122Y184454D01*
X223488Y185280D01*
X222663Y185913D01*
X221701Y186312D01*
X220669Y186448D01*
X219674Y186317D01*
X217574Y188417D01*
Y189223D01*
X218074Y189470D01*
X218676Y189008D01*
X219637Y188610D01*
X220669Y188474D01*
X221701Y188610D01*
X222663Y189008D01*
X223488Y189641D01*
X224122Y190467D01*
X224520Y191429D01*
X224656Y192461D01*
X224520Y193492D01*
X224122Y194454D01*
X223488Y195280D01*
X222663Y195913D01*
X221701Y196312D01*
X220669Y196448D01*
X219637Y196312D01*
X218676Y195913D01*
X218074Y195452D01*
X217963Y195456D01*
X217537Y195661D01*
X217420Y196247D01*
X216982Y196903D01*
X215013Y198872D01*
X214357Y199310D01*
X213930Y199395D01*
X213722Y199946D01*
X214122Y200467D01*
X214520Y201429D01*
X214656Y202461D01*
X214520Y203492D01*
X214122Y204454D01*
X213488Y205280D01*
X212663Y205913D01*
X211701Y206312D01*
X210669Y206448D01*
X209637Y206312D01*
X208676Y205913D01*
X207850Y205280D01*
X207217Y204454D01*
X206818Y203492D01*
X206682Y202461D01*
X206818Y201429D01*
X207217Y200467D01*
X207603Y199964D01*
X207356Y199464D01*
X193554D01*
X154976Y238043D01*
Y241124D01*
X155202Y241418D01*
X155461Y242044D01*
X155550Y242717D01*
X155461Y243389D01*
X155202Y244015D01*
X154789Y244553D01*
X154251Y244966D01*
X153625Y245225D01*
X152953Y245314D01*
X152281Y245225D01*
X151654Y244966D01*
X151116Y244553D01*
X150704Y244015D01*
X150444Y243389D01*
X150356Y242717D01*
X150444Y242044D01*
X150704Y241418D01*
X150930Y241124D01*
Y237205D01*
X151084Y236431D01*
X151522Y235774D01*
X191286Y196010D01*
X191942Y195572D01*
X192717Y195418D01*
X207326D01*
X207572Y194918D01*
X207239Y194484D01*
X190661D01*
X159698Y225446D01*
X159042Y225885D01*
X158268Y226039D01*
X141751D01*
X141456Y226265D01*
X140830Y226524D01*
X140157Y226613D01*
X139485Y226524D01*
X138859Y226265D01*
X138321Y225852D01*
X137908Y225314D01*
X137649Y224688D01*
X137560Y224016D01*
X137649Y223344D01*
X137908Y222717D01*
X138321Y222179D01*
X138664Y221916D01*
X138715Y221353D01*
X138692Y221295D01*
X138302Y220787D01*
X138043Y220160D01*
X137954Y219488D01*
X138043Y218816D01*
X138302Y218190D01*
X138715Y217652D01*
X139253Y217239D01*
X139879Y216980D01*
X140551Y216891D01*
X141223Y216980D01*
X141850Y217239D01*
X142144Y217465D01*
X156249D01*
X187546Y186168D01*
X188202Y185729D01*
X188976Y185575D01*
X203328D01*
X203623Y185349D01*
X204249Y185090D01*
X204921Y185001D01*
X205593Y185090D01*
X206220Y185349D01*
X206758Y185762D01*
X207170Y186300D01*
X207430Y186926D01*
X207518Y187598D01*
X207430Y188271D01*
X207170Y188897D01*
X206758Y189435D01*
X206220Y189848D01*
X206002Y189937D01*
X206102Y190437D01*
X207239D01*
X207850Y189641D01*
X208676Y189008D01*
X209637Y188610D01*
X210669Y188474D01*
X211701Y188610D01*
X212663Y189008D01*
X213028Y189288D01*
X213528Y189042D01*
Y187579D01*
X213682Y186804D01*
X214121Y186148D01*
X216813Y183455D01*
X216682Y182461D01*
X216818Y181429D01*
X217217Y180467D01*
X217542Y180043D01*
X217296Y179543D01*
X184342D01*
X183069Y180816D01*
X183020Y181184D01*
X182761Y181810D01*
X182348Y182348D01*
X181810Y182761D01*
X181184Y183020D01*
X180512Y183109D01*
X179840Y183020D01*
X179213Y182761D01*
X178901Y182521D01*
X178401Y182768D01*
Y183446D01*
X178627Y183741D01*
X178886Y184367D01*
X178975Y185039D01*
X178886Y185712D01*
X178627Y186338D01*
X178214Y186876D01*
X177676Y187288D01*
X177050Y187548D01*
X176378Y187636D01*
X175706Y187548D01*
X175079Y187288D01*
X174542Y186876D01*
X174177Y186400D01*
X173954Y186416D01*
X173677Y186539D01*
Y187777D01*
X173903Y188072D01*
X174162Y188698D01*
X174251Y189370D01*
X174162Y190042D01*
X173903Y190669D01*
X173490Y191206D01*
X172952Y191619D01*
X172326Y191879D01*
X171653Y191967D01*
X170981Y191879D01*
X170355Y191619D01*
X169817Y191206D01*
X169404Y190669D01*
X169145Y190042D01*
X169056Y189370D01*
X169145Y188698D01*
X169404Y188072D01*
X169630Y187777D01*
Y102971D01*
X169404Y102676D01*
X169145Y102050D01*
X169056Y101378D01*
X169145Y100706D01*
X169404Y100079D01*
X169817Y99542D01*
X170355Y99129D01*
X170981Y98869D01*
X171653Y98781D01*
X172326Y98869D01*
X172952Y99129D01*
X173490Y99542D01*
X173855Y100017D01*
X174078Y100002D01*
X174355Y99878D01*
Y60880D01*
X174106Y60278D01*
X174017Y59606D01*
X174106Y58934D01*
X174365Y58308D01*
X174778Y57770D01*
X175316Y57357D01*
X175942Y57098D01*
X176614Y57009D01*
X177286Y57098D01*
X177913Y57357D01*
X178451Y57770D01*
X178863Y58308D01*
X179123Y58934D01*
X179211Y59606D01*
X179123Y60278D01*
X178863Y60905D01*
X178451Y61443D01*
X178401Y61481D01*
Y117174D01*
X178901Y117425D01*
X179157Y117250D01*
X179184Y117044D01*
X179444Y116418D01*
X179857Y115880D01*
X180394Y115468D01*
X181021Y115208D01*
X181693Y115120D01*
X182365Y115208D01*
X182910Y115434D01*
X183410Y115233D01*
Y57677D01*
X183564Y56903D01*
X184002Y56247D01*
X188979Y51271D01*
X189027Y50903D01*
X189286Y50276D01*
X189699Y49738D01*
X190237Y49326D01*
X190863Y49066D01*
X191535Y48978D01*
X192208Y49066D01*
X192834Y49326D01*
X193372Y49738D01*
X193784Y50276D01*
X194044Y50903D01*
X194132Y51575D01*
X194044Y52247D01*
X193784Y52873D01*
X193372Y53411D01*
X192834Y53824D01*
X192208Y54083D01*
X191840Y54132D01*
X187456Y58515D01*
Y76863D01*
X187956Y77032D01*
X188085Y76864D01*
X188623Y76452D01*
X189249Y76192D01*
X189921Y76104D01*
X190593Y76192D01*
X191220Y76452D01*
X191758Y76864D01*
X192004Y77186D01*
X192504Y77016D01*
Y68286D01*
X192279Y67991D01*
X192019Y67365D01*
X191930Y66693D01*
X192019Y66021D01*
X192279Y65394D01*
X192691Y64856D01*
X193229Y64444D01*
X193855Y64184D01*
X194528Y64096D01*
X195200Y64184D01*
X195826Y64444D01*
X196364Y64856D01*
X196777Y65394D01*
X197036Y66021D01*
X197125Y66693D01*
X197036Y67365D01*
X196777Y67991D01*
X196551Y68286D01*
Y90889D01*
X197051Y90988D01*
X197053Y90983D01*
X197529Y90363D01*
X208907Y78985D01*
X209339Y78653D01*
X209215Y78118D01*
X208871Y78050D01*
X208215Y77612D01*
X204278Y73675D01*
X203839Y73018D01*
X203685Y72244D01*
Y69327D01*
X201334D01*
X200700Y69201D01*
X200162Y68842D01*
X199803Y68304D01*
X199677Y67670D01*
Y63920D01*
X199803Y63286D01*
X200131Y62795D01*
X199803Y62304D01*
X199677Y61670D01*
Y57920D01*
X199803Y57286D01*
X200162Y56749D01*
X200700Y56390D01*
X201334Y56263D01*
X202714D01*
Y54980D01*
X196201Y48467D01*
X159469D01*
X152994Y54941D01*
Y123427D01*
X153494Y123597D01*
X153675Y123361D01*
X154213Y122948D01*
X154840Y122688D01*
X155512Y122600D01*
X156184Y122688D01*
X156810Y122948D01*
X157348Y123361D01*
X157761Y123898D01*
X157910Y124258D01*
X158410Y124159D01*
Y95582D01*
X158347Y95556D01*
X157809Y95144D01*
X157397Y94606D01*
X157137Y93979D01*
X157049Y93307D01*
X157137Y92635D01*
X157397Y92009D01*
X157809Y91471D01*
X158347Y91058D01*
X158974Y90799D01*
X159646Y90710D01*
X160318Y90799D01*
X160944Y91058D01*
X161482Y91471D01*
X161895Y92009D01*
X162154Y92635D01*
X162162Y92698D01*
X162241Y92761D01*
X162741Y92520D01*
Y55439D01*
X162554Y55196D01*
X162295Y54570D01*
X162206Y53898D01*
X162295Y53225D01*
X162554Y52599D01*
X162967Y52061D01*
X163505Y51649D01*
X164131Y51389D01*
X164803Y51301D01*
X165475Y51389D01*
X166102Y51649D01*
X166639Y52061D01*
X167052Y52599D01*
X167312Y53225D01*
X167400Y53898D01*
X167312Y54570D01*
X167052Y55196D01*
X166787Y55542D01*
Y194667D01*
X167013Y194961D01*
X167272Y195588D01*
X167361Y196260D01*
X167272Y196932D01*
X167013Y197558D01*
X166600Y198096D01*
X166062Y198509D01*
X165436Y198768D01*
X164764Y198857D01*
X164092Y198768D01*
X163465Y198509D01*
X162956Y198118D01*
X162827Y198141D01*
X162456Y198303D01*
Y199803D01*
X162302Y200577D01*
X161864Y201234D01*
X158069Y205029D01*
X158020Y205397D01*
X157761Y206023D01*
X157348Y206561D01*
X156810Y206974D01*
X156184Y207233D01*
X155512Y207321D01*
X154840Y207233D01*
X154213Y206974D01*
X153675Y206561D01*
X153263Y206023D01*
X153003Y205397D01*
X152915Y204724D01*
X153003Y204052D01*
X153263Y203426D01*
X153675Y202888D01*
X154213Y202475D01*
X154840Y202216D01*
X155208Y202167D01*
X158410Y198965D01*
Y173282D01*
X157910Y173183D01*
X157761Y173543D01*
X157535Y173837D01*
Y194291D01*
X157381Y195066D01*
X156942Y195722D01*
X151257Y201407D01*
X150601Y201846D01*
X149827Y201999D01*
X144663D01*
Y204685D01*
X144561Y205460D01*
X144262Y206182D01*
X143786Y206802D01*
X143166Y207278D01*
X142444Y207577D01*
X141669Y207679D01*
X140894Y207577D01*
X140172Y207278D01*
X139552Y206802D01*
X139076Y206182D01*
X138777Y205460D01*
X138675Y204685D01*
Y199976D01*
X138777Y199201D01*
X138898Y198911D01*
Y196614D01*
X144441D01*
Y197953D01*
X148989D01*
X153489Y193453D01*
Y191958D01*
X152989Y191788D01*
X152960Y191826D01*
X150172Y194613D01*
X149552Y195089D01*
X148830Y195388D01*
X148055Y195490D01*
X144441D01*
Y195858D01*
X138898D01*
Y193562D01*
X138777Y193271D01*
X138675Y192496D01*
X138777Y191721D01*
X138898Y191430D01*
Y189134D01*
X144441D01*
Y189502D01*
X146815D01*
X147848Y188469D01*
Y173837D01*
X144441D01*
Y174205D01*
X138898D01*
Y171908D01*
X138777Y171617D01*
X138675Y170843D01*
X138777Y170068D01*
X138898Y169777D01*
Y167480D01*
X144441D01*
Y167848D01*
X147848D01*
Y165356D01*
X147407Y164780D01*
X147108Y164058D01*
X147006Y163284D01*
Y152577D01*
X144441D01*
Y152945D01*
X138898D01*
Y150648D01*
X138777Y150358D01*
X138675Y149583D01*
X138777Y148808D01*
X138898Y148517D01*
Y146221D01*
X144441D01*
Y146589D01*
X147006D01*
Y132104D01*
X144441D01*
Y132473D01*
X138898D01*
Y130176D01*
X138777Y129885D01*
X138675Y129110D01*
X138777Y128335D01*
X138898Y128044D01*
Y125748D01*
X144441D01*
Y126116D01*
X147006D01*
Y110845D01*
X144441D01*
Y111213D01*
X138898D01*
Y108916D01*
X138777Y108625D01*
X138675Y107850D01*
X138777Y107076D01*
X138898Y106785D01*
Y104488D01*
X144441D01*
Y104856D01*
X147006D01*
Y90372D01*
X144441D01*
Y90740D01*
X138898D01*
Y88444D01*
X138777Y88153D01*
X138675Y87378D01*
X138777Y86603D01*
X138898Y86312D01*
Y84016D01*
X144441D01*
Y84384D01*
X147006D01*
Y69718D01*
X144441D01*
Y70087D01*
X138898D01*
Y67790D01*
X138777Y67499D01*
X138675Y66724D01*
X138777Y65949D01*
X138898Y65659D01*
Y63362D01*
X144441D01*
Y63730D01*
X147006D01*
Y56695D01*
X116794D01*
X116694Y57195D01*
X117086Y57357D01*
X117624Y57770D01*
X118036Y58308D01*
X118296Y58934D01*
X118384Y59606D01*
X118296Y60278D01*
X118036Y60905D01*
X117624Y61443D01*
X117086Y61855D01*
X116460Y62115D01*
X115787Y62203D01*
X115115Y62115D01*
X114489Y61855D01*
X114451Y61826D01*
X108161D01*
X102850Y67137D01*
Y92856D01*
X103076Y93150D01*
X103335Y93777D01*
X103424Y94449D01*
X103335Y95121D01*
X103076Y95747D01*
X102663Y96285D01*
X102125Y96698D01*
X101499Y96957D01*
X100827Y97046D01*
X100155Y96957D01*
X99528Y96698D01*
X98990Y96285D01*
X98578Y95747D01*
X98318Y95121D01*
X98230Y94449D01*
X98318Y93777D01*
X98578Y93150D01*
X98804Y92856D01*
Y87862D01*
X98304Y87692D01*
X97983Y88109D01*
X95671Y90421D01*
Y141797D01*
X96171Y141967D01*
X96431Y141628D01*
X96969Y141216D01*
X97596Y140956D01*
X98268Y140868D01*
X98940Y140956D01*
X99566Y141216D01*
X100104Y141628D01*
X100517Y142166D01*
X100776Y142792D01*
X100806Y143016D01*
X101535D01*
X101742Y142516D01*
X99538Y140313D01*
X99170Y140264D01*
X98544Y140005D01*
X98006Y139592D01*
X97593Y139054D01*
X97334Y138428D01*
X97246Y137756D01*
X97334Y137084D01*
X97593Y136457D01*
X98006Y135919D01*
X98544Y135507D01*
X99170Y135247D01*
X99843Y135159D01*
X100515Y135247D01*
X101141Y135507D01*
X101679Y135919D01*
X102092Y136457D01*
X102351Y137084D01*
X102400Y137452D01*
X104224Y139276D01*
X113237D01*
X113407Y138776D01*
X113277Y138676D01*
X112801Y138056D01*
X112502Y137334D01*
X112400Y136559D01*
X112502Y135784D01*
X112801Y135062D01*
X113277Y134442D01*
X113897Y133966D01*
X114619Y133667D01*
X115394Y133565D01*
X117764D01*
Y133197D01*
X123307D01*
Y133565D01*
X125244D01*
Y133197D01*
X130787D01*
Y135493D01*
X130908Y135784D01*
X131010Y136559D01*
X130908Y137334D01*
X130787Y137625D01*
Y139921D01*
X127766D01*
X127575Y140383D01*
X128099Y140908D01*
X128467Y140956D01*
X129094Y141216D01*
X129632Y141628D01*
X130044Y142166D01*
X130304Y142792D01*
X130392Y143465D01*
X130304Y144137D01*
X130044Y144763D01*
X129632Y145301D01*
X129094Y145714D01*
X128467Y145973D01*
X127795Y146062D01*
X127123Y145973D01*
X126497Y145714D01*
X125959Y145301D01*
X125546Y144763D01*
X125287Y144137D01*
X125238Y143769D01*
X124792Y143322D01*
X116893D01*
X116692Y143822D01*
X116918Y144367D01*
X117007Y145039D01*
X116918Y145712D01*
X117260Y146193D01*
X117370Y146189D01*
Y146189D01*
X122913D01*
Y148486D01*
X123034Y148776D01*
X123136Y149551D01*
X123034Y150326D01*
X122913Y150617D01*
Y152913D01*
X117370D01*
Y152545D01*
X115000D01*
X114225Y152443D01*
X113503Y152144D01*
X112883Y151668D01*
X112407Y151048D01*
X112108Y150326D01*
X112006Y149551D01*
X112108Y148776D01*
X112407Y148054D01*
X112784Y147563D01*
X112631Y147140D01*
X112564Y147063D01*
X99843D01*
X99068Y146908D01*
X98412Y146470D01*
X97964Y146022D01*
X97596Y145973D01*
X96969Y145714D01*
X96431Y145301D01*
X96171Y144962D01*
X95671Y145132D01*
Y148602D01*
X96171Y148936D01*
X96363Y148857D01*
X97035Y148768D01*
X97707Y148857D01*
X98333Y149116D01*
X98871Y149529D01*
X99284Y150067D01*
X99543Y150693D01*
X99632Y151365D01*
X99543Y152038D01*
X99284Y152664D01*
X99058Y152958D01*
Y157375D01*
X99404Y157513D01*
X99558Y157514D01*
X99935Y157022D01*
X100473Y156609D01*
X101100Y156350D01*
X101772Y156261D01*
X102444Y156350D01*
X103070Y156609D01*
X103365Y156835D01*
X110039D01*
X110814Y156989D01*
X111470Y157428D01*
X111566Y157524D01*
X112040Y157291D01*
X112006Y157032D01*
X112108Y156257D01*
X112407Y155534D01*
X112883Y154914D01*
X113503Y154438D01*
X114225Y154139D01*
X115000Y154037D01*
X117370D01*
Y153669D01*
X122913D01*
Y154037D01*
X124850D01*
Y153669D01*
X130394D01*
Y155966D01*
X130514Y156257D01*
X130616Y157032D01*
X130514Y157806D01*
X130394Y158097D01*
Y160394D01*
X128135D01*
X127928Y160894D01*
X129438Y162404D01*
X129806Y162452D01*
X130432Y162712D01*
X130970Y163124D01*
X131383Y163662D01*
X131642Y164288D01*
X131731Y164961D01*
X131642Y165633D01*
X131383Y166259D01*
X130970Y166797D01*
X130432Y167210D01*
X129806Y167469D01*
X129134Y167558D01*
X128462Y167469D01*
X127835Y167210D01*
X127297Y166797D01*
X126885Y166259D01*
X126625Y165633D01*
X126577Y165265D01*
X125343Y164031D01*
X116580D01*
X116334Y164531D01*
X116422Y164646D01*
X116682Y165273D01*
X116770Y165945D01*
X116682Y166617D01*
X116512Y167026D01*
X116846Y167473D01*
X116976Y167449D01*
Y167449D01*
X122520D01*
Y169745D01*
X122640Y170036D01*
X122742Y170811D01*
X122640Y171586D01*
X122520Y171877D01*
Y174173D01*
X116976D01*
Y173805D01*
X114606D01*
X114489Y173790D01*
X112894Y175384D01*
X113225Y175761D01*
X113306Y175698D01*
X114028Y175399D01*
X114803Y175297D01*
X116976D01*
Y174929D01*
X122520D01*
Y175297D01*
X124850D01*
Y174929D01*
X130394D01*
Y177226D01*
X130514Y177516D01*
X130616Y178291D01*
X130514Y179066D01*
X130394Y179357D01*
Y181653D01*
X124850D01*
Y181286D01*
X122520D01*
Y181653D01*
X116976D01*
Y181286D01*
X114803D01*
X114686Y181270D01*
X112063Y183893D01*
Y190339D01*
X112563Y190508D01*
X112686Y190347D01*
X113306Y189872D01*
X114028Y189573D01*
X114803Y189471D01*
X116976D01*
Y189102D01*
X122520D01*
Y191399D01*
X122640Y191690D01*
X122742Y192465D01*
X122640Y193239D01*
X122520Y193530D01*
Y195827D01*
X116976D01*
Y195459D01*
X114803D01*
X114028Y195357D01*
X113306Y195057D01*
X112686Y194582D01*
X112563Y194421D01*
X112063Y194590D01*
Y197819D01*
X112563Y197989D01*
X112686Y197828D01*
X113306Y197352D01*
X114028Y197053D01*
X114803Y196951D01*
X116976D01*
Y196583D01*
X122520D01*
Y196951D01*
X124850D01*
Y196583D01*
X130394D01*
Y198879D01*
X130514Y199170D01*
X130616Y199945D01*
X130514Y200720D01*
X130394Y201011D01*
Y203307D01*
X124850D01*
Y202939D01*
X122520D01*
Y203307D01*
X116976D01*
Y202939D01*
X114803D01*
X114028Y202837D01*
X113306Y202538D01*
X112686Y202062D01*
X112563Y201901D01*
X112063Y202071D01*
Y220619D01*
X126879Y235435D01*
X127247Y235484D01*
X127873Y235743D01*
X128411Y236156D01*
X128824Y236694D01*
X129083Y237320D01*
X129172Y237992D01*
X129083Y238664D01*
X128824Y239291D01*
X128411Y239828D01*
X127873Y240241D01*
X127247Y240501D01*
X126575Y240589D01*
X125903Y240501D01*
X125529Y240346D01*
X125146Y240728D01*
X125186Y240824D01*
X125274Y241496D01*
X125186Y242168D01*
X124926Y242795D01*
X124513Y243332D01*
X123976Y243745D01*
X123349Y244005D01*
X122677Y244093D01*
X122005Y244005D01*
X121379Y243745D01*
X120841Y243332D01*
X120428Y242795D01*
X120169Y242168D01*
X120120Y241800D01*
X117832Y239512D01*
X117358Y239745D01*
X117361Y239764D01*
X117272Y240436D01*
X117013Y241062D01*
X116600Y241600D01*
X116062Y242013D01*
X115436Y242272D01*
X114764Y242361D01*
X114092Y242272D01*
X113465Y242013D01*
X112927Y241600D01*
X112515Y241062D01*
X112255Y240436D01*
X112207Y240068D01*
X107627Y235488D01*
X85451D01*
X85157Y235714D01*
X84530Y235973D01*
X83858Y236062D01*
X83186Y235973D01*
X82560Y235714D01*
X82022Y235301D01*
X81609Y234763D01*
X81350Y234137D01*
X81261Y233465D01*
X81350Y232792D01*
X81609Y232166D01*
X82022Y231628D01*
X82460Y231292D01*
X82507Y231059D01*
Y230949D01*
X82460Y230716D01*
X82022Y230380D01*
X81609Y229842D01*
X81350Y229216D01*
X81261Y228543D01*
X81350Y227871D01*
X81609Y227245D01*
X82022Y226707D01*
X82560Y226294D01*
X83186Y226035D01*
X83858Y225946D01*
X84530Y226035D01*
X85157Y226294D01*
X85451Y226520D01*
X109724D01*
X110499Y226674D01*
X111155Y227113D01*
X122981Y238939D01*
X123349Y238987D01*
X123723Y239142D01*
X124105Y238760D01*
X124105Y238758D01*
X124066Y238664D01*
X124018Y238298D01*
X124018Y238296D01*
X108609Y222887D01*
X108170Y222231D01*
X108016Y221457D01*
Y198441D01*
X107516Y198271D01*
X107348Y198490D01*
X106810Y198903D01*
X106184Y199162D01*
X105512Y199251D01*
X104840Y199162D01*
X104213Y198903D01*
X103675Y198490D01*
X103449Y198196D01*
X102850D01*
X102624Y198490D01*
X102086Y198903D01*
X101460Y199162D01*
X100787Y199251D01*
X100115Y199162D01*
X99558Y198931D01*
X99058Y199125D01*
Y202890D01*
X104438Y208270D01*
X104806Y208318D01*
X105432Y208578D01*
X105970Y208990D01*
X106383Y209528D01*
X106642Y210155D01*
X106731Y210827D01*
X106642Y211499D01*
X106383Y212125D01*
X105970Y212663D01*
X105432Y213076D01*
X104806Y213335D01*
X104134Y213424D01*
X103462Y213335D01*
X102835Y213076D01*
X102297Y212663D01*
X101885Y212125D01*
X101625Y211499D01*
X101577Y211131D01*
X95604Y205158D01*
X95165Y204502D01*
X95012Y203728D01*
Y197135D01*
X94511Y196927D01*
X92495Y198944D01*
X91875Y199420D01*
X91153Y199719D01*
X90378Y199821D01*
X87748D01*
Y200189D01*
X82205D01*
Y197892D01*
X82084Y197602D01*
X81982Y196827D01*
X82084Y196052D01*
X82205Y195761D01*
Y193465D01*
X87748D01*
Y193833D01*
X89138D01*
X89683Y193287D01*
Y179742D01*
X87748D01*
Y180110D01*
X82205D01*
Y177814D01*
X82084Y177523D01*
X81982Y176748D01*
X82084Y175973D01*
X82205Y175682D01*
Y173386D01*
X87748D01*
Y173754D01*
X89683D01*
Y159663D01*
X87748D01*
Y160031D01*
X82205D01*
Y157735D01*
X82084Y157444D01*
X81982Y156669D01*
X82084Y155894D01*
X82205Y155604D01*
Y153307D01*
X83517D01*
X83616Y152807D01*
X83479Y152751D01*
X82859Y152275D01*
X82383Y151655D01*
X82084Y150932D01*
X81982Y150157D01*
Y145646D01*
X82084Y144871D01*
X82205Y144580D01*
Y142283D01*
X87748D01*
Y144580D01*
X87868Y144871D01*
X87971Y145646D01*
Y150157D01*
X87868Y150932D01*
X87569Y151655D01*
X87094Y152275D01*
X86473Y152751D01*
X86337Y152807D01*
X86436Y153307D01*
X87748D01*
Y153675D01*
X89683D01*
Y141159D01*
X87748D01*
Y141528D01*
X82205D01*
Y139231D01*
X82084Y138940D01*
X81982Y138165D01*
X82084Y137390D01*
X82205Y137100D01*
Y134803D01*
X87748D01*
Y135171D01*
X89683D01*
Y121868D01*
X87748D01*
Y122236D01*
X82205D01*
Y119940D01*
X82084Y119649D01*
X81982Y118874D01*
X82084Y118099D01*
X82205Y117808D01*
Y115512D01*
X87748D01*
Y115880D01*
X89683D01*
Y102183D01*
X87748D01*
Y102551D01*
X82205D01*
Y100255D01*
X82084Y99964D01*
X81982Y99189D01*
X82084Y98414D01*
X82205Y98123D01*
Y95827D01*
X87748D01*
Y96195D01*
X89683D01*
Y92309D01*
X87874D01*
Y92677D01*
X82331D01*
Y90381D01*
X82210Y90090D01*
X82108Y89315D01*
X82210Y88540D01*
X82331Y88249D01*
Y85953D01*
X87874D01*
Y86321D01*
X91303D01*
X92872Y84752D01*
Y83789D01*
X92372Y83619D01*
X92332Y83671D01*
X91795Y84084D01*
X91168Y84343D01*
X90496Y84432D01*
X89824Y84343D01*
X89198Y84084D01*
X88903Y83858D01*
X87874D01*
Y85197D01*
X82331D01*
Y84860D01*
X73575D01*
Y85228D01*
X68032D01*
Y84860D01*
X66882D01*
Y85228D01*
X61339D01*
Y82932D01*
X61218Y82641D01*
X61116Y81866D01*
X61218Y81091D01*
X61339Y80800D01*
Y78504D01*
X66882D01*
Y78872D01*
X68032D01*
Y78504D01*
X73575D01*
Y78872D01*
X82331D01*
Y78473D01*
X87874D01*
Y79812D01*
X88903D01*
X89198Y79586D01*
X89824Y79326D01*
X90496Y79238D01*
X91168Y79326D01*
X91795Y79586D01*
X92332Y79998D01*
X92372Y80050D01*
X92872Y79880D01*
Y68760D01*
X91437Y67325D01*
X73701D01*
Y67693D01*
X68157D01*
Y67325D01*
X67008D01*
Y67693D01*
X61465D01*
Y67325D01*
X39862D01*
X33205Y73982D01*
X33217Y74031D01*
X33274Y74078D01*
X33772Y74210D01*
X34135Y73932D01*
X34761Y73673D01*
X35433Y73584D01*
X36105Y73673D01*
X36732Y73932D01*
X37269Y74345D01*
X37457Y74590D01*
X38083Y74595D01*
X38124Y74542D01*
X38662Y74129D01*
X39288Y73869D01*
X39961Y73781D01*
X40633Y73869D01*
X41259Y74129D01*
X41797Y74542D01*
X42210Y75079D01*
X42469Y75706D01*
X42558Y76378D01*
X42469Y77050D01*
X42210Y77676D01*
X41984Y77971D01*
Y106642D01*
X48871Y113530D01*
X49310Y114186D01*
X49464Y114961D01*
Y141123D01*
X49690Y141418D01*
X49949Y142044D01*
X50038Y142717D01*
X49949Y143389D01*
X49690Y144015D01*
X50095Y144288D01*
X50733Y143650D01*
Y85630D01*
X50887Y84856D01*
X51325Y84199D01*
X54963Y80562D01*
X55011Y80194D01*
X55271Y79568D01*
X55683Y79030D01*
X56221Y78617D01*
X56848Y78358D01*
X57520Y78269D01*
X58192Y78358D01*
X58818Y78617D01*
X59356Y79030D01*
X59769Y79568D01*
X60028Y80194D01*
X60117Y80866D01*
X60028Y81538D01*
X59769Y82165D01*
X59356Y82702D01*
X58818Y83115D01*
X58192Y83375D01*
X57824Y83423D01*
X54779Y86468D01*
Y87834D01*
X55279Y87934D01*
X55320Y87834D01*
X55796Y87214D01*
X56416Y86738D01*
X57139Y86439D01*
X57913Y86337D01*
X61339D01*
Y85984D01*
X66882D01*
Y88303D01*
X66987Y88556D01*
X67089Y89331D01*
X66987Y90106D01*
X66882Y90359D01*
Y92709D01*
X61339D01*
Y92325D01*
X57913D01*
X57139Y92223D01*
X56416Y91924D01*
X55796Y91448D01*
X55320Y90828D01*
X55279Y90728D01*
X54779Y90827D01*
Y144488D01*
X54625Y145262D01*
X54186Y145919D01*
X52235Y147871D01*
X52442Y148371D01*
X56792D01*
X56962Y147871D01*
X56780Y147731D01*
X56305Y147111D01*
X56006Y146389D01*
X55904Y145614D01*
X56006Y144839D01*
X56305Y144117D01*
X56780Y143497D01*
X57401Y143021D01*
X58123Y142722D01*
X58898Y142620D01*
X61465D01*
Y142252D01*
X67008D01*
Y142620D01*
X68157D01*
Y142252D01*
X73701D01*
Y144548D01*
X73821Y144839D01*
X73923Y145614D01*
X73821Y146389D01*
X73701Y146680D01*
Y148976D01*
X68157D01*
Y148608D01*
X67008D01*
Y148976D01*
X61465D01*
Y148608D01*
X60450D01*
X60280Y149108D01*
X60537Y149305D01*
X60950Y149843D01*
X61209Y150470D01*
X61298Y151142D01*
X61209Y151814D01*
X60950Y152440D01*
X60537Y152978D01*
X60321Y153144D01*
X60491Y153644D01*
X61465D01*
Y153276D01*
X67008D01*
Y155572D01*
X67128Y155863D01*
X67230Y156638D01*
X67128Y157413D01*
X67008Y157703D01*
Y160000D01*
X61465D01*
Y159632D01*
X58898D01*
X58123Y159530D01*
X57401Y159231D01*
X56780Y158755D01*
X56305Y158135D01*
X56006Y157413D01*
X55904Y156638D01*
X56006Y155863D01*
X56305Y155141D01*
X56780Y154521D01*
X57401Y154045D01*
X57538Y153988D01*
X57538Y153447D01*
X57402Y153391D01*
X56864Y152978D01*
X56452Y152440D01*
X56442Y152417D01*
X48479D01*
X48380Y152917D01*
X48739Y153066D01*
X49277Y153479D01*
X49690Y154016D01*
X49949Y154643D01*
X49998Y155011D01*
X55958Y160971D01*
X56397Y161627D01*
X56414Y161713D01*
X56954Y161868D01*
X57401Y161525D01*
X58123Y161226D01*
X58898Y161124D01*
X61465D01*
Y160756D01*
X67008D01*
Y161124D01*
X68157D01*
Y160756D01*
X73701D01*
Y163052D01*
X73821Y163343D01*
X73923Y164118D01*
X73821Y164893D01*
X73701Y165184D01*
Y167480D01*
X68157D01*
Y167112D01*
X67008D01*
Y167480D01*
X61465D01*
Y167112D01*
X58898D01*
X58123Y167010D01*
X57401Y166711D01*
X57051Y166443D01*
X56551Y166689D01*
Y174145D01*
X57051Y174392D01*
X57401Y174124D01*
X58123Y173824D01*
X58898Y173722D01*
X61465D01*
Y173354D01*
X67008D01*
Y175651D01*
X67128Y175942D01*
X67230Y176716D01*
X67128Y177491D01*
X67008Y177782D01*
Y180079D01*
X61465D01*
Y179711D01*
X58898D01*
X58123Y179609D01*
X57401Y179309D01*
X57319Y179247D01*
X56989Y179624D01*
X58583Y181218D01*
X58701Y181203D01*
X61465D01*
Y180835D01*
X67008D01*
Y181203D01*
X68157D01*
Y180835D01*
X73701D01*
Y183131D01*
X73821Y183422D01*
X73923Y184197D01*
X73821Y184972D01*
X73701Y185263D01*
Y187559D01*
X73002D01*
X72916Y188043D01*
X73543Y188302D01*
X74080Y188715D01*
X74493Y189253D01*
X74753Y189879D01*
X74841Y190551D01*
X74753Y191223D01*
X74493Y191850D01*
X74080Y192388D01*
X73543Y192800D01*
X72916Y193060D01*
X72244Y193148D01*
X71572Y193060D01*
X70946Y192800D01*
X70651Y192574D01*
X50838D01*
X50589Y192824D01*
X50540Y193192D01*
X50281Y193818D01*
X49868Y194356D01*
X49330Y194769D01*
X48704Y195028D01*
X48031Y195117D01*
X47359Y195028D01*
X46733Y194769D01*
X46195Y194356D01*
X45782Y193818D01*
X45523Y193192D01*
X45434Y192520D01*
X45523Y191848D01*
X45782Y191221D01*
X46195Y190683D01*
X46733Y190271D01*
X47359Y190011D01*
X47727Y189963D01*
X48570Y189121D01*
X49226Y188682D01*
X50000Y188528D01*
X70651D01*
X70946Y188302D01*
X71572Y188043D01*
X71486Y187559D01*
X68157D01*
Y187191D01*
X67008D01*
Y187559D01*
X61465D01*
Y187191D01*
X58701D01*
X57926Y187089D01*
X57204Y186790D01*
X56584Y186314D01*
X56108Y185694D01*
X55809Y184972D01*
X55707Y184197D01*
X55722Y184079D01*
X53441Y181798D01*
X52797Y181861D01*
X52612Y182139D01*
X52557Y182194D01*
X52508Y182562D01*
X52249Y183188D01*
X51836Y183726D01*
X51298Y184139D01*
X50672Y184398D01*
X50000Y184487D01*
X49328Y184398D01*
X48702Y184139D01*
X48164Y183726D01*
X47751Y183188D01*
X47491Y182562D01*
X47403Y181890D01*
X47491Y181218D01*
X47751Y180591D01*
X48164Y180053D01*
X48702Y179641D01*
X49158Y179452D01*
Y174883D01*
X48658Y174676D01*
X44936Y178397D01*
Y203099D01*
X50304Y208467D01*
X50672Y208515D01*
X50823Y208578D01*
X51323Y208244D01*
Y202346D01*
X51477Y201572D01*
X51916Y200916D01*
X55919Y196913D01*
X55904Y196795D01*
X56006Y196020D01*
X56305Y195298D01*
X56780Y194678D01*
X57401Y194202D01*
X58123Y193903D01*
X58898Y193801D01*
X61465D01*
Y193433D01*
X67008D01*
Y195730D01*
X67128Y196020D01*
X67230Y196795D01*
X67128Y197570D01*
X67008Y197861D01*
Y200157D01*
X61465D01*
Y199789D01*
X58898D01*
X58780Y199774D01*
X57560Y200994D01*
X57844Y201418D01*
X57926Y201383D01*
X58701Y201281D01*
X61465D01*
Y200913D01*
X67008D01*
Y201281D01*
X68157D01*
Y200913D01*
X73701D01*
Y203210D01*
X73821Y203501D01*
X73923Y204276D01*
X73821Y205050D01*
X73701Y205341D01*
Y207638D01*
X68157D01*
Y207270D01*
X67008D01*
Y207638D01*
X61465D01*
Y207270D01*
X58701D01*
X57926Y207168D01*
X57204Y206869D01*
X56584Y206393D01*
X56108Y205773D01*
X55870Y205198D01*
X55370Y205297D01*
Y209569D01*
X55382Y209632D01*
Y212415D01*
X55370Y212478D01*
Y213926D01*
X67964Y226520D01*
X68879D01*
X69174Y226294D01*
X69800Y226035D01*
X70473Y225946D01*
X71145Y226035D01*
X71771Y226294D01*
X72309Y226707D01*
X72722Y227245D01*
X72981Y227871D01*
X73070Y228543D01*
X72981Y229216D01*
X72722Y229842D01*
X72309Y230380D01*
X71871Y230716D01*
X71824Y230949D01*
Y231059D01*
X71871Y231292D01*
X72309Y231628D01*
X72721Y232166D01*
X72981Y232792D01*
X73070Y233465D01*
X72981Y234137D01*
X72721Y234763D01*
X72309Y235301D01*
X71771Y235714D01*
X71145Y235973D01*
X70472Y236062D01*
X69800Y235973D01*
X69174Y235714D01*
X68879Y235488D01*
X66732D01*
X65958Y235334D01*
X65302Y234895D01*
X50555Y220148D01*
X50055Y220355D01*
Y222423D01*
X50281Y222717D01*
X50540Y223344D01*
X50629Y224016D01*
X50540Y224688D01*
X50281Y225314D01*
X49868Y225852D01*
X49330Y226265D01*
X48704Y226524D01*
X48031Y226613D01*
X47359Y226524D01*
X46733Y226265D01*
X46195Y225852D01*
X45783Y225314D01*
X45523Y224688D01*
X45434Y224016D01*
X45523Y223344D01*
X45783Y222717D01*
X46008Y222423D01*
Y220658D01*
X45707Y220421D01*
X45261Y220663D01*
X45314Y221063D01*
X45225Y221735D01*
X44966Y222361D01*
X44553Y222899D01*
X44015Y223312D01*
X43389Y223571D01*
X42717Y223660D01*
X42044Y223571D01*
X41418Y223312D01*
X40880Y222899D01*
X40468Y222361D01*
X40208Y221735D01*
X40160Y221367D01*
X37154Y218362D01*
X12402D01*
X11627Y218208D01*
X10971Y217769D01*
X7034Y213832D01*
X6595Y213176D01*
X6442Y212402D01*
Y199034D01*
X6216Y198740D01*
X5956Y198113D01*
X5868Y197441D01*
X5956Y196769D01*
X6216Y196142D01*
X6628Y195605D01*
X7166Y195192D01*
X7792Y194932D01*
X8465Y194844D01*
X9137Y194932D01*
X9763Y195192D01*
X10301Y195605D01*
X10666Y196080D01*
X10889Y196065D01*
X11166Y195941D01*
Y185759D01*
X10483Y185077D01*
X10115Y185028D01*
X9489Y184769D01*
X8951Y184356D01*
X8538Y183818D01*
X8279Y183192D01*
X8190Y182520D01*
X8279Y181848D01*
X8538Y181221D01*
X8951Y180683D01*
X9489Y180271D01*
X10115Y180011D01*
X10787Y179923D01*
X11460Y180011D01*
X12086Y180271D01*
X12624Y180683D01*
X13036Y181221D01*
X13296Y181848D01*
X13344Y182216D01*
X14619Y183491D01*
X15058Y184147D01*
X15212Y184921D01*
Y202172D01*
X15712Y202205D01*
X15759Y201848D01*
X16019Y201221D01*
X16245Y200927D01*
Y157144D01*
X16019Y156850D01*
X15759Y156223D01*
X15671Y155551D01*
X15759Y154879D01*
X16019Y154253D01*
X16431Y153715D01*
X16969Y153302D01*
X17596Y153043D01*
X17964Y152994D01*
X34197Y136760D01*
Y133483D01*
X33971Y133188D01*
X33712Y132562D01*
X33623Y131890D01*
X33712Y131218D01*
X33971Y130591D01*
X34384Y130053D01*
X34922Y129641D01*
X35548Y129381D01*
X36220Y129293D01*
X36893Y129381D01*
X37519Y129641D01*
X38057Y130053D01*
X38470Y130591D01*
X38729Y131218D01*
X38818Y131890D01*
X38729Y132562D01*
X38470Y133188D01*
X38244Y133483D01*
Y137598D01*
X38244Y137598D01*
X38090Y138373D01*
X37651Y139029D01*
X32108Y144572D01*
X32426Y144961D01*
X32690Y144784D01*
X33465Y144630D01*
X39886D01*
X40049Y144260D01*
X40071Y144130D01*
X39680Y143621D01*
X39421Y142995D01*
X39332Y142323D01*
X39421Y141651D01*
X39680Y141024D01*
X39906Y140730D01*
Y115602D01*
X34003Y109698D01*
X33564Y109042D01*
X33410Y108268D01*
X32915Y108281D01*
Y134449D01*
X32813Y135224D01*
X32514Y135946D01*
X32038Y136566D01*
X12994Y155610D01*
Y172520D01*
X12892Y173295D01*
X12593Y174017D01*
X12117Y174637D01*
X11497Y175113D01*
X10775Y175412D01*
X10000Y175514D01*
X9225Y175412D01*
X8503Y175113D01*
X7883Y174637D01*
X7407Y174017D01*
X7108Y173295D01*
X7006Y172520D01*
Y154370D01*
X7108Y153595D01*
X7407Y152873D01*
X7883Y152253D01*
X26927Y133209D01*
Y73032D01*
X27029Y72257D01*
X27328Y71534D01*
X27804Y70914D01*
X36505Y62213D01*
X37125Y61738D01*
X37847Y61439D01*
X38622Y61337D01*
X61465D01*
Y60969D01*
X67008D01*
Y61337D01*
X68157D01*
Y60969D01*
X73701D01*
Y61337D01*
X84293D01*
X84463Y60837D01*
X84227Y60655D01*
X83814Y60117D01*
X83555Y59491D01*
X83466Y58819D01*
X83555Y58147D01*
X83814Y57520D01*
X84227Y56983D01*
X84764Y56570D01*
X85391Y56310D01*
X85759Y56262D01*
X95223Y46798D01*
X95879Y46359D01*
X96654Y46205D01*
X146406D01*
X154081Y38530D01*
X154738Y38091D01*
X155512Y37938D01*
X199606Y37938D01*
X200380Y38091D01*
X201037Y38530D01*
X214814Y52308D01*
X235009D01*
X235457Y52181D01*
Y39158D01*
X248480D01*
Y42675D01*
X287598D01*
X288373Y42777D01*
X289095Y43076D01*
X289716Y43552D01*
X298180Y52017D01*
X298656Y52637D01*
X298955Y53359D01*
X299057Y54134D01*
Y210886D01*
X306448Y218277D01*
X306924Y218897D01*
X307048Y219196D01*
X307223Y219619D01*
X307325Y220394D01*
Y266535D01*
X307223Y267310D01*
X306924Y268033D01*
X306448Y268653D01*
X287590Y287511D01*
X286969Y287987D01*
X286247Y288286D01*
X285472Y288388D01*
X274827D01*
X274728Y288888D01*
X274765Y288903D01*
X275385Y289379D01*
X277983Y291977D01*
X278459Y292597D01*
X278583Y292897D01*
X278758Y293320D01*
X278860Y294094D01*
Y297566D01*
X279319Y298164D01*
X279717Y299126D01*
X279853Y300157D01*
X279717Y301189D01*
X279319Y302151D01*
X278685Y302977D01*
X277860Y303610D01*
X276898Y304009D01*
X275866Y304144D01*
D02*
G37*
G36*
X175606Y270252D02*
X167701D01*
Y262347D01*
X175606D01*
Y270252D01*
D02*
G37*
G36*
X-14724Y196507D02*
X-15756Y196371D01*
X-16718Y195972D01*
X-17544Y195339D01*
X-18177Y194513D01*
X-18575Y193552D01*
X-18711Y192520D01*
X-18575Y191488D01*
X-18177Y190526D01*
X-17544Y189700D01*
X-16718Y189067D01*
X-15756Y188669D01*
X-14724Y188533D01*
X-13692Y188669D01*
X-12731Y189067D01*
X-11905Y189700D01*
X-11272Y190526D01*
X-10873Y191488D01*
X-10738Y192520D01*
X-10873Y193552D01*
X-11272Y194513D01*
X-11905Y195339D01*
X-12731Y195972D01*
X-13692Y196371D01*
X-14724Y196507D01*
D02*
G37*
G36*
X-4724D02*
X-5756Y196371D01*
X-6718Y195972D01*
X-7544Y195339D01*
X-8177Y194513D01*
X-8575Y193552D01*
X-8711Y192520D01*
X-8575Y191488D01*
X-8177Y190526D01*
X-7544Y189700D01*
X-6718Y189067D01*
X-5756Y188669D01*
X-4724Y188533D01*
X-3692Y188669D01*
X-2731Y189067D01*
X-1905Y189700D01*
X-1272Y190526D01*
X-873Y191488D01*
X-738Y192520D01*
X-873Y193552D01*
X-1272Y194513D01*
X-1905Y195339D01*
X-2731Y195972D01*
X-3692Y196371D01*
X-4724Y196507D01*
D02*
G37*
G36*
X-14724Y186506D02*
X-15756Y186371D01*
X-16718Y185972D01*
X-17544Y185339D01*
X-18177Y184513D01*
X-18575Y183552D01*
X-18711Y182520D01*
X-18575Y181488D01*
X-18177Y180526D01*
X-17544Y179701D01*
X-16718Y179067D01*
X-15756Y178669D01*
X-14724Y178533D01*
X-13730Y178664D01*
X-11866Y176800D01*
Y175939D01*
X-12366Y175692D01*
X-12731Y175972D01*
X-13692Y176371D01*
X-14724Y176506D01*
X-15756Y176371D01*
X-16718Y175972D01*
X-17544Y175339D01*
X-18177Y174513D01*
X-18575Y173552D01*
X-18711Y172520D01*
X-18575Y171488D01*
X-18177Y170526D01*
X-17544Y169701D01*
X-16718Y169067D01*
X-15756Y168669D01*
X-14724Y168533D01*
X-13692Y168669D01*
X-12731Y169067D01*
X-12366Y169347D01*
X-11866Y169101D01*
Y165939D01*
X-12366Y165692D01*
X-12731Y165972D01*
X-13692Y166371D01*
X-14724Y166507D01*
X-15756Y166371D01*
X-16718Y165972D01*
X-17544Y165339D01*
X-18177Y164513D01*
X-18575Y163552D01*
X-18711Y162520D01*
X-18575Y161488D01*
X-18177Y160526D01*
X-17544Y159701D01*
X-16718Y159067D01*
X-15756Y158669D01*
X-14724Y158533D01*
X-13692Y158669D01*
X-12731Y159067D01*
X-12366Y159347D01*
X-11866Y159101D01*
Y155939D01*
X-12366Y155692D01*
X-12731Y155972D01*
X-13692Y156371D01*
X-14724Y156507D01*
X-15756Y156371D01*
X-16718Y155972D01*
X-17544Y155339D01*
X-18177Y154513D01*
X-18575Y153552D01*
X-18711Y152520D01*
X-18575Y151488D01*
X-18177Y150526D01*
X-17544Y149700D01*
X-16718Y149067D01*
X-15756Y148669D01*
X-14724Y148533D01*
X-13692Y148669D01*
X-12731Y149067D01*
X-12366Y149347D01*
X-11866Y149101D01*
Y145939D01*
X-12366Y145692D01*
X-12731Y145972D01*
X-13692Y146371D01*
X-14724Y146507D01*
X-15756Y146371D01*
X-16718Y145972D01*
X-17544Y145339D01*
X-18177Y144513D01*
X-18575Y143552D01*
X-18711Y142520D01*
X-18575Y141488D01*
X-18177Y140526D01*
X-17544Y139700D01*
X-16718Y139067D01*
X-15756Y138669D01*
X-14724Y138533D01*
X-13692Y138669D01*
X-12731Y139067D01*
X-12366Y139347D01*
X-11866Y139101D01*
Y135939D01*
X-12366Y135692D01*
X-12731Y135972D01*
X-13692Y136371D01*
X-14724Y136506D01*
X-15756Y136371D01*
X-16718Y135972D01*
X-17544Y135339D01*
X-18177Y134513D01*
X-18575Y133552D01*
X-18711Y132520D01*
X-18575Y131488D01*
X-18177Y130526D01*
X-17544Y129701D01*
X-16718Y129067D01*
X-15756Y128669D01*
X-14724Y128533D01*
X-13692Y128669D01*
X-12731Y129067D01*
X-12366Y129347D01*
X-11866Y129101D01*
Y125939D01*
X-12366Y125692D01*
X-12731Y125972D01*
X-13692Y126371D01*
X-14724Y126506D01*
X-15756Y126371D01*
X-16718Y125972D01*
X-17544Y125339D01*
X-18177Y124513D01*
X-18575Y123552D01*
X-18711Y122520D01*
X-18575Y121488D01*
X-18177Y120526D01*
X-17544Y119701D01*
X-16718Y119067D01*
X-15756Y118669D01*
X-14724Y118533D01*
X-13692Y118669D01*
X-12731Y119067D01*
X-12366Y119347D01*
X-11866Y119101D01*
Y115939D01*
X-12366Y115692D01*
X-12731Y115972D01*
X-13692Y116371D01*
X-14724Y116507D01*
X-15756Y116371D01*
X-16718Y115972D01*
X-17544Y115339D01*
X-18177Y114513D01*
X-18575Y113552D01*
X-18711Y112520D01*
X-18575Y111488D01*
X-18177Y110526D01*
X-17544Y109701D01*
X-16718Y109067D01*
X-15756Y108669D01*
X-14724Y108533D01*
X-13692Y108669D01*
X-12731Y109067D01*
X-12323Y109380D01*
X-11772Y109173D01*
X-11712Y108871D01*
X-11273Y108215D01*
X-9108Y106050D01*
X-8677Y105762D01*
Y98567D01*
X-772D01*
Y105457D01*
X13976D01*
X14751Y105611D01*
X15407Y106050D01*
X20973Y111616D01*
X21341Y111665D01*
X21968Y111924D01*
X22506Y112337D01*
X22918Y112875D01*
X23178Y113501D01*
X23266Y114173D01*
X23178Y114845D01*
X22918Y115472D01*
X22506Y116010D01*
X21968Y116422D01*
X21341Y116682D01*
X20669Y116770D01*
X19997Y116682D01*
X19371Y116422D01*
X18833Y116010D01*
X18420Y115472D01*
X18161Y114845D01*
X18112Y114477D01*
X13138Y109503D01*
X-6839D01*
X-7819Y110484D01*
Y159282D01*
X-7319Y159529D01*
X-6718Y159067D01*
X-5756Y158669D01*
X-4724Y158533D01*
X-3692Y158669D01*
X-2731Y159067D01*
X-1905Y159701D01*
X-1272Y160526D01*
X-873Y161488D01*
X-738Y162520D01*
X-873Y163552D01*
X-1272Y164513D01*
X-1905Y165339D01*
X-2731Y165972D01*
X-3692Y166371D01*
X-4724Y166507D01*
X-5756Y166371D01*
X-6718Y165972D01*
X-7319Y165511D01*
X-7819Y165757D01*
Y169282D01*
X-7319Y169528D01*
X-6718Y169067D01*
X-5756Y168669D01*
X-4724Y168533D01*
X-3692Y168669D01*
X-2731Y169067D01*
X-1905Y169701D01*
X-1272Y170526D01*
X-873Y171488D01*
X-738Y172520D01*
X-873Y173552D01*
X-1272Y174513D01*
X-1905Y175339D01*
X-2731Y175972D01*
X-3692Y176371D01*
X-4724Y176506D01*
X-5756Y176371D01*
X-6718Y175972D01*
X-7319Y175511D01*
X-7819Y175757D01*
Y177638D01*
X-7973Y178412D01*
X-8412Y179068D01*
X-10869Y181525D01*
X-10738Y182520D01*
X-10873Y183552D01*
X-11272Y184513D01*
X-11905Y185339D01*
X-12731Y185972D01*
X-13692Y186371D01*
X-14724Y186506D01*
D02*
G37*
G36*
X-4724D02*
X-5756Y186371D01*
X-6718Y185972D01*
X-7544Y185339D01*
X-8177Y184513D01*
X-8575Y183552D01*
X-8711Y182520D01*
X-8575Y181488D01*
X-8177Y180526D01*
X-7544Y179701D01*
X-6718Y179067D01*
X-5756Y178669D01*
X-4724Y178533D01*
X-3692Y178669D01*
X-2731Y179067D01*
X-1905Y179701D01*
X-1272Y180526D01*
X-873Y181488D01*
X-738Y182520D01*
X-873Y183552D01*
X-1272Y184513D01*
X-1905Y185339D01*
X-2731Y185972D01*
X-3692Y186371D01*
X-4724Y186506D01*
D02*
G37*
G36*
X84976Y191931D02*
X84201Y191829D01*
X83479Y191530D01*
X82859Y191054D01*
X82383Y190434D01*
X82084Y189712D01*
X81982Y188937D01*
Y184228D01*
X82084Y183453D01*
X82205Y183163D01*
Y180866D01*
X87748D01*
Y183163D01*
X87868Y183453D01*
X87971Y184228D01*
Y188937D01*
X87868Y189712D01*
X87569Y190434D01*
X87094Y191054D01*
X86473Y191530D01*
X85751Y191829D01*
X84976Y191931D01*
D02*
G37*
G36*
X87748Y207669D02*
X82205D01*
Y205373D01*
X82084Y205082D01*
X81982Y204307D01*
X82084Y203532D01*
X82205Y203241D01*
Y200945D01*
X87748D01*
Y201313D01*
X89410D01*
X90184Y201415D01*
X90907Y201714D01*
X91527Y202190D01*
X92002Y202810D01*
X92302Y203532D01*
X92404Y204307D01*
X92302Y205082D01*
X92002Y205804D01*
X91527Y206424D01*
X90907Y206900D01*
X90184Y207199D01*
X89410Y207301D01*
X87748D01*
Y207669D01*
D02*
G37*
G36*
X134252Y240983D02*
X133580Y240894D01*
X132954Y240635D01*
X132416Y240222D01*
X132003Y239684D01*
X131743Y239058D01*
X131695Y238690D01*
X125341Y232336D01*
X124902Y231680D01*
X124749Y230906D01*
Y212420D01*
X124523Y212125D01*
X124263Y211499D01*
X124175Y210827D01*
X124263Y210155D01*
X124523Y209528D01*
X124935Y208990D01*
X125473Y208578D01*
X126100Y208318D01*
X126772Y208230D01*
X127444Y208318D01*
X128070Y208578D01*
X128608Y208990D01*
X129021Y209528D01*
X129280Y210155D01*
X129369Y210827D01*
X129280Y211499D01*
X129021Y212125D01*
X128795Y212420D01*
Y230067D01*
X134556Y235829D01*
X134924Y235877D01*
X135550Y236137D01*
X136088Y236549D01*
X136501Y237087D01*
X136760Y237714D01*
X136849Y238386D01*
X136760Y239058D01*
X136501Y239684D01*
X136088Y240222D01*
X135550Y240635D01*
X134924Y240894D01*
X134252Y240983D01*
D02*
G37*
G36*
X-4724Y206507D02*
X-5756Y206371D01*
X-6718Y205972D01*
X-7544Y205339D01*
X-8177Y204513D01*
X-8575Y203552D01*
X-8711Y202520D01*
X-8575Y201488D01*
X-8177Y200526D01*
X-7544Y199700D01*
X-6718Y199067D01*
X-5756Y198669D01*
X-4724Y198533D01*
X-3692Y198669D01*
X-2731Y199067D01*
X-1905Y199700D01*
X-1272Y200526D01*
X-873Y201488D01*
X-738Y202520D01*
X-873Y203552D01*
X-1272Y204513D01*
X-1905Y205339D01*
X-2731Y205972D01*
X-3692Y206371D01*
X-4724Y206507D01*
D02*
G37*
G36*
X-14724D02*
X-15756Y206371D01*
X-16718Y205972D01*
X-17544Y205339D01*
X-18177Y204513D01*
X-18575Y203552D01*
X-18711Y202520D01*
X-18575Y201488D01*
X-18177Y200526D01*
X-17544Y199700D01*
X-16718Y199067D01*
X-15756Y198669D01*
X-14724Y198533D01*
X-13692Y198669D01*
X-12731Y199067D01*
X-11905Y199700D01*
X-11272Y200526D01*
X-10873Y201488D01*
X-10738Y202520D01*
X-10873Y203552D01*
X-11272Y204513D01*
X-11905Y205339D01*
X-12731Y205972D01*
X-13692Y206371D01*
X-14724Y206507D01*
D02*
G37*
G36*
X141669Y186026D02*
X140894Y185924D01*
X140172Y185625D01*
X139552Y185149D01*
X139076Y184529D01*
X138777Y183807D01*
X138675Y183031D01*
Y178323D01*
X138777Y177548D01*
X138898Y177257D01*
Y174961D01*
X144441D01*
Y177257D01*
X144561Y177548D01*
X144663Y178323D01*
Y183031D01*
X144561Y183807D01*
X144262Y184529D01*
X143786Y185149D01*
X143166Y185625D01*
X142444Y185924D01*
X141669Y186026D01*
D02*
G37*
%LPD*%
G36*
X111628Y170929D02*
X111612Y170811D01*
X111714Y170036D01*
X112013Y169314D01*
X112489Y168694D01*
X112610Y168601D01*
X112597Y167981D01*
X112580Y167968D01*
X103365D01*
X103070Y168194D01*
X102444Y168453D01*
X101772Y168542D01*
X101100Y168453D01*
X100473Y168194D01*
X99935Y167781D01*
X99558Y167289D01*
X99404Y167291D01*
X99058Y167428D01*
Y182791D01*
X99558Y182999D01*
X111628Y170929D01*
D02*
G37*
G36*
X224143Y73658D02*
X221995Y71509D01*
X221556Y70853D01*
X221402Y70079D01*
Y69327D01*
X219050D01*
X218416Y69201D01*
X217879Y68842D01*
X217519Y68304D01*
X217393Y67670D01*
Y63920D01*
X217519Y63286D01*
X217250Y62789D01*
X211884D01*
X211614Y63286D01*
X211740Y63920D01*
Y67670D01*
X211614Y68304D01*
X211255Y68842D01*
X210718Y69201D01*
X210084Y69327D01*
X207732D01*
Y71406D01*
X210484Y74158D01*
X223936D01*
X224143Y73658D01*
D02*
G37*
G36*
X37556Y209367D02*
X37481Y209336D01*
X36943Y208923D01*
X36530Y208385D01*
X36271Y207759D01*
X36182Y207087D01*
X36271Y206414D01*
X36530Y205788D01*
X36943Y205250D01*
X37481Y204837D01*
X38107Y204578D01*
X38780Y204490D01*
X39452Y204578D01*
X40078Y204837D01*
X40287Y204998D01*
X40667Y204978D01*
X41009Y204532D01*
X40890Y203937D01*
Y177559D01*
X41044Y176785D01*
X41483Y176128D01*
X44192Y173419D01*
X44142Y173098D01*
X44004Y172900D01*
X43720Y172920D01*
X36472Y180169D01*
Y203543D01*
X36318Y204317D01*
X35879Y204974D01*
X32139Y208714D01*
X31483Y209153D01*
X30709Y209307D01*
X20723D01*
X20680Y209367D01*
X20937Y209867D01*
X37456D01*
X37556Y209367D01*
D02*
G37*
G36*
X158410Y171206D02*
Y142180D01*
X157910Y142080D01*
X157761Y142440D01*
X157348Y142978D01*
X156810Y143391D01*
X156184Y143650D01*
X155512Y143739D01*
X154840Y143650D01*
X154213Y143391D01*
X153675Y142978D01*
X153494Y142742D01*
X152994Y142912D01*
Y149583D01*
Y162054D01*
X153436Y162629D01*
X153559Y162928D01*
X153735Y163351D01*
X153837Y164126D01*
Y169718D01*
X154337Y169944D01*
X154840Y169736D01*
X155512Y169647D01*
X156184Y169736D01*
X156810Y169995D01*
X157348Y170408D01*
X157761Y170946D01*
X157910Y171305D01*
X158410Y171206D01*
D02*
G37*
G36*
X244542Y70036D02*
X237295Y62789D01*
X229600D01*
X229331Y63286D01*
X229457Y63920D01*
Y67670D01*
X229331Y68304D01*
X228972Y68842D01*
X228434Y69201D01*
X227800Y69327D01*
X226188D01*
X225997Y69789D01*
X226625Y70418D01*
X243898D01*
X244296Y70497D01*
X244542Y70036D01*
D02*
G37*
G36*
X32426Y202705D02*
Y179331D01*
X32580Y178557D01*
X33018Y177900D01*
X40986Y169932D01*
X41035Y169564D01*
X41294Y168938D01*
X41707Y168400D01*
X42245Y167987D01*
X42871Y167728D01*
X43543Y167639D01*
X44215Y167728D01*
X44842Y167987D01*
X45115Y167582D01*
X42075Y164543D01*
X34270D01*
X33976Y164769D01*
X33349Y165028D01*
X32677Y165117D01*
X32005Y165028D01*
X31379Y164769D01*
X31066Y164529D01*
X30566Y164776D01*
Y186005D01*
X30792Y186300D01*
X31052Y186926D01*
X31140Y187599D01*
X31052Y188271D01*
X30792Y188897D01*
X30566Y189191D01*
Y201163D01*
X30792Y201457D01*
X31052Y202084D01*
X31140Y202756D01*
X31060Y203364D01*
X31188Y203484D01*
X31514Y203617D01*
X32426Y202705D01*
D02*
G37*
G36*
X203602Y145201D02*
X203247Y145054D01*
X202627Y144578D01*
X197529Y139479D01*
X197053Y138859D01*
X196754Y138137D01*
X196651Y137362D01*
Y134706D01*
X196151Y134460D01*
X195826Y134710D01*
X195200Y134969D01*
X194528Y135058D01*
X193855Y134969D01*
X193229Y134710D01*
X192691Y134297D01*
X192279Y133759D01*
X192019Y133133D01*
X191930Y132461D01*
X192019Y131789D01*
X192279Y131162D01*
X192504Y130868D01*
Y99374D01*
X192004Y99204D01*
X191797Y99474D01*
X191259Y99887D01*
X190633Y100146D01*
X189961Y100235D01*
X189288Y100146D01*
X188662Y99887D01*
X188124Y99474D01*
X187956Y99255D01*
X187456Y99425D01*
Y115091D01*
X187956Y115338D01*
X188095Y115231D01*
X188722Y114972D01*
X189380Y114885D01*
X189394Y114882D01*
X189408Y114885D01*
X190066Y114972D01*
X190692Y115231D01*
X191230Y115644D01*
X191643Y116182D01*
X191902Y116808D01*
X191991Y117480D01*
X191902Y118152D01*
X191643Y118779D01*
X191417Y119073D01*
Y127486D01*
X191643Y127780D01*
X191902Y128407D01*
X191991Y129079D01*
X191902Y129751D01*
X191643Y130377D01*
X191230Y130915D01*
X190692Y131328D01*
X190066Y131587D01*
X189795Y131623D01*
X189728Y132136D01*
X189881Y132200D01*
X190419Y132612D01*
X190832Y133150D01*
X191091Y133777D01*
X191180Y134449D01*
X191091Y135121D01*
X190832Y135747D01*
X190419Y136285D01*
X189881Y136698D01*
X189255Y136957D01*
X188583Y137046D01*
X187910Y136957D01*
X187284Y136698D01*
X186746Y136285D01*
X186334Y135747D01*
X186074Y135121D01*
X186026Y134753D01*
X184002Y132730D01*
X183564Y132073D01*
X183410Y131299D01*
Y120200D01*
X182910Y119999D01*
X182365Y120225D01*
X182141Y120255D01*
Y141911D01*
X182367Y142205D01*
X182627Y142832D01*
X182715Y143504D01*
X182627Y144176D01*
X182367Y144802D01*
X182046Y145221D01*
X182137Y145509D01*
X182201Y145613D01*
X182280Y145701D01*
X203502D01*
X203602Y145201D01*
D02*
G37*
G36*
X276717Y210221D02*
Y195472D01*
X276871Y194698D01*
X277310Y194042D01*
X277701Y193650D01*
Y169885D01*
X277201Y169716D01*
X276960Y170030D01*
X276340Y170506D01*
X275618Y170806D01*
X274843Y170907D01*
X274068Y170806D01*
X273345Y170506D01*
X272725Y170030D01*
X272250Y169410D01*
X272038Y168899D01*
X271496Y168899D01*
X271383Y169173D01*
X270970Y169710D01*
X270432Y170123D01*
X269806Y170382D01*
X269134Y170471D01*
X268462Y170382D01*
X267835Y170123D01*
X267484Y169853D01*
X266984Y170091D01*
Y189516D01*
X268360Y190892D01*
X268798Y191549D01*
X268952Y192323D01*
Y201753D01*
X269178Y202048D01*
X269438Y202674D01*
X269526Y203346D01*
X269438Y204019D01*
X269178Y204645D01*
X268765Y205183D01*
X268228Y205596D01*
X267601Y205855D01*
X266929Y205943D01*
X266321Y205863D01*
X266201Y205991D01*
X266068Y206317D01*
X269736Y209985D01*
X272620D01*
X272914Y209759D01*
X273540Y209499D01*
X274213Y209411D01*
X274885Y209499D01*
X275511Y209759D01*
X276049Y210172D01*
X276217Y210390D01*
X276717Y210221D01*
D02*
G37*
G36*
X26926Y204760D02*
X26707Y204592D01*
X26294Y204054D01*
X26035Y203428D01*
X25946Y202756D01*
X26035Y202084D01*
X26294Y201457D01*
X26520Y201163D01*
Y189191D01*
X26294Y188897D01*
X26035Y188271D01*
X25946Y187599D01*
X26035Y186926D01*
X26294Y186300D01*
X26520Y186005D01*
Y158268D01*
X26674Y157493D01*
X27113Y156837D01*
X34509Y149441D01*
X34335Y148908D01*
X34106Y148873D01*
X25448Y157531D01*
Y175966D01*
X25674Y176261D01*
X25934Y176887D01*
X26022Y177559D01*
X25934Y178231D01*
X25674Y178858D01*
X25262Y179395D01*
X24724Y179808D01*
X24097Y180068D01*
X23425Y180156D01*
X22753Y180068D01*
X22127Y179808D01*
X21589Y179395D01*
X21176Y178858D01*
X20917Y178231D01*
X20828Y177559D01*
X20917Y176887D01*
X21176Y176261D01*
X21402Y175966D01*
Y156693D01*
X21556Y155919D01*
X21733Y155655D01*
X21344Y155336D01*
X20825Y155855D01*
X20776Y156223D01*
X20517Y156850D01*
X20291Y157144D01*
Y200927D01*
X20517Y201221D01*
X20776Y201848D01*
X20865Y202520D01*
X20776Y203192D01*
X20517Y203818D01*
X20104Y204356D01*
X19951Y204473D01*
X19999Y205030D01*
X20020Y205050D01*
X20294Y205260D01*
X26756D01*
X26926Y204760D01*
D02*
G37*
G36*
X272250Y155393D02*
X272725Y154773D01*
X273345Y154297D01*
X274068Y153998D01*
X274843Y153896D01*
X275618Y153998D01*
X276340Y154297D01*
X276960Y154773D01*
X277201Y155087D01*
X277701Y154918D01*
Y122098D01*
X258902Y103298D01*
X258441Y103545D01*
X258519Y103937D01*
Y134004D01*
X266391Y141876D01*
X266830Y142533D01*
X266984Y143307D01*
Y154634D01*
X267484Y154871D01*
X267835Y154601D01*
X268462Y154342D01*
X269134Y154253D01*
X269806Y154342D01*
X270432Y154601D01*
X270970Y155014D01*
X271383Y155552D01*
X271513Y155865D01*
X272054Y155865D01*
X272250Y155393D01*
D02*
G37*
G36*
X281441Y119409D02*
Y90996D01*
X280264Y89818D01*
X279134D01*
Y90567D01*
X276837D01*
X276547Y90687D01*
X275772Y90789D01*
X274997Y90687D01*
X274706Y90567D01*
X272410D01*
Y85024D01*
X272778D01*
Y84268D01*
X272441D01*
Y78724D01*
X274782D01*
X274997Y78636D01*
X275772Y78533D01*
X276547Y78636D01*
X276761Y78724D01*
X279165D01*
Y84268D01*
X278766D01*
Y85024D01*
X279134D01*
Y85772D01*
X281102D01*
X281877Y85926D01*
X282533Y86365D01*
X284485Y88317D01*
X284985Y88109D01*
Y79381D01*
X282036Y76433D01*
X279165D01*
Y77181D01*
X276869D01*
X276578Y77302D01*
X275803Y77404D01*
X275028Y77302D01*
X274737Y77181D01*
X272441D01*
Y71638D01*
X272809D01*
Y69701D01*
X272410D01*
Y64157D01*
X274814D01*
X275028Y64069D01*
X275803Y63967D01*
X276578Y64069D01*
X276793Y64157D01*
X279134D01*
Y69701D01*
X278797D01*
Y71638D01*
X279165D01*
Y72386D01*
X282874D01*
X283648Y72540D01*
X284305Y72979D01*
X288422Y77096D01*
X288493Y77093D01*
X288922Y76936D01*
Y58712D01*
X286564Y56354D01*
X238968D01*
X238935Y56854D01*
X239310Y56903D01*
X240033Y57202D01*
X240653Y57678D01*
X254390Y71415D01*
X268307D01*
X269082Y71517D01*
X269373Y71638D01*
X271685D01*
Y77181D01*
X271301D01*
Y78724D01*
X271685D01*
Y84268D01*
X269373D01*
X269082Y84388D01*
X268307Y84490D01*
X267532Y84388D01*
X267241Y84268D01*
X264961D01*
Y78724D01*
X265313D01*
Y77404D01*
X253150D01*
X252375Y77302D01*
X252292Y77267D01*
X252009Y77691D01*
X253202Y78884D01*
X253641Y79541D01*
X253795Y80315D01*
Y92469D01*
X280941Y119616D01*
X281441Y119409D01*
D02*
G37*
D12*
X275803Y74410D02*
D03*
X268323D02*
D03*
X235094Y102520D02*
D03*
X227614D02*
D03*
X268291Y66929D02*
D03*
X275772D02*
D03*
X268291Y87795D02*
D03*
X275772D02*
D03*
X275803Y81496D02*
D03*
X268323D02*
D03*
D13*
X228543Y218701D02*
X229665Y217579D01*
Y199665D02*
Y217579D01*
X220669Y231260D02*
X231535D01*
X220669Y222461D02*
Y231260D01*
X241968Y203051D02*
Y220827D01*
X231535Y231260D02*
X241968Y220827D01*
X285472Y285394D02*
X304331Y266535D01*
Y220394D02*
Y266535D01*
X296063Y212126D02*
X304331Y220394D01*
X309646Y214291D02*
Y271654D01*
X306929Y211575D02*
X309646Y214291D01*
X287244Y294055D02*
X309646Y271654D01*
X67126Y296063D02*
Y300591D01*
X63976Y303740D02*
X67126Y300591D01*
X37126Y296063D02*
Y300512D01*
X40354Y303740D01*
X275803Y66961D02*
Y74410D01*
X275772Y81528D02*
Y87795D01*
X306929Y45669D02*
Y193701D01*
X263386Y66929D02*
X268307D01*
X263583Y87795D02*
X268307D01*
X253150Y74410D02*
X268307D01*
X238535Y59795D02*
X253150Y74410D01*
X223425Y59795D02*
X238535D01*
X268307Y74410D02*
Y81496D01*
X103307Y53701D02*
X150000D01*
X92677Y64331D02*
X103307Y53701D01*
X158228Y45472D02*
X197441D01*
X150000Y53701D02*
X158228Y45472D01*
X150000Y53701D02*
Y129110D01*
X197441Y45472D02*
X205709Y53740D01*
Y59795D01*
X223425D01*
X287598Y45669D02*
X296063Y54134D01*
X241968Y45669D02*
X287598D01*
X296063Y54134D02*
Y212126D01*
X274843Y156890D02*
Y167913D01*
X10000Y154370D02*
Y172520D01*
X202598Y257244D02*
X205406Y260052D01*
X286312D01*
X292362Y266102D01*
X66181Y253685D02*
Y263937D01*
X60094Y246205D02*
X66181D01*
X217598Y299764D02*
Y308780D01*
X207598Y294173D02*
Y299764D01*
Y294173D02*
X210276Y291496D01*
X273268D01*
X275866Y294094D01*
Y300157D01*
X220669Y212461D02*
Y222461D01*
X241968Y193701D02*
Y203051D01*
X287244Y294055D02*
Y302323D01*
X280748Y308819D02*
X287244Y302323D01*
X251732Y300157D02*
Y308819D01*
X-4724Y142520D02*
Y152520D01*
Y132520D02*
Y142520D01*
Y122520D02*
Y132520D01*
Y112520D02*
Y122520D01*
X220669Y102461D02*
X227555D01*
X227614Y102520D01*
X66181Y246205D02*
X77992D01*
X70929Y196795D02*
X77992D01*
Y246205D01*
X75646Y89346D02*
X77992Y91693D01*
X70803Y89346D02*
X75646D01*
X70929Y99158D02*
X77386D01*
X70929Y118842D02*
X77583D01*
X70929Y138134D02*
X77583D01*
X70929Y156638D02*
X77780D01*
X70929Y176716D02*
X77386D01*
X77992Y91693D02*
Y196795D01*
X127622Y192465D02*
X134291D01*
X128016Y66693D02*
X131732D01*
X134291Y69252D01*
X128016Y87347D02*
X134276D01*
X128016Y107819D02*
X134079D01*
X128016Y129079D02*
X133882D01*
X127622Y149551D02*
X133882D01*
X127622Y170811D02*
X134276D01*
X134291Y69252D02*
Y192465D01*
X220669Y202461D02*
X226870D01*
X229665Y199665D01*
X235094Y102520D02*
Y132461D01*
X204744Y142461D02*
X210669D01*
X199646Y137362D02*
X204744Y142461D01*
X84976Y196827D02*
X90378D01*
X84976Y176748D02*
X92465D01*
X64236Y64331D02*
X70929D01*
X85102Y89315D02*
X92543D01*
X84976Y99189D02*
X92465D01*
X84976Y118874D02*
X92496D01*
X84976Y138165D02*
X92102D01*
X84976Y156669D02*
X92496D01*
X70929Y64331D02*
X92677D01*
X148055Y192496D02*
X150842Y189709D01*
X141669Y192496D02*
X148055D01*
X141669Y107850D02*
X149803D01*
X141669Y129110D02*
X150000D01*
X141669Y149583D02*
X150000D01*
X141669Y170843D02*
X150465D01*
X-4724Y152520D02*
X236D01*
X2795Y155079D01*
X70929Y71811D02*
X77008D01*
X58110D02*
X64236D01*
X57913Y89331D02*
X64095D01*
X64110Y81866D02*
X70803D01*
X85071D01*
X64236Y106638D02*
X70929D01*
X59291D02*
X64236D01*
X84882Y106764D02*
Y111969D01*
Y106764D02*
X84976Y106669D01*
X64236Y126323D02*
X70929D01*
X64236Y145614D02*
X70929D01*
X64236Y164118D02*
X70929D01*
X64236Y184197D02*
X70929D01*
X64236Y204276D02*
X70929D01*
X119748Y199945D02*
X127622D01*
X119748Y178291D02*
X127622D01*
X120142Y157032D02*
X127622D01*
X120535Y136559D02*
X128016D01*
X120535Y115299D02*
X128016D01*
X120535Y94827D02*
X128016D01*
X120535Y74173D02*
X128016D01*
X59291Y126323D02*
X64236D01*
X58898Y145614D02*
X64236D01*
X58898Y164118D02*
X64236D01*
X58701Y184197D02*
X64236D01*
X58701Y204276D02*
X64236D01*
X84976Y126354D02*
Y131063D01*
X90378Y196827D02*
X92677Y194527D01*
Y89315D02*
Y194527D01*
X84976Y145646D02*
Y150157D01*
Y164150D02*
Y168661D01*
Y184228D02*
Y188937D01*
Y204307D02*
X89410D01*
X141669Y74205D02*
Y78701D01*
Y94858D02*
Y99567D01*
Y115331D02*
Y119843D01*
Y136591D02*
Y141299D01*
Y157063D02*
Y161575D01*
Y178323D02*
Y183031D01*
X114803Y199945D02*
X119748D01*
X114803Y178291D02*
X119748D01*
X115000Y157032D02*
X120142D01*
X115394Y136559D02*
X120535D01*
X115591Y115299D02*
X120535D01*
X115197Y94827D02*
X120535D01*
X115787Y74173D02*
X120535D01*
X115787Y66693D02*
X120535D01*
X115591Y107819D02*
X120535D01*
X115591Y129079D02*
X120535D01*
X115000Y149551D02*
X120142D01*
X114606Y170811D02*
X119748D01*
X114803Y192465D02*
X119748D01*
X59291Y99158D02*
X64236D01*
X59488Y118842D02*
X64236D01*
X59095Y138134D02*
X64236D01*
X58898Y156638D02*
X64236D01*
X58898Y176716D02*
X64236D01*
X58898Y196795D02*
X64236D01*
X115591Y87347D02*
X120535D01*
X306929Y203051D02*
Y211575D01*
X202598Y245866D02*
Y257244D01*
X229665Y185787D02*
Y199665D01*
X134291Y192465D02*
Y210591D01*
X-4724Y222520D02*
X2795D01*
Y155079D02*
Y222520D01*
X36378D01*
X60079Y246220D01*
X37126Y296063D02*
X38622Y294567D01*
Y263937D02*
Y294567D01*
X66181Y295118D02*
X67126Y296063D01*
X66181Y263937D02*
Y295118D01*
X220669Y162461D02*
X245669D01*
X235094Y132461D02*
X245669Y143035D01*
Y162461D01*
X150000Y163284D02*
X150842Y164126D01*
Y189709D01*
X229665Y185787D02*
X232382Y183071D01*
X242126D01*
X245669Y179528D01*
Y162461D02*
Y179528D01*
X92677Y64331D02*
X95866Y67520D01*
Y85992D01*
X92677Y89181D02*
X95866Y85992D01*
X199646Y92480D02*
Y137362D01*
Y92480D02*
X211024Y81102D01*
X210669Y90709D02*
Y102461D01*
Y90709D02*
X214173Y87205D01*
X211024Y81102D02*
X239961D01*
X141669Y87378D02*
X149779D01*
X150000Y129110D02*
Y149583D01*
Y163284D01*
X141669Y66724D02*
X149402D01*
X214173Y87205D02*
X238386D01*
X242126Y90945D01*
Y94291D01*
X235094Y101323D02*
X242126Y94291D01*
X235094Y101323D02*
Y102520D01*
X10000Y154370D02*
X29921Y134449D01*
Y73032D02*
Y134449D01*
Y73032D02*
X38622Y64331D01*
X64236D01*
X141669Y199976D02*
Y204685D01*
X134291Y210591D02*
X158110D01*
X134291Y226969D02*
X144882Y237559D01*
X78992Y247205D02*
X134291D01*
Y247480D01*
Y210591D02*
Y226969D01*
Y247205D02*
X135236D01*
X144882Y237559D01*
X158110Y210591D02*
X186240Y182461D01*
X210669D01*
X193189Y299764D02*
X202244Y308819D01*
X280748D01*
X183189Y289252D02*
Y299764D01*
Y289252D02*
X187047Y285394D01*
X285472D01*
X163347Y279291D02*
X265866D01*
X176811Y231260D02*
X220669D01*
X157480Y250590D02*
X176811Y231260D01*
X157480Y282441D02*
X165394Y290354D01*
X157480Y250590D02*
Y282441D01*
X135394Y290354D02*
Y296614D01*
X138543Y299764D01*
X183189D01*
X78268Y246480D02*
Y274567D01*
X77992Y246205D02*
X78268Y246480D01*
X78992Y247205D01*
D14*
X275984Y216535D02*
X278740Y213779D01*
X257677Y216535D02*
X275984D01*
X254016Y220197D02*
X257677Y216535D01*
X268898Y212008D02*
X274213D01*
X261024Y204134D02*
X268898Y212008D01*
X278740Y195472D02*
Y213779D01*
Y195472D02*
X279724Y194488D01*
X261024Y145472D02*
Y204134D01*
X264961Y190354D02*
X266929Y192323D01*
Y203346D01*
X287441Y221654D02*
X294016Y228228D01*
X284842Y221654D02*
X287441D01*
X282480Y219291D02*
X284842Y221654D01*
X282480Y199213D02*
Y219291D01*
Y199213D02*
X283465Y198228D01*
X287008Y78543D02*
Y217323D01*
X269134Y156850D02*
Y167874D01*
X264961Y143307D02*
Y190354D01*
X256496Y147244D02*
Y167913D01*
X293110Y245866D02*
X296850D01*
X300000Y242717D01*
X254016Y220197D02*
Y228228D01*
X279724Y121260D02*
Y194488D01*
X300000Y223425D02*
Y242717D01*
X290945Y214370D02*
X300000Y223425D01*
X283465Y90158D02*
Y198228D01*
X274016Y238228D02*
Y248425D01*
X271299Y251142D02*
X274016Y248425D01*
X207716Y251142D02*
X271299D01*
X281102Y87795D02*
X283465Y90158D01*
X275772Y87795D02*
X281102D01*
X275803Y74410D02*
X282874D01*
X287008Y78543D01*
X275772Y66929D02*
X275803Y66961D01*
X275772Y81528D02*
X275803Y81496D01*
X256496Y103937D02*
Y134843D01*
X247835Y95276D02*
X256496Y103937D01*
X247835Y81890D02*
Y95276D01*
X242126Y76181D02*
X247835Y81890D01*
X287402Y54331D02*
X290945Y57874D01*
X213976Y54331D02*
X287402D01*
X199606Y39961D02*
X213976Y54331D01*
X290945Y57874D02*
Y214370D01*
X155512Y39961D02*
X199606Y39961D01*
X147244Y48228D02*
X155512Y39961D01*
X96654Y48228D02*
X147244D01*
X86063Y58819D02*
X96654Y48228D01*
X209646Y76181D02*
X242126D01*
X205709Y72244D02*
X209646Y76181D01*
X205709Y65795D02*
Y72244D01*
X225787Y72441D02*
X243898D01*
X223425Y70079D02*
X225787Y72441D01*
X223425Y65795D02*
Y70079D01*
X256496Y134843D02*
X264961Y143307D01*
X251772Y136221D02*
X261024Y145472D01*
X240394Y131142D02*
X256496Y147244D01*
X251378Y156496D02*
Y167913D01*
X251772Y108071D02*
Y136221D01*
X250984Y107283D02*
X251772Y108071D01*
X180512Y180512D02*
X183504Y177520D01*
X205702Y167724D02*
X239764D01*
X200591Y172835D02*
X205702Y167724D01*
X182677Y172835D02*
X200591D01*
X188976Y187598D02*
X204921D01*
X215551Y187579D02*
X220669Y182461D01*
X215551Y187579D02*
Y195472D01*
X213583Y197441D02*
X215551Y195472D01*
X192717Y197441D02*
X213583D01*
X152953Y237205D02*
X192717Y197441D01*
X189823Y192461D02*
X210669D01*
X158268Y224016D02*
X189823Y192461D01*
X83858Y228543D02*
X109724D01*
X140157Y224016D02*
X158268D01*
X32677Y162520D02*
X42913D01*
Y203937D02*
X50000Y211024D01*
X34449Y179331D02*
X43543Y170236D01*
X28543Y158268D02*
Y187598D01*
X23425Y156693D02*
Y177559D01*
X105315Y187795D02*
X105512Y187992D01*
Y196653D01*
X18268Y155551D02*
Y202520D01*
X40157Y211890D02*
X48031Y219764D01*
X16417Y211890D02*
X40157D01*
X13189Y208661D02*
X16417Y211890D01*
X13189Y184921D02*
Y208661D01*
X10787Y182520D02*
X13189Y184921D01*
X12402Y216339D02*
X37992D01*
X8465Y212402D02*
X12402Y216339D01*
X8465Y197441D02*
Y212402D01*
X37992Y216339D02*
X42717Y221063D01*
X48031Y219764D02*
Y224016D01*
X50000Y190551D02*
X72244D01*
X48031Y192520D02*
X50000Y190551D01*
X212598Y254331D02*
X277913D01*
X211811Y255118D02*
X212598Y254331D01*
X209842Y255118D02*
X211811D01*
X277913Y254331D02*
X294016Y238228D01*
X13976Y107480D02*
X20669Y114173D01*
X-7677Y107480D02*
X13976D01*
X-9843Y109646D02*
X-7677Y107480D01*
X-9843Y109646D02*
Y177638D01*
X-14724Y182520D02*
X-9843Y177638D01*
X53347Y202346D02*
Y209620D01*
Y202346D02*
X58898Y196795D01*
X110039Y183055D02*
X114803Y178291D01*
X110039Y183055D02*
Y221457D01*
X126575Y237992D01*
X166142Y253740D02*
X197638D01*
X125630Y141299D02*
X127795Y143465D01*
X103386Y141299D02*
X125630D01*
X99843Y137756D02*
X103386Y141299D01*
X99843Y145039D02*
X114409D01*
X98268Y143465D02*
X99843Y145039D01*
X115591Y59803D02*
X115787Y59606D01*
X107323Y59803D02*
X115591D01*
X100827Y66299D02*
X107323Y59803D01*
X100827Y66299D02*
Y94449D01*
X189394Y117480D02*
Y129079D01*
Y116905D02*
Y117480D01*
X194528Y66693D02*
Y132461D01*
X176811Y221417D02*
X196850D01*
X269134Y156850D02*
X269134Y156850D01*
X77008Y71811D02*
X77008Y71811D01*
X64095Y89331D02*
X64110Y89346D01*
X85071Y81866D02*
X85102Y81835D01*
X109724Y228543D02*
X122677Y241496D01*
X205118Y126909D02*
X210669Y132461D01*
X205118Y97638D02*
Y126909D01*
X189961Y78740D02*
Y97638D01*
X207677Y245638D02*
Y245866D01*
X203969Y241929D02*
X207677Y245638D01*
X199606Y241929D02*
X203969D01*
X191732Y249803D02*
X199606Y241929D01*
X167520Y249803D02*
X191732D01*
X18701Y207283D02*
X30709D01*
X34449Y203543D01*
Y179331D02*
Y203543D01*
X28543Y187599D02*
Y202756D01*
X38780Y207087D02*
X40354D01*
X66732Y233465D01*
X70472D01*
X83858D02*
X108465D01*
X114764Y239764D01*
X155512Y125197D02*
Y141142D01*
X85102Y81835D02*
X90496D01*
X228150Y129134D02*
Y141929D01*
Y129134D02*
X229724Y127559D01*
X240394Y122402D02*
Y131142D01*
X246063Y122047D02*
Y130512D01*
X242323Y102362D02*
Y118307D01*
X246063Y122047D01*
X247441Y101969D02*
Y116732D01*
X52756Y85630D02*
X57520Y80866D01*
X47496Y74464D02*
Y106638D01*
X44291Y71260D02*
X47496Y74464D01*
X99803Y131063D02*
X104370D01*
X113386Y122047D02*
X128150D01*
X104370Y131063D02*
X113386Y122047D01*
X240820Y147724D02*
X241142Y147402D01*
X231102Y157087D02*
X239764D01*
X215932Y137724D02*
X220669Y142461D01*
X215932Y96469D02*
Y137724D01*
Y96469D02*
X220079Y92323D01*
X232677D01*
X52756Y85630D02*
Y144488D01*
X185433Y57677D02*
X191535Y51575D01*
X42913Y162520D02*
X47638Y167244D01*
X47441Y155315D02*
X54528Y162402D01*
Y180024D01*
X58701Y184197D01*
X42913Y177559D02*
Y203937D01*
Y177559D02*
X47638Y172835D01*
Y167244D02*
Y172835D01*
X50000Y181890D02*
X51181Y180709D01*
Y165157D02*
Y180709D01*
X41929Y155905D02*
X51181Y165157D01*
X23425Y156693D02*
X33465Y146653D01*
X28543Y158268D02*
X36417Y150394D01*
X57953D01*
X58701Y151142D01*
X41929Y154724D02*
Y155905D01*
X35433Y76181D02*
Y108268D01*
X36220Y137598D02*
X36220Y137598D01*
X36220Y131890D02*
Y137598D01*
X18268Y155551D02*
X36220Y137598D01*
X50591Y146653D02*
X52756Y144488D01*
X33465Y146653D02*
X50591D01*
X41929Y114764D02*
Y142323D01*
X35433Y108268D02*
X41929Y114764D01*
X141669Y199976D02*
X149827D01*
X155512Y194291D01*
Y172244D02*
Y194291D01*
X215650Y157480D02*
X220669Y152461D01*
X140551Y219488D02*
X157087D01*
X164764Y53937D02*
X164803Y53898D01*
X164764Y53937D02*
Y196260D01*
X185433Y57677D02*
Y131299D01*
X188583Y134449D01*
X97035Y151365D02*
Y203728D01*
X101772Y158858D02*
X110039D01*
X113189Y162008D01*
X126181D01*
X129134Y164961D01*
X101772Y165945D02*
X114173D01*
X100787Y184630D02*
Y196653D01*
Y184630D02*
X114606Y170811D01*
X97035Y203728D02*
X104134Y210827D01*
X126772D02*
Y230906D01*
X134252Y238386D01*
X152953Y237205D02*
Y242717D01*
X164961Y236024D02*
X175039Y225945D01*
X197874D01*
X157087Y219488D02*
X188976Y187598D01*
X183504Y177520D02*
X240158D01*
X180118Y175394D02*
X182677Y172835D01*
X179921Y170079D02*
X181102Y168898D01*
X196850D01*
X180118Y119291D02*
Y143504D01*
Y119291D02*
X181693Y117717D01*
X176378Y59764D02*
X176535Y59606D01*
X176378Y59764D02*
Y185039D01*
X159685Y93307D02*
X160433Y94055D01*
Y199803D01*
X155512Y204724D02*
X160433Y199803D01*
X171653Y101417D02*
X171693Y101378D01*
X171653Y101417D02*
Y189370D01*
X181102Y164961D02*
X199803D01*
X207283Y157480D01*
X215650D01*
X181102Y160433D02*
X198425D01*
X200000Y158858D01*
X180118Y149803D02*
X182198Y147724D01*
X240820D01*
X181496Y155315D02*
X182677Y154134D01*
X202559D01*
X243898Y72441D02*
X251772Y80315D01*
Y93307D01*
X279724Y121260D01*
X39961Y76378D02*
Y107480D01*
X47441Y114961D01*
Y142717D01*
X53347Y214764D02*
X67126Y228543D01*
X70512D01*
X53347Y209620D02*
X53359Y209632D01*
Y212415D01*
X53347Y212428D02*
X53359Y212415D01*
X53347Y212428D02*
Y214764D01*
D15*
X56102Y297087D02*
X57126Y296063D01*
X56102Y297087D02*
Y303740D01*
X47126Y296063D02*
X48228Y297165D01*
Y303740D01*
X47126Y296063D02*
X56339Y286850D01*
X48465Y263937D02*
Y287362D01*
X-14724Y232520D02*
X-9724Y227520D01*
X27000D01*
X56339Y256858D01*
Y263937D01*
X48465Y252520D02*
Y263937D01*
X-4724Y232520D02*
X28465D01*
X48465Y252520D01*
X56339Y263937D02*
Y286850D01*
D18*
X254016Y238228D02*
D03*
X264016D02*
D03*
X274016D02*
D03*
X284016D02*
D03*
X294016D02*
D03*
Y228228D02*
D03*
X284016D02*
D03*
X274016D02*
D03*
X264016D02*
D03*
D19*
X254016D02*
D03*
D20*
X67126Y296063D02*
D03*
X231732Y300157D02*
D03*
X183189Y299764D02*
D03*
X207598D02*
D03*
X265866Y300157D02*
D03*
X171653Y266299D02*
D03*
X135394Y290354D02*
D03*
D21*
X57126Y296063D02*
D03*
X47126D02*
D03*
X37126D02*
D03*
X241732Y300157D02*
D03*
X251732D02*
D03*
X193189Y299764D02*
D03*
X217598D02*
D03*
X275866Y300157D02*
D03*
X-14724Y242520D02*
D03*
X-4724D02*
D03*
X-14724Y232520D02*
D03*
X-4724D02*
D03*
X-14724Y222520D02*
D03*
X-4724D02*
D03*
X-14724Y212520D02*
D03*
X-4724D02*
D03*
X-14724Y202520D02*
D03*
X-4724D02*
D03*
X-14724Y192520D02*
D03*
X-4724D02*
D03*
X-14724Y182520D02*
D03*
X-4724D02*
D03*
X-14724Y172520D02*
D03*
X-4724D02*
D03*
X-14724Y162520D02*
D03*
X-4724D02*
D03*
X-14724Y152520D02*
D03*
X-4724D02*
D03*
X-14724Y142520D02*
D03*
X-4724D02*
D03*
X-14724Y132520D02*
D03*
X-4724D02*
D03*
X-14724Y122520D02*
D03*
X-4724D02*
D03*
X-14724Y112520D02*
D03*
X-4724D02*
D03*
X-14724Y102520D02*
D03*
X220669Y222461D02*
D03*
X210669Y212461D02*
D03*
X220669D02*
D03*
X210669Y202461D02*
D03*
X220669D02*
D03*
X210669Y192461D02*
D03*
X220669D02*
D03*
X210669Y182461D02*
D03*
X220669D02*
D03*
X210669Y172461D02*
D03*
X220669D02*
D03*
X210669Y162461D02*
D03*
X220669D02*
D03*
X210669Y152461D02*
D03*
X220669D02*
D03*
X210669Y142461D02*
D03*
X220669D02*
D03*
X210669Y132461D02*
D03*
X220669D02*
D03*
X210669Y122461D02*
D03*
X220669D02*
D03*
X210669Y112461D02*
D03*
X220669D02*
D03*
X210669Y102461D02*
D03*
X220669D02*
D03*
X181653Y266299D02*
D03*
X191654D02*
D03*
X201654D02*
D03*
X211653D02*
D03*
X221654D02*
D03*
X231653D02*
D03*
X241653D02*
D03*
X251654D02*
D03*
X261653D02*
D03*
X271654D02*
D03*
X281653D02*
D03*
X165394Y290354D02*
D03*
X155394D02*
D03*
X145394D02*
D03*
D22*
X63976Y303740D02*
D03*
D23*
X56102D02*
D03*
X48228D02*
D03*
X40354D02*
D03*
D24*
X300630Y298752D02*
D03*
Y15748D02*
D03*
X215591Y241752D02*
D03*
Y13386D02*
D03*
X22677D02*
D03*
Y241752D02*
D03*
D25*
X26535Y274567D02*
D03*
X78268D02*
D03*
D26*
X38622Y263937D02*
D03*
X48465D02*
D03*
X56339D02*
D03*
X66181D02*
D03*
D27*
X-4724Y102520D02*
D03*
X210669Y222461D02*
D03*
D28*
X306929Y45669D02*
D03*
X241968D02*
D03*
Y193701D02*
D03*
X306929D02*
D03*
Y203051D02*
D03*
X241968D02*
D03*
D29*
X228543Y218701D02*
D03*
X274213Y212008D02*
D03*
X266929Y203346D02*
D03*
X287008Y217323D02*
D03*
X269134Y167874D02*
D03*
X256496Y167913D02*
D03*
X293110Y245866D02*
D03*
X48425Y287362D02*
D03*
X263386Y66929D02*
D03*
X263583Y87795D02*
D03*
X251378Y156496D02*
D03*
Y167913D02*
D03*
X239961Y81102D02*
D03*
X274843Y156890D02*
D03*
X274843Y167913D02*
D03*
X204921Y187598D02*
D03*
X70473Y228543D02*
D03*
X83858Y228543D02*
D03*
X140157Y224016D02*
D03*
X140551Y219488D02*
D03*
X50000Y211024D02*
D03*
X43543Y170236D02*
D03*
X32677Y162520D02*
D03*
X28543Y187599D02*
D03*
X18268Y155551D02*
D03*
X23425Y177559D02*
D03*
X105315Y187795D02*
D03*
X105512Y196653D02*
D03*
X18701Y207283D02*
D03*
X18268Y202520D02*
D03*
X42717Y221063D02*
D03*
X8465Y197441D02*
D03*
X48031Y224016D02*
D03*
X72244Y190551D02*
D03*
X48031Y192520D02*
D03*
X209842Y255118D02*
D03*
X20669Y114173D02*
D03*
X10787Y182520D02*
D03*
X126575Y237992D02*
D03*
X166142Y253740D02*
D03*
X197638Y253740D02*
D03*
X115591Y87347D02*
D03*
X114606Y170811D02*
D03*
X127795Y143465D02*
D03*
X99843Y137756D02*
D03*
X114409Y145039D02*
D03*
X98268Y143465D02*
D03*
X176614Y59606D02*
D03*
X115787D02*
D03*
X100827Y94449D02*
D03*
X164803Y53898D02*
D03*
X189394Y117480D02*
D03*
Y129079D02*
D03*
X194528Y66693D02*
D03*
Y132461D02*
D03*
X176811Y221417D02*
D03*
X197874Y225945D02*
D03*
X240394Y122402D02*
D03*
X60079Y246220D02*
D03*
X265866Y279291D02*
D03*
X292362Y266102D02*
D03*
X10000Y172520D02*
D03*
X269134Y156850D02*
D03*
X77008Y71811D02*
D03*
X58110D02*
D03*
X57913Y89331D02*
D03*
X59291Y106638D02*
D03*
X84882Y111969D02*
D03*
X59291Y126323D02*
D03*
X58898Y145614D02*
D03*
Y164118D02*
D03*
X58701Y184197D02*
D03*
Y204276D02*
D03*
X84976Y131063D02*
D03*
Y150157D02*
D03*
Y168661D02*
D03*
Y188937D02*
D03*
X89410Y204307D02*
D03*
X141669Y78701D02*
D03*
Y99567D02*
D03*
Y119843D02*
D03*
Y141299D02*
D03*
Y161575D02*
D03*
Y183031D02*
D03*
Y204685D02*
D03*
X114803Y199945D02*
D03*
Y178291D02*
D03*
X115000Y157032D02*
D03*
X115394Y136559D02*
D03*
X115591Y115299D02*
D03*
X115197Y94827D02*
D03*
X115787Y74173D02*
D03*
X115787Y66693D02*
D03*
X115591Y107819D02*
D03*
Y129079D02*
D03*
X115000Y149551D02*
D03*
X114803Y192465D02*
D03*
X59488Y118842D02*
D03*
X59291Y99158D02*
D03*
X58898Y156638D02*
D03*
X59095Y138134D02*
D03*
X58898Y196795D02*
D03*
Y176717D02*
D03*
X58701Y151142D02*
D03*
X57520Y80866D02*
D03*
X86063Y58819D02*
D03*
X207717Y251142D02*
D03*
X122677Y241496D02*
D03*
X3724Y275803D02*
D03*
Y269504D02*
D03*
X92898Y302378D02*
D03*
X306913Y142535D02*
D03*
X33055Y46079D02*
D03*
X78527Y27181D02*
D03*
X146047Y27575D02*
D03*
X210236Y38583D02*
D03*
X22228Y129150D02*
D03*
X24213Y109646D02*
D03*
X32268Y251394D02*
D03*
X99394Y239583D02*
D03*
X243504Y140870D02*
D03*
X205118Y97638D02*
D03*
X189921Y78701D02*
D03*
X189961Y97638D02*
D03*
X207677Y245866D02*
D03*
X202598D02*
D03*
X167520Y249803D02*
D03*
X28543Y202756D02*
D03*
X38780Y207087D02*
D03*
X70472Y233465D02*
D03*
X83858D02*
D03*
X114764Y239764D02*
D03*
X239764Y167724D02*
D03*
X241142Y147402D02*
D03*
X239567Y162461D02*
D03*
X155512Y125197D02*
D03*
Y141142D02*
D03*
X240158Y177362D02*
D03*
X90496Y81835D02*
D03*
X171653Y101378D02*
D03*
X159646Y93307D02*
D03*
X228150Y141929D02*
D03*
X235094Y132461D02*
D03*
X229724Y127559D02*
D03*
X246063Y130512D02*
D03*
X250984Y107283D02*
D03*
X247441Y116732D02*
D03*
X242323Y102362D02*
D03*
X247441Y101969D02*
D03*
X47496Y106638D02*
D03*
X44291Y71260D02*
D03*
X99803Y131063D02*
D03*
X128150Y122047D02*
D03*
X239764Y157087D02*
D03*
X231102D02*
D03*
X232677Y92323D02*
D03*
X39961Y76378D02*
D03*
X47441Y142717D02*
D03*
Y155315D02*
D03*
X181693Y117717D02*
D03*
X191535Y51575D02*
D03*
X50000Y181890D02*
D03*
X41929Y154724D02*
D03*
X35433Y76181D02*
D03*
X36220Y131890D02*
D03*
X41929Y142323D02*
D03*
X155512Y172244D02*
D03*
X129134Y164961D02*
D03*
X164764Y196260D02*
D03*
X171653Y189370D02*
D03*
X176378Y185039D02*
D03*
X155512Y204724D02*
D03*
X188583Y134449D02*
D03*
X196850Y221457D02*
D03*
X97035Y151365D02*
D03*
X101772Y158858D02*
D03*
X114173Y165945D02*
D03*
X101772D02*
D03*
X100787Y196653D02*
D03*
X104134Y210827D02*
D03*
X126772D02*
D03*
X134252Y238386D02*
D03*
X152953Y242717D02*
D03*
X164961Y236024D02*
D03*
X180512Y180512D02*
D03*
X180118Y175394D02*
D03*
X196850Y168898D02*
D03*
X179921Y170079D02*
D03*
X180118Y143504D02*
D03*
Y149803D02*
D03*
X181102Y164961D02*
D03*
Y160433D02*
D03*
X200000Y158858D02*
D03*
X181496Y155315D02*
D03*
X202559Y154134D02*
D03*
X263189Y126575D02*
D03*
X273031Y99803D02*
D03*
X201181Y78937D02*
D03*
X69882Y56102D02*
D03*
X4134Y158071D02*
D03*
X48622Y200984D02*
D03*
X78150Y178150D02*
D03*
X23228Y198425D02*
D03*
X23425Y183268D02*
D03*
X38583Y181693D02*
D03*
X34252Y166732D02*
D03*
X86417Y69685D02*
D03*
X101378Y177953D02*
D03*
X169685Y245866D02*
D03*
X101575Y108268D02*
D03*
X100394Y123819D02*
D03*
X119685Y185630D02*
D03*
X133858Y130709D02*
D03*
X110039Y119488D02*
D03*
X133465Y151969D02*
D03*
X155709Y155512D02*
D03*
X53347Y154528D02*
D03*
X143701Y245472D02*
D03*
X202559Y208858D02*
D03*
X148819Y213583D02*
D03*
X134646Y210433D02*
D03*
X181693Y186811D02*
D03*
X155709Y112598D02*
D03*
X189764Y112205D02*
D03*
X245866Y176378D02*
D03*
X239567Y184055D02*
D03*
X133661Y173425D02*
D03*
X214370Y67126D02*
D03*
X234055Y66732D02*
D03*
X163347Y279291D02*
D03*
X273228Y203346D02*
D03*
D30*
X141669Y178323D02*
D03*
Y170843D02*
D03*
Y94858D02*
D03*
Y87378D02*
D03*
Y136591D02*
D03*
Y129110D02*
D03*
Y199976D02*
D03*
Y192496D02*
D03*
Y157063D02*
D03*
Y149583D02*
D03*
Y115331D02*
D03*
Y107850D02*
D03*
Y74205D02*
D03*
Y66724D02*
D03*
X128016Y87347D02*
D03*
Y94827D02*
D03*
Y129079D02*
D03*
Y136559D02*
D03*
Y107819D02*
D03*
Y115299D02*
D03*
Y66693D02*
D03*
Y74173D02*
D03*
X127622Y149551D02*
D03*
Y157032D02*
D03*
Y170811D02*
D03*
Y178291D02*
D03*
Y192465D02*
D03*
Y199945D02*
D03*
X119748Y170811D02*
D03*
Y178291D02*
D03*
Y192465D02*
D03*
Y199945D02*
D03*
X120142Y149551D02*
D03*
Y157032D02*
D03*
X120535Y129079D02*
D03*
Y136559D02*
D03*
Y107819D02*
D03*
Y115299D02*
D03*
Y87347D02*
D03*
Y94827D02*
D03*
Y66693D02*
D03*
Y74173D02*
D03*
X84976Y184228D02*
D03*
Y176748D02*
D03*
Y204307D02*
D03*
Y196827D02*
D03*
Y164150D02*
D03*
Y156669D02*
D03*
Y145646D02*
D03*
Y138165D02*
D03*
Y126354D02*
D03*
Y118874D02*
D03*
Y106669D02*
D03*
Y99189D02*
D03*
X85102Y81835D02*
D03*
Y89315D02*
D03*
X70929Y64331D02*
D03*
Y71811D02*
D03*
Y176716D02*
D03*
Y184197D02*
D03*
Y196795D02*
D03*
Y204276D02*
D03*
Y156638D02*
D03*
Y164118D02*
D03*
Y138134D02*
D03*
Y145614D02*
D03*
Y118842D02*
D03*
Y126323D02*
D03*
Y99158D02*
D03*
Y106638D02*
D03*
X70803Y89346D02*
D03*
Y81866D02*
D03*
X64236Y64331D02*
D03*
Y71811D02*
D03*
Y176716D02*
D03*
Y184197D02*
D03*
Y196795D02*
D03*
Y204276D02*
D03*
Y156638D02*
D03*
Y164118D02*
D03*
Y138134D02*
D03*
Y145614D02*
D03*
Y118842D02*
D03*
Y126323D02*
D03*
Y99158D02*
D03*
Y106638D02*
D03*
X64110Y89346D02*
D03*
Y81866D02*
D03*
X66181Y246205D02*
D03*
Y253685D02*
D03*
D31*
X205709Y59795D02*
D03*
Y65795D02*
D03*
X223425D02*
D03*
Y59795D02*
D03*
M02*
