G04 Layer_Color=16711935*
%FSLAX25Y25*%
%MOIN*%
G70*
G01*
G75*
%ADD37R,0.05524X0.04343*%
%ADD40R,0.04343X0.05524*%
%ADD42R,0.06706X0.06706*%
%ADD43C,0.06706*%
%ADD44R,0.11824X0.11824*%
%ADD45C,0.12611*%
%ADD46R,0.06706X0.06706*%
%ADD47R,0.06706X0.10642*%
%ADD48R,0.16548X0.20485*%
%ADD49C,0.06312*%
%ADD50R,0.06312X0.06312*%
%ADD51R,0.07194X0.07194*%
%ADD52C,0.07887*%
G04:AMPARAMS|DCode=53|XSize=118mil|YSize=108mil|CornerRadius=27mil|HoleSize=0mil|Usage=FLASHONLY|Rotation=90.000|XOffset=0mil|YOffset=0mil|HoleType=Round|Shape=RoundedRectangle|*
%AMROUNDEDRECTD53*
21,1,0.11800,0.05400,0,0,90.0*
21,1,0.06400,0.10800,0,0,90.0*
1,1,0.05400,0.02700,0.03200*
1,1,0.05400,0.02700,-0.03200*
1,1,0.05400,-0.02700,-0.03200*
1,1,0.05400,-0.02700,0.03200*
%
%ADD53ROUNDEDRECTD53*%
G04:AMPARAMS|DCode=54|XSize=58mil|YSize=108mil|CornerRadius=10.25mil|HoleSize=0mil|Usage=FLASHONLY|Rotation=90.000|XOffset=0mil|YOffset=0mil|HoleType=Round|Shape=RoundedRectangle|*
%AMROUNDEDRECTD54*
21,1,0.05800,0.08750,0,0,90.0*
21,1,0.03750,0.10800,0,0,90.0*
1,1,0.02050,0.04375,0.01875*
1,1,0.02050,0.04375,-0.01875*
1,1,0.02050,-0.04375,-0.01875*
1,1,0.02050,-0.04375,0.01875*
%
%ADD54ROUNDEDRECTD54*%
D37*
X268323Y81496D02*
D03*
X275803D02*
D03*
X275772Y87795D02*
D03*
X268291D02*
D03*
X275772Y66929D02*
D03*
X268291D02*
D03*
X227614Y102520D02*
D03*
X235094D02*
D03*
X268323Y74410D02*
D03*
X275803D02*
D03*
D40*
X66181Y253685D02*
D03*
Y246205D02*
D03*
X64110Y81866D02*
D03*
Y89346D02*
D03*
X64236Y106638D02*
D03*
Y99158D02*
D03*
Y126323D02*
D03*
Y118842D02*
D03*
Y145614D02*
D03*
Y138134D02*
D03*
Y164118D02*
D03*
Y156638D02*
D03*
Y204276D02*
D03*
Y196795D02*
D03*
Y184197D02*
D03*
Y176716D02*
D03*
Y71811D02*
D03*
Y64331D02*
D03*
X70803Y81866D02*
D03*
Y89346D02*
D03*
X70929Y106638D02*
D03*
Y99158D02*
D03*
Y126323D02*
D03*
Y118842D02*
D03*
Y145614D02*
D03*
Y138134D02*
D03*
Y164118D02*
D03*
Y156638D02*
D03*
Y204276D02*
D03*
Y196795D02*
D03*
Y184197D02*
D03*
Y176716D02*
D03*
Y71811D02*
D03*
Y64331D02*
D03*
X85102Y89315D02*
D03*
Y81835D02*
D03*
X84976Y99189D02*
D03*
Y106669D02*
D03*
Y118874D02*
D03*
Y126354D02*
D03*
Y138165D02*
D03*
Y145646D02*
D03*
Y156669D02*
D03*
Y164150D02*
D03*
Y196827D02*
D03*
Y204307D02*
D03*
Y176748D02*
D03*
Y184228D02*
D03*
X120535Y74173D02*
D03*
Y66693D02*
D03*
Y94827D02*
D03*
Y87347D02*
D03*
Y115299D02*
D03*
Y107819D02*
D03*
Y136559D02*
D03*
Y129079D02*
D03*
X120142Y157032D02*
D03*
Y149551D02*
D03*
X119748Y199945D02*
D03*
Y192465D02*
D03*
Y178291D02*
D03*
Y170811D02*
D03*
X127622Y199945D02*
D03*
Y192465D02*
D03*
Y178291D02*
D03*
Y170811D02*
D03*
Y157032D02*
D03*
Y149551D02*
D03*
X128016Y74173D02*
D03*
Y66693D02*
D03*
Y115299D02*
D03*
Y107819D02*
D03*
Y136559D02*
D03*
Y129079D02*
D03*
Y94827D02*
D03*
Y87347D02*
D03*
X141669Y66724D02*
D03*
Y74205D02*
D03*
Y107850D02*
D03*
Y115331D02*
D03*
Y149583D02*
D03*
Y157063D02*
D03*
Y192496D02*
D03*
Y199976D02*
D03*
Y129110D02*
D03*
Y136591D02*
D03*
Y87378D02*
D03*
Y94858D02*
D03*
Y170843D02*
D03*
Y178323D02*
D03*
D42*
X135394Y290354D02*
D03*
X171653Y266299D02*
D03*
X265866Y300157D02*
D03*
X207598Y299764D02*
D03*
X183189D02*
D03*
X231732Y300157D02*
D03*
X67126Y296063D02*
D03*
D43*
X145394Y290354D02*
D03*
X155394D02*
D03*
X165394D02*
D03*
X281653Y266299D02*
D03*
X271654D02*
D03*
X261653D02*
D03*
X251654D02*
D03*
X241653D02*
D03*
X231653D02*
D03*
X221654D02*
D03*
X211653D02*
D03*
X201654D02*
D03*
X191654D02*
D03*
X181653D02*
D03*
X220669Y102461D02*
D03*
X210669D02*
D03*
X220669Y112461D02*
D03*
X210669D02*
D03*
X220669Y122461D02*
D03*
X210669D02*
D03*
X220669Y132461D02*
D03*
X210669D02*
D03*
X220669Y142461D02*
D03*
X210669D02*
D03*
X220669Y152461D02*
D03*
X210669D02*
D03*
X220669Y162461D02*
D03*
X210669D02*
D03*
X220669Y172461D02*
D03*
X210669D02*
D03*
X220669Y182461D02*
D03*
X210669D02*
D03*
X220669Y192461D02*
D03*
X210669D02*
D03*
X220669Y202461D02*
D03*
X210669D02*
D03*
X220669Y212461D02*
D03*
X210669D02*
D03*
X220669Y222461D02*
D03*
X-14724Y102520D02*
D03*
X-4724Y112520D02*
D03*
X-14724D02*
D03*
X-4724Y122520D02*
D03*
X-14724D02*
D03*
X-4724Y132520D02*
D03*
X-14724D02*
D03*
X-4724Y142520D02*
D03*
X-14724D02*
D03*
X-4724Y152520D02*
D03*
X-14724D02*
D03*
X-4724Y162520D02*
D03*
X-14724D02*
D03*
X-4724Y172520D02*
D03*
X-14724D02*
D03*
X-4724Y182520D02*
D03*
X-14724D02*
D03*
X-4724Y192520D02*
D03*
X-14724D02*
D03*
X-4724Y202520D02*
D03*
X-14724D02*
D03*
X-4724Y212520D02*
D03*
X-14724D02*
D03*
X-4724Y222520D02*
D03*
X-14724D02*
D03*
X-4724Y232520D02*
D03*
X-14724D02*
D03*
X-4724Y242520D02*
D03*
X-14724D02*
D03*
X275866Y300157D02*
D03*
X217598Y299764D02*
D03*
X193189D02*
D03*
X251732Y300157D02*
D03*
X241732D02*
D03*
X37126Y296063D02*
D03*
X47126D02*
D03*
X57126D02*
D03*
D44*
X241968Y203051D02*
D03*
X306929D02*
D03*
Y193701D02*
D03*
X241968D02*
D03*
Y45669D02*
D03*
X306929D02*
D03*
D45*
X22677Y241752D02*
D03*
Y13386D02*
D03*
X215591D02*
D03*
Y241752D02*
D03*
X300630Y15748D02*
D03*
Y298752D02*
D03*
D46*
X210669Y222461D02*
D03*
X-4724Y102520D02*
D03*
D47*
X66181Y263937D02*
D03*
X56339D02*
D03*
X48465D02*
D03*
X38622D02*
D03*
D48*
X78268Y274567D02*
D03*
X26535D02*
D03*
D49*
X40354Y303740D02*
D03*
X48228D02*
D03*
X56102D02*
D03*
D50*
X63976D02*
D03*
D51*
X254016Y228228D02*
D03*
D52*
X264016D02*
D03*
X274016D02*
D03*
X284016D02*
D03*
X294016D02*
D03*
Y238228D02*
D03*
X284016D02*
D03*
X274016D02*
D03*
X264016D02*
D03*
X254016D02*
D03*
D53*
X223425Y62795D02*
D03*
X205709D02*
D03*
D54*
X223425Y59795D02*
D03*
Y65795D02*
D03*
X205709D02*
D03*
Y59795D02*
D03*
M02*
